<?xml version="1.0" encoding="UTF-8"?>
<svg xmlns="http://www.w3.org/2000/svg" xmlns:xlink="http://www.w3.org/1999/xlink" version="1.2" >
<font id="Denson Round">
<font-face  font-family="Denson" units-per-em="1024" ascent="975" descent="-300" font-style="normal" font-weight="400" font-stretch="normal" cap-height="999" x-height="488" underline-position="-125" underline-thickness="50" />
<missing-glyph  horiz-adv-x="100" d="" />
<glyph glyph-name="NULL" d="" />
<glyph glyph-name="CR" unicode="&#xd;" horiz-adv-x="256" d="" />
<glyph glyph-name="space" unicode="&#x20;" horiz-adv-x="250" d="" />
<glyph glyph-name="exclam" unicode="&#x21;" horiz-adv-x="186" d="M93 0 C117.287 0 137 19.7133 137 44 L137 45 C137 69.2867 117.287 89 93 89 C68.7133 89 49 69.2867 49 45 L49 44 C49 19.7133 68.7133 0 93 0 L93 0 Z M45 702 L45 444.545 C45 444.176 45.6144 435.87 45.6687 435.505 L79.2343 209.869 C80.1983 203.389 86.4485 198 93 198 C99.5515 198 105.802 203.389 106.766 209.869 L140.331 435.505 C140.386 435.87 141 444.176 141 444.545 L141 702 C141 728.495 119.495 750 93 750 C66.5054 750 45 728.495 45 702 L45 702 Z " />
<glyph glyph-name="quotedbl" unicode="&#x22;" horiz-adv-x="356" d="M212 709 L212 674.549 C212 673.261 213.982 659.015 214.334 657.776 L227.676 610.759 C230.503 600.798 242.145 592 252.5 592 C262.817 592 274.617 600.802 277.557 610.691 L291.452 657.431 C291.853 658.779 294 673.533 294 674.94 L294 709 C294 731.631 275.631 750 253 750 C230.369 750 212 731.631 212 709 L212 709 Z M79 709.5 L79 674.549 C79 673.261 80.9822 659.015 81.3339 657.776 L94.6764 610.759 C97.5033 600.798 109.145 592 119.5 592 C129.855 592 141.497 600.798 144.324 610.759 L157.666 657.776 C158.018 659.015 160 673.261 160 674.549 L160 709.5 C160 731.855 141.855 750 119.5 750 C97.1452 750 79 731.855 79 709.5 L79 709.5 Z " />
<glyph glyph-name="numbersign" unicode="&#x23;" horiz-adv-x="704" d="M475.461 706.35 L462.815 606.705 C459.083 577.297 431.508 553 401.864 553 L372.73 553 C334.547 553 306.972 584.296 311.779 622.175 L322.461 706.35 C325.494 730.252 308.093 750 284 750 C259.907 750 237.494 730.252 234.461 706.35 L221.815 606.705 C218.083 577.297 190.508 553 160.864 553 L105.377 553 C87.1616 553 69.7287 538.009 67 520 C64.2713 501.991 77.1616 487 95.3766 487 L136.093 487 C174.36 487 201.938 455.622 197.024 417.672 L183.933 316.552 C180.138 287.237 152.56 263 123.002 263 L60.3766 263 C42.1616 263 24.7287 248.009 22 230 C19.2713 211.991 32.1616 197 50.3766 197 L98.2703 197 C136.453 197 164.028 165.704 159.221 127.825 L148.539 43.6499 C145.506 19.7482 162.907 0 187 0 C211.093 0 233.506 19.7482 236.539 43.6499 L249.185 143.295 C252.917 172.703 280.492 197 310.136 197 L339.27 197 C377.453 197 405.028 165.704 400.221 127.825 L389.539 43.6499 C386.506 19.7482 403.907 0 428 0 C452.093 0 474.506 19.7482 477.539 43.6499 L490.185 143.295 C493.917 172.703 521.492 197 551.136 197 L595.623 197 C613.838 197 631.271 211.991 634 230 C636.729 248.009 623.838 263 605.623 263 L572.5 263 C536.098 263 509.864 292.849 514.538 328.95 L528.067 433.448 C531.862 462.763 559.44 487 588.998 487 L640.623 487 C658.838 487 676.271 501.991 679 520 C681.729 538.009 668.838 553 650.623 553 L613.73 553 C575.547 553 547.972 584.296 552.779 622.175 L563.461 706.35 C566.494 730.252 549.093 750 525 750 C500.907 750 478.494 730.252 475.461 706.35 L475.461 706.35 Z M347.998 487 L377.093 487 C415.36 487 442.938 455.622 438.024 417.672 L424.933 316.552 C421.138 287.237 393.56 263 364.002 263 L334.907 263 C296.64 263 269.062 294.378 273.976 332.328 L287.067 433.448 C290.862 462.763 318.44 487 347.998 487 L347.998 487 Z " />
<glyph glyph-name="dollar" unicode="&#x24;" horiz-adv-x="588" d="M319 798.995 L319 767.548 C319 761.928 314.086 757.471 308.478 757.816 C293.283 758.751 276.311 758.843 259.74 758.402 C253.214 758.228 248 763.482 248 770.01 L248 797.5 C248 812.127 236.127 824 221.5 824 C206.873 824 195 812.127 195 797.5 L195 789 C195 772.178 180.217 752.224 163.883 748.203 C76.97 726.81 47 668.4 47 546 C47 448.25 65.0625 403.242 146.019 372.902 C166.63 365.177 195 332.135 195 310.124 L195 155.829 C195 150.753 190.019 147.955 186.957 152.003 C173.188 170.208 159.748 193.578 145.243 223.976 C142.835 229.021 136.127 229.557 131.556 226.34 C117.704 216.59 103.852 206.963 90 198 L39 162 C41 158 43 155 44 151 C49.25 153.625 72.875 62.0781 155.74 18.3828 C169.002 11.3899 195 -21.0077 195 -36 L195 -48.5 C195 -63.1272 206.873 -75 221.5 -75 C236.127 -75 248 -63.1272 248 -48.5 L248 -16.5475 C248 -10.8502 252.71 -6.45541 258.391 -6.8897 C273.255 -8.02601 289.421 -8.70343 306.58 -8.92196 C313.663 -9.01217 319 -14.9158 319 -22 L319 -48.5 C319 -63.1272 330.873 -75 345.5 -75 C360.127 -75 372 -63.1272 372 -48.5 L372 -41 C372 -23.5103 386.625 -6.18712 403.972 -3.95308 C527.331 11.9344 553 70.325 553 210 C553 326.375 530.031 373.844 423.131 406.67 C400.228 413.703 372 445.186 372 469.144 L372 608.5 C372 614.153 376.798 617.377 381.148 613.767 C395.114 602.179 410.265 587.197 427.83 567.897 C435.576 559.387 449.232 558.543 457.765 566.264 L523.104 625.38 C524.701 626.825 524.879 629.345 523.5 631 L521 634 C518.45 631.45 474.717 694.648 408.226 730.86 C394.517 738.326 371 770.89 371 786.5 L371 799.995 C371 814.346 359.349 825.776 345 825.5 C330.651 825.224 319 813.346 319 798.995 L319 798.995 Z M306.103 433.344 C287.654 436.938 268.542 440.531 252.854 444.125 C247.336 445.389 245 450.648 245 456.308 L245 642.99 C245 650.365 249.729 656.224 257.103 656.311 C274.713 656.518 291.628 655.559 306.875 652.458 C313.139 651.184 317.021 645.473 317.05 639.08 L317.942 443.747 C317.973 436.882 312.842 432.031 306.103 433.344 L306.103 433.344 Z M172.334 472.715 C145.806 490.866 139 515.925 139 558 C139 600.075 148.529 625.815 173.763 640.274 C184.567 646.464 192 640.05 192 627.598 L192 485.505 C192 472.281 183.247 465.247 172.334 472.715 L172.334 472.715 Z M281 341.5 C300.555 337.969 317 318.289 317 298.418 L317 111 C317 103.069 312.162 96.9489 304.234 97.1579 C286.024 97.638 270.03 99.2849 255.602 103.074 C249.661 104.634 245.982 110.452 245.956 116.595 L245.151 311.418 C245.069 331.274 261.46 345.028 281 341.5 L281 341.5 Z M408.392 308.328 C450.12 288.36 461 260.2 461 209 C461 152.2 450.76 121.64 408.776 107.592 C385.739 99.8838 371 112.923 371 137.216 L371 284.02 C371 306.616 388.009 318.082 408.392 308.328 L408.392 308.328 Z " />
<glyph glyph-name="percent" unicode="&#x25;" horiz-adv-x="756" d="M578 47 C515 47 503 69 503 141 C503 213 515 235 578 235 C641 235 653 213 653 141 C653 69 641 47 578 47 L578 47 Z M578 -9 C680 -9 699 26 699 141 C699 256 680 291 578 291 C475 291 456 256 456 141 C456 26 475 -9 578 -9 L578 -9 Z M178 515 C115 515 103 537 103 609 C103 681 115 703 178 703 C241 703 253 681 253 609 C253 537 241 515 178 515 L178 515 Z M178 459 C281 459 300 494 300 609 C300 724 281 759 178 759 C76 759 57 724 57 609 C57 494 76 459 178 459 L178 459 Z M174 0 C180.788 0 191.446 6.33512 194.69 12.2981 L589.31 737.702 C592.554 743.665 588.788 750 582 750 C575.212 750 564.554 743.665 561.31 737.702 L166.69 12.2981 C163.446 6.33512 167.212 0 174 0 L174 0 Z " />
<glyph glyph-name="ampersand" unicode="&#x26;" horiz-adv-x="707" d="M645.273 13.1026 L634.872 79.9689 C634.033 85.3594 625.837 89.988 620.426 89.2944 C597.025 86.2947 560.562 89.4711 541.904 93.1074 C537.167 94.0307 536.206 99.3429 538.216 103.731 C559.986 151.267 570.396 214.419 572.006 297.283 C572.525 324.009 551.599 350.837 525.589 357.005 L517.338 358.961 C495.337 364.178 475.558 348.112 475.294 325.503 C474.671 272.345 470.084 229.723 460.303 196.099 C456.898 184.393 445.747 183.96 438.069 193.431 C387.905 255.311 350.729 300.733 324.214 333.423 C316.346 343.124 317.454 355.167 328.261 361.431 C439.9 426.14 476 465.85 476 520 C476 653 438 694 316 694 C186 694 146 655 146 527 C146 458.525 152.806 418.636 172.034 389.365 C177.317 381.323 178.754 367.894 170.5 362.948 C75.7825 306.205 46 259.75 46 179 C46 26 98 -21 269 -21 C350.375 -21 412.609 -11.0469 459.053 12.8789 C465.594 16.2486 487.836 15.8502 493.97 11.7878 C519.616 -5.19375 548.8 -12 595 -12 C612.64 -12 623.577 -8.8248 639.072 -3.0671 C644.816 -0.932728 646.215 7.04768 645.273 13.1026 L645.273 13.1026 Z M246.992 421.924 C229.126 445.302 223 476.9 223 533 C223 588 245 605 317 605 C385 605 406 584 406 515 C406 496.95 373.736 472.357 276.198 417.643 C265.269 411.512 254.601 411.967 246.992 421.924 L246.992 421.924 Z M385.846 100.458 C358.982 88.445 325.075 83 283 83 C167 83 131 108 131 190 C131 239 152 266 220 304 L228.5 308.5 C233.086 310.928 240.086 309.147 243.345 305.109 C271.558 270.144 339.527 187.098 392.988 120.283 C399.534 112.101 395.411 104.736 385.846 100.458 L385.846 100.458 Z " />
<glyph glyph-name="quotesingle" unicode="&#x27;" horiz-adv-x="208" d="M79 709.5 L79 674.549 C79 673.261 80.9822 659.015 81.3339 657.776 L94.6764 610.759 C97.5033 600.798 109.145 592 119.5 592 C129.855 592 141.497 600.798 144.324 610.759 L157.666 657.776 C158.018 659.015 160 673.261 160 674.549 L160 709.5 C160 731.855 141.855 750 119.5 750 C97.1452 750 79 731.855 79 709.5 L79 709.5 Z " />
<glyph glyph-name="parenleft" unicode="&#x28;" horiz-adv-x="355" d="M293.653 784.549 C136.42 650.242 106 574.85 106 335 C106 103.925 136.42 29.7031 293.653 -104.551 C302.791 -112.353 312.432 -107.903 320.5 -99 C328.344 -90.3445 322.491 -72.4792 313.689 -64.8004 C184.27 48.1 159 119.35 159 335 C159 559.2 184.27 631.78 313.688 744.792 C322.483 752.471 328.34 770.349 320.5 779 C312.43 787.905 302.791 792.354 293.653 784.549 L293.653 784.549 Z " />
<glyph glyph-name="parenright" unicode="&#x29;" horiz-adv-x="326" d="M61.3466 -104.549 C218.58 29.7581 249 105.15 249 345 C249 576.075 218.58 650.297 61.3466 784.551 C52.2093 792.353 42.5683 787.903 34.5 779 C26.656 770.345 32.5092 752.479 41.3115 744.8 C170.73 631.9 196 560.65 196 345 C196 120.8 170.73 48.22 41.3115 -64.792 C32.5171 -72.4715 26.6597 -90.3487 34.5 -99 C42.5699 -107.905 52.209 -112.354 61.3466 -104.549 L61.3466 -104.549 Z " />
<glyph glyph-name="asterisk" unicode="&#x2a;" horiz-adv-x="378" d="M300.771 668.329 L273.792 657.722 C244.81 646.327 217.745 665.907 219.5 697 L221.084 725.054 C222.14 743.761 207.737 759 189 759 C170.263 759 155.867 743.761 156.932 725.055 L158.5 697.5 C160.256 666.642 133.419 647.184 104.636 658.447 L78.8057 668.554 C61.282 675.411 42.2851 666.406 36.5 648.5 C30.7139 630.591 40.8382 612.135 59.051 607.39 L85.8314 600.414 C115.568 592.667 125.849 561.372 106.5 537.5 L89.1572 516.103 C77.4902 501.709 80.111 481.029 95 470 C109.874 458.982 130.203 462.666 140.265 478.203 L156 502.5 C173.092 528.892 206.795 528.819 223.773 502.354 L239.749 477.451 C249.803 461.778 270.238 457.982 285.25 469 C300.272 480.025 302.912 500.754 291.133 515.192 L273.75 536.5 C254.303 560.338 264.551 591.698 294.321 599.453 L320.488 606.27 C338.96 611.082 349.287 629.811 343.5 648 C337.717 666.175 318.521 675.307 300.771 668.329 L300.771 668.329 Z M122 449 L122 449 L122 449 Z M190 597 L190 597 L190 597 Z " />
<glyph glyph-name="plus" unicode="&#x2b;" horiz-adv-x="590" d="M268 173.56 L268 27 C268 12.0968 280.097 0 295 0 C309.903 0 322 12.0968 322 27 L322 173.56 C322 207.473 349.527 235 383.44 235 L540 235 C553.799 235 565 246.201 565 260 C565 273.799 553.799 285 540 285 L383.44 285 C349.527 285 322 312.527 322 346.44 L322 493 C322 507.903 309.903 520 295 520 C280.097 520 268 507.903 268 493 L268 346.44 C268 312.527 240.473 285 206.56 285 L50 285 C36.2007 285 25 273.799 25 260 C25 246.201 36.2007 235 50 235 L206.56 235 C240.473 235 268 207.473 268 173.56 L268 173.56 Z " />
<glyph glyph-name="comma" unicode="&#x2c;" horiz-adv-x="189" d="M50 44.5 L50 18 C50 8.06454 58.0645 0 68 0 C78.2049 0 86.0833 -8.16803 85.8066 -18.3691 C85.0156 -47.5313 81.32 -56.475 66.416 -59.04 C58.9628 -60.3227 50 -68.9372 50 -76.5 L50 -81.5 C50 -93.7862 60.1395 -103.115 72.418 -102.681 C133.33 -100.53 139 -85.5 139 0 L139 44.5 C139 69.0627 119.063 89 94.5 89 C69.9373 89 50 69.0627 50 44.5 L50 44.5 Z " />
<glyph glyph-name="hyphen" unicode="&#x2d;" horiz-adv-x="365" d="M84 229 L281 229 C299.767 229 315 244.233 315 263 C315 281.767 299.767 297 281 297 L84 297 C65.233 297 50 281.767 50 263 C50 244.233 65.233 229 84 229 L84 229 Z " />
<glyph glyph-name="period" unicode="&#x2e;" horiz-adv-x="188" d="M94.5 0 C119.063 0 139 19.9373 139 44.5 C139 69.0627 119.063 89 94.5 89 C69.9373 89 50 69.0627 50 44.5 C50 19.9373 69.9373 0 94.5 0 L94.5 0 Z " />
<glyph glyph-name="slash" unicode="&#x2f;" horiz-adv-x="292" d="M18 0 C27.4028 0 38.7772 8.13629 41.8146 17.035 L286.185 732.965 C289.223 741.864 283.403 750 274 750 C264.597 750 253.223 741.864 250.185 732.965 L5.8146 17.035 C2.77719 8.13629 8.5972 0 18 0 L18 0 Z " />
<glyph glyph-name="zero" unicode="0" horiz-adv-x="700" d="M156 375 C156 606 195 662 353 662 C511 662 550 606 550 375 C550 133 519 88 353 88 C187 88 156 133 156 375 L156 375 Z M61 375 C61 52 107 -9 353 -9 C599 -9 645 52 645 375 C645 683 588 759 353 759 C118 759 61 683 61 375 L61 375 Z " />
<glyph glyph-name="one" unicode="1" horiz-adv-x="402" d="M302 45.5 L302 714.5 C302 734.095 286.095 750 266.5 750 L255.845 750 C246.313 750 219.991 739.356 213.138 732.731 L68.7336 593.113 C61.2997 585.925 50 559.282 50 548.942 L50 502.5 C50 474.027 81.3256 460.936 101.585 480.944 L130.5 509.5 C162.115 540.722 211 520.294 211 475.861 L211 45.5 C211 20.3854 231.385 0 256.5 0 C281.615 0 302 20.3854 302 45.5 L302 45.5 Z " />
<glyph glyph-name="two" unicode="2" horiz-adv-x="588" d="M108.44 0 L509 0 C533.287 0 553 19.7133 553 44 C553 68.2867 533.287 88 509 88 L224.271 88 C194.301 88 177.186 101.765 186.414 130.278 C205.246 188.474 253.55 213.575 374 287 C499 364 538 418 538 516 C538 702 481 759 296 759 C110 759 53 706 53 535 C53 478.075 60.4869 444.291 82.1988 409.504 C91.1505 395.161 107.727 391.91 122.82 399.528 L183.621 430.218 C193.392 435.15 196.595 447.879 190.512 456.979 C173.445 482.509 168 503.65 168 535 C168 651 202 686 311 686 C417 686 450 651 450 539 C450 466 399 412 233 310 C79.1 215.5 51.56 209.29 47.591 56.632 C46.6867 21.8493 73.6455 0 108.44 0 L108.44 0 Z " />
<glyph glyph-name="three" unicode="3" horiz-adv-x="598" d="M56.026 203.58 C64.5869 42.3375 128.25 -9 304 -9 C494 -9 553 42 553 209 C553 310.15 525.545 362.17 444.228 393.31 C433.519 397.411 430.405 417.563 441.049 421.83 C502.901 446.623 524 487.275 524 564 C524 712 473 758 308 758 C158.6 758 102.35 716.69 92.594 585.956 C90.5859 559.047 109.516 539 136.5 539 C157.73 539 181.568 561.158 184.852 582.133 C194.11 641.262 227.275 661 304 661 C408 661 440 636 440 556 C440 465 407 437 299 437 L254.5 437 C234.905 437 219 421.095 219 401.5 L219 396 C219 379.441 232.441 366 249 366 L279 366 C414 366 456 330 456 212 C456 122 420 95 304 95 C203.7 95 162.645 120.287 152.585 197.884 C149.652 220.509 125.313 244.26 102.5 244.5 C74.9078 244.79 54.563 231.135 56.026 203.58 L56.026 203.58 Z " />
<glyph glyph-name="four" unicode="4" horiz-adv-x="595" d="M25 326.229 L25 304 C25 278.609 45.6094 258 71 258 L307.56 258 C341.473 258 369 230.473 369 196.56 L369 45.5 C369 20.3854 389.385 0 414.5 0 C439.615 0 460 20.3854 460 45.5 L460 200.5 C460 232.238 485.762 258 517.5 258 L522 258 C551.254 258 575 281.746 575 311 C575 340.254 551.254 364 522 364 L517.5 364 C485.762 364 460 389.762 460 421.5 L460 686.428 C460 692.223 466.592 709.22 470.5 713.5 L473.637 716.936 C477.276 720.921 475.689 726.517 470.5 728 L469.134 728.39 C464.287 729.775 460 735.458 460 740.5 C460 745.744 455.744 750 450.5 750 L416.161 750 C405.073 750 378.182 738.113 370.72 729.912 L40.9986 367.581 C35.0552 361.05 25 335.06 25 326.229 L25 326.229 Z M223.419 445.005 L355.612 588.896 C361.987 595.836 372.986 590.872 372 581.5 L369.338 556.207 C369.318 556.022 369 549.962 369 549.775 L369 425.44 C369 391.527 341.473 364 307.56 364 L259 364 C214.288 364 193.17 412.078 223.419 445.005 L223.419 445.005 Z " />
<glyph glyph-name="five" unicode="5" horiz-adv-x="595" d="M135.382 338.201 L163.588 331.461 C179.55 327.647 211.451 336.821 222.956 348.525 C265.248 391.55 292.15 406 327 406 C426 406 456 366 456 235 C456 129 421 96 306 96 C204.85 96 163.668 121.287 153.589 198.884 C150.647 221.535 126.341 245 103.5 245 C75.8905 245 55.5617 231.151 57.0264 203.58 C65.5925 42.3375 129.325 -9 306 -9 C496 -9 555 48 555 235 C555 423 506 481 345 481 C297.975 481 265.243 470.791 228.274 440.826 C218.941 433.261 205.224 440.541 205.905 452.535 L215.445 620.428 C217.407 654.959 247.004 680.85 281.489 678.203 L473 663.5 L514.489 662.255 C519.14 662.116 523.315 667.294 523.632 671.937 C524.421 683.521 525.211 692.579 526 706 L527.5 728 C528.326 740.115 519.092 750 506.949 750 L162.737 750 C130.349 750 102.815 723.678 101.359 691.322 L88.2824 400.721 C87.0452 373.226 108.613 344.597 135.382 338.201 L135.382 338.201 Z " />
<glyph glyph-name="six" unicode="6" horiz-adv-x="612" d="M528.196 677.529 C475.857 738.581 424.625 759 338 759 C108 759 65 668 65 371 C65 51 107 -9 330 -9 C521 -9 580 51 580 245 C580 437 526 496 349 496 C259.7 496 215.525 466.217 167.605 369.785 C165.844 366.243 160 367.045 160 371 L160 388 C160 601 188 667 338 667 C384.2 667 414.065 652.707 450.056 608.398 C463.593 591.732 491.598 587.399 509.619 599.071 L518 604.5 C544.782 621.848 548.965 653.303 528.196 677.529 L528.196 677.529 Z M326 399 C445 399 481 363 481 245 C481 125 446 88 330 88 C231.2 88 187.453 110.563 169.607 207.13 C168.418 213.564 173.425 236.657 176.264 242.552 C233.801 361.998 270.4 399 325.5 399 L326 399 Z " />
<glyph glyph-name="seven" unicode="7" horiz-adv-x="490" d="M30 706 C30 681.713 49.7133 662 74 662 L230.84 662 C285.513 662 308.776 594.051 273.08 552.64 C166.28 428.74 148.918 334.09 147.164 57.7525 C146.985 29.424 169.671 0 198 0 C225.973 0 248.987 29.9231 249.164 57.895 C251.324 399.544 277.185 463.97 464.459 646.9 C471.767 654.039 480 677.84 480 688.056 L480 706 C480 730.287 460.287 750 436 750 L74 750 C49.7133 750 30 730.287 30 706 L30 706 Z " />
<glyph glyph-name="eight" unicode="8" horiz-adv-x="629" d="M179 556 C179 645 212 662 321 662 C439 662 461 637 461 556 C461 465 428 453 321 453 C196 453 179 477 179 556 L179 556 Z M95 564 C95 492.225 102.487 446.314 138.237 418.967 C145.284 413.576 143.362 395.796 135.637 391.429 C85.785 363.247 67 308.55 67 204 C67 42 98 -8 321 -8 C515 -8 574 17 574 204 C574 306.6 562.66 364.65 499.885 394.188 C492.476 397.674 494.034 411.816 500.466 416.884 C533.068 442.57 546 487.45 546 565 C546 714 510 760 322 760 C149 760 95.5 728.5 95.5 564.5 L95 564 Z M165 211 C165 332 202 348 322 348 C459 348 478 316 478 212 C478 104 441 89 322 89 C184 89 165 118 165 211 L165 211 Z " />
<glyph glyph-name="nine" unicode="9" horiz-adv-x="612" d="M101.804 72.4708 C154.142 11.4187 205.375 -9 292 -9 C522 -9 565 82 565 379 C565 699 523 759 300 759 C109 759 50 699 50 505 C50 313 104 254 281 254 C370.3 254 414.475 283.783 462.395 380.215 C464.156 383.757 470 382.955 470 379 L470 362 C470 149 442 83 292 83 C245.8 83 215.935 97.2931 179.944 141.602 C166.407 158.268 138.402 162.601 120.381 150.929 L112 145.5 C85.2175 128.152 81.0354 96.697 101.804 72.4708 L101.804 72.4708 Z M304 351 C185 351 149 387 149 505 C149 625 184 662 300 662 C398.8 662 442.548 639.438 460.393 542.87 C461.582 536.436 456.575 513.343 453.735 507.448 C396.199 388.003 359.6 351 304.5 351 L304 351 Z " />
<glyph glyph-name="colon" unicode="&#x3a;" horiz-adv-x="188" d="M94.5 431 C119.063 431 139 450.937 139 475.5 C139 500.063 119.063 520 94.5 520 C69.9373 520 50 500.063 50 475.5 C50 450.937 69.9373 431 94.5 431 L94.5 431 Z M94.5 0 C119.063 0 139 19.9373 139 44.5 C139 69.0627 119.063 89 94.5 89 C69.9373 89 50 69.0627 50 44.5 C50 19.9373 69.9373 0 94.5 0 L94.5 0 Z " />
<glyph glyph-name="semicolon" unicode="&#x3b;" horiz-adv-x="188" d="M94.5 431 C119.063 431 139 450.937 139 475.5 C139 500.063 119.063 520 94.5 520 C69.9373 520 50 500.063 50 475.5 C50 450.937 69.9373 431 94.5 431 L94.5 431 Z M50 44.5 L50 18 C50 8.06454 58.0645 0 68 0 C78.2049 0 86.0833 -8.16803 85.8066 -18.3691 C85.0156 -47.5313 81.32 -56.475 66.416 -59.04 C58.9628 -60.3227 50 -68.9372 50 -76.5 L50 -81.5 C50 -93.7862 60.1395 -103.115 72.418 -102.681 C133.33 -100.53 139 -85.5 139 0 L139 44.5 C139 69.0627 119.063 89 94.5 89 C69.9373 89 50 69.0627 50 44.5 L50 44.5 Z " />
<glyph glyph-name="less" unicode="&#x3c;" horiz-adv-x="555" d="M463.854 473.365 L72.4819 302.031 C58.586 295.948 45 275.169 45 260 C45 244.831 58.586 224.052 72.4819 217.969 L463.854 46.6351 C479.603 39.7407 495 49.8082 495 67 C495 84.3058 479.606 107.458 463.647 114.153 L251.048 203.344 C197.864 225.656 197.864 294.344 251.048 316.656 L463.647 405.847 C479.606 412.542 495 435.694 495 453 C495 470.192 479.603 480.259 463.854 473.365 L463.854 473.365 Z " />
<glyph glyph-name="equal" unicode="&#x3d;" horiz-adv-x="604" d="M39 165 C39 151.201 50.2007 140 64 140 L529 140 C542.799 140 554 151.201 554 165 C554 178.799 542.799 190 529 190 L64 190 C50.2007 190 39 178.799 39 165 L39 165 Z M39 365 C39 351.201 50.2007 340 64 340 L529 340 C542.799 340 554 351.201 554 365 C554 378.799 542.799 390 529 390 L64 390 C50.2007 390 39 378.799 39 365 L39 365 Z " />
<glyph glyph-name="greater" unicode="&#x3e;" horiz-adv-x="555" d="M303.952 203.344 L91.3527 114.153 C75.3944 107.458 60 84.3058 60 67 C60 49.8082 75.3974 39.7407 91.1462 46.6351 L482.518 217.969 C496.414 224.052 510 244.831 510 260 C510 275.169 496.414 295.948 482.518 302.031 L91.1462 473.365 C75.3974 480.259 60 470.192 60 453 C60 435.694 75.3944 412.542 91.3527 405.847 L303.952 316.656 C357.136 294.344 357.136 225.656 303.952 203.344 L303.952 203.344 Z " />
<glyph glyph-name="question" unicode="&#x3f;" horiz-adv-x="564" d="M276 0 C300.287 0 320 19.7133 320 44 L320 45 C320 69.2867 300.287 89 276 89 C251.713 89 232 69.2867 232 45 L232 44 C232 19.7133 251.713 0 276 0 L276 0 Z M62.5 551.5 C82.0661 548.28 103.525 565.007 107.355 584.463 C123.844 668.203 170 695 282 695 C394 695 429 662 429 555 C429 472 422 461 347 426 C237.85 375.125 236.509 384.999 236.922 237.182 C236.981 215.715 254.533 198 276 198 C297.55 198 314.951 214.641 314.928 236.191 C314.82 338.17 318.6 332.5 405 373 C505 420 514 435 514 555 C514 711 459 759 282 759 C115.5 759 49.44 720.93 28.416 601.05 C24.2421 577.25 38.6577 555.423 62.5 551.5 L62.5 551.5 Z " />
<glyph glyph-name="at" unicode="&#x40;" horiz-adv-x="1216" d="M982.251 -132.143 C874.05 -202.754 785.25 -225 628 -225 C238 -225 118 -109 118 269 C118 647 237 763 625 763 C989 763 1101 668 1101 357 C1101 119 1064 46 945 46 C831 46 801 84 816 208 C816.017 208.141 816.011 208.394 816.015 208.537 C816.381 221.304 823.45 457.996 845.241 494.335 C845.241 494.335 842.031 494.78 842.031 494.78 L840.71 498.555 C840.71 498.555 837.5 499 837.5 499 L776 499 C771.938 499 768.535 491.738 765.257 479.897 C764.307 476.466 758.732 475.752 756.119 478.171 C726.365 505.722 678.45 510 610 510 C426 510 363 453 341 269 C316 61 366 -3 552 -3 C632.85 -3 687.156 9.93187 723.34 43.6568 C730.473 50.3059 751.782 47.6566 757.077 39.467 C782.609 -0.02625 832.15 -15 913 -15 C1103 -15 1161 72 1161 357 C1161 720 1035 832 625 832 C191 832 58 700 58 269 C58 -162 192 -294 628 -294 C795.425 -294 891.833 -268.331 1015.36 -187.71 C1030.77 -177.658 1038.03 -155.581 1027.5 -140.5 C1017.64 -126.372 996.681 -122.727 982.251 -132.143 L982.251 -132.143 Z M745.706 319.366 C741.951 259.334 741 208 741 208 C741 208 744.923 234.863 740.116 201.293 C727.848 115.618 684.875 89 563 89 C439 89 406 131 423 269 C437 383 478 418 598 418 C691.6 418 736.718 409.444 745.404 330.234 C745.458 329.738 745.737 319.863 745.706 319.366 L745.706 319.366 Z " />
<glyph glyph-name="A" unicode="A" horiz-adv-x="718" d="M160 50 L318.483 453.544 C339.996 508.324 411.646 508.184 432.946 453.321 L475.514 343.676 C492.23 300.62 464.426 260 418.239 260 L284.029 260 C262.408 260 234.603 240.98 226.767 220.829 L224.5 215 C215.497 191.85 230.444 170 255.283 170 L500.953 170 C522.587 170 550.391 150.972 558.224 130.806 L589.077 51.3765 C589.092 51.3378 590.661 46.5868 590.673 46.5471 C593.153 38.5 601.348 16.5216 606.527 5.06113 C607.697 2.47259 611.307 0 614.148 0 L697.23 0 C702.749 0 706.05 4.87509 704 10 L700 20 L428.514 709.006 C426.44 714.269 426.431 731.734 428.5 737 C431.326 744.192 426.686 751 418.958 751 L327.577 751 C320.126 751 310.311 744.401 307.5 737.5 L302 724 L294 702 L33 50.5 L24 28 C17 10 14 1 14 1 C14 1 16.8563 1 18.7434 1 L142 1 C143 5 160.5 50.5 160.5 50.5 L160 50 Z " />
<glyph glyph-name="B" unicode="B" horiz-adv-x="694" d="M560.888 429.494 C603.665 452.361 620 490.95 620 552 C620 734 597 750 345 750 L157.44 750 C123.527 750 96 722.473 96 688.56 L96 61.44 C96 27.527 123.527 0 157.44 0 L384 0 C636 0 659 18 659 225 C659 327.375 633.734 382.281 563.105 407.807 C555.482 410.562 553.739 425.672 560.888 429.494 L560.888 429.494 Z M187 511.44 L187 596.56 C187 630.473 214.527 658 248.44 658 L350 658 C511 658 525 649 525 545 C525 472 478 450 325 450 L248.44 450 C214.527 450 187 477.527 187 511.44 L187 511.44 Z M187 153.818 L187 299.56 C187 333.473 214.527 361 248.44 361 L335 361 C507 361 560 332 560 236 C560 105 543 93 350 93 L248.817 92.3792 C214.696 92.1699 187 119.697 187 153.818 L187 153.818 Z " />
<glyph glyph-name="C" unicode="C" horiz-adv-x="722" d="M588.976 178.404 C546.214 110.461 491.95 88 388 88 C214 88 160 177 160 375 C160 573 214 662 388 662 C480.4 662 532.643 639.539 582.912 571.596 C599.537 549.126 637.087 540.533 658.5 558.5 L698.057 591.691 C700.194 593.484 700.855 597.061 699.5 599.5 L697 604 C627 722 553 759 389 759 C139 759 62 639 62 375 C62 111 139 -9 389 -9 C550 -9 626.781 20.8594 680.977 112.064 C695.603 136.679 689.108 166.524 667.071 184.805 L659 191.5 C638.13 208.812 603.42 201.353 588.976 178.404 L588.976 178.404 Z " />
<glyph glyph-name="D" unicode="D" horiz-adv-x="765" d="M350 0 C661 0 710 51 710 375 C710 691 648 750 320 750 L157.44 750 C123.527 750 96 722.473 96 688.56 L96 61.44 C96 27.527 123.527 0 157.44 0 L350 0 L350 0 Z M187 153.44 L187 596.56 C187 630.473 214.527 658 248.44 658 L325 658 C566 658 611 613 611 375 C611 130 575 92 342 92 L248.44 92 C214.527 92 187 119.527 187 153.44 L187 153.44 Z " />
<glyph glyph-name="E" unicode="E" horiz-adv-x="612" d="M513.5 97 L248.44 97 C214.527 97 187 124.527 187 158.44 L187 279.56 C187 313.473 214.527 341 248.44 341 L481 341 C506.391 341 527 361.609 527 387 C527 412.391 506.391 433 481 433 L248.44 433 C214.527 433 187 460.527 187 494.44 L187 591.56 C187 625.473 214.527 653 248.44 653 L498.5 653 C525.271 653 547 674.729 547 701.5 C547 728.271 525.271 750 498.5 750 L157.44 750 C123.527 750 96 722.473 96 688.56 L96 61.44 C96 27.527 123.527 0 157.44 0 L513.5 0 C540.271 0 562 21.7295 562 48.5 C562 75.2705 540.271 97 513.5 97 L513.5 97 Z " />
<glyph glyph-name="F" unicode="F" horiz-adv-x="577" d="M517 387 C517 412.391 496.391 433 471 433 L248.44 433 C214.527 433 187 460.527 187 494.44 L187 591.56 C187 625.473 214.527 653 248.44 653 L498.5 653 C525.271 653 547 674.729 547 701.5 C547 728.271 525.271 750 498.5 750 L157.44 750 C123.527 750 96 722.473 96 688.56 L96 45.5 C96 20.3854 116.385 0 141.5 0 C166.615 0 187 20.3854 187 45.5 L187 279.56 C187 313.473 214.527 341 248.44 341 L471 341 C496.391 341 517 361.609 517 387 L517 387 Z " />
<glyph glyph-name="G" unicode="G" horiz-adv-x="778" d="M438.503 334 L558.56 334 C592.473 334 620 306.473 620 272.56 L620 177.646 C620 163.578 607.257 138.246 595.85 130.013 C551.648 98.115 512.25 88 423 88 C222 88 160 155 160 375 C160 595 222 662 423 662 C507.975 662 557.558 639.539 607.123 571.596 C623.701 548.872 660.952 540.419 682.5 558.5 L722.057 591.691 C724.194 593.484 724.855 597.061 723.5 599.5 L721 604 C651 722 579 759 424 759 C147 759 62 669 62 375 C62 81 147 -9 424 -9 C572 -9 632.726 11.535 713.816 75.5571 C723.94 83.5498 734 107.799 734 120.697 L734 369.56 C734 403.473 706.473 431 672.56 431 L439.503 431 C412.732 431 390.776 409.269 390.5 382.5 C390.224 355.731 411.732 334 438.503 334 L438.503 334 Z " />
<glyph glyph-name="H" unicode="H" horiz-adv-x="741" d="M656 45.5 L656 704.5 C656 729.615 635.615 750 610.5 750 C585.385 750 565 729.615 565 704.5 L565 504.44 C565 470.527 537.473 443 503.56 443 L248.44 443 C214.527 443 187 470.527 187 504.44 L187 704.5 C187 729.615 166.615 750 141.5 750 C116.385 750 96 729.615 96 704.5 L96 45.5 C96 20.3854 116.385 0 141.5 0 C166.615 0 187 20.3854 187 45.5 L187 285.56 C187 319.473 214.527 347 248.44 347 L503.56 347 C537.473 347 565 319.473 565 285.56 L565 45.5 C565 20.3854 585.385 0 610.5 0 C635.615 0 656 20.3854 656 45.5 L656 45.5 Z " />
<glyph glyph-name="I" unicode="I" horiz-adv-x="263" d="M178 45.5 L178 704.5 C178 729.615 157.615 750 132.5 750 C107.385 750 87 729.615 87 704.5 L87 45.5 C87 20.3854 107.385 0 132.5 0 C157.615 0 178 20.3854 178 45.5 L178 45.5 Z " />
<glyph glyph-name="J" unicode="J" horiz-adv-x="528" d="M58 249.5 L58 218 C58 18 81 -9 251 -9 C413 -9 443 45 443 220 L443 704.5 C443 729.615 422.615 750 397.5 750 C372.385 750 352 729.615 352 704.5 L352 220 C352 129 336 101 251 101 C161 101 149 118 149 245 L149 271 C149 285.134 137.314 294.945 123.393 292.498 L89.0241 286.455 C72.1584 283.489 58 266.624 58 249.5 L58 249.5 Z " />
<glyph glyph-name="K" unicode="K" horiz-adv-x="644" d="M622.5 21 L611 42 L607 50 L397.613 433.726 C385.437 456.04 358.5 458.836 342 439.5 L337.276 433.964 C323.245 417.522 319.662 384.028 329.896 364.99 L499.5 49.5 L512.75 24.75 C519.198 12.7061 540.412 0 554.074 0 L610.057 0 C621.649 0 628.068 10.8333 622.5 21 L622.5 21 Z M196.374 270.759 L566.5 701 L587.25 725.5 C595.99 735.819 589.417 750 575.894 750 L475.42 750 C470.16 750 457.862 743.901 454.48 739.873 C441.573 724.501 429.75 710.214 424 702 L293.751 543.723 C256.31 498.225 187 523.076 187 582 L187 704.5 C187 729.615 166.615 750 141.5 750 C116.385 750 96 729.615 96 704.5 L96 308.315 C96 306.383 93.7722 300.454 92.5 299 L91.397 297.739 C90.2002 296.372 90.7526 294.499 92.5 294 C94.3576 293.469 96 291.292 96 289.36 L96 45.5 C96 20.3854 116.385 0 141.5 0 C166.615 0 187 20.3854 187 45.5 L187 266.36 C187 268.292 188.642 269.531 190.5 269 C192.254 268.499 195.184 269.376 196.374 270.759 L196.374 270.759 Z " />
<glyph glyph-name="L" unicode="L" horiz-adv-x="533" d="M454.5 97 L239.44 97 C205.527 97 178 124.527 178 158.44 L178 704.5 C178 729.615 157.615 750 132.5 750 C107.385 750 87 729.615 87 704.5 L87 61.44 C87 27.527 114.527 0 148.44 0 L454.5 0 C481.271 0 503 21.7295 503 48.5 C503 75.2705 481.271 97 454.5 97 L454.5 97 Z " />
<glyph glyph-name="M" unicode="M" horiz-adv-x="888" d="M803 44 L803 688.56 C803 722.473 775.473 750 741.56 750 L688.402 750 C665.131 750 637.368 729.936 630.066 707.841 L505.458 330.84 C486.327 272.958 408.62 272.605 388.964 330.31 L260.18 708.371 C252.771 730.122 225 750 202.022 750 L151.44 750 C117.527 750 90 722.473 90 688.56 L90 57.5 C90 25.7617 115.762 0 147.5 0 C179.238 0 205 25.7617 205 57.5 L205 311.135 C205 366.884 287.887 380.724 306 328 L401.195 50.8982 C403.118 45.2996 403.322 22.6324 401.5 17 C398.612 8.07213 404.484 0 413.868 0 L456.826 0 C479.939 0 507.707 19.9641 515.068 41.8739 L613.571 335.082 C631.4 388.153 715 374.486 715 318.5 L715 44 C715 19.7133 734.713 0 759 0 C783.287 0 803 19.7133 803 44 L803 44 Z " />
<glyph glyph-name="N" unicode="N" horiz-adv-x="727" d="M408.914 358.134 L215.794 704.039 C213.697 707.796 208 729.687 208 733.989 L208 734 C208 742.832 200.832 750 192 750 L148.5 750 C115.658 750 89 723.342 89 690.5 L89 59.5 C89 26.6578 115.658 0 148.5 0 C181.342 0 208 26.6578 208 59.5 L208 299.742 C208 363.272 292.147 385.155 323.096 329.674 L489.423 31.5086 C497.896 16.3202 525.688 0 543.08 0 L580.56 0 C614.473 0 642 27.527 642 61.44 L642 691 C642 723.566 615.566 750 583 750 C550.434 750 524 723.566 524 691 L524 388.085 C524 324.561 439.881 302.669 408.914 358.134 L408.914 358.134 Z " />
<glyph glyph-name="O" unicode="O" horiz-adv-x="814" d="M165 375 C165 584 233 662 413 662 C593 662 660 584 660 375 C660 155 602 88 413 88 C223 88 165 155 165 375 L165 375 Z M66 375 C66 81 148 -9 413 -9 C678 -9 759 81 759 375 C759 654 664 759 413 759 C161 759 66 654 66 375 L66 375 Z " />
<glyph glyph-name="P" unicode="P" horiz-adv-x="624" d="M187 45.5 L187 241.56 C187 275.473 214.527 303 248.44 303 L363 303 C553 303 589 338 589 525 C589 714 553 750 363 750 L157.44 750 C123.527 750 96 722.473 96 688.56 L96 45.5 C96 20.3854 116.385 0 141.5 0 C166.615 0 187 20.3854 187 45.5 L187 45.5 Z M187 456.44 L187 596.56 C187 630.473 214.527 658 248.44 658 L358 658 C476 658 498 637 498 525 C498 416 477 395 368 395 L248.44 395 C214.527 395 187 422.527 187 456.44 L187 456.44 Z " />
<glyph glyph-name="Q" unicode="Q" horiz-adv-x="814" d="M165 375 C165 584 233 662 413 662 C593 662 660 584 660 375 C660 246.425 640.321 170.043 586.716 128.442 C578.038 121.708 567.743 125.166 560.644 133.548 C544.992 152.028 527.998 172.272 509.388 194.554 C501.107 204.469 485.889 206.314 475.92 198.096 L431.51 161.488 C425.12 156.221 424.106 147.02 429.417 140.667 C442.898 124.537 455.858 109.451 468.296 95.4074 C471.016 92.3371 469.635 88.5193 465.55 88.1479 C449.799 86.716 432.615 86 414 86 C224 86 165.5 154 165.5 374 L165 375 Z M67 373 C67 79 149 -11 414 -11 C458.55 -11 497.655 -8.2775 532.438 -2.8325 C540.85 -1.5156 562.522 -7.74463 568.534 -13.7745 C626.053 -71.465 656 -92 656 -92 C656 -92 660.368 -88.3984 672.371 -78.5008 L702.075 -54.0082 C708.093 -49.0464 718.191 -50.7496 712.964 -44.9604 C712.222 -44.1384 699.888 -30.448 670.376 4.024 C658.811 17.5323 660.573 45.3414 673.719 57.3164 C737.266 115.203 761 214.625 761 373 C761 652 666 757 415 757 C163 757 67.5 652 67.5 373 L67 373 Z " />
<glyph glyph-name="R" unicode="R" horiz-adv-x="624" d="M584 50 L468.772 270.853 C456.295 294.768 477.401 328.892 503.216 336.712 C573.36 357.96 590 409.8 590 525 C590 714 554 750 364 750 L158.44 750 C124.527 750 97 722.473 97 688.56 L97 45.5 C97 20.3854 117.385 0 142.5 0 C167.615 0 188 20.3854 188 45.5 L188 261.56 C188 295.473 215.527 323 249.44 323 L299.805 323 C317.996 323 345.81 306.162 354.244 290.043 L488.756 32.9566 C497.19 16.8385 525.004 0 543.195 0 L605.852 0 C608.303 0 609.872 2.06203 608.731 4.23062 C601.569 17.8359 585.386 50 584.5 50 L584 50 Z M188 476.44 L188 596.56 C188 630.473 215.527 658 249.44 658 L359 658 C477 658 499 637 499 525 C499 432 478 415 368 415 L249.44 415 C215.527 415 188 442.527 188 476.44 L188 476.44 Z " />
<glyph glyph-name="S" unicode="S" horiz-adv-x="588" d="M44 151 C109 17 169 -9 317 -9 C516 -9 553 42 553 210 C553 360 514 395 306 432 C167 457 141 476 141 556 C141 631 171 654 267 654 C319.8 654 352.181 643.11 405.696 590.447 C426.593 569.882 463.259 569.33 485 589 L524.104 624.38 C525.701 625.825 525.879 628.345 524.5 630 L522 633 C425 739 373 759 267 759 C98 759 46 709 46 547 C46 408 83 375 282 340 C433 313 462 292 462 207 C462 121 439 95 317 95 C233.15 95 195.881 115.914 144.019 224.475 C141.606 229.526 135.133 229.562 130.556 226.34 C116.704 216.59 102.852 206.963 89 198 L38 162 C38 161 43.5 151 43.5 151 L44 151 Z " />
<glyph glyph-name="T" unicode="T" horiz-adv-x="595" d="M343 45.5 L343 591.56 C343 625.473 370.527 653 404.44 653 L536.5 653 C563.271 653 585 674.729 585 701.5 C585 728.271 563.271 750 536.5 750 L58.5 750 C31.7295 750 10 728.271 10 701.5 C10 674.729 31.7295 653 58.5 653 L190.56 653 C224.473 653 252 625.473 252 591.56 L252 45.5 C252 20.3854 272.385 0 297.5 0 C322.615 0 343 20.3854 343 45.5 L343 45.5 Z " />
<glyph glyph-name="U" unicode="U" horiz-adv-x="701" d="M89 291 C89 39 131 -9 355 -9 C579 -9 621 38 621 290 L621 690.5 C621 723.342 594.342 750 561.5 750 C528.658 750 502 723.342 502 690.5 L502 311 C502 134 479 101 355 101 C208 101 180 134 180 307 L180 704.5 C180 729.615 159.615 750 134.5 750 C109.385 750 89 729.615 89 704.5 L89 291 L89 291 Z " />
<glyph glyph-name="V" unicode="V" horiz-adv-x="601" d="M38 700 L247.711 49.4095 C249.374 44.25 249.572 21.6879 248 16.5 C245.359 7.7839 251.133 0 260.241 0 L307.038 0 C330.693 0 358.445 20.3089 365.6 42.8563 L570.642 688.998 C580.827 721.092 559.671 750 526 750 L487.721 750 C474.06 750 458.718 738.396 455 725.25 L448 700.5 L352.622 373.533 C335.183 313.751 253.076 313.231 234.881 372.788 L134.745 700.562 C134.741 700.573 133.426 705.28 133.423 705.292 C130.677 715.327 120 749 120 749 C120 749 114.711 749 98.4942 749 L28.8007 749 C25.2129 749 22.9449 745.929 24 742.5 L26 736 C30 725 38 699.5 38 699.5 L38 700 Z " />
<glyph glyph-name="W" unicode="W" horiz-adv-x="791" d="M643 700 L599.5 471 C589.545 418.593 513.309 416.608 500.64 468.426 L448.641 681.109 C447.697 684.97 447.801 707.004 448.782 710.856 L452 723.5 C455.744 738.21 445.802 751 430.623 751 L392.591 751 C366.492 751 338.817 729.113 332.804 703.717 L277.52 470.247 C264.967 417.231 187.207 418.58 176.5 472 L130 704 L126 721 L123 735.5 C121.378 743.338 113.196 750 105.193 750 L45.5372 750 C32.8419 750 24.3031 739.406 27 727 L32 704 L172.088 51.5611 C172.779 48.3454 172.561 27.7037 171.803 24.5032 L170.5 19 C168.083 8.79489 175.038 0 185.526 0 L223.074 0 C248.732 0 276.42 21.5982 282.666 46.4845 L341.106 279.346 C356.546 340.868 444.419 340.612 459.5 279 L514.905 52.6466 C515.598 49.8152 516.215 30.054 515.7 27.1849 L514.5 20.5 C512.598 9.90588 520.048 1 530.812 1 L566.669 1 C593.255 1 620.914 23.2078 626.658 49.1662 L771 701.5 L776.5 725.75 C779.461 738.804 770.519 750 757.134 750 L658.123 750 C655.875 750 653.488 747.916 652.974 745.728 C649.851 732.435 642.621 700 643.5 700 L643 700 Z " />
<glyph glyph-name="X" unicode="X" horiz-adv-x="600" d="M180 50 L269.352 201.21 C295.112 244.806 350.303 244.465 375.524 200.555 L460.659 52.3348 C460.763 52.1539 462.923 47.6937 463 47.5 C463.079 47.3028 465.241 42.8525 465.347 42.6686 L477 22.5 C483.213 11.7465 503.566 0 515.986 0 L562.611 0 C573.376 0 590.234 -9.27536 584.944 0.0993792 C583.721 2.26557 562.882 39.1765 559 45 L387.909 341.919 C379.301 356.859 379.484 389.034 388.262 403.874 L559.398 693.194 C575.362 720.181 558.355 750 527 750 L478.241 750 C470.204 750 456.918 742.797 452.836 735.874 C442.797 718.846 436.17 708.853 433.282 703.601 C433.277 703.593 430.635 698.69 430.631 698.682 L358.626 576.784 C332.874 533.188 277.689 533.516 252.458 577.415 L183.342 697.666 C183.238 697.847 181.078 702.306 181 702.5 C180.921 702.697 178.759 707.147 178.653 707.331 L167 727.5 C160.787 738.253 140.434 750 128.014 750 L81.3886 750 C70.6241 750 53.7655 759.275 59.0561 749.901 C60.2785 747.734 81.1176 710.824 85 705 L240.129 435.991 C248.708 421.114 248.573 388.964 239.869 374.16 L49 49.5 L34.5 24.75 C27.5943 12.9627 35.0235 0 48.6847 0 L145.852 0 C148.285 0 152.104 1.97246 153.311 4.08505 C161.037 17.6049 180 50 180 50 L180 50 Z " />
<glyph glyph-name="Y" unicode="Y" horiz-adv-x="625" d="M317 0 C342.391 0 363 20.6094 363 46 L363 302.352 C363 306.991 369.063 329.366 371.405 333.37 L587 702 L601 726 C607.675 737.443 600.462 750 587.215 750 L523.559 750 C509.898 750 487.566 737.089 480.75 725.25 L466.5 700.5 L360.054 515.971 C334.664 471.957 279.206 471.882 253.697 515.827 L146.5 700.5 L132.25 725.25 C125.434 737.089 103.102 750 89.4409 750 L53.877 750 C40.4917 750 33.1479 737.394 39.75 725.75 L53.5 701.5 L261.694 344.253 C263.99 340.312 270.036 318.064 270.05 313.503 L270.861 45.9998 C270.938 20.6094 291.609 0 317 0 L317 0 Z " />
<glyph glyph-name="Z" unicode="Z" horiz-adv-x="655" d="M561.5 97 L287.129 97 C231.823 97 204.568 154.283 239.455 197.197 L596.234 636.067 C601.027 641.963 610 667.225 610 674.823 L610 701.5 C610 728.271 588.271 750 561.5 750 L108.5 750 C81.7295 750 60 728.271 60 701.5 C60 674.729 81.7295 653 108.5 653 L367.871 653 C423.177 653 450.432 595.717 415.545 552.803 L58.766 113.933 C53.9729 108.037 45 82.7754 45 75.1769 L45 48.5 C45 21.7295 66.7295 0 93.5 0 L561.5 0 C588.271 0 610 21.7295 610 48.5 C610 75.2705 588.271 97 561.5 97 L561.5 97 Z " />
<glyph glyph-name="bracketleft" unicode="&#x5b;" horiz-adv-x="344" d="M245.44 704 L291 704 C303.695 704 314 714.305 314 727 C314 739.695 303.695 750 291 750 L192.44 750 C158.527 750 131 722.473 131 688.56 L131 -53.56 C131 -87.473 158.527 -115 192.44 -115 L291 -115 C303.695 -115 314 -104.695 314 -92 C314 -79.3047 303.695 -69 291 -69 L245.44 -69 C211.527 -69 184 -41.473 184 -7.56 L184 642.56 C184 676.473 211.527 704 245.44 704 L245.44 704 Z " />
<glyph glyph-name="backslash" unicode="&#x5c;" horiz-adv-x="326" d="M308 0 C317.267 0 322.85 8.14545 319.508 16.7887 L42.4916 733.211 C39.1496 741.855 27.2668 750 18 750 C8.73317 750 3.14957 741.855 6.49161 733.211 L283.508 16.7887 C286.85 8.14545 298.733 0 308 0 L308 0 Z " />
<glyph glyph-name="bracketright" unicode="&#x5d;" horiz-adv-x="338" d="M160 642.56 L160 -7.56 C160 -41.473 132.473 -69 98.56 -69 L53 -69 C40.3047 -69 30 -79.3047 30 -92 C30 -104.695 40.3047 -115 53 -115 L151.56 -115 C185.473 -115 213 -87.473 213 -53.56 L213 688.56 C213 722.473 185.473 750 151.56 750 L53 750 C40.3047 750 30 739.695 30 727 C30 714.305 40.3047 704 53 704 L98.56 704 C132.473 704 160 676.473 160 642.56 L160 642.56 Z " />
<glyph glyph-name="asciicircum" unicode="&#x5e;" horiz-adv-x="340" d="M184.418 682.305 C219.828 665.844 265 600 265 600 C265 600 263.445 600 297.358 600 L302.5 600 C318.194 600 325.781 616.533 315.549 628.432 L229.386 728.621 C221.691 737.568 194.603 750 182.803 750 L157.197 750 C145.397 750 118.309 737.568 110.614 728.621 L24.4515 628.432 C14.2186 616.533 21.8064 600 37.5 600 L51.321 600 C60.0926 600 86.0516 610.005 92.5545 615.891 L156.656 673.92 C168.326 684.485 170.143 688.941 184.418 682.305 L184.418 682.305 Z " />
<glyph glyph-name="underscore" unicode="&#x5f;" horiz-adv-x="680" d="M75 -125 L605 -125 C618.799 -125 630 -113.799 630 -100 C630 -86.2007 618.799 -75 605 -75 L75 -75 C61.2007 -75 50 -86.2007 50 -100 C50 -113.799 61.2007 -125 75 -125 L75 -125 Z " />
<glyph glyph-name="grave" unicode="&#x60;" horiz-adv-x="340" d="M167.589 600 L170 600 C189.006 600 200.413 616.746 193.457 634.432 L163.321 711.049 C155.451 731.057 127.644 750 106.145 750 L95 750 C69.9884 750 56.517 726.071 69.4901 704.687 L115.059 629.572 C123.526 615.617 151.266 600 167.589 600 L167.589 600 Z " />
<glyph glyph-name="a" unicode="a" horiz-adv-x="550" d="M105.5 374 L122.468 368.402 C137.557 363.425 158.687 372.974 165.667 387.248 C185.294 427.387 212.375 441 266 441 C363 441 393 436 393 383 C393 330 350 318 212 281 C87 247 49 214 49 138 C49 26 63 -9 220 -9 C296.125 -9 346.984 -9 379.277 13.1074 C382.623 15.3978 392.623 12.4361 394.48 8.832 C401.06 -3.936 423.32 -1.122 490.415 -0.219 C506.75 0.000842106 522 13.6637 522 30 L522 32.5 C522 47.8237 509.216 59.8801 493.893 59.7342 C470.994 59.5162 477 60.95 477 78 L477 348 C477 514 428 529 268 529 C164.875 529 112.797 506.539 78.0747 439.158 C63.1449 410.185 74.5476 384.211 105.5 374 L105.5 374 Z M395 237.793 L395 156 C389 66 353 65 255 65 C143 65 133 83 133 141 C133 167 167 184 278 214 C323.05 225.9 356.901 235.271 382.624 246.413 C389.168 249.247 395 244.924 395 237.793 L395 237.793 Z " />
<glyph glyph-name="b" unicode="b" horiz-adv-x="599" d="M160 19 C160 25.2841 168.525 28.7785 173.375 24.7832 C206.953 -2.875 257.375 -9 330 -9 C497 -9 548 54 548 260 C548 466 497 529 330 529 C261.525 529 212.788 523.555 179.297 499.75 C172.649 495.024 160 499.387 160 507.544 L160 709.5 C160 731.855 141.855 750 119.5 750 C97.1452 750 79 731.855 79 709.5 L79 40.5 C79 18.1452 97.1452 0 119.5 0 L141 0 C151.487 0 160 8.51257 160 19 L160 19 Z M160 260 C160 419 192 441 296 441 C421 441 460 398 460 260 C460 118 422 74 298 74 C192 74 160 96 160 260 L160 260 Z " />
<glyph glyph-name="c" unicode="c" horiz-adv-x="561" d="M420.828 137.602 C396.569 93.2931 361.3 79 292 79 C182 79 148 101 148 260 C148 424 182 446 292 446 C358.4 446 384.48 429.36 413.76 378.672 C426.051 357.394 457.957 344.141 480.076 354.843 L483.5 356.5 C510.683 369.653 520.804 399.183 505.998 425.502 C462 503.712 420.35 529 292 529 C114 529 59 497 59 260 C59 23 114 -9 292 -9 C412.45 -9 471.644 12.0994 509.449 76.1972 C527.373 106.587 514.688 130.986 483 146.5 L468.379 153.658 C452.667 161.351 429.23 152.947 420.828 137.602 L420.828 137.602 Z " />
<glyph glyph-name="d" unicode="d" horiz-adv-x="579" d="M148 260 C148 398 184 441 302 441 C398 441 427 398 427 260 C427 122 398 79 302 79 C184 79 148 122 148 260 L148 260 Z M59 260 C59 54 108 -9 267 -9 C332.45 -9 379.115 1.8375 411.294 29.0396 C416.877 33.7597 427 29.8113 427 22.5 C427 10.0807 437.081 0 449.5 0 L468 0 C490.631 0 509 18.3692 509 41 L509 709 C509 731.631 490.631 750 468 750 C445.369 750 427 731.631 427 709 L427 500.224 C427 492.145 414.743 488.293 408.417 493.318 C376.354 518.791 330.525 529 267 529 C108 529 59 466 59 260 L59 260 Z " />
<glyph glyph-name="e" unicode="e" horiz-adv-x="568" d="M428.385 133.875 C408.704 92.6125 373.25 79 299 79 C202.1 79 161.555 94.1725 150.958 190.843 C146.859 228.228 172.242 250 209.851 250 L488.56 250 C523.548 250 550.324 274.6 549.215 309.571 C543.95 475.54 507.5 529 305 529 C117 529 59 497 59 260 C59 23 115 -9 299 -9 C426.875 -9 488.049 12.0994 520.704 77.3203 C536.831 109.53 522.015 131.297 488.5 144.5 L470.255 151.687 C456.017 157.296 434.973 147.688 428.385 133.875 L428.385 133.875 Z M419.826 324 L204.235 324 C169.161 324 150.137 344.064 161.064 377.392 C180.2 435.76 223.4 446 305 446 C405.65 446 444.363 425.581 459.322 366.775 C466.503 338.547 448.953 324 419.826 324 L419.826 324 Z " />
<glyph glyph-name="f" unicode="f" horiz-adv-x="385" d="M200 40.5 L200 379.5 C200 411.238 225.762 437 257.5 437 L273.5 437 C296.407 437 315 455.593 315 478.5 C315 501.407 296.407 520 273.5 520 L257.5 520 C225.762 520 200 545.762 200 577.5 L200 638 C200 661 204 663 248 663 L265 662.5 L290 662.25 C303.799 662.112 315 673.202 315 687.001 L315 706 C315 730.287 295.287 750 271 750 L220 750 C127 750 119 741 119 638 L119 564.5 C119 539.937 99.0627 520 74.5 520 L71.5 520 C48.5932 520 30 501.407 30 478.5 C30 455.593 48.5932 437 71.5 437 L74.5 437 C99.0627 437 119 417.063 119 392.5 L119 40.5 C119 18.1452 137.145 0 159.5 0 C181.855 0 200 18.1452 200 40.5 L200 40.5 Z " />
<glyph glyph-name="g" unicode="g" horiz-adv-x="569" d="M57.2285 -111.608 C74.225 -190.832 135.275 -199 278 -199 C481 -199 499 -144 499 35 L499 479 C499 501.631 480.631 520 458 520 L438.5 520 C426.633 520 417 510.367 417 498.5 C417 491.539 407.119 488.009 401.811 492.514 C370.738 518.885 325.9 529 263 529 C108 529 60 507 60 260 C60 21 108 0 263 0 C324.05 0 368.084 9.52875 399.034 33.0784 C405.253 37.8104 417 34.0607 417 26.2461 L417 0 C417 -85 405 -111 269 -111 C207.4 -111 179.72 -107.8 171.112 -78.36 C168.048 -67.8795 151.419 -51 140.5 -51 L110 -51 C71.2703 -51 49.1044 -73.7397 57.2285 -111.608 L57.2285 -111.608 Z M148 260 C148 426 183 441 297 441 C389 441 417 398 417 260 C417 128 389 88 297 88 C183 88 148 102 148 260 L148 260 Z " />
<glyph glyph-name="h" unicode="h" horiz-adv-x="546" d="M476 40.5 L476 315 C476 492 439 525 318 525 C252.825 525 207.388 516.152 177.197 493.964 C171.366 489.678 160 493.107 160 500.344 L160 709.5 C160 731.855 141.855 750 119.5 750 C97.1452 750 79 731.855 79 709.5 L79 40.5 C79 18.1452 97.1452 0 119.5 0 C141.855 0 160 18.1452 160 40.5 L160 334 C160 406 187 428 277 428 C367 428 395 410 395 315 L395 40.5 C395 18.1452 413.145 0 435.5 0 C457.855 0 476 18.1452 476 40.5 L476 40.5 Z " />
<glyph glyph-name="i" unicode="i" horiz-adv-x="238" d="M126.5 600 C151.063 600 171 619.937 171 644.5 C171 669.063 151.063 689 126.5 689 C101.937 689 82 669.063 82 644.5 C82 619.937 101.937 600 126.5 600 L126.5 600 Z M168 41 L168 479 C168 501.631 149.631 520 127 520 C104.369 520 86 501.631 86 479 L86 41 C86 18.3692 104.369 0 127 0 C149.631 0 168 18.3692 168 41 L168 41 Z " />
<glyph glyph-name="j" unicode="j" horiz-adv-x="238" d="M126.5 600 C151.063 600 171 619.937 171 644.5 C171 669.063 151.063 689 126.5 689 C101.937 689 82 669.063 82 644.5 C82 619.937 101.937 600 126.5 600 L126.5 600 Z M1 -92.5 L1 -131 C1 -148.663 15.337 -163 33 -163 L65 -163 C167 -163 168 0 168 0 L168 479 C168 501.631 149.631 520 127 520 C104.369 520 86 501.631 86 479 L86 0 C86 0 86 -75 36 -75 L18.5 -75 C8.84052 -75 1 -82.8405 1 -92.5 L1 -92.5 Z " />
<glyph glyph-name="k" unicode="k" horiz-adv-x="519" d="M312 470 L236 393 C206.532 363.144 160 382.24 160 424.19 L160 709.5 C160 731.855 141.855 750 119.5 750 C97.1452 750 79 731.855 79 709.5 L79 40.5 C79 18.1452 97.1452 0 119.5 0 C141.855 0 160 18.1452 160 40.5 L160 161.741 C160 171.547 170.869 197.984 177.766 204.955 L207 234.5 C231.893 259.658 269.214 254.497 286.346 223.528 L392.464 31.6993 C400.934 16.3888 428.729 0 446.226 0 L499.821 0 C504.237 0 506.665 4.15133 504.5 8 L500 16 L340.243 305.67 C328.458 327.038 333.268 361.357 350.473 378.661 L445.523 474.26 C463.324 492.164 451.747 520 426.5 520 L379.678 520 C372.778 520 354.379 512.379 349.5 507.5 L337 495 L312 470 L312 470 Z " />
<glyph glyph-name="l" unicode="l" horiz-adv-x="238" d="M168 41 L168 709 C168 731.631 149.631 750 127 750 C104.369 750 86 731.631 86 709 L86 41 C86 18.3692 104.369 0 127 0 C149.631 0 168 18.3692 168 41 L168 41 Z " />
<glyph glyph-name="m" unicode="m" horiz-adv-x="813" d="M748 40 L748 315 C748 492 714 525 604 525 C533.05 525 487.964 512.749 460.88 479.824 C455.605 473.411 438.09 474.686 433.506 481.61 C410.639 516.152 372.05 525 311 525 C247.25 525 203.73 516.33 174.913 493.463 C169.765 489.378 161 493.429 161 500 C161 511.039 152.039 520 141 520 L120.5 520 C98.1452 520 80 501.855 80 479.5 L80 40.5 C80 18.1452 98.1452 0 120.5 0 C142.855 0 161 18.1452 161 40.5 L161 334 C161 406 187 428 270 428 C355 428 381 410 381 315 L381 41 C381 18.3692 399.369 0 422 0 C444.631 0 463 18.3692 463 41 L463 315 L463 334 C463 406 487 428 564 428 C644 428 668 410 668 315 L668 40 C668 17.9212 685.921 0 708 0 C730.079 0 748 17.9212 748 40 L748 40 Z " />
<glyph glyph-name="n" unicode="n" horiz-adv-x="541" d="M476 40.5 L476 315 C476 492 439 525 318 525 C250.85 525 204.653 515.607 174.494 491.909 C169.06 487.639 160 492.089 160 499 C160 510.591 150.591 520 139 520 L119.5 520 C97.1452 520 79 501.855 79 479.5 L79 40.5 C79 18.1452 97.1452 0 119.5 0 C141.855 0 160 18.1452 160 40.5 L160 334 C160 406 187 428 277 428 C367 428 395 410 395 315 L395 40.5 C395 18.1452 413.145 0 435.5 0 C457.855 0 476 18.1452 476 40.5 L476 40.5 Z " />
<glyph glyph-name="o" unicode="o" horiz-adv-x="590" d="M148 260 C148 427 184 450 300 450 C433 450 451 405 451 260 C451 93 416 70 300 70 C166 70 148 115 148 260 L148 260 Z M59 260 C59 54 88 -9 300 -9 C484 -9 540 23 540 260 C540 466 511 529 300 529 C116 529 59 497 59 260 L59 260 Z " />
<glyph glyph-name="p" unicode="p" horiz-adv-x="599" d="M160 -114.5 L160 12.4559 C160 20.6129 172.649 24.9756 179.297 20.2499 C212.788 -3.555 261.525 -9 330 -9 C497 -9 548 54 548 260 C548 466 497 529 330 529 C257.375 529 206.953 522.875 173.375 495.217 C168.525 491.221 160 494.716 160 501 C160 511.487 151.487 520 141 520 L119.5 520 C97.1452 520 79 501.855 79 479.5 L79 -114.5 C79 -136.855 97.1452 -155 119.5 -155 C141.855 -155 160 -136.855 160 -114.5 L160 -114.5 Z M160 260 C160 419 192 441 296 441 C421 441 460 398 460 260 C460 122 421 79 296 79 C192 79 160 101 160 260 L160 260 Z " />
<glyph glyph-name="q" unicode="q" horiz-adv-x="579" d="M148 260 C148 398 184 441 302 441 C398 441 427 398 427 260 C427 122 398 79 302 79 C184 79 148 122 148 260 L148 260 Z M59 260 C59 54 108 -9 267 -9 C330.525 -9 376.354 1.20937 408.417 26.6818 C414.743 31.7074 427 27.8552 427 19.776 L427 -114 C427 -136.631 445.369 -155 468 -155 C490.631 -155 509 -136.631 509 -114 L509 479 C509 501.631 490.631 520 468 520 L449.5 520 C437.081 520 427 509.919 427 497.5 C427 490.189 416.877 486.24 411.294 490.96 C379.115 518.162 332.45 529 267 529 C108 529 59 466 59 260 L59 260 Z " />
<glyph glyph-name="r" unicode="r" horiz-adv-x="370" d="M350 415 L350 470 C350 499.314 330.455 520.456 301.197 518.633 C245.266 515.15 205.696 504.642 178.917 482.991 C172.934 478.154 160 481.811 160 489.505 L160 491.5 C160 507.231 147.231 520 131.5 520 L119.5 520 C97.1452 520 79 501.855 79 479.5 L79 40.5 C79 18.1452 97.1452 0 119.5 0 C141.855 0 160 18.1452 160 40.5 L160 244 C160 367 174 405 330 405 L340 405 C345.52 405 350 409.48 350 415 L350 415 Z " />
<glyph glyph-name="s" unicode="s" horiz-adv-x="495" d="M435.725 429.847 C394.94 501.88 348.7 525 262 525 C113 525 67 490 67 378 C67 278 96 243 249 224 C363 210 384 190 384 135 C384 92 354 79 256 79 C186.65 79 155.205 97.9525 129.942 158.149 C128.15 162.42 121.586 166.335 117.273 164.646 C104.182 159.521 91.0909 154.091 78 150 L53.5 140.5 C39.1866 134.95 31.8635 122.968 38.2481 109.007 C77.4056 23.38 132.05 -4 256 -4 C416 -4 465 30 465 142 C465 241 434 275 268 296 C164 309 144 329 144 385 C144 432 172 446 262 446 C302.425 446 327.196 430.346 353.157 382.753 C363.075 364.573 388.488 356.288 407.385 364.759 L413.5 367.5 C439.866 379.319 449.961 404.703 435.725 429.847 L435.725 429.847 Z " />
<glyph glyph-name="t" unicode="t" horiz-adv-x="345" d="M273.5 520 L249.44 520 C215.527 520 188 547.527 188 581.44 L188 670.416 C188 693.047 164.316 704.071 147 689.5 L127.882 673.413 C118.64 665.636 106 638.48 106 626.402 L106 568 C106 541.505 84.4946 520 58 520 L51.5 520 C28.5932 520 10 501.407 10 478.5 C10 455.593 28.5932 437 51.5 437 L58 437 C84.4946 437 106 415.495 106 389 L106 141 C106 6 82 0 211 0 L271.5 0 C295.511 0 315 19.4893 315 43.5 L315 58 C315 74.0071 302.007 87 286 87 L257 87 C173 87 188 89 188 141 L188 375.56 C188 409.473 215.527 437 249.44 437 L273.5 437 C296.407 437 315 455.593 315 478.5 C315 501.407 296.407 520 273.5 520 L273.5 520 Z " />
<glyph glyph-name="u" unicode="u" horiz-adv-x="534" d="M464 41 L464 479.5 C464 501.855 445.855 520 423.5 520 C401.145 520 383 501.855 383 479.5 L383 200 C383 114 357 87 274 87 C156 87 155 103 155 186 L155 479.5 C155 501.855 136.855 520 114.5 520 C92.1452 520 74 501.855 74 479.5 L74 186 C74 22 75 -9 241 -9 C300.4 -9 340.743 1.20937 367.081 27.8048 C371.466 32.2321 382 29.7311 382 23.5 C382 10.5287 392.529 0 405.5 0 L423 0 C445.631 0 464 18.3692 464 41 L464 41 Z " />
<glyph glyph-name="v" unicode="v" horiz-adv-x="497" d="M487 520 L382.182 520 C374.199 520 364.639 512.414 362.259 504.794 C356.262 485.601 353 475.038 353 471 L297 291 C279.4 234.428 202.288 234.33 184.545 290.858 L128 471 C128 471 121.388 493.041 115.09 511.933 C113.308 517.28 107.041 521 101.405 521 L27.9057 521 C23.7659 521 21.1909 517.427 22.5 513.5 L25 506 L190.453 41.8118 C198.017 20.5925 225.8 1 248.327 1 L255.942 1 C278.282 1 304.201 15.3263 311.825 36.3246 C364.55 181.544 417.275 326.7 470 471 C474 482 486 516 487 520 L487 520 Z " />
<glyph glyph-name="w" unicode="w" horiz-adv-x="732" d="M707 471 L714.5 495.5 C718.458 508.431 709.901 520 696.378 520 L657.143 520 C631.341 520 603.657 498.308 597.486 473.254 L554.959 300.593 C542.453 249.819 471.15 248.66 457 299 L409.808 466.896 C408.391 471.935 408.571 496.013 410.063 501.03 L410.5 502.5 C413.41 512.288 406.911 521 396.7 521 L370 521 C345.531 521 318.253 500.251 311.722 476.669 L260.363 291.232 C246.722 241.979 177.35 242.535 164.5 292 L118 471 L111.5 496 C108.028 509.355 92.9681 521 79.1688 521 L43.6223 521 C30.099 521 21.5415 509.431 25.5 496.5 L33 472 L163.363 42.6239 C170.037 20.6396 196.525 1 219.5 1 C242.536 1 268.771 20.6333 275.268 42.7342 L316.5 183 C332.48 237.363 407.52 237.363 423.5 183 L464.732 42.7342 C471.229 20.6333 497.464 1 520.5 1 C543.489 1 571.67 26.0951 578.372 48.085 C621.41 189.295 663.8 330.1 707 470.5 L707 471 Z " />
<glyph glyph-name="x" unicode="x" horiz-adv-x="487" d="M154 50 L199.5 121.5 C222.781 158.085 269.033 159.307 294.214 124.004 L347 50 C346 50 363 27 372 15 L377.5 7.5 C379.948 4.16166 388.161 0 392.301 0 L473.699 0 C477.839 0 479.948 4.16166 477.5 7.5 L472 15 L316.935 233.304 C304.698 250.532 303.845 284.042 315.19 301.869 L418.835 464.74 C435.21 490.473 419.002 520 388.5 520 L327.717 520 C325.537 520 321.915 518.272 320.747 516.432 C312.615 503.623 291 470 291 470 L257.5 417 C240.407 389.957 206.263 389.068 187.785 415.183 L149 470 C150 470 133 493 124 505 L118.5 512.5 C116.052 515.838 107.839 520 103.699 520 L22.3005 520 C18.1608 520 16.0519 515.838 18.5 512.5 L24 505 L152.985 323.747 C165.273 306.479 166.122 272.948 154.724 255.081 L27.2269 55.2206 C10.8342 29.524 27.0199 0 57.5 0 L118.283 0 C120.481 0 124.068 1.70632 125.238 3.56787 C133.285 16.3767 154.5 50 154.5 50 L154 50 Z " />
<glyph glyph-name="y" unicode="y" horiz-adv-x="496" d="M105.781 519.914 L44.6387 518.912 C31.4583 518.696 23.4245 507.202 27.75 494.75 L36 471 L197.785 1.42981 C198.505 -0.661963 198.651 -9.3854 198 -11.5 L196 -18 C165 -107 165 -107 104 -107 L79 -107 C65.2007 -107 54 -118.201 54 -132 L54 -175 C54 -188.799 65.2007 -200 79 -200 L104 -200 C230 -200 231 -199 280 -59 L481 505 C485 516 486 520 486 520 L370.272 520 C367.955 520 365.303 518.084 364.563 515.888 C360.121 502.699 350 470 350 470 L294 293.5 C276.179 237.333 199.821 237.333 182 293.5 L126 470 C126 470 116.43 500.625 112.027 514.98 C111.221 517.61 108.531 519.96 105.781 519.914 L105.781 519.914 Z " />
<glyph glyph-name="z" unicode="z" horiz-adv-x="460" d="M86.5 437 L191.999 437 C246.627 437 274.013 381.282 240.644 338.03 L42.7947 81.5841 C38.4808 75.9925 30 51.1163 30 44.054 L30 32.5 C30 14.561 44.561 0 62.5 0 L398.5 0 C421.407 0 440 18.5932 440 41.5 C440 64.4068 421.407 83 398.5 83 L259.8 83 C205.037 83 177.675 139.024 211.345 182.215 L411.016 438.344 C415.422 443.997 424 468.952 424 476.119 L424 487.5 C424 505.439 409.439 520 391.5 520 L86.5 520 C63.5932 520 45 501.407 45 478.5 C45 455.593 63.5932 437 86.5 437 L86.5 437 Z " />
<glyph glyph-name="braceleft" unicode="&#x7b;" horiz-adv-x="331" d="M278.5 750 L231 750 C155 750 131 724 131 641 L131 394 C131 351.125 114.922 339.641 74.0566 337.439 C63.8869 336.892 55 327.684 55 317.5 C55 307.316 63.8869 298.108 74.0566 297.561 C114.922 295.359 131 283.875 131 241 L131 -7 C131 -90 155 -115 231 -115 L278 -115 C290.695 -115 301 -104.695 301 -92 C301 -79.3047 290.695 -69 278 -69 L231 -69 C195 -69 184 -54 184 -7 L184 230 C184 277.85 175.833 302.559 152.759 313.111 C150.234 314.265 150.234 321.735 152.759 322.89 C175.832 333.441 184 358.15 184 406 L184 642 C184 690 195 705 231 705 L278.5 705 C290.919 705 301 715.081 301 727.5 C301 739.919 290.919 750 278.5 750 L278.5 750 Z " />
<glyph glyph-name="bar" unicode="&#x7c;" horiz-adv-x="143" d="M45 773.5 L45 -223.5 C45 -238.127 56.8728 -250 71.5 -250 C86.1272 -250 98 -238.127 98 -223.5 L98 773.5 C98 788.127 86.1272 800 71.5 800 C56.8728 800 45 788.127 45 773.5 L45 773.5 Z " />
<glyph glyph-name="braceright" unicode="&#x7d;" horiz-adv-x="331" d="M30 727 C30 714.305 40.3047 704 53 704 L100 704 C136 704 147 689 147 641 L147 405 C147 357.15 155.167 332.441 178.241 321.89 C180.766 320.735 180.766 313.265 178.241 312.11 C155.167 301.559 147 276.85 147 229 L147 -8 C147 -55 136 -70 100 -70 L53 -70 C40.3047 -70 30 -80.3047 30 -93 C30 -105.695 40.3047 -116 53 -116 L100 -116 C176 -116 200 -91 200 -8 L200 240 C200 282.875 216.078 294.359 256.943 296.561 C267.113 297.108 276 306.316 276 316.5 C276 326.684 267.113 335.892 256.943 336.439 C216.078 338.641 200 350.125 200 393 L200 640 C200 723 176 749 100 749 L52.9977 749.671 C40.3049 749.853 30 739.694 30 727 L30 727 Z " />
<glyph glyph-name="asciitilde" unicode="&#x7e;" horiz-adv-x="340" d="M90.768 286.064 C92.88 315.76 99.6 326 114 326 C155 326 182 251 232 251 C230 251 226 315 226 315 C226 315 228.967 283.351 228.993 283.078 L229.2 280.869 C231.169 259.859 239.348 248.731 259.77 254.046 C293.145 262.734 306.652 291.12 309.436 353.303 C310.21 370.585 297.3 381 280 381 L275 381 C262.18 381 250.141 367.724 249.232 354.936 C247.582 331.736 243.12 320.411 234.38 316.566 C227.412 313.502 231.013 309.523 225.874 315.138 C222.611 318.703 156.75 390 108 390 C108.824 390 109.647 379.149 110.471 366.383 C110.479 366.246 110.265 365.844 110.252 365.981 L109.5 374 C108.561 384.014 101.214 390.298 91.236 389.033 C49.764 383.777 33.636 356.313 30.564 287.697 C29.7903 270.415 42.7003 260 60 260 L65 260 C77.8203 260 89.8585 273.276 90.768 286.064 L90.768 286.064 Z " />
<glyph glyph-name="nbspace" unicode="&#xa0;" horiz-adv-x="220" d="" />
<glyph glyph-name="exclamdown" unicode="&#xa1;" horiz-adv-x="186" d="M49 706 L49 705 C49 680.713 68.7133 661 93 661 C117.287 661 137 680.713 137 705 L137 706 C137 730.287 117.287 750 93 750 C68.7133 750 49 730.287 49 706 L49 706 Z M93 0 C119.495 0 141 21.5054 141 48 L141 305.455 C141 305.824 140.386 314.13 140.331 314.495 L106.766 540.131 C105.802 546.611 99.5515 552 93 552 C86.4485 552 80.1983 546.611 79.2343 540.131 L45.6687 314.495 C45.6144 314.13 45 305.824 45 305.455 L45 48 C45 21.5054 66.5054 0 93 0 L93 0 Z " />
<glyph glyph-name="cent" unicode="&#xa2;" horiz-adv-x="561" d="M265 567.958 L265 562 C265 544.685 248.741 528.683 231.473 527.414 C100.926 517.815 59 467.125 59 259 C59 50.875 100.926 0.185 231.473 -9.41361 C248.741 -10.6833 265 -26.6851 265 -44 L265 -50 C265 -64.9032 277.097 -77 292 -77 C306.903 -77 319 -64.9032 319 -50 L319 -44 C319 -26.8974 337.576 -10.4432 354.609 -8.897 C435.512 -1.55275 480.094 22.7692 510.839 76.6444 C527.153 105.231 515.097 128.786 485.535 143.259 L464.543 153.536 C450.286 160.516 429.91 152.956 422.651 138.839 C406.182 106.806 384.61 89.4232 349.973 81.4725 C330.101 76.911 319 89.2073 319 109.596 L319 411.353 C319 431.164 328.621 442.393 347.569 436.608 C379.046 426.998 397.489 405.896 418.826 366.711 C429.473 347.158 455.004 339.711 475.044 349.409 L483.5 353.5 C510.571 366.599 522.126 393.653 507.619 419.996 C471.353 485.854 436.943 515.374 354.608 523.744 C337.802 525.452 319 542.108 319 559 L319 564.958 C319 579.862 306.88 592.673 292 593.5 C277.12 594.327 265 582.862 265 567.958 L265 567.958 Z M223.703 82.0469 C167.057 95.3413 148 137.375 148 257 C148 380.75 167.058 423.506 223.703 436.926 C251.85 443.595 265 426.382 265 397.455 L265 121.545 C265 92.6666 251.817 75.4486 223.703 82.0469 L223.703 82.0469 Z " />
<glyph glyph-name="guillemotleft" unicode="&#xab;" horiz-adv-x="523" d="M370.761 442.641 L271.721 294.081 C260.144 276.716 260.144 243.284 271.721 225.919 L370.761 77.3592 C379.137 64.794 406.78 50 421.882 50 L424.5 50 C440.804 50 449.352 65.9721 440.308 79.5378 L342.721 225.919 C331.144 243.284 331.144 276.716 342.721 294.081 L440.308 440.462 C449.352 454.028 440.804 470 424.5 470 L421.882 470 C406.78 470 379.137 455.206 370.761 442.641 L370.761 442.641 Z M198.761 442.641 L99.7205 294.081 C88.1442 276.716 88.1442 243.284 99.7205 225.919 L198.761 77.3592 C207.137 64.794 234.78 50 249.882 50 L252.5 50 C268.804 50 277.352 65.9721 268.308 79.5378 L170.721 225.919 C159.144 243.284 159.144 276.716 170.721 294.081 L268.308 440.462 C277.352 454.028 268.804 470 252.5 470 L249.882 470 C234.78 470 207.137 455.206 198.761 442.641 L198.761 442.641 Z " />
<glyph glyph-name="logicalnot" unicode="&#xac;" horiz-adv-x="506" d="M456 122 L456 245.56 C456 279.473 428.473 307 394.56 307 L94 307 C69.7133 307 50 287.287 50 263 C50 238.713 69.7133 219 94 219 L288.56 219 C322.473 219 350 191.473 350 157.56 L350 122 C350 92.7456 373.746 69 403 69 C432.254 69 456 92.7456 456 122 L456 122 Z " />
<glyph glyph-name="acute" unicode="&#xb4;" horiz-adv-x="340" d="M170 600 L172.411 600 C188.734 600 216.474 615.617 224.941 629.572 L270.51 704.687 C283.483 726.071 270.012 750 245 750 L233.855 750 C212.356 750 184.549 731.057 176.679 711.049 L146.543 634.432 C139.587 616.746 150.994 600 170 600 L170 600 Z " />
<glyph glyph-name="periodcentered" unicode="&#xb7;" horiz-adv-x="188" d="M94 216 L95 216 C119.287 216 139 235.713 139 260 C139 284.287 119.287 304 95 304 L94 304 C69.7133 304 50 284.287 50 260 C50 235.713 69.7133 216 94 216 L94 216 Z " />
<glyph glyph-name="guillemotright" unicode="&#xbb;" horiz-adv-x="505" d="M265.692 440.462 L363.279 294.081 C374.856 276.716 374.856 243.284 363.279 225.919 L265.692 79.5378 C256.648 65.9721 265.196 50 281.5 50 L284.118 50 C299.22 50 326.863 64.794 335.239 77.3592 L434.279 225.919 C445.856 243.284 445.856 276.716 434.279 294.081 L335.239 442.641 C326.863 455.206 299.22 470 284.118 470 L281.5 470 C265.196 470 256.648 454.028 265.692 440.462 L265.692 440.462 Z M93.6919 440.462 L191.279 294.081 C202.856 276.716 202.856 243.284 191.279 225.919 L93.6919 79.5378 C84.648 65.9721 93.196 50 109.5 50 L112.118 50 C127.22 50 154.863 64.794 163.239 77.3592 L262.279 225.919 C273.856 243.284 273.856 276.716 262.279 294.081 L163.239 442.641 C154.863 455.206 127.22 470 112.118 470 L109.5 470 C93.196 470 84.648 454.028 93.6919 440.462 L93.6919 440.462 Z " />
<glyph glyph-name="questiondown" unicode="&#xbf;" horiz-adv-x="549" d="M238 750 C213.713 750 194 730.287 194 706 L194 705 C194 680.713 213.713 661 238 661 C262.287 661 282 680.713 282 705 L282 706 C282 730.287 262.287 750 238 750 L238 750 Z M451.5 198.5 C431.934 201.72 410.475 184.993 406.645 165.537 C390.156 81.7969 344 55 232 55 C120 55 85 88 85 195 C85 278 92 289 167 324 C276.15 374.875 277.491 365.001 277.078 512.818 C277.019 534.285 259.467 552 238 552 C216.45 552 199.049 535.359 199.072 513.809 C199.18 411.83 195.4 417.5 109 377 C9 330 0 315 0 195 C0 39 55 -9 232 -9 C398.5 -9 464.56 29.07 485.584 148.95 C489.758 172.75 475.342 194.577 451.5 198.5 L451.5 198.5 Z " />
<glyph glyph-name="Agrave" unicode="&#xc0;" horiz-adv-x="718" d="M362.589 830 L365 830 C384.006 830 395.413 846.746 388.457 864.432 L358.321 941.049 C350.451 961.057 322.644 980 301.145 980 L290 980 C264.988 980 251.517 956.071 264.49 934.687 L310.059 859.572 C318.526 845.617 346.266 830 362.589 830 L362.589 830 Z M160 50 L318.483 453.544 C339.996 508.324 411.646 508.184 432.946 453.321 L475.514 343.676 C492.23 300.62 464.426 260 418.239 260 L284.029 260 C262.408 260 234.603 240.98 226.767 220.829 L224.5 215 C215.497 191.85 230.444 170 255.283 170 L500.953 170 C522.587 170 550.391 150.972 558.224 130.806 L589.077 51.3765 C589.092 51.3378 590.661 46.5868 590.673 46.5471 C593.153 38.5 601.348 16.5216 606.527 5.06113 C607.697 2.47259 611.307 0 614.148 0 L697.23 0 C702.749 0 706.05 4.87509 704 10 L700 20 L428.514 709.006 C426.44 714.269 426.431 731.734 428.5 737 C431.326 744.192 426.686 751 418.958 751 L327.577 751 C320.126 751 310.311 744.401 307.5 737.5 L302 724 L294 702 L33 50.5 L24 28 C17 10 14 1 14 1 C14 1 16.8563 1 18.7434 1 L142 1 C143 5 160.5 50.5 160.5 50.5 L160 50 Z " />
<glyph glyph-name="Aacute" unicode="&#xc1;" horiz-adv-x="718" d="M365 830 L367.411 830 C383.734 830 411.474 845.617 419.941 859.572 L465.51 934.687 C478.483 956.071 465.012 980 440 980 L428.855 980 C407.356 980 379.549 961.057 371.679 941.049 L341.543 864.432 C334.587 846.746 345.994 830 365 830 L365 830 Z M160 50 L318.483 453.544 C339.996 508.324 411.646 508.184 432.946 453.321 L475.514 343.676 C492.23 300.62 464.426 260 418.239 260 L284.029 260 C262.408 260 234.603 240.98 226.767 220.829 L224.5 215 C215.497 191.85 230.444 170 255.283 170 L500.953 170 C522.587 170 550.391 150.972 558.224 130.806 L589.077 51.3765 C589.092 51.3378 590.661 46.5868 590.673 46.5471 C593.153 38.5 601.348 16.5216 606.527 5.06113 C607.697 2.47259 611.307 0 614.148 0 L697.23 0 C702.749 0 706.05 4.87509 704 10 L700 20 L428.514 709.006 C426.44 714.269 426.431 731.734 428.5 737 C431.326 744.192 426.686 751 418.958 751 L327.577 751 C320.126 751 310.311 744.401 307.5 737.5 L302 724 L294 702 L33 50.5 L24 28 C17 10 14 1 14 1 C14 1 16.8563 1 18.7434 1 L142 1 C143 5 160.5 50.5 160.5 50.5 L160 50 Z " />
<glyph glyph-name="Acircumflex" unicode="&#xc2;" horiz-adv-x="718" d="M379.418 912.305 C414.828 895.844 460 830 460 830 C460 830 458.445 830 492.358 830 L497.5 830 C513.194 830 520.781 846.533 510.549 858.432 L424.386 958.621 C416.691 967.568 389.603 980 377.803 980 L352.197 980 C340.397 980 313.309 967.568 305.614 958.621 L219.451 858.432 C209.219 846.533 216.806 830 232.5 830 L246.321 830 C255.093 830 281.052 840.005 287.554 845.891 L351.656 903.92 C363.326 914.485 365.143 918.941 379.418 912.305 L379.418 912.305 Z M160 50 L318.483 453.544 C339.996 508.324 411.646 508.184 432.946 453.321 L475.514 343.676 C492.23 300.62 464.426 260 418.239 260 L284.029 260 C262.408 260 234.603 240.98 226.767 220.829 L224.5 215 C215.497 191.85 230.444 170 255.283 170 L500.953 170 C522.587 170 550.391 150.972 558.224 130.806 L589.077 51.3765 C589.092 51.3378 590.661 46.5868 590.673 46.5471 C593.153 38.5 601.348 16.5216 606.527 5.06113 C607.697 2.47259 611.307 0 614.148 0 L697.23 0 C702.749 0 706.05 4.87509 704 10 L700 20 L428.514 709.006 C426.44 714.269 426.431 731.734 428.5 737 C431.326 744.192 426.686 751 418.958 751 L327.577 751 C320.126 751 310.311 744.401 307.5 737.5 L302 724 L294 702 L33 50.5 L24 28 C17 10 14 1 14 1 C14 1 16.8563 1 18.7434 1 L142 1 C143 5 160.5 50.5 160.5 50.5 L160 50 Z " />
<glyph glyph-name="Atilde" unicode="&#xc3;" horiz-adv-x="718" d="M285.768 856.064 C287.88 885.76 294.6 896 309 896 C350 896 377 821 427 821 C425 821 421 885 421 885 C421 885 423.967 853.351 423.993 853.078 L424.2 850.869 C426.169 829.859 434.348 818.731 454.77 824.046 C488.145 832.734 501.652 861.12 504.436 923.303 C505.21 940.585 492.3 951 475 951 L470 951 C457.18 951 445.141 937.724 444.232 924.936 C442.582 901.736 438.12 890.411 429.38 886.566 C422.412 883.502 426.013 879.523 420.874 885.138 C417.611 888.703 351.75 960 303 960 C303.824 960 304.647 949.149 305.471 936.383 C305.479 936.246 305.265 935.844 305.252 935.981 L304.5 944 C303.561 954.014 296.214 960.298 286.236 959.033 C244.764 953.777 228.636 926.313 225.564 857.697 C224.79 840.415 237.7 830 255 830 L260 830 C272.82 830 284.859 843.276 285.768 856.064 L285.768 856.064 Z M160 50 L318.483 453.544 C339.996 508.324 411.646 508.184 432.946 453.321 L475.514 343.676 C492.23 300.62 464.426 260 418.239 260 L284.029 260 C262.408 260 234.603 240.98 226.767 220.829 L224.5 215 C215.497 191.85 230.444 170 255.283 170 L500.953 170 C522.587 170 550.391 150.972 558.224 130.806 L589.077 51.3765 C589.092 51.3378 590.661 46.5868 590.673 46.5471 C593.153 38.5 601.348 16.5216 606.527 5.06113 C607.697 2.47259 611.307 0 614.148 0 L697.23 0 C702.749 0 706.05 4.87509 704 10 L700 20 L428.514 709.006 C426.44 714.269 426.431 731.734 428.5 737 C431.326 744.192 426.686 751 418.958 751 L327.577 751 C320.126 751 310.311 744.401 307.5 737.5 L302 724 L294 702 L33 50.5 L24 28 C17 10 14 1 14 1 C14 1 16.8563 1 18.7434 1 L142 1 C143 5 160.5 50.5 160.5 50.5 L160 50 Z " />
<glyph glyph-name="Adieresis" unicode="&#xc4;" horiz-adv-x="718" d="M439.5 830 C464.063 830 484 849.937 484 874.5 C484 899.063 464.063 919 439.5 919 C414.937 919 395 899.063 395 874.5 C395 849.937 414.937 830 439.5 830 L439.5 830 Z M290.5 830 C315.063 830 335 849.937 335 874.5 C335 899.063 315.063 919 290.5 919 C265.937 919 246 899.063 246 874.5 C246 849.937 265.937 830 290.5 830 L290.5 830 Z M160 50 L318.483 453.544 C339.996 508.324 411.646 508.184 432.946 453.321 L475.514 343.676 C492.23 300.62 464.426 260 418.239 260 L284.029 260 C262.408 260 234.603 240.98 226.767 220.829 L224.5 215 C215.497 191.85 230.444 170 255.283 170 L500.953 170 C522.587 170 550.391 150.972 558.224 130.806 L589.077 51.3765 C589.092 51.3378 590.661 46.5868 590.673 46.5471 C593.153 38.5 601.348 16.5216 606.527 5.06113 C607.697 2.47259 611.307 0 614.148 0 L697.23 0 C702.749 0 706.05 4.87509 704 10 L700 20 L428.514 709.006 C426.44 714.269 426.431 731.734 428.5 737 C431.326 744.192 426.686 751 418.958 751 L327.577 751 C320.126 751 310.311 744.401 307.5 737.5 L302 724 L294 702 L33 50.5 L24 28 C17 10 14 1 14 1 C14 1 16.8563 1 18.7434 1 L142 1 C143 5 160.5 50.5 160.5 50.5 L160 50 Z " />
<glyph glyph-name="Aring" unicode="&#xc5;" horiz-adv-x="718" d="M323 915 C323 952 331 961 365 961 C399 961 407 952 407 915 C407 875 400 868 365 868 C330 868 323 875 323 915 L323 915 Z M282 915 C282 843 295 830 365 830 C435 830 448 843 448 915 C448 982 432 999 365 999 C298 999 282 982 282 915 L282 915 Z M160 50 L318.483 453.544 C339.996 508.324 411.646 508.184 432.946 453.321 L475.514 343.676 C492.23 300.62 464.426 260 418.239 260 L284.029 260 C262.408 260 234.603 240.98 226.767 220.829 L224.5 215 C215.497 191.85 230.444 170 255.283 170 L500.953 170 C522.587 170 550.391 150.972 558.224 130.806 L589.077 51.3765 C589.092 51.3378 590.661 46.5868 590.673 46.5471 C593.153 38.5 601.348 16.5216 606.527 5.06113 C607.697 2.47259 611.307 0 614.148 0 L697.23 0 C702.749 0 706.05 4.87509 704 10 L700 20 L428.514 709.006 C426.44 714.269 426.431 731.734 428.5 737 C431.326 744.192 426.686 751 418.958 751 L327.577 751 C320.126 751 310.311 744.401 307.5 737.5 L302 724 L294 702 L33 50.5 L24 28 C17 10 14 1 14 1 C14 1 16.8563 1 18.7434 1 L142 1 C143 5 160.5 50.5 160.5 50.5 L160 50 Z " />
<glyph glyph-name="Ccedilla" unicode="&#xc7;" horiz-adv-x="722" d="M362 -115.5 C361.935 -115.662 361.655 -115.568 361.7 -115.4 L367.09 -95.3797 C367.222 -94.8882 367.741 -95.8957 367.672 -96.4 C367.048 -100.96 365.632 -105.88 364.288 -110.08 C364.187 -110.396 364.411 -111.945 364.628 -111.694 C369.256 -106.336 378.235 -104 395 -104 C425 -104 434 -115 434 -150 C434 -186 424 -197 393 -197 C361 -197 347.56 -191.24 347.048 -173.064 C346.908 -168.094 340.414 -163.746 336.505 -166.817 L321.499 -178.608 C311.015 -186.846 304.202 -193.418 305.598 -206.678 C308.004 -229.513 333.125 -237 395 -237 C461 -237 481 -217 481 -150 C481 -76 463 -53 404 -53 C393.846 -53 385.84 -53.716 379.376 -55.7538 C377.883 -56.2246 376.586 -54.836 376.995 -53.3245 L382.5 -33 C385.858 -20.6016 402.802 -9.001 415.644 -8.70162 C557.814 -5.38719 628.893 26.0711 679.979 112.064 C694.504 136.516 688.234 166.551 666.447 184.832 L658.5 191.5 C637.886 208.797 603.309 201.178 588.976 178.404 C546.214 110.461 491.95 88 388 88 C214 88 160 177 160 375 C160 573 214 662 388 662 C480.4 662 532.643 639.539 582.912 571.596 C599.537 549.126 637.087 540.533 658.5 558.5 L698.057 591.691 C700.194 593.484 700.855 597.061 699.5 599.5 L697 604 C627 722 553 759 389 759 C139 759 62 639 62 375 C62 142.825 121.894 21.8812 306.58 -3.66031 C330.193 -6.92582 348.017 -30.9349 342 -54 L331.576 -93.957 C331.344 -94.848 330.018 -99.1456 329.998 -100.066 C329.972 -101.244 330.126 -117.756 358.706 -118.934 C360.456 -119.006 362.446 -117.661 363 -116 L363.149 -115.554 C363.176 -115.472 362.032 -115.419 362 -115.5 L362 -115.5 Z " />
<glyph glyph-name="Egrave" unicode="&#xc8;" horiz-adv-x="612" d="M318.589 830 L321.5 830 C340.762 830 352.324 846.972 345.274 864.898 L315.321 941.049 C307.451 961.057 279.644 980 258.145 980 L246.5 980 C221.252 980 207.654 955.845 220.749 934.259 L266.059 859.572 C274.526 845.617 302.266 830 318.589 830 L318.589 830 Z M513.5 97 L248.44 97 C214.527 97 187 124.527 187 158.44 L187 279.56 C187 313.473 214.527 341 248.44 341 L481 341 C506.391 341 527 361.609 527 387 C527 412.391 506.391 433 481 433 L248.44 433 C214.527 433 187 460.527 187 494.44 L187 591.56 C187 625.473 214.527 653 248.44 653 L498.5 653 C525.271 653 547 674.729 547 701.5 C547 728.271 525.271 750 498.5 750 L157.44 750 C123.527 750 96 722.473 96 688.56 L96 61.44 C96 27.527 123.527 0 157.44 0 L513.5 0 C540.271 0 562 21.7295 562 48.5 C562 75.2705 540.271 97 513.5 97 L513.5 97 Z " />
<glyph glyph-name="Eacute" unicode="&#xc9;" horiz-adv-x="612" d="M321.5 830 L324.411 830 C340.734 830 368.474 845.617 376.941 859.572 L422.251 934.259 C435.346 955.845 421.748 980 396.5 980 L384.855 980 C363.356 980 335.549 961.057 327.679 941.049 L297.726 864.898 C290.676 846.972 302.238 830 321.5 830 L321.5 830 Z M513.5 97 L248.44 97 C214.527 97 187 124.527 187 158.44 L187 279.56 C187 313.473 214.527 341 248.44 341 L481 341 C506.391 341 527 361.609 527 387 C527 412.391 506.391 433 481 433 L248.44 433 C214.527 433 187 460.527 187 494.44 L187 591.56 C187 625.473 214.527 653 248.44 653 L498.5 653 C525.271 653 547 674.729 547 701.5 C547 728.271 525.271 750 498.5 750 L157.44 750 C123.527 750 96 722.473 96 688.56 L96 61.44 C96 27.527 123.527 0 157.44 0 L513.5 0 C540.271 0 562 21.7295 562 48.5 C562 75.2705 540.271 97 513.5 97 L513.5 97 Z " />
<glyph glyph-name="Ecircumflex" unicode="&#xca;" horiz-adv-x="612" d="M336.418 912.305 C371.828 895.844 417 830 417 830 C417 830 415.445 830 449.358 830 L454.5 830 C470.194 830 477.781 846.533 467.549 858.432 L381.386 958.621 C373.691 967.568 346.603 980 334.803 980 L308.34 980 C296.441 980 269.328 967.494 261.604 958.442 L176.017 858.145 C165.933 846.328 173.465 830 189 830 L202.505 830 C211.158 830 237.055 839.903 243.5 845.677 L308.593 903.99 C320.317 914.492 322.144 918.94 336.418 912.305 L336.418 912.305 Z M513.5 97 L248.44 97 C214.527 97 187 124.527 187 158.44 L187 279.56 C187 313.473 214.527 341 248.44 341 L481 341 C506.391 341 527 361.609 527 387 C527 412.391 506.391 433 481 433 L248.44 433 C214.527 433 187 460.527 187 494.44 L187 591.56 C187 625.473 214.527 653 248.44 653 L498.5 653 C525.271 653 547 674.729 547 701.5 C547 728.271 525.271 750 498.5 750 L157.44 750 C123.527 750 96 722.473 96 688.56 L96 61.44 C96 27.527 123.527 0 157.44 0 L513.5 0 C540.271 0 562 21.7295 562 48.5 C562 75.2705 540.271 97 513.5 97 L513.5 97 Z " />
<glyph glyph-name="Edieresis" unicode="&#xcb;" horiz-adv-x="612" d="M395.5 830 C420.063 830 440 849.937 440 874.5 C440 899.063 420.063 919 395.5 919 C370.937 919 351 899.063 351 874.5 C351 849.937 370.937 830 395.5 830 L395.5 830 Z M247.5 830 C272.063 830 292 849.937 292 874.5 C292 899.063 272.063 919 247.5 919 C222.937 919 203 899.063 203 874.5 C203 849.937 222.937 830 247.5 830 L247.5 830 Z M513.5 97 L248.44 97 C214.527 97 187 124.527 187 158.44 L187 279.56 C187 313.473 214.527 341 248.44 341 L481 341 C506.391 341 527 361.609 527 387 C527 412.391 506.391 433 481 433 L248.44 433 C214.527 433 187 460.527 187 494.44 L187 591.56 C187 625.473 214.527 653 248.44 653 L498.5 653 C525.271 653 547 674.729 547 701.5 C547 728.271 525.271 750 498.5 750 L157.44 750 C123.527 750 96 722.473 96 688.56 L96 61.44 C96 27.527 123.527 0 157.44 0 L513.5 0 C540.271 0 562 21.7295 562 48.5 C562 75.2705 540.271 97 513.5 97 L513.5 97 Z " />
<glyph glyph-name="Igrave" unicode="&#xcc;" horiz-adv-x="263" d="M130.589 830 L133 830 C152.006 830 163.413 846.746 156.457 864.432 L126.321 941.049 C118.451 961.057 90.6442 980 69.1445 980 L58 980 C32.9884 980 19.517 956.071 32.4901 934.687 L78.0595 859.572 C86.5259 845.617 114.266 830 130.589 830 L130.589 830 Z M178 45.5 L178 704.5 C178 729.615 157.615 750 132.5 750 C107.385 750 87 729.615 87 704.5 L87 45.5 C87 20.3854 107.385 0 132.5 0 C157.615 0 178 20.3854 178 45.5 L178 45.5 Z " />
<glyph glyph-name="Iacute" unicode="&#xcd;" horiz-adv-x="263" d="M133 830 L135.411 830 C151.734 830 179.474 845.617 187.941 859.572 L233.51 934.687 C246.483 956.071 233.012 980 208 980 L196.855 980 C175.356 980 147.549 961.057 139.679 941.049 L109.543 864.432 C102.587 846.746 113.994 830 133 830 L133 830 Z M178 45.5 L178 704.5 C178 729.615 157.615 750 132.5 750 C107.385 750 87 729.615 87 704.5 L87 45.5 C87 20.3854 107.385 0 132.5 0 C157.615 0 178 20.3854 178 45.5 L178 45.5 Z " />
<glyph glyph-name="Icircumflex" unicode="&#xce;" horiz-adv-x="263" d="M147.418 912.305 C182.828 895.844 228 830 228 830 C228 830 226.445 830 260.358 830 L265.5 830 C281.194 830 288.781 846.533 278.549 858.432 L192.386 958.621 C184.691 967.568 157.603 980 145.803 980 L120.197 980 C108.397 980 81.3086 967.568 73.6143 958.621 L-12.5485 858.432 C-22.7814 846.533 -15.1936 830 0.5 830 L14.321 830 C23.0926 830 49.0516 840.005 55.5545 845.891 L119.656 903.92 C131.326 914.485 133.143 918.941 147.418 912.305 L147.418 912.305 Z M178 45.5 L178 704.5 C178 729.615 157.615 750 132.5 750 C107.385 750 87 729.615 87 704.5 L87 45.5 C87 20.3854 107.385 0 132.5 0 C157.615 0 178 20.3854 178 45.5 L178 45.5 Z " />
<glyph glyph-name="Idieresis" unicode="&#xcf;" horiz-adv-x="263" d="M207.5 830 C232.063 830 252 849.937 252 874.5 C252 899.063 232.063 919 207.5 919 C182.937 919 163 899.063 163 874.5 C163 849.937 182.937 830 207.5 830 L207.5 830 Z M58.5 830 C83.0627 830 103 849.937 103 874.5 C103 899.063 83.0627 919 58.5 919 C33.9373 919 14 899.063 14 874.5 C14 849.937 33.9373 830 58.5 830 L58.5 830 Z M178 45.5 L178 704.5 C178 729.615 157.615 750 132.5 750 C107.385 750 87 729.615 87 704.5 L87 45.5 C87 20.3854 107.385 0 132.5 0 C157.615 0 178 20.3854 178 45.5 L178 45.5 Z " />
<glyph glyph-name="Ntilde" unicode="&#xd1;" horiz-adv-x="727" d="M286.768 856.064 C288.88 885.76 295.6 896 310 896 C351 896 378 821 428 821 C426 821 422 885 422 885 C422 885 424.967 853.351 424.993 853.078 L425.2 850.869 C427.169 829.859 435.348 818.731 455.77 824.046 C489.145 832.734 502.652 861.12 505.436 923.303 C506.21 940.585 493.3 951 476 951 L471 951 C458.18 951 446.141 937.724 445.232 924.936 C443.582 901.736 439.12 890.411 430.38 886.566 C423.412 883.502 427.013 879.523 421.874 885.138 C418.611 888.703 352.75 960 304 960 C304.824 960 305.647 949.149 306.471 936.383 C306.479 936.246 306.265 935.844 306.252 935.981 L305.5 944 C304.561 954.014 297.214 960.298 287.236 959.033 C245.764 953.777 229.636 926.313 226.564 857.697 C225.79 840.415 238.7 830 256 830 L261 830 C273.82 830 285.859 843.276 286.768 856.064 L286.768 856.064 Z M408.914 358.134 L215.794 704.039 C213.697 707.796 208 729.687 208 733.989 L208 734 C208 742.832 200.832 750 192 750 L148.5 750 C115.658 750 89 723.342 89 690.5 L89 59.5 C89 26.6578 115.658 0 148.5 0 C181.342 0 208 26.6578 208 59.5 L208 299.742 C208 363.272 292.147 385.155 323.096 329.674 L489.423 31.5086 C497.896 16.3202 525.688 0 543.08 0 L580.56 0 C614.473 0 642 27.527 642 61.44 L642 691 C642 723.566 615.566 750 583 750 C550.434 750 524 723.566 524 691 L524 388.085 C524 324.561 439.881 302.669 408.914 358.134 L408.914 358.134 Z " />
<glyph glyph-name="Ograve" unicode="&#xd2;" horiz-adv-x="814" d="M410.589 830 L413 830 C432.006 830 443.413 846.746 436.457 864.432 L406.321 941.049 C398.451 961.057 370.644 980 349.145 980 L338 980 C312.988 980 299.517 956.071 312.49 934.687 L358.059 859.572 C366.526 845.617 394.266 830 410.589 830 L410.589 830 Z M165 375 C165 584 233 662 413 662 C593 662 660 584 660 375 C660 155 602 88 413 88 C223 88 165 155 165 375 L165 375 Z M66 375 C66 81 148 -9 413 -9 C678 -9 759 81 759 375 C759 654 664 759 413 759 C161 759 66 654 66 375 L66 375 Z " />
<glyph glyph-name="Oacute" unicode="&#xd3;" horiz-adv-x="814" d="M413 830 L415.411 830 C431.734 830 459.474 845.617 467.941 859.572 L513.51 934.687 C526.483 956.071 513.012 980 488 980 L476.855 980 C455.356 980 427.549 961.057 419.679 941.049 L389.543 864.432 C382.587 846.746 393.994 830 413 830 L413 830 Z M165 375 C165 584 233 662 413 662 C593 662 660 584 660 375 C660 155 602 88 413 88 C223 88 165 155 165 375 L165 375 Z M66 375 C66 81 148 -9 413 -9 C678 -9 759 81 759 375 C759 654 664 759 413 759 C161 759 66 654 66 375 L66 375 Z " />
<glyph glyph-name="Ocircumflex" unicode="&#xd4;" horiz-adv-x="814" d="M427.418 912.305 C462.828 895.844 508 830 508 830 C508 830 506.445 830 540.358 830 L545.5 830 C561.194 830 568.781 846.533 558.549 858.432 L472.386 958.621 C464.691 967.568 437.603 980 425.803 980 L400.197 980 C388.397 980 361.309 967.568 353.614 958.621 L267.451 858.432 C257.219 846.533 264.806 830 280.5 830 L294.321 830 C303.093 830 329.052 840.005 335.554 845.891 L399.656 903.92 C411.326 914.485 413.143 918.941 427.418 912.305 L427.418 912.305 Z M165 375 C165 584 233 662 413 662 C593 662 660 584 660 375 C660 155 602 88 413 88 C223 88 165 155 165 375 L165 375 Z M66 375 C66 81 148 -9 413 -9 C678 -9 759 81 759 375 C759 654 664 759 413 759 C161 759 66 654 66 375 L66 375 Z " />
<glyph glyph-name="Otilde" unicode="&#xd5;" horiz-adv-x="814" d="M333.768 856.064 C335.88 885.76 342.6 896 357 896 C398 896 425 821 475 821 C473 821 469 885 469 885 C469 885 471.967 853.351 471.993 853.078 L472.2 850.869 C474.169 829.859 482.348 818.731 502.77 824.046 C536.145 832.734 549.652 861.12 552.436 923.303 C553.21 940.585 540.3 951 523 951 L518 951 C505.18 951 493.141 937.724 492.232 924.936 C490.582 901.736 486.12 890.411 477.38 886.566 C470.412 883.502 474.013 879.523 468.874 885.138 C465.611 888.703 399.75 960 351 960 C351.824 960 352.647 949.149 353.471 936.383 C353.479 936.246 353.265 935.844 353.252 935.981 L352.5 944 C351.561 954.014 344.214 960.298 334.236 959.033 C292.764 953.777 276.636 926.313 273.564 857.697 C272.79 840.415 285.7 830 303 830 L308 830 C320.82 830 332.859 843.276 333.768 856.064 L333.768 856.064 Z M165 375 C165 584 233 662 413 662 C593 662 660 584 660 375 C660 155 602 88 413 88 C223 88 165 155 165 375 L165 375 Z M66 375 C66 81 148 -9 413 -9 C678 -9 759 81 759 375 C759 654 664 759 413 759 C161 759 66 654 66 375 L66 375 Z " />
<glyph glyph-name="Odieresis" unicode="&#xd6;" horiz-adv-x="814" d="M487.5 830 C512.063 830 532 849.937 532 874.5 C532 899.063 512.063 919 487.5 919 C462.937 919 443 899.063 443 874.5 C443 849.937 462.937 830 487.5 830 L487.5 830 Z M338.5 830 C363.063 830 383 849.937 383 874.5 C383 899.063 363.063 919 338.5 919 C313.937 919 294 899.063 294 874.5 C294 849.937 313.937 830 338.5 830 L338.5 830 Z M165 375 C165 584 233 662 413 662 C593 662 660 584 660 375 C660 155 602 88 413 88 C223 88 165 155 165 375 L165 375 Z M66 375 C66 81 148 -9 413 -9 C678 -9 759 81 759 375 C759 654 664 759 413 759 C161 759 66 654 66 375 L66 375 Z " />
<glyph glyph-name="Oslash" unicode="&#xd8;" horiz-adv-x="814" d="M66 375 C66 252.6 80.45 165.603 116.105 106.024 C124.829 91.4478 122.892 60.1103 112.002 47.0732 L82.3473 11.5708 C75.4222 3.28007 80.6975 -8 91.5 -8 C102.252 -8 126.518 3.26588 133.456 11.4791 L143.926 23.8711 C154.163 35.9887 178.212 40.5258 192.079 32.8212 C244.742 3.56 316.95 -8 413 -8 C678 -8 759 82 759 376 C759 492.45 742.383 578.555 704.849 639.228 C695.421 654.468 697.412 686.257 708.9 700.011 L742.654 740.428 C749.579 748.72 744.303 760 733.5 760 C722.659 760 698.65 748.709 691.736 740.36 L677.462 723.124 C667.147 710.669 638.018 708.96 623.893 716.835 C571.462 746.068 502.1 759 413 759 C161 759 66 654 66 375 L66 375 Z M570.609 594.408 L225.532 181.955 C215.166 169.565 202.373 168.366 195.309 182.894 C173.67 227.397 165 290 165 375 C165 584 233 662 413 662 C477.35 662 527.407 651.791 564.855 629.687 C579.052 621.308 581.187 607.053 570.609 594.408 L570.609 594.408 Z M627.584 562.795 C650.885 517.97 661 456.6 661 375 C661 155 603 88 414 88 C346.35 88 295.716 96.1675 258.166 116.995 C243.823 124.95 241.652 138.773 252.161 151.367 L595.865 563.266 C606.605 576.138 619.852 577.669 627.584 562.795 L627.584 562.795 Z " />
<glyph glyph-name="Ugrave" unicode="&#xd9;" horiz-adv-x="701" d="M352.589 821 L355 821 C374.006 821 385.413 837.746 378.457 855.432 L348.321 932.049 C340.451 952.057 312.644 971 291.145 971 L280 971 C254.988 971 241.517 947.071 254.49 925.687 L300.059 850.572 C308.526 836.617 336.266 821 352.589 821 L352.589 821 Z M89 291 C89 39 131 -9 355 -9 C579 -9 621 38 621 290 L621 690.5 C621 723.342 594.342 750 561.5 750 C528.658 750 502 723.342 502 690.5 L502 311 C502 134 479 101 355 101 C208 101 180 134 180 307 L180 704.5 C180 729.615 159.615 750 134.5 750 C109.385 750 89 729.615 89 704.5 L89 291 L89 291 Z " />
<glyph glyph-name="Uacute" unicode="&#xda;" horiz-adv-x="701" d="M355 821 L357.411 821 C373.734 821 401.474 836.617 409.941 850.572 L455.51 925.687 C468.483 947.071 455.012 971 430 971 L418.855 971 C397.356 971 369.549 952.057 361.679 932.049 L331.543 855.432 C324.587 837.746 335.994 821 355 821 L355 821 Z M89 291 C89 39 131 -9 355 -9 C579 -9 621 38 621 290 L621 690.5 C621 723.342 594.342 750 561.5 750 C528.658 750 502 723.342 502 690.5 L502 311 C502 134 479 101 355 101 C208 101 180 134 180 307 L180 704.5 C180 729.615 159.615 750 134.5 750 C109.385 750 89 729.615 89 704.5 L89 291 L89 291 Z " />
<glyph glyph-name="Ucircumflex" unicode="&#xdb;" horiz-adv-x="701" d="M369.418 903.305 C404.828 886.844 450 821 450 821 C450 821 448.445 821 482.358 821 L487.5 821 C503.194 821 510.781 837.533 500.549 849.432 L414.386 949.621 C406.691 958.568 379.603 971 367.803 971 L342.197 971 C330.397 971 303.309 958.568 295.614 949.621 L209.451 849.432 C199.219 837.533 206.806 821 222.5 821 L236.321 821 C245.093 821 271.052 831.005 277.554 836.891 L341.656 894.92 C353.326 905.485 355.143 909.941 369.418 903.305 L369.418 903.305 Z M89 291 C89 39 131 -9 355 -9 C579 -9 621 38 621 290 L621 690.5 C621 723.342 594.342 750 561.5 750 C528.658 750 502 723.342 502 690.5 L502 311 C502 134 479 101 355 101 C208 101 180 134 180 307 L180 704.5 C180 729.615 159.615 750 134.5 750 C109.385 750 89 729.615 89 704.5 L89 291 L89 291 Z " />
<glyph glyph-name="Udieresis" unicode="&#xdc;" horiz-adv-x="701" d="M429.5 821 C454.063 821 474 840.937 474 865.5 C474 890.063 454.063 910 429.5 910 C404.937 910 385 890.063 385 865.5 C385 840.937 404.937 821 429.5 821 L429.5 821 Z M280.5 821 C305.063 821 325 840.937 325 865.5 C325 890.063 305.063 910 280.5 910 C255.937 910 236 890.063 236 865.5 C236 840.937 255.937 821 280.5 821 L280.5 821 Z M89 291 C89 39 131 -9 355 -9 C579 -9 621 38 621 290 L621 690.5 C621 723.342 594.342 750 561.5 750 C528.658 750 502 723.342 502 690.5 L502 311 C502 134 479 101 355 101 C208 101 180 134 180 307 L180 704.5 C180 729.615 159.615 750 134.5 750 C109.385 750 89 729.615 89 704.5 L89 291 L89 291 Z " />
<glyph glyph-name="Yacute" unicode="&#xdd;" horiz-adv-x="625" d="M320.5 830 L323.411 830 C339.734 830 367.474 845.617 375.941 859.572 L421.251 934.259 C434.346 955.845 420.748 980 395.5 980 L383.855 980 C362.356 980 334.549 961.057 326.679 941.049 L296.726 864.898 C289.676 846.972 301.238 830 320.5 830 L320.5 830 Z M317 0 C342.391 0 363 20.6094 363 46 L363 302.352 C363 306.991 369.063 329.366 371.405 333.37 L587 702 L601 726 C607.675 737.443 600.462 750 587.215 750 L523.559 750 C509.898 750 487.566 737.089 480.75 725.25 L466.5 700.5 L360.054 515.971 C334.664 471.957 279.206 471.882 253.697 515.827 L146.5 700.5 L132.25 725.25 C125.434 737.089 103.102 750 89.4409 750 L53.877 750 C40.4917 750 33.1479 737.394 39.75 725.75 L53.5 701.5 L261.694 344.253 C263.99 340.312 270.036 318.064 270.05 313.503 L270.861 45.9998 C270.938 20.6094 291.609 0 317 0 L317 0 Z " />
<glyph glyph-name="Thorn" unicode="&#xde;" horiz-adv-x="624" d="M187 45.5 L187 88.56 C187 122.473 214.527 150 248.44 150 L363 150 C553 150 589 186 589 375 C589 564 553 600 363 600 L248.44 600 C214.527 600 187 627.527 187 661.44 L187 704.5 C187 729.615 166.615 750 141.5 750 C116.385 750 96 729.615 96 704.5 L96 45.5 C96 20.3854 116.385 0 141.5 0 C166.615 0 187 20.3854 187 45.5 L187 45.5 Z M187 303.44 L187 446.56 C187 480.473 214.527 508 248.44 508 L358 508 C476 508 498 487 498 375 C498 263 477 242 368 242 L248.44 242 C214.527 242 187 269.527 187 303.44 L187 303.44 Z " />
<glyph glyph-name="agrave" unicode="&#xe0;" horiz-adv-x="550" d="M263.589 600 L266 600 C285.006 600 296.413 616.746 289.457 634.432 L259.321 711.049 C251.451 731.057 223.644 750 202.145 750 L191 750 C165.988 750 152.517 726.071 165.49 704.687 L211.059 629.572 C219.526 615.617 247.266 600 263.589 600 L263.589 600 Z M105.5 374 L122.468 368.402 C137.557 363.425 158.687 372.974 165.667 387.248 C185.294 427.387 212.375 441 266 441 C363 441 393 436 393 383 C393 330 350 318 212 281 C87 247 49 214 49 138 C49 26 63 -9 220 -9 C296.125 -9 346.984 -9 379.277 13.1074 C382.623 15.3978 392.623 12.4361 394.48 8.832 C401.06 -3.936 423.32 -1.122 490.415 -0.219 C506.75 0.000842106 522 13.6637 522 30 L522 32.5 C522 47.8237 509.216 59.8801 493.893 59.7342 C470.994 59.5162 477 60.95 477 78 L477 348 C477 514 428 529 268 529 C164.875 529 112.797 506.539 78.0747 439.158 C63.1449 410.185 74.5476 384.211 105.5 374 L105.5 374 Z M395 237.793 L395 156 C389 66 353 65 255 65 C143 65 133 83 133 141 C133 167 167 184 278 214 C323.05 225.9 356.901 235.271 382.624 246.413 C389.168 249.247 395 244.924 395 237.793 L395 237.793 Z " />
<glyph glyph-name="aacute" unicode="&#xe1;" horiz-adv-x="550" d="M266 600 L268.411 600 C284.734 600 312.474 615.617 320.941 629.572 L366.51 704.687 C379.483 726.071 366.012 750 341 750 L329.855 750 C308.356 750 280.549 731.057 272.679 711.049 L242.543 634.432 C235.587 616.746 246.994 600 266 600 L266 600 Z M105.5 374 L122.468 368.402 C137.557 363.425 158.687 372.974 165.667 387.248 C185.294 427.387 212.375 441 266 441 C363 441 393 436 393 383 C393 330 350 318 212 281 C87 247 49 214 49 138 C49 26 63 -9 220 -9 C296.125 -9 346.984 -9 379.277 13.1074 C382.623 15.3978 392.623 12.4361 394.48 8.832 C401.06 -3.936 423.32 -1.122 490.415 -0.219 C506.75 0.000842106 522 13.6637 522 30 L522 32.5 C522 47.8237 509.216 59.8801 493.893 59.7342 C470.994 59.5162 477 60.95 477 78 L477 348 C477 514 428 529 268 529 C164.875 529 112.797 506.539 78.0747 439.158 C63.1449 410.185 74.5476 384.211 105.5 374 L105.5 374 Z M395 237.793 L395 156 C389 66 353 65 255 65 C143 65 133 83 133 141 C133 167 167 184 278 214 C323.05 225.9 356.901 235.271 382.624 246.413 C389.168 249.247 395 244.924 395 237.793 L395 237.793 Z " />
<glyph glyph-name="acircumflex" unicode="&#xe2;" horiz-adv-x="550" d="M280.418 682.305 C315.828 665.844 361 600 361 600 C361 600 359.445 600 393.358 600 L398.5 600 C414.194 600 421.781 616.533 411.549 628.432 L325.386 728.621 C317.691 737.568 290.603 750 278.803 750 L253.197 750 C241.397 750 214.309 737.568 206.614 728.621 L120.451 628.432 C110.219 616.533 117.806 600 133.5 600 L147.321 600 C156.093 600 182.052 610.005 188.554 615.891 L252.656 673.92 C264.326 684.485 266.143 688.941 280.418 682.305 L280.418 682.305 Z M105.5 374 L122.468 368.402 C137.557 363.425 158.687 372.974 165.667 387.248 C185.294 427.387 212.375 441 266 441 C363 441 393 436 393 383 C393 330 350 318 212 281 C87 247 49 214 49 138 C49 26 63 -9 220 -9 C296.125 -9 346.984 -9 379.277 13.1074 C382.623 15.3978 392.623 12.4361 394.48 8.832 C401.06 -3.936 423.32 -1.122 490.415 -0.219 C506.75 0.000842106 522 13.6637 522 30 L522 32.5 C522 47.8237 509.216 59.8801 493.893 59.7342 C470.994 59.5162 477 60.95 477 78 L477 348 C477 514 428 529 268 529 C164.875 529 112.797 506.539 78.0747 439.158 C63.1449 410.185 74.5476 384.211 105.5 374 L105.5 374 Z M395 237.793 L395 156 C389 66 353 65 255 65 C143 65 133 83 133 141 C133 167 167 184 278 214 C323.05 225.9 356.901 235.271 382.624 246.413 C389.168 249.247 395 244.924 395 237.793 L395 237.793 Z " />
<glyph glyph-name="atilde" unicode="&#xe3;" horiz-adv-x="550" d="M186.768 626.064 C188.88 655.76 195.6 666 210 666 C251 666 278 591 328 591 C326 591 322 655 322 655 C322 655 324.967 623.351 324.993 623.078 L325.2 620.869 C327.169 599.859 335.348 588.731 355.77 594.046 C389.145 602.734 402.652 631.12 405.436 693.303 C406.21 710.585 393.3 721 376 721 L371 721 C358.18 721 346.141 707.724 345.232 694.936 C343.582 671.736 339.12 660.411 330.38 656.566 C323.412 653.502 327.013 649.523 321.874 655.138 C318.611 658.703 252.75 730 204 730 C204.824 730 205.647 719.149 206.471 706.383 C206.479 706.246 206.265 705.844 206.252 705.981 L205.5 714 C204.561 724.014 197.214 730.298 187.236 729.033 C145.764 723.777 129.636 696.313 126.564 627.697 C125.79 610.415 138.7 600 156 600 L161 600 C173.82 600 185.859 613.276 186.768 626.064 L186.768 626.064 Z M105.5 374 L122.468 368.402 C137.557 363.425 158.687 372.974 165.667 387.248 C185.294 427.387 212.375 441 266 441 C363 441 393 436 393 383 C393 330 350 318 212 281 C87 247 49 214 49 138 C49 26 63 -9 220 -9 C296.125 -9 346.984 -9 379.277 13.1074 C382.623 15.3978 392.623 12.4361 394.48 8.832 C401.06 -3.936 423.32 -1.122 490.415 -0.219 C506.75 0.000842106 522 13.6637 522 30 L522 32.5 C522 47.8237 509.216 59.8801 493.893 59.7342 C470.994 59.5162 477 60.95 477 78 L477 348 C477 514 428 529 268 529 C164.875 529 112.797 506.539 78.0747 439.158 C63.1449 410.185 74.5476 384.211 105.5 374 L105.5 374 Z M395 237.793 L395 156 C389 66 353 65 255 65 C143 65 133 83 133 141 C133 167 167 184 278 214 C323.05 225.9 356.901 235.271 382.624 246.413 C389.168 249.247 395 244.924 395 237.793 L395 237.793 Z " />
<glyph glyph-name="adieresis" unicode="&#xe4;" horiz-adv-x="550" d="M358 600 C382.287 600 402 619.713 402 644 L402 645 C402 669.287 382.287 689 358 689 C333.713 689 314 669.287 314 645 L314 644 C314 619.713 333.713 600 358 600 L358 600 Z M174.5 600 C199.063 600 219 619.937 219 644.5 C219 669.063 199.063 689 174.5 689 C149.937 689 130 669.063 130 644.5 C130 619.937 149.937 600 174.5 600 L174.5 600 Z M105.5 374 L122.468 368.402 C137.557 363.425 158.687 372.974 165.667 387.248 C185.294 427.387 212.375 441 266 441 C363 441 393 436 393 383 C393 330 350 318 212 281 C87 247 49 214 49 138 C49 26 63 -9 220 -9 C296.125 -9 346.984 -9 379.277 13.1074 C382.623 15.3978 392.623 12.4361 394.48 8.832 C401.06 -3.936 423.32 -1.122 490.415 -0.219 C506.75 0.000842106 522 13.6637 522 30 L522 32.5 C522 47.8237 509.216 59.8801 493.893 59.7342 C470.994 59.5162 477 60.95 477 78 L477 348 C477 514 428 529 268 529 C164.875 529 112.797 506.539 78.0747 439.158 C63.1449 410.185 74.5476 384.211 105.5 374 L105.5 374 Z M395 237.793 L395 156 C389 66 353 65 255 65 C143 65 133 83 133 141 C133 167 167 184 278 214 C323.05 225.9 356.901 235.271 382.624 246.413 C389.168 249.247 395 244.924 395 237.793 L395 237.793 Z " />
<glyph glyph-name="aring" unicode="&#xe5;" horiz-adv-x="550" d="M224 685 C224 722 232 731 266 731 C300 731 308 722 308 685 C308 645 301 638 266 638 C231 638 224 645 224 685 L224 685 Z M183 685 C183 613 196 600 266 600 C336 600 349 613 349 685 C349 752 333 769 266 769 C199 769 183 752 183 685 L183 685 Z M105.5 374 L122.468 368.402 C137.557 363.425 158.687 372.974 165.667 387.248 C185.294 427.387 212.375 441 266 441 C363 441 393 436 393 383 C393 330 350 318 212 281 C87 247 49 214 49 138 C49 26 63 -9 220 -9 C296.125 -9 346.984 -9 379.277 13.1074 C382.623 15.3978 392.623 12.4361 394.48 8.832 C401.06 -3.936 423.32 -1.122 490.415 -0.219 C506.75 0.000842106 522 13.6637 522 30 L522 32.5 C522 47.8237 509.216 59.8801 493.893 59.7342 C470.994 59.5162 477 60.95 477 78 L477 348 C477 514 428 529 268 529 C164.875 529 112.797 506.539 78.0747 439.158 C63.1449 410.185 74.5476 384.211 105.5 374 L105.5 374 Z M395 237.793 L395 156 C389 66 353 65 255 65 C143 65 133 83 133 141 C133 167 167 184 278 214 C323.05 225.9 356.901 235.271 382.624 246.413 C389.168 249.247 395 244.924 395 237.793 L395 237.793 Z " />
<glyph glyph-name="ccedilla" unicode="&#xe7;" horiz-adv-x="561" d="M276 -115.5 C275.941 -115.648 275.683 -115.561 275.726 -115.407 L281.056 -96.3704 C281.198 -95.8638 281.939 -94.8407 281.894 -95.3649 C281.414 -100.944 279.388 -106.859 277.698 -111.228 C277.655 -111.341 278.554 -110.477 278.628 -110.381 C283.256 -104.336 292.235 -102 309 -102 C339 -102 348 -113 348 -148 C348 -184 338 -195 307 -195 C275 -195 261.56 -189.24 261.048 -171.064 C260.908 -166.094 254.414 -161.746 250.505 -164.817 L235.499 -176.608 C225.015 -184.846 218.202 -191.418 219.598 -204.678 C222.004 -227.513 247.125 -235 309 -235 C375 -235 395 -215 395 -148 C395 -74 377 -51 318 -51 C307.846 -51 299.84 -51.716 293.376 -53.7538 C291.883 -54.2246 290.586 -52.836 290.995 -51.3245 L296.5 -31 C299.772 -18.9205 319.955 -6.69909 332.452 -6.02856 C426.139 -1.00169 475.88 22.4189 509.098 79.4208 C526.349 109.024 513.889 132.888 483.116 147.954 L467.379 155.658 C451.667 163.351 428.23 154.947 419.828 139.602 C395.569 95.2931 360.3 81 291 81 C181 81 147 103 147 262 C147 426 181 448 291 448 C357.4 448 383.48 431.36 412.76 380.672 C425.051 359.394 456.957 346.141 479.076 356.843 L482.5 358.5 C509.683 371.653 519.804 401.183 504.998 427.502 C461 505.712 419.35 531 291 531 C113 531 58 499 58 262 C58 59.5 98.5 6.85 221.782 -3.842 C245.58 -5.90592 260.092 -28.4028 254 -51.5 L243.614 -90.8808 C243.374 -91.7916 242.018 -96.1244 241.998 -97.0662 C241.972 -98.2441 242.126 -114.756 270.706 -115.934 C272.044 -115.989 274.757 -114.864 275.5 -113.75 L275.506 -113.74 C275.676 -113.486 276.114 -115.216 276 -115.5 L276 -115.5 Z " />
<glyph glyph-name="egrave" unicode="&#xe8;" horiz-adv-x="568" d="M302.589 600 L305 600 C324.006 600 335.413 616.746 328.457 634.432 L298.321 711.049 C290.451 731.057 262.644 750 241.145 750 L230 750 C204.988 750 191.517 726.071 204.49 704.687 L250.059 629.572 C258.526 615.617 286.266 600 302.589 600 L302.589 600 Z M428.385 133.875 C408.704 92.6125 373.25 79 299 79 C202.1 79 161.555 94.1725 150.958 190.843 C146.859 228.228 172.242 250 209.851 250 L488.56 250 C523.548 250 550.324 274.6 549.215 309.571 C543.95 475.54 507.5 529 305 529 C117 529 59 497 59 260 C59 23 115 -9 299 -9 C426.875 -9 488.049 12.0994 520.704 77.3203 C536.831 109.53 522.015 131.297 488.5 144.5 L470.255 151.687 C456.017 157.296 434.973 147.688 428.385 133.875 L428.385 133.875 Z M419.826 324 L204.235 324 C169.161 324 150.137 344.064 161.064 377.392 C180.2 435.76 223.4 446 305 446 C405.65 446 444.363 425.581 459.322 366.775 C466.503 338.547 448.953 324 419.826 324 L419.826 324 Z " />
<glyph glyph-name="eacute" unicode="&#xe9;" horiz-adv-x="568" d="M305 600 L307.411 600 C323.734 600 351.474 615.617 359.941 629.572 L405.51 704.687 C418.483 726.071 405.012 750 380 750 L368.855 750 C347.356 750 319.549 731.057 311.679 711.049 L281.543 634.432 C274.587 616.746 285.994 600 305 600 L305 600 Z M428.385 133.875 C408.704 92.6125 373.25 79 299 79 C202.1 79 161.555 94.1725 150.958 190.843 C146.859 228.228 172.242 250 209.851 250 L488.56 250 C523.548 250 550.324 274.6 549.215 309.571 C543.95 475.54 507.5 529 305 529 C117 529 59 497 59 260 C59 23 115 -9 299 -9 C426.875 -9 488.049 12.0994 520.704 77.3203 C536.831 109.53 522.015 131.297 488.5 144.5 L470.255 151.687 C456.017 157.296 434.973 147.688 428.385 133.875 L428.385 133.875 Z M419.826 324 L204.235 324 C169.161 324 150.137 344.064 161.064 377.392 C180.2 435.76 223.4 446 305 446 C405.65 446 444.363 425.581 459.322 366.775 C466.503 338.547 448.953 324 419.826 324 L419.826 324 Z " />
<glyph glyph-name="ecircumflex" unicode="&#xea;" horiz-adv-x="568" d="M319.418 682.305 C354.828 665.844 400 600 400 600 C400 600 398.445 600 432.358 600 L437.5 600 C453.194 600 460.781 616.533 450.549 628.432 L364.386 728.621 C356.691 737.568 329.603 750 317.803 750 L292.197 750 C280.397 750 253.309 737.568 245.614 728.621 L159.451 628.432 C149.219 616.533 156.806 600 172.5 600 L186.321 600 C195.093 600 221.052 610.005 227.554 615.891 L291.656 673.92 C303.326 684.485 305.143 688.941 319.418 682.305 L319.418 682.305 Z M428.385 133.875 C408.704 92.6125 373.25 79 299 79 C202.1 79 161.555 94.1725 150.958 190.843 C146.859 228.228 172.242 250 209.851 250 L488.56 250 C523.548 250 550.324 274.6 549.215 309.571 C543.95 475.54 507.5 529 305 529 C117 529 59 497 59 260 C59 23 115 -9 299 -9 C426.875 -9 488.049 12.0994 520.704 77.3203 C536.831 109.53 522.015 131.297 488.5 144.5 L470.255 151.687 C456.017 157.296 434.973 147.688 428.385 133.875 L428.385 133.875 Z M419.826 324 L204.235 324 C169.161 324 150.137 344.064 161.064 377.392 C180.2 435.76 223.4 446 305 446 C405.65 446 444.363 425.581 459.322 366.775 C466.503 338.547 448.953 324 419.826 324 L419.826 324 Z " />
<glyph glyph-name="edieresis" unicode="&#xeb;" horiz-adv-x="568" d="M379.5 600 C404.063 600 424 619.937 424 644.5 C424 669.063 404.063 689 379.5 689 C354.937 689 335 669.063 335 644.5 C335 619.937 354.937 600 379.5 600 L379.5 600 Z M230.5 600 C255.063 600 275 619.937 275 644.5 C275 669.063 255.063 689 230.5 689 C205.937 689 186 669.063 186 644.5 C186 619.937 205.937 600 230.5 600 L230.5 600 Z M428.385 133.875 C408.704 92.6125 373.25 79 299 79 C202.1 79 161.555 94.1725 150.958 190.843 C146.859 228.228 172.242 250 209.851 250 L488.56 250 C523.548 250 550.324 274.6 549.215 309.571 C543.95 475.54 507.5 529 305 529 C117 529 59 497 59 260 C59 23 115 -9 299 -9 C426.875 -9 488.049 12.0994 520.704 77.3203 C536.831 109.53 522.015 131.297 488.5 144.5 L470.255 151.687 C456.017 157.296 434.973 147.688 428.385 133.875 L428.385 133.875 Z M419.826 324 L204.235 324 C169.161 324 150.137 344.064 161.064 377.392 C180.2 435.76 223.4 446 305 446 C405.65 446 444.363 425.581 459.322 366.775 C466.503 338.547 448.953 324 419.826 324 L419.826 324 Z " />
<glyph glyph-name="igrave" unicode="&#xec;" horiz-adv-x="278" d="M164.589 600 L167 600 C186.006 600 197.413 616.746 190.457 634.432 L160.321 711.049 C152.451 731.057 124.644 750 103.145 750 L92 750 C66.9884 750 53.517 726.071 66.4901 704.687 L112.059 629.572 C120.526 615.617 148.266 600 164.589 600 L164.589 600 Z M167 0 C189.631 0 208 18.3692 208 41 L208 479 C208 501.631 189.631 520 167 520 C144.369 520 126 501.631 126 479 L126 41 C126 18.3692 144.369 0 167 0 L167 0 Z " />
<glyph glyph-name="iacute" unicode="&#xed;" horiz-adv-x="278" d="M167 600 L169.411 600 C185.734 600 213.474 615.617 221.941 629.572 L267.51 704.687 C280.483 726.071 267.012 750 242 750 L230.855 750 C209.356 750 181.549 731.057 173.679 711.049 L143.543 634.432 C136.587 616.746 147.994 600 167 600 L167 600 Z M167 0 C189.631 0 208 18.3692 208 41 L208 479 C208 501.631 189.631 520 167 520 C144.369 520 126 501.631 126 479 L126 41 C126 18.3692 144.369 0 167 0 L167 0 Z " />
<glyph glyph-name="icircumflex" unicode="&#xee;" horiz-adv-x="278" d="M181.418 682.305 C216.828 665.844 262 600 262 600 C262 600 260.445 600 294.358 600 L299.5 600 C315.194 600 322.781 616.533 312.549 628.432 L226.386 728.621 C218.691 737.568 191.603 750 179.803 750 L154.197 750 C142.397 750 115.309 737.568 107.614 728.621 L21.4515 628.432 C11.2186 616.533 18.8064 600 34.5 600 L48.321 600 C57.0926 600 83.0516 610.005 89.5545 615.891 L153.656 673.92 C165.326 684.485 167.143 688.941 181.418 682.305 L181.418 682.305 Z M167 0 C189.631 0 208 18.3692 208 41 L208 479 C208 501.631 189.631 520 167 520 C144.369 520 126 501.631 126 479 L126 41 C126 18.3692 144.369 0 167 0 L167 0 Z " />
<glyph glyph-name="idieresis" unicode="&#xef;" horiz-adv-x="278" d="M259 600 C283.287 600 303 619.713 303 644 L303 645 C303 669.287 283.287 689 259 689 C234.713 689 215 669.287 215 645 L215 644 C215 619.713 234.713 600 259 600 L259 600 Z M75.5 600 C100.063 600 120 619.937 120 644.5 C120 669.063 100.063 689 75.5 689 C50.9373 689 31 669.063 31 644.5 C31 619.937 50.9373 600 75.5 600 L75.5 600 Z M167 0 C189.631 0 208 18.3692 208 41 L208 479 C208 501.631 189.631 520 167 520 C144.369 520 126 501.631 126 479 L126 41 C126 18.3692 144.369 0 167 0 L167 0 Z " />
<glyph glyph-name="ntilde" unicode="&#xf1;" horiz-adv-x="541" d="M198.768 626.064 C200.88 655.76 207.6 666 222 666 C263 666 290 591 340 591 C338 591 334 655 334 655 C334 655 336.967 623.351 336.993 623.078 L337.2 620.869 C339.169 599.859 347.348 588.731 367.77 594.046 C401.145 602.734 414.652 631.12 417.436 693.303 C418.21 710.585 405.3 721 388 721 L383 721 C370.18 721 358.141 707.724 357.232 694.936 C355.582 671.736 351.12 660.411 342.38 656.566 C335.412 653.502 339.013 649.523 333.874 655.138 C330.611 658.703 264.75 730 216 730 C216.824 730 217.647 719.149 218.471 706.383 C218.479 706.246 218.265 705.844 218.252 705.981 L217.5 714 C216.562 724.01 209.183 730.293 199.208 729.033 C157.592 723.777 140.808 696.313 137.592 627.697 C136.767 610.093 149.877 600 167.5 600 L173 600 C185.82 600 197.859 613.276 198.768 626.064 L198.768 626.064 Z M476 40.5 L476 315 C476 492 439 525 318 525 C250.85 525 204.653 515.607 174.494 491.909 C169.06 487.639 160 492.089 160 499 C160 510.591 150.591 520 139 520 L119.5 520 C97.1452 520 79 501.855 79 479.5 L79 40.5 C79 18.1452 97.1452 0 119.5 0 C141.855 0 160 18.1452 160 40.5 L160 334 C160 406 187 428 277 428 C367 428 395 410 395 315 L395 40.5 C395 18.1452 413.145 0 435.5 0 C457.855 0 476 18.1452 476 40.5 L476 40.5 Z " />
<glyph glyph-name="ograve" unicode="&#xf2;" horiz-adv-x="590" d="M297.589 600 L300 600 C319.006 600 330.413 616.746 323.457 634.432 L293.321 711.049 C285.451 731.057 257.644 750 236.145 750 L225 750 C199.988 750 186.517 726.071 199.49 704.687 L245.059 629.572 C253.526 615.617 281.266 600 297.589 600 L297.589 600 Z M148 260 C148 427 184 450 300 450 C433 450 451 405 451 260 C451 93 416 70 300 70 C166 70 148 115 148 260 L148 260 Z M59 260 C59 54 88 -9 300 -9 C484 -9 540 23 540 260 C540 466 511 529 300 529 C116 529 59 497 59 260 L59 260 Z " />
<glyph glyph-name="oacute" unicode="&#xf3;" horiz-adv-x="590" d="M300 600 L302.411 600 C318.734 600 346.474 615.617 354.941 629.572 L400.51 704.687 C413.483 726.071 400.012 750 375 750 L363.855 750 C342.356 750 314.549 731.057 306.679 711.049 L276.543 634.432 C269.587 616.746 280.994 600 300 600 L300 600 Z M148 260 C148 427 184 450 300 450 C433 450 451 405 451 260 C451 93 416 70 300 70 C166 70 148 115 148 260 L148 260 Z M59 260 C59 54 88 -9 300 -9 C484 -9 540 23 540 260 C540 466 511 529 300 529 C116 529 59 497 59 260 L59 260 Z " />
<glyph glyph-name="ocircumflex" unicode="&#xf4;" horiz-adv-x="590" d="M314.418 682.305 C349.828 665.844 395 600 395 600 C395 600 393.445 600 427.358 600 L432.5 600 C448.194 600 455.781 616.533 445.549 628.432 L359.386 728.621 C351.691 737.568 324.603 750 312.803 750 L287.197 750 C275.397 750 248.309 737.568 240.614 728.621 L154.451 628.432 C144.219 616.533 151.806 600 167.5 600 L181.321 600 C190.093 600 216.052 610.005 222.554 615.891 L286.656 673.92 C298.326 684.485 300.143 688.941 314.418 682.305 L314.418 682.305 Z M148 260 C148 427 184 450 300 450 C433 450 451 405 451 260 C451 93 416 70 300 70 C166 70 148 115 148 260 L148 260 Z M59 260 C59 54 88 -9 300 -9 C484 -9 540 23 540 260 C540 466 511 529 300 529 C116 529 59 497 59 260 L59 260 Z " />
<glyph glyph-name="otilde" unicode="&#xf5;" horiz-adv-x="590" d="M220.768 626.064 C222.88 655.76 229.6 666 244 666 C285 666 312 591 362 591 C360 591 356 655 356 655 C356 655 358.967 623.351 358.993 623.078 L359.2 620.869 C361.169 599.859 369.348 588.731 389.77 594.046 C423.145 602.734 436.652 631.12 439.436 693.303 C440.21 710.585 427.3 721 410 721 L405 721 C392.18 721 380.141 707.724 379.232 694.936 C377.582 671.736 373.12 660.411 364.38 656.566 C357.412 653.502 361.013 649.523 355.874 655.138 C352.611 658.703 286.75 730 238 730 C238.824 730 239.647 719.149 240.471 706.383 C240.479 706.246 240.265 705.844 240.252 705.981 L239.5 714 C238.561 724.014 231.214 730.298 221.236 729.033 C179.764 723.777 163.636 696.313 160.564 627.697 C159.79 610.415 172.7 600 190 600 L195 600 C207.82 600 219.859 613.276 220.768 626.064 L220.768 626.064 Z M148 260 C148 427 184 450 300 450 C433 450 451 405 451 260 C451 93 416 70 300 70 C166 70 148 115 148 260 L148 260 Z M59 260 C59 54 88 -9 300 -9 C484 -9 540 23 540 260 C540 466 511 529 300 529 C116 529 59 497 59 260 L59 260 Z " />
<glyph glyph-name="odieresis" unicode="&#xf6;" horiz-adv-x="590" d="M374.5 600 C399.063 600 419 619.937 419 644.5 C419 669.063 399.063 689 374.5 689 C349.937 689 330 669.063 330 644.5 C330 619.937 349.937 600 374.5 600 L374.5 600 Z M225.5 600 C250.063 600 270 619.937 270 644.5 C270 669.063 250.063 689 225.5 689 C200.937 689 181 669.063 181 644.5 C181 619.937 200.937 600 225.5 600 L225.5 600 Z M148 260 C148 427 184 450 300 450 C433 450 451 405 451 260 C451 93 416 70 300 70 C166 70 148 115 148 260 L148 260 Z M59 260 C59 54 88 -9 300 -9 C484 -9 540 23 540 260 C540 466 511 529 300 529 C116 529 59 497 59 260 L59 260 Z " />
<glyph glyph-name="oslash" unicode="&#xf8;" horiz-adv-x="590" d="M59 260 C59 169.9 64.78 107.255 89.2366 65.3096 C95.0638 55.3156 93.7514 32.6551 86.3618 23.754 L71.4976 5.84938 C66.6147 -0.0323306 70.3556 -8 78 -8 C85.6505 -8 102.603 -0.030676 107.484 5.86039 L111.018 10.1253 C117.464 17.9053 133.449 21.2035 142.516 16.7456 C178.152 -0.775 228.6 -8 300 -8 C484 -8 540 24 540 261 C540 351.1 534.22 413.745 510.377 455.69 C504.741 465.606 506.14 488.214 513.426 496.99 L528.502 515.151 C533.385 521.032 529.644 529 522 529 C514.349 529 497.397 521.031 492.516 515.14 L488.982 510.875 C482.536 503.095 466.551 499.797 457.484 504.254 C421.847 521.775 371.4 529 300 529 C116 529 59 497 59 260 L59 260 Z M405.311 409.279 L177.685 133.926 C171.838 126.852 163.945 126.844 160.969 135.526 C150.89 164.927 148 205.6 148 260 C148 427 184 450 300 450 C348.45 450 381.728 444.22 404.131 429.589 C412.525 424.108 411.699 417.006 405.311 409.279 L405.311 409.279 Z M438.031 383.474 C448.11 354.072 451 313.4 451 259 C451 92 416 69 300 69 C252.975 69 220.243 74.445 197.312 88.1426 C188.385 93.4754 187.296 101.987 193.922 110.002 L421.315 385.074 C427.162 392.148 435.055 392.156 438.031 383.474 L438.031 383.474 Z " />
<glyph glyph-name="ugrave" unicode="&#xf9;" horiz-adv-x="534" d="M266.589 600 L269 600 C288.006 600 299.413 616.746 292.457 634.432 L262.321 711.049 C254.451 731.057 226.644 750 205.145 750 L194 750 C168.988 750 155.517 726.071 168.49 704.687 L214.059 629.572 C222.526 615.617 250.266 600 266.589 600 L266.589 600 Z M464 41 L464 479.5 C464 501.855 445.855 520 423.5 520 C401.145 520 383 501.855 383 479.5 L383 200 C383 114 357 87 274 87 C156 87 155 103 155 186 L155 479.5 C155 501.855 136.855 520 114.5 520 C92.1452 520 74 501.855 74 479.5 L74 186 C74 22 75 -9 241 -9 C300.4 -9 340.743 1.20937 367.081 27.8048 C371.466 32.2321 382 29.7311 382 23.5 C382 10.5287 392.529 0 405.5 0 L423 0 C445.631 0 464 18.3692 464 41 L464 41 Z " />
<glyph glyph-name="uacute" unicode="&#xfa;" horiz-adv-x="534" d="M269 600 L271.411 600 C287.734 600 315.474 615.617 323.941 629.572 L369.51 704.687 C382.483 726.071 369.012 750 344 750 L332.855 750 C311.356 750 283.549 731.057 275.679 711.049 L245.543 634.432 C238.587 616.746 249.994 600 269 600 L269 600 Z M464 41 L464 479.5 C464 501.855 445.855 520 423.5 520 C401.145 520 383 501.855 383 479.5 L383 200 C383 114 357 87 274 87 C156 87 155 103 155 186 L155 479.5 C155 501.855 136.855 520 114.5 520 C92.1452 520 74 501.855 74 479.5 L74 186 C74 22 75 -9 241 -9 C300.4 -9 340.743 1.20937 367.081 27.8048 C371.466 32.2321 382 29.7311 382 23.5 C382 10.5287 392.529 0 405.5 0 L423 0 C445.631 0 464 18.3692 464 41 L464 41 Z " />
<glyph glyph-name="ucircumflex" unicode="&#xfb;" horiz-adv-x="534" d="M283.418 682.305 C318.828 665.844 364 600 364 600 C364 600 362.445 600 396.358 600 L401.5 600 C417.194 600 424.781 616.533 414.549 628.432 L328.386 728.621 C320.691 737.568 293.603 750 281.803 750 L256.197 750 C244.397 750 217.309 737.568 209.614 728.621 L123.451 628.432 C113.219 616.533 120.806 600 136.5 600 L150.321 600 C159.093 600 185.052 610.005 191.554 615.891 L255.656 673.92 C267.326 684.485 269.143 688.941 283.418 682.305 L283.418 682.305 Z M464 41 L464 479.5 C464 501.855 445.855 520 423.5 520 C401.145 520 383 501.855 383 479.5 L383 200 C383 114 357 87 274 87 C156 87 155 103 155 186 L155 479.5 C155 501.855 136.855 520 114.5 520 C92.1452 520 74 501.855 74 479.5 L74 186 C74 22 75 -9 241 -9 C300.4 -9 340.743 1.20937 367.081 27.8048 C371.466 32.2321 382 29.7311 382 23.5 C382 10.5287 392.529 0 405.5 0 L423 0 C445.631 0 464 18.3692 464 41 L464 41 Z " />
<glyph glyph-name="udieresis" unicode="&#xfc;" horiz-adv-x="534" d="M343.5 600 C368.063 600 388 619.937 388 644.5 C388 669.063 368.063 689 343.5 689 C318.937 689 299 669.063 299 644.5 C299 619.937 318.937 600 343.5 600 L343.5 600 Z M194.5 600 C219.063 600 239 619.937 239 644.5 C239 669.063 219.063 689 194.5 689 C169.937 689 150 669.063 150 644.5 C150 619.937 169.937 600 194.5 600 L194.5 600 Z M464 41 L464 479.5 C464 501.855 445.855 520 423.5 520 C401.145 520 383 501.855 383 479.5 L383 200 C383 114 357 87 274 87 C156 87 155 103 155 186 L155 479.5 C155 501.855 136.855 520 114.5 520 C92.1452 520 74 501.855 74 479.5 L74 186 C74 22 75 -9 241 -9 C300.4 -9 340.743 1.20937 367.081 27.8048 C371.466 32.2321 382 29.7311 382 23.5 C382 10.5287 392.529 0 405.5 0 L423 0 C445.631 0 464 18.3692 464 41 L464 41 Z " />
<glyph glyph-name="yacute" unicode="&#xfd;" horiz-adv-x="496" d="M252.5 600 L255.411 600 C271.734 600 299.474 615.617 307.941 629.572 L353.251 704.259 C366.346 725.845 352.748 750 327.5 750 L315.855 750 C294.356 750 266.549 731.057 258.679 711.049 L228.726 634.898 C221.676 616.972 233.238 600 252.5 600 L252.5 600 Z M105.781 519.914 L44.6387 518.912 C31.4583 518.696 23.4245 507.202 27.75 494.75 L36 471 L197.785 1.42981 C198.505 -0.661963 198.651 -9.3854 198 -11.5 L196 -18 C165 -107 165 -107 104 -107 L79 -107 C65.2007 -107 54 -118.201 54 -132 L54 -175 C54 -188.799 65.2007 -200 79 -200 L104 -200 C230 -200 231 -199 280 -59 L481 505 C485 516 486 520 486 520 L370.272 520 C367.955 520 365.303 518.084 364.563 515.888 C360.121 502.699 350 470 350 470 L294 293.5 C276.179 237.333 199.821 237.333 182 293.5 L126 470 C126 470 116.43 500.625 112.027 514.98 C111.221 517.61 108.531 519.96 105.781 519.914 L105.781 519.914 Z " />
<glyph glyph-name="thorn" unicode="&#xfe;" horiz-adv-x="599" d="M120 750 L99.5 750 C88.1846 750 79 740.815 79 729.5 L79 -209.5 C79 -231.855 97.1452 -250 119.5 -250 C141.855 -250 160 -231.855 160 -209.5 L160 12.4559 C160 20.6129 172.649 24.9756 179.297 20.2499 C212.788 -3.555 261.525 -9 330 -9 C497 -9 548 54 548 260 C548 466 497 529 330 529 C261.525 529 212.788 523.555 179.297 499.75 C172.649 495.024 160 499.387 160 507.544 L160 730 C160 741.039 151.039 750 140 750 L120 750 L120 750 Z M160 260 C160 419 192 441 296 441 C421 441 460 398 460 260 C460 118 422 74 298 74 C192 74 160 96 160 260 L160 260 Z " />
<glyph glyph-name="ydieresis" unicode="&#xff;" horiz-adv-x="496" d="M326.5 600 C351.063 600 371 619.937 371 644.5 C371 669.063 351.063 689 326.5 689 C301.937 689 282 669.063 282 644.5 C282 619.937 301.937 600 326.5 600 L326.5 600 Z M178.5 600 C203.063 600 223 619.937 223 644.5 C223 669.063 203.063 689 178.5 689 C153.937 689 134 669.063 134 644.5 C134 619.937 153.937 600 178.5 600 L178.5 600 Z M105.781 519.914 L44.6387 518.912 C31.4583 518.696 23.4245 507.202 27.75 494.75 L36 471 L197.785 1.42981 C198.505 -0.661963 198.651 -9.3854 198 -11.5 L196 -18 C165 -107 165 -107 104 -107 L79 -107 C65.2007 -107 54 -118.201 54 -132 L54 -175 C54 -188.799 65.2007 -200 79 -200 L104 -200 C230 -200 231 -199 280 -59 L481 505 C485 516 486 520 486 520 L370.272 520 C367.955 520 365.303 518.084 364.563 515.888 C360.121 502.699 350 470 350 470 L294 293.5 C276.179 237.333 199.821 237.333 182 293.5 L126 470 C126 470 116.43 500.625 112.027 514.98 C111.221 517.61 108.531 519.96 105.781 519.914 L105.781 519.914 Z " />
<glyph glyph-name="Amacron" unicode="&#x100;" horiz-adv-x="718" d="M253.5 830 L476.5 830 C492.231 830 505 842.769 505 858.5 C505 874.231 492.231 887 476.5 887 L253.5 887 C237.769 887 225 874.231 225 858.5 C225 842.769 237.769 830 253.5 830 L253.5 830 Z M160 50 L318.483 453.544 C339.996 508.324 411.646 508.184 432.946 453.321 L475.514 343.676 C492.23 300.62 464.426 260 418.239 260 L284.029 260 C262.408 260 234.603 240.98 226.767 220.829 L224.5 215 C215.497 191.85 230.444 170 255.283 170 L500.953 170 C522.587 170 550.391 150.972 558.224 130.806 L589.077 51.3765 C589.092 51.3378 590.661 46.5868 590.673 46.5471 C593.153 38.5 601.348 16.5216 606.527 5.06113 C607.697 2.47259 611.307 0 614.148 0 L697.23 0 C702.749 0 706.05 4.87509 704 10 L700 20 L428.514 709.006 C426.44 714.269 426.431 731.734 428.5 737 C431.326 744.192 426.686 751 418.958 751 L327.577 751 C320.126 751 310.311 744.401 307.5 737.5 L302 724 L294 702 L33 50.5 L24 28 C17 10 14 1 14 1 C14 1 16.8563 1 18.7434 1 L142 1 C143 5 160.5 50.5 160.5 50.5 L160 50 Z " />
<glyph glyph-name="amacron" unicode="&#x101;" horiz-adv-x="550" d="M154.5 600 L377.5 600 C393.231 600 406 612.769 406 628.5 C406 644.231 393.231 657 377.5 657 L154.5 657 C138.769 657 126 644.231 126 628.5 C126 612.769 138.769 600 154.5 600 L154.5 600 Z M105.5 374 L122.468 368.402 C137.557 363.425 158.687 372.974 165.667 387.248 C185.294 427.387 212.375 441 266 441 C363 441 393 436 393 383 C393 330 350 318 212 281 C87 247 49 214 49 138 C49 26 63 -9 220 -9 C296.125 -9 346.984 -9 379.277 13.1074 C382.623 15.3978 392.623 12.4361 394.48 8.832 C401.06 -3.936 423.32 -1.122 490.415 -0.219 C506.75 0.000842106 522 13.6637 522 30 L522 32.5 C522 47.8237 509.216 59.8801 493.893 59.7342 C470.994 59.5162 477 60.95 477 78 L477 348 C477 514 428 529 268 529 C164.875 529 112.797 506.539 78.0747 439.158 C63.1449 410.185 74.5476 384.211 105.5 374 L105.5 374 Z M395 237.793 L395 156 C389 66 353 65 255 65 C143 65 133 83 133 141 C133 167 167 184 278 214 C323.05 225.9 356.901 235.271 382.624 246.413 C389.168 249.247 395 244.924 395 237.793 L395 237.793 Z " />
<glyph glyph-name="Abreve" unicode="&#x102;" horiz-adv-x="718" d="M221.063 926.219 C227.57 846.11 265.1 821 365 821 C464.9 821 502.43 846.11 508.937 926.219 C510.386 944.06 497.9 955 480 955 L479.5 955 C466.514 955 450.03 937.052 447.4 924.336 C440.2 889.52 417 878 365 878 C313 878 289.8 889.52 282.6 924.336 C279.97 937.052 263.486 955 250.5 955 L250 955 C232.1 955 219.614 944.06 221.063 926.219 L221.063 926.219 Z M160 50 L318.483 453.544 C339.996 508.324 411.646 508.184 432.946 453.321 L475.514 343.676 C492.23 300.62 464.426 260 418.239 260 L284.029 260 C262.408 260 234.603 240.98 226.767 220.829 L224.5 215 C215.497 191.85 230.444 170 255.283 170 L500.953 170 C522.587 170 550.391 150.972 558.224 130.806 L589.077 51.3765 C589.092 51.3378 590.661 46.5868 590.673 46.5471 C593.153 38.5 601.348 16.5216 606.527 5.06113 C607.697 2.47259 611.307 0 614.148 0 L697.23 0 C702.749 0 706.05 4.87509 704 10 L700 20 L428.514 709.006 C426.44 714.269 426.431 731.734 428.5 737 C431.326 744.192 426.686 751 418.958 751 L327.577 751 C320.126 751 310.311 744.401 307.5 737.5 L302 724 L294 702 L33 50.5 L24 28 C17 10 14 1 14 1 C14 1 16.8563 1 18.7434 1 L142 1 C143 5 160.5 50.5 160.5 50.5 L160 50 Z " />
<glyph glyph-name="abreve" unicode="&#x103;" horiz-adv-x="550" d="M122.063 696.219 C128.57 616.11 166.1 591 266 591 C365.9 591 403.43 616.11 409.937 696.219 C411.386 714.06 398.9 725 381 725 L380.5 725 C367.514 725 351.03 707.052 348.4 694.336 C341.2 659.52 318 648 266 648 C214 648 190.8 659.52 183.6 694.336 C180.97 707.052 164.486 725 151.5 725 L151 725 C133.1 725 120.614 714.06 122.063 696.219 L122.063 696.219 Z M105.5 374 L122.468 368.402 C137.557 363.425 158.687 372.974 165.667 387.248 C185.294 427.387 212.375 441 266 441 C363 441 393 436 393 383 C393 330 350 318 212 281 C87 247 49 214 49 138 C49 26 63 -9 220 -9 C296.125 -9 346.984 -9 379.277 13.1074 C382.623 15.3978 392.623 12.4361 394.48 8.832 C401.06 -3.936 423.32 -1.122 490.415 -0.219 C506.75 0.000842106 522 13.6637 522 30 L522 32.5 C522 47.8237 509.216 59.8801 493.893 59.7342 C470.994 59.5162 477 60.95 477 78 L477 348 C477 514 428 529 268 529 C164.875 529 112.797 506.539 78.0747 439.158 C63.1449 410.185 74.5476 384.211 105.5 374 L105.5 374 Z M395 237.793 L395 156 C389 66 353 65 255 65 C143 65 133 83 133 141 C133 167 167 184 278 214 C323.05 225.9 356.901 235.271 382.624 246.413 C389.168 249.247 395 244.924 395 237.793 L395 237.793 Z " />
<glyph glyph-name="Aogonek" unicode="&#x104;" horiz-adv-x="718" d="M160 50 L318.483 453.544 C339.996 508.324 411.646 508.184 432.946 453.321 L475.514 343.676 C492.23 300.62 464.426 260 418.239 260 L284.029 260 C262.408 260 234.603 240.98 226.767 220.829 L224.5 215 C215.497 191.85 230.444 170 255.283 170 L500.953 170 C522.587 170 550.391 150.972 558.224 130.806 L589.077 51.3765 C589.092 51.3378 590.661 46.5868 590.673 46.5471 C593.153 38.5 601.348 16.5216 606.527 5.06113 C607.697 2.47259 611.307 0 614.148 0 L631.672 0 C638.295 0 640.91 -8.75336 636.772 -13.9251 C618.293 -37.0225 604 -65.65 604 -97 C604 -187 631 -214 720 -214 C762.075 -214 783.051 -210.597 796.403 -200.983 C801.7 -197.17 803.377 -190.659 802.181 -184.243 L794.302 -141.986 C793.83 -139.45 789.769 -138.494 787.659 -139.977 C777.75 -146.94 760.8 -149 726 -149 C667 -149 649 -135 649 -89 C649 -53.125 676.563 -22.6094 698.861 -6.83203 C703.118 -3.82008 705.937 4.15826 704 9 L700 19 L428.514 708.006 C426.44 713.269 426.431 730.734 428.5 736 C431.326 743.192 426.686 750 418.958 750 L327.577 750 C320.126 750 310.311 743.401 307.5 736.5 L302 723 L294 701 L33 49.5 L24 27 C17 9 14 0 14 0 C14 0 16.8563 0 18.7434 0 L142 0 C143 4 160.5 50 160.5 50 L160 50 Z " />
<glyph glyph-name="aogonek" unicode="&#x105;" horiz-adv-x="550" d="M105.5 374 L122.468 368.402 C137.557 363.425 158.687 372.974 165.667 387.248 C185.294 427.387 212.375 441 266 441 C363 441 393 436 393 383 C393 330 350 318 212 281 C87 247 49 214 49 138 C49 26 63 -9 220 -9 C298.3 -9 349.87 -9 382 15.057 C385.202 17.4541 392.285 14.3347 393.584 10.552 C397.728 -1.516 411.476 -1.922 451.292 -1.299 C458.133 -1.19196 460.326 -10.3075 455.694 -15.3421 C434.016 -38.9 417 -66.95 417 -95 C417 -186 444 -214 533 -214 C575.075 -214 596.051 -210.597 609.403 -200.983 C614.7 -197.17 616.377 -190.659 615.181 -184.243 L607.302 -141.986 C606.83 -139.45 602.769 -138.494 600.659 -139.977 C590.75 -146.94 573.8 -149 539 -149 C480 -149 462 -134 462 -87 C462 -53 488.01 -24.0575 509.938 -8.15613 C514.116 -5.12664 521 7.04937 521 12.2098 L521 31.5 C521 46.8237 508.216 58.8801 492.893 58.7342 C469.994 58.5163 476 59.95 476 77 L476 347 C476 513 427 528 267 528 C163.875 528 112.137 505.88 77.5341 438.617 C62.6326 409.651 74.5655 384.205 105.5 374 L105.5 374 Z M394 236.793 L394 155 C388 65 352 64 254 64 C142 64 132 82 132 140 C132 166 166 183 277 213 C322.05 224.9 355.901 234.271 381.624 245.413 C388.168 248.247 394 243.924 394 236.793 L394 236.793 Z " />
<glyph glyph-name="Cacute" unicode="&#x106;" horiz-adv-x="722" d="M381.5 830 L384.411 830 C400.734 830 428.474 845.617 436.941 859.572 L482.251 934.259 C495.346 955.845 481.748 980 456.5 980 L444.855 980 C423.356 980 395.549 961.057 387.679 941.049 L357.726 864.898 C350.676 846.972 362.238 830 381.5 830 L381.5 830 Z M588.976 178.404 C546.214 110.461 491.95 88 388 88 C214 88 160 177 160 375 C160 573 214 662 388 662 C480.4 662 532.643 639.539 582.912 571.596 C599.537 549.126 637.087 540.533 658.5 558.5 L698.057 591.691 C700.194 593.484 700.855 597.061 699.5 599.5 L697 604 C627 722 553 759 389 759 C139 759 62 639 62 375 C62 111 139 -9 389 -9 C550 -9 626.781 20.8594 680.977 112.064 C695.603 136.679 689.108 166.524 667.071 184.805 L659 191.5 C638.13 208.812 603.42 201.353 588.976 178.404 L588.976 178.404 Z " />
<glyph glyph-name="cacute" unicode="&#x107;" horiz-adv-x="561" d="M292 600 L294.411 600 C310.734 600 338.474 615.617 346.941 629.572 L392.51 704.687 C405.483 726.071 392.012 750 367 750 L355.855 750 C334.356 750 306.549 731.057 298.679 711.049 L268.543 634.432 C261.587 616.746 272.994 600 292 600 L292 600 Z M420.828 137.602 C396.569 93.2931 361.3 79 292 79 C182 79 148 101 148 260 C148 424 182 446 292 446 C358.4 446 384.48 429.36 413.76 378.672 C426.051 357.394 457.957 344.141 480.076 354.843 L483.5 356.5 C510.683 369.653 520.804 399.183 505.998 425.502 C462 503.712 420.35 529 292 529 C114 529 59 497 59 260 C59 23 114 -9 292 -9 C412.45 -9 471.644 12.0994 509.449 76.1972 C527.373 106.587 514.688 130.986 483 146.5 L468.379 153.658 C452.667 161.351 429.23 152.947 420.828 137.602 L420.828 137.602 Z " />
<glyph glyph-name="Ccircumflex" unicode="&#x108;" horiz-adv-x="722" d="M396.418 912.305 C431.828 895.844 477 830 477 830 C477 830 475.445 830 509.358 830 L514.5 830 C530.194 830 537.781 846.533 527.549 858.432 L441.386 958.621 C433.691 967.568 406.603 980 394.803 980 L368.34 980 C356.441 980 329.328 967.494 321.604 958.442 L236.017 858.145 C225.933 846.328 233.465 830 249 830 L262.505 830 C271.158 830 297.055 839.903 303.5 845.677 L368.593 903.99 C380.317 914.492 382.144 918.94 396.418 912.305 L396.418 912.305 Z M588.976 178.404 C546.214 110.461 491.95 88 388 88 C214 88 160 177 160 375 C160 573 214 662 388 662 C480.4 662 532.643 639.539 582.912 571.596 C599.537 549.126 637.087 540.533 658.5 558.5 L698.057 591.691 C700.194 593.484 700.855 597.061 699.5 599.5 L697 604 C627 722 553 759 389 759 C139 759 62 639 62 375 C62 111 139 -9 389 -9 C550 -9 626.781 20.8594 680.977 112.064 C695.603 136.679 689.108 166.524 667.071 184.805 L659 191.5 C638.13 208.812 603.42 201.353 588.976 178.404 L588.976 178.404 Z " />
<glyph glyph-name="Cdot" unicode="&#x10a;" horiz-adv-x="722" d="M381.5 830 C406.063 830 426 849.937 426 874.5 C426 899.063 406.063 919 381.5 919 C356.937 919 337 899.063 337 874.5 C337 849.937 356.937 830 381.5 830 L381.5 830 Z M588.976 178.404 C546.214 110.461 491.95 88 388 88 C214 88 160 177 160 375 C160 573 214 662 388 662 C480.4 662 532.643 639.539 582.912 571.596 C599.537 549.126 637.087 540.533 658.5 558.5 L698.057 591.691 C700.194 593.484 700.855 597.061 699.5 599.5 L697 604 C627 722 553 759 389 759 C139 759 62 639 62 375 C62 111 139 -9 389 -9 C550 -9 626.781 20.8594 680.977 112.064 C695.603 136.679 689.108 166.524 667.071 184.805 L659 191.5 C638.13 208.812 603.42 201.353 588.976 178.404 L588.976 178.404 Z " />
<glyph glyph-name="cdot" unicode="&#x10b;" horiz-adv-x="561" d="M292 600 C316.287 600 336 619.713 336 644 L336 645 C336 669.287 316.287 689 292 689 C267.713 689 248 669.287 248 645 L248 644 C248 619.713 267.713 600 292 600 L292 600 Z M420.828 137.602 C396.569 93.2931 361.3 79 292 79 C182 79 148 101 148 260 C148 424 182 446 292 446 C358.4 446 384.48 429.36 413.76 378.672 C426.051 357.394 457.957 344.141 480.076 354.843 L483.5 356.5 C510.683 369.653 520.804 399.183 505.998 425.502 C462 503.712 420.35 529 292 529 C114 529 59 497 59 260 C59 23 114 -9 292 -9 C412.45 -9 471.644 12.0994 509.449 76.1972 C527.373 106.587 514.688 130.986 483 146.5 L468.379 153.658 C452.667 161.351 429.23 152.947 420.828 137.602 L420.828 137.602 Z " />
<glyph glyph-name="Ccaron" unicode="&#x10c;" horiz-adv-x="722" d="M368.593 906.01 L303.5 964.323 C297.055 970.097 271.158 980 262.505 980 L249 980 C233.465 980 225.933 963.672 236.017 951.855 L321.604 851.558 C329.328 842.506 356.441 830 368.34 830 L394.803 830 C406.603 830 433.691 842.432 441.386 851.379 L527.549 951.568 C537.781 963.467 530.194 980 514.5 980 L509.358 980 C494.732 980 485.209 991.872 476.891 979.841 C474.427 976.278 430.816 913.686 396.418 897.695 C382.144 891.06 380.317 895.508 368.593 906.01 L368.593 906.01 Z M588.976 178.404 C546.214 110.461 491.95 88 388 88 C214 88 160 177 160 375 C160 573 214 662 388 662 C480.4 662 532.643 639.539 582.912 571.596 C599.537 549.126 637.087 540.533 658.5 558.5 L698.057 591.691 C700.194 593.484 700.855 597.061 699.5 599.5 L697 604 C627 722 553 759 389 759 C139 759 62 639 62 375 C62 111 139 -9 389 -9 C550 -9 626.781 20.8594 680.977 112.064 C695.603 136.679 689.108 166.524 667.071 184.805 L659 191.5 C638.13 208.812 603.42 201.353 588.976 178.404 L588.976 178.404 Z " />
<glyph glyph-name="ccaron" unicode="&#x10d;" horiz-adv-x="561" d="M278.656 676.08 L214.554 734.109 C208.052 739.995 182.093 750 173.321 750 L159.5 750 C143.806 750 136.219 733.467 146.451 721.568 L232.614 621.379 C240.309 612.432 267.397 600 279.197 600 L304.803 600 C316.603 600 343.691 612.432 351.386 621.379 L437.549 721.568 C447.781 733.467 440.194 750 424.5 750 L419.358 750 C404.732 750 395.209 761.872 386.891 749.841 C384.427 746.278 340.816 683.686 306.418 667.695 C292.143 661.059 290.326 665.515 278.656 676.08 L278.656 676.08 Z M420.828 137.602 C396.569 93.2931 361.3 79 292 79 C182 79 148 101 148 260 C148 424 182 446 292 446 C358.4 446 384.48 429.36 413.76 378.672 C426.051 357.394 457.957 344.141 480.076 354.843 L483.5 356.5 C510.683 369.653 520.804 399.183 505.998 425.502 C462 503.712 420.35 529 292 529 C114 529 59 497 59 260 C59 23 114 -9 292 -9 C412.45 -9 471.644 12.0994 509.449 76.1972 C527.373 106.587 514.688 130.986 483 146.5 L468.379 153.658 C452.667 161.351 429.23 152.947 420.828 137.602 L420.828 137.602 Z " />
<glyph glyph-name="Dcaron" unicode="&#x10e;" horiz-adv-x="765" d="M340.593 906.01 L275.5 964.323 C269.055 970.097 243.158 980 234.505 980 L221 980 C205.465 980 197.933 963.672 208.017 951.855 L293.604 851.558 C301.328 842.506 328.441 830 340.34 830 L366.803 830 C378.603 830 405.691 842.432 413.386 851.379 L499.549 951.568 C509.781 963.467 502.194 980 486.5 980 L481.358 980 C466.732 980 457.209 991.872 448.891 979.841 C446.427 976.278 402.816 913.686 368.418 897.695 C354.144 891.06 352.317 895.508 340.593 906.01 L340.593 906.01 Z M350 0 C661 0 710 51 710 375 C710 691 648 750 320 750 L157.44 750 C123.527 750 96 722.473 96 688.56 L96 61.44 C96 27.527 123.527 0 157.44 0 L350 0 L350 0 Z M187 153.44 L187 596.56 C187 630.473 214.527 658 248.44 658 L325 658 C566 658 611 613 611 375 C611 130 575 92 342 92 L248.44 92 C214.527 92 187 119.527 187 153.44 L187 153.44 Z " />
<glyph glyph-name="dcaron" unicode="&#x10f;" horiz-adv-x="579" d="M557.221 714.536 L554.219 639.476 C553.547 622.667 566.678 609 583.5 609 C599.919 609 617.113 622.733 620.742 638.745 L638.163 715.601 C643.458 738.963 627.455 759 603.5 759 C578.957 759 558.202 739.059 557.221 714.536 L557.221 714.536 Z M148 260 C148 398 184 441 302 441 C398 441 427 398 427 260 C427 122 398 79 302 79 C184 79 148 122 148 260 L148 260 Z M59 260 C59 54 108 -9 267 -9 C332.45 -9 379.115 1.8375 411.294 29.0396 C416.877 33.7597 427 29.8113 427 22.5 C427 10.0807 437.081 0 449.5 0 L468 0 C490.631 0 509 18.3692 509 41 L509 709 C509 731.631 490.631 750 468 750 C445.369 750 427 731.631 427 709 L427 500.224 C427 492.145 414.743 488.293 408.417 493.318 C376.354 518.791 330.525 529 267 529 C108 529 59 466 59 260 L59 260 Z " />
<glyph glyph-name="Dcroat" unicode="&#x110;" horiz-adv-x="765" d="M53 338 L56 338 C78.0788 338 96 320.079 96 298 L96 61.44 C96 27.527 123.527 0 157.44 0 L350 0 C661 0 710 51 710 375 C710 691 648 750 320 750 L157.44 750 C123.527 750 96 722.473 96 688.56 L96 452 C96 429.921 78.0788 412 56 412 L53 412 C32.5771 412 16 395.423 16 375 C16 354.577 32.5771 338 53 338 L53 338 Z M187 153.44 L187 276.56 C187 310.473 214.527 338 248.44 338 L317 338 C337.423 338 354 354.577 354 375 C354 395.423 337.423 412 317 412 L248.44 412 C214.527 412 187 439.527 187 473.44 L187 596.56 C187 630.473 214.527 658 248.44 658 L325 658 C566 658 611 613 611 375 C611 130 575 92 342 92 L248.44 92 C214.527 92 187 119.527 187 153.44 L187 153.44 Z " />
<glyph glyph-name="dcroat" unicode="&#x111;" horiz-adv-x="579" d="M304.5 602 L365.56 602 C399.473 602 427 574.473 427 540.56 L427 500.224 C427 492.145 414.743 488.293 408.417 493.318 C376.354 518.791 330.525 529 267 529 C108 529 59 466 59 260 C59 54 108 -9 267 -9 C332.45 -9 379.115 1.8375 411.294 29.0396 C416.877 33.7597 427 29.8113 427 22.5 C427 10.0807 437.081 0 449.5 0 L468 0 C490.631 0 509 18.3692 509 41 L509 555 C509 580.943 530.057 602 556 602 L565.5 602 C586.199 602 603 618.801 603 639.5 C603 660.199 586.199 677 565.5 677 L545.5 677 C525.353 677 509 693.353 509 713.5 C509 733.647 492.647 750 472.5 750 L463.5 750 C443.353 750 427 733.647 427 713.5 C427 693.353 410.647 677 390.5 677 L304.5 677 C283.801 677 267 660.199 267 639.5 C267 618.801 283.801 602 304.5 602 L304.5 602 Z M148 260 C148 398 184 441 302 441 C398 441 427 398 427 260 C427 122 398 79 302 79 C184 79 148 122 148 260 L148 260 Z " />
<glyph glyph-name="Emacron" unicode="&#x112;" horiz-adv-x="612" d="M210.5 830 L433.5 830 C449.231 830 462 842.769 462 858.5 C462 874.231 449.231 887 433.5 887 L210.5 887 C194.769 887 182 874.231 182 858.5 C182 842.769 194.769 830 210.5 830 L210.5 830 Z M513.5 97 L248.44 97 C214.527 97 187 124.527 187 158.44 L187 279.56 C187 313.473 214.527 341 248.44 341 L481 341 C506.391 341 527 361.609 527 387 C527 412.391 506.391 433 481 433 L248.44 433 C214.527 433 187 460.527 187 494.44 L187 591.56 C187 625.473 214.527 653 248.44 653 L498.5 653 C525.271 653 547 674.729 547 701.5 C547 728.271 525.271 750 498.5 750 L157.44 750 C123.527 750 96 722.473 96 688.56 L96 61.44 C96 27.527 123.527 0 157.44 0 L513.5 0 C540.271 0 562 21.7295 562 48.5 C562 75.2705 540.271 97 513.5 97 L513.5 97 Z " />
<glyph glyph-name="emacron" unicode="&#x113;" horiz-adv-x="568" d="M193.5 600 L416.5 600 C432.231 600 445 612.769 445 628.5 C445 644.231 432.231 657 416.5 657 L193.5 657 C177.769 657 165 644.231 165 628.5 C165 612.769 177.769 600 193.5 600 L193.5 600 Z M428.385 133.875 C408.704 92.6125 373.25 79 299 79 C202.1 79 161.555 94.1725 150.958 190.843 C146.859 228.228 172.242 250 209.851 250 L488.56 250 C523.548 250 550.324 274.6 549.215 309.571 C543.95 475.54 507.5 529 305 529 C117 529 59 497 59 260 C59 23 115 -9 299 -9 C426.875 -9 488.049 12.0994 520.704 77.3203 C536.831 109.53 522.015 131.297 488.5 144.5 L470.255 151.687 C456.017 157.296 434.973 147.688 428.385 133.875 L428.385 133.875 Z M419.826 324 L204.235 324 C169.161 324 150.137 344.064 161.064 377.392 C180.2 435.76 223.4 446 305 446 C405.65 446 444.363 425.581 459.322 366.775 C466.503 338.547 448.953 324 419.826 324 L419.826 324 Z " />
<glyph glyph-name="Ebreve" unicode="&#x114;" horiz-adv-x="612" d="M177.064 926.219 C183.58 846.11 221.2 821 322 821 C421 821 458.44 846.11 464.938 926.219 C466.385 944.058 453.898 955 436 955 L435.5 955 C422.5 955 406.029 937.069 403.408 924.336 C396.24 889.52 373.2 878 322 878 C270 878 246.8 889.52 239.6 924.336 C236.97 937.052 220.486 955 207.5 955 L206.5 955 C188.3 955 175.589 944.359 177.064 926.219 L177.064 926.219 Z M513.5 97 L248.44 97 C214.527 97 187 124.527 187 158.44 L187 279.56 C187 313.473 214.527 341 248.44 341 L481 341 C506.391 341 527 361.609 527 387 C527 412.391 506.391 433 481 433 L248.44 433 C214.527 433 187 460.527 187 494.44 L187 591.56 C187 625.473 214.527 653 248.44 653 L498.5 653 C525.271 653 547 674.729 547 701.5 C547 728.271 525.271 750 498.5 750 L157.44 750 C123.527 750 96 722.473 96 688.56 L96 61.44 C96 27.527 123.527 0 157.44 0 L513.5 0 C540.271 0 562 21.7295 562 48.5 C562 75.2705 540.271 97 513.5 97 L513.5 97 Z " />
<glyph glyph-name="ebreve" unicode="&#x115;" horiz-adv-x="568" d="M161.063 696.219 C167.57 616.11 205.1 591 305 591 C404.9 591 442.43 616.11 448.937 696.219 C450.386 714.06 437.9 725 420 725 L419.5 725 C406.514 725 390.03 707.052 387.4 694.336 C380.2 659.52 357 648 305 648 C253 648 229.8 659.52 222.6 694.336 C219.97 707.052 203.486 725 190.5 725 L190 725 C172.1 725 159.614 714.06 161.063 696.219 L161.063 696.219 Z M428.385 133.875 C408.704 92.6125 373.25 79 299 79 C202.1 79 161.555 94.1725 150.958 190.843 C146.859 228.228 172.242 250 209.851 250 L488.56 250 C523.548 250 550.324 274.6 549.215 309.571 C543.95 475.54 507.5 529 305 529 C117 529 59 497 59 260 C59 23 115 -9 299 -9 C426.875 -9 488.049 12.0994 520.704 77.3203 C536.831 109.53 522.015 131.297 488.5 144.5 L470.255 151.687 C456.017 157.296 434.973 147.688 428.385 133.875 L428.385 133.875 Z M419.826 324 L204.235 324 C169.161 324 150.137 344.064 161.064 377.392 C180.2 435.76 223.4 446 305 446 C405.65 446 444.363 425.581 459.322 366.775 C466.503 338.547 448.953 324 419.826 324 L419.826 324 Z " />
<glyph glyph-name="Edot" unicode="&#x116;" horiz-adv-x="612" d="M321.5 830 C346.063 830 366 849.937 366 874.5 C366 899.063 346.063 919 321.5 919 C296.937 919 277 899.063 277 874.5 C277 849.937 296.937 830 321.5 830 L321.5 830 Z M513.5 97 L248.44 97 C214.527 97 187 124.527 187 158.44 L187 279.56 C187 313.473 214.527 341 248.44 341 L481 341 C506.391 341 527 361.609 527 387 C527 412.391 506.391 433 481 433 L248.44 433 C214.527 433 187 460.527 187 494.44 L187 591.56 C187 625.473 214.527 653 248.44 653 L498.5 653 C525.271 653 547 674.729 547 701.5 C547 728.271 525.271 750 498.5 750 L157.44 750 C123.527 750 96 722.473 96 688.56 L96 61.44 C96 27.527 123.527 0 157.44 0 L513.5 0 C540.271 0 562 21.7295 562 48.5 C562 75.2705 540.271 97 513.5 97 L513.5 97 Z " />
<glyph glyph-name="edot" unicode="&#x117;" horiz-adv-x="568" d="M305 600 C329.287 600 349 619.713 349 644 L349 645 C349 669.287 329.287 689 305 689 C280.713 689 261 669.287 261 645 L261 644 C261 619.713 280.713 600 305 600 L305 600 Z M428.385 133.875 C408.704 92.6125 373.25 79 299 79 C202.1 79 161.555 94.1725 150.958 190.843 C146.859 228.228 172.242 250 209.851 250 L488.56 250 C523.548 250 550.324 274.6 549.215 309.571 C543.95 475.54 507.5 529 305 529 C117 529 59 497 59 260 C59 23 115 -9 299 -9 C426.875 -9 488.049 12.0994 520.704 77.3203 C536.831 109.53 522.015 131.297 488.5 144.5 L470.255 151.687 C456.017 157.296 434.973 147.688 428.385 133.875 L428.385 133.875 Z M419.826 324 L204.235 324 C169.161 324 150.137 344.064 161.064 377.392 C180.2 435.76 223.4 446 305 446 C405.65 446 444.363 425.581 459.322 366.775 C466.503 338.547 448.953 324 419.826 324 L419.826 324 Z " />
<glyph glyph-name="Eogonek" unicode="&#x118;" horiz-adv-x="612" d="M276.255 -14.3421 C254.016 -37.9 237 -65.95 237 -94 C237 -185 264 -213 353 -213 C395.075 -213 416.051 -209.597 429.403 -199.983 C434.7 -196.17 436.377 -189.659 435.181 -183.243 L427.302 -140.986 C426.83 -138.45 422.769 -137.494 420.659 -138.977 C410.75 -145.94 393.8 -148 359 -148 C300 -148 282 -133 282 -86 C282 -52 308.01 -23.0575 329.938 -7.15613 C334.212 -4.057 348.931 0 354.21 0 L513.5 0 C540.271 0 562 21.7295 562 48.5 C562 75.2705 540.271 97 513.5 97 L248.44 97 C214.527 97 187 124.527 187 158.44 L187 279.56 C187 313.473 214.527 341 248.44 341 L481 341 C506.391 341 527 361.609 527 387 C527 412.391 506.391 433 481 433 L248.44 433 C214.527 433 187 460.527 187 494.44 L187 591.56 C187 625.473 214.527 653 248.44 653 L498.5 653 C525.271 653 547 674.729 547 701.5 C547 728.271 525.271 750 498.5 750 L157.44 750 C123.527 750 96 722.473 96 688.56 L96 61.44 C96 27.527 123.527 0 157.44 0 L271.526 0 C278.462 0 281.017 -9.29807 276.255 -14.3421 L276.255 -14.3421 Z " />
<glyph glyph-name="eogonek" unicode="&#x119;" horiz-adv-x="568" d="M428.385 133.875 C408.704 92.6125 373.25 79 299 79 C202.1 79 161.555 94.1725 150.958 190.843 C146.859 228.228 172.242 250 209.851 250 L488.56 250 C523.548 250 550.324 274.6 549.215 309.571 C543.95 475.54 507.5 529 305 529 C117 529 59 497 59 260 C59 23 115 -9 299 -9 C319.833 -9 339.278 -8.30556 356.755 -6.91667 C360.256 -6.63841 362.285 -11.0099 359.964 -13.646 C339.39 -37.01 324 -64.1 324 -92 C324 -185 351 -213 440 -213 C482.075 -213 503.051 -209.597 516.403 -199.983 C521.7 -196.17 523.377 -189.659 522.181 -183.243 L514.302 -140.986 C513.83 -138.45 509.769 -137.494 507.659 -138.977 C497.75 -145.94 480.8 -148 446 -148 C387 -148 369 -133 369 -84 C369 -47.1 398.16 -15.87 420.759 -0.516 C421.883 0.247959 435.769 6.28309 437.062 6.70125 C482.671 21.4456 509.661 48.5028 527.34 92.5277 C535.382 112.553 525.804 129.804 505.726 137.714 L470.255 151.687 C456.017 157.296 434.973 147.688 428.385 133.875 L428.385 133.875 Z M419.826 324 L204.235 324 C169.161 324 150.137 344.064 161.064 377.392 C180.2 435.76 223.4 446 305 446 C405.65 446 444.363 425.581 459.322 366.775 C466.503 338.547 448.953 324 419.826 324 L419.826 324 Z " />
<glyph glyph-name="Ecaron" unicode="&#x11a;" horiz-adv-x="612" d="M308.593 906.01 L243.5 964.323 C237.055 970.097 211.158 980 202.505 980 L189 980 C173.465 980 165.933 963.672 176.017 951.855 L261.604 851.558 C269.328 842.506 296.441 830 308.34 830 L334.803 830 C346.603 830 373.691 842.432 381.386 851.379 L467.549 951.568 C477.781 963.467 470.194 980 454.5 980 L449.358 980 C434.732 980 425.209 991.872 416.891 979.841 C414.427 976.278 370.816 913.686 336.418 897.695 C322.144 891.06 320.317 895.508 308.593 906.01 L308.593 906.01 Z M513.5 97 L248.44 97 C214.527 97 187 124.527 187 158.44 L187 279.56 C187 313.473 214.527 341 248.44 341 L481 341 C506.391 341 527 361.609 527 387 C527 412.391 506.391 433 481 433 L248.44 433 C214.527 433 187 460.527 187 494.44 L187 591.56 C187 625.473 214.527 653 248.44 653 L498.5 653 C525.271 653 547 674.729 547 701.5 C547 728.271 525.271 750 498.5 750 L157.44 750 C123.527 750 96 722.473 96 688.56 L96 61.44 C96 27.527 123.527 0 157.44 0 L513.5 0 C540.271 0 562 21.7295 562 48.5 C562 75.2705 540.271 97 513.5 97 L513.5 97 Z " />
<glyph glyph-name="ecaron" unicode="&#x11b;" horiz-adv-x="568" d="M291.656 676.08 L227.554 734.109 C221.052 739.995 195.093 750 186.321 750 L172.5 750 C156.806 750 149.219 733.467 159.451 721.568 L245.614 621.379 C253.309 612.432 280.397 600 292.197 600 L317.803 600 C329.603 600 356.691 612.432 364.386 621.379 L450.549 721.568 C460.781 733.467 453.194 750 437.5 750 L432.358 750 C417.732 750 408.209 761.872 399.891 749.841 C397.427 746.278 353.816 683.686 319.418 667.695 C305.143 661.059 303.326 665.515 291.656 676.08 L291.656 676.08 Z M428.385 133.875 C408.704 92.6125 373.25 79 299 79 C202.1 79 161.555 94.1725 150.958 190.843 C146.859 228.228 172.242 250 209.851 250 L488.56 250 C523.548 250 550.324 274.6 549.215 309.571 C543.95 475.54 507.5 529 305 529 C117 529 59 497 59 260 C59 23 115 -9 299 -9 C426.875 -9 488.049 12.0994 520.704 77.3203 C536.831 109.53 522.015 131.297 488.5 144.5 L470.255 151.687 C456.017 157.296 434.973 147.688 428.385 133.875 L428.385 133.875 Z M419.826 324 L204.235 324 C169.161 324 150.137 344.064 161.064 377.392 C180.2 435.76 223.4 446 305 446 C405.65 446 444.363 425.581 459.322 366.775 C466.503 338.547 448.953 324 419.826 324 L419.826 324 Z " />
<glyph glyph-name="Gcircumflex" unicode="&#x11c;" horiz-adv-x="778" d="M437.418 912.305 C472.828 895.844 518 830 518 830 C518 830 516.445 830 550.358 830 L555.5 830 C571.194 830 578.781 846.533 568.549 858.432 L482.386 958.621 C474.691 967.568 447.603 980 435.803 980 L410.197 980 C398.397 980 371.309 967.568 363.614 958.621 L277.451 858.432 C267.219 846.533 274.806 830 290.5 830 L304.321 830 C313.093 830 339.052 840.005 345.554 845.891 L409.656 903.92 C421.326 914.485 423.143 918.941 437.418 912.305 L437.418 912.305 Z M438.503 334 L558.56 334 C592.473 334 620 306.473 620 272.56 L620 177.646 C620 163.578 607.257 138.246 595.85 130.013 C551.648 98.115 512.25 88 423 88 C222 88 160 155 160 375 C160 595 222 662 423 662 C507.975 662 557.558 639.539 607.123 571.596 C623.701 548.872 660.952 540.419 682.5 558.5 L722.057 591.691 C724.194 593.484 724.855 597.061 723.5 599.5 L721 604 C651 722 579 759 424 759 C147 759 62 669 62 375 C62 81 147 -9 424 -9 C572 -9 632.726 11.535 713.816 75.5571 C723.94 83.5498 734 107.799 734 120.697 L734 369.56 C734 403.473 706.473 431 672.56 431 L439.503 431 C412.732 431 390.776 409.269 390.5 382.5 C390.224 355.731 411.732 334 438.503 334 L438.503 334 Z " />
<glyph glyph-name="Gbreve" unicode="&#x11e;" horiz-adv-x="778" d="M279.063 926.219 C285.57 846.11 323.1 821 423 821 C522.9 821 560.43 846.11 566.937 926.219 C568.386 944.06 555.9 955 538 955 L537.5 955 C524.514 955 508.03 937.052 505.4 924.336 C498.2 889.52 475 878 423 878 C371 878 347.8 889.52 340.6 924.336 C337.97 937.052 321.486 955 308.5 955 L308 955 C290.1 955 277.614 944.06 279.063 926.219 L279.063 926.219 Z M438.503 334 L558.56 334 C592.473 334 620 306.473 620 272.56 L620 177.646 C620 163.578 607.257 138.246 595.85 130.013 C551.648 98.115 512.25 88 423 88 C222 88 160 155 160 375 C160 595 222 662 423 662 C507.975 662 557.558 639.539 607.123 571.596 C623.701 548.872 660.952 540.419 682.5 558.5 L722.057 591.691 C724.194 593.484 724.855 597.061 723.5 599.5 L721 604 C651 722 579 759 424 759 C147 759 62 669 62 375 C62 81 147 -9 424 -9 C572 -9 632.726 11.535 713.816 75.5571 C723.94 83.5498 734 107.799 734 120.697 L734 369.56 C734 403.473 706.473 431 672.56 431 L439.503 431 C412.732 431 390.776 409.269 390.5 382.5 C390.224 355.731 411.732 334 438.503 334 L438.503 334 Z " />
<glyph glyph-name="gbreve" unicode="&#x11f;" horiz-adv-x="569" d="M135.063 696.219 C141.57 616.11 179.1 591 279 591 C378.9 591 416.43 616.11 422.937 696.219 C424.386 714.06 411.9 725 394 725 L393.5 725 C380.514 725 364.03 707.052 361.4 694.336 C354.2 659.52 331 648 279 648 C227 648 203.8 659.52 196.6 694.336 C193.97 707.052 177.486 725 164.5 725 L164 725 C146.1 725 133.614 714.06 135.063 696.219 L135.063 696.219 Z M57.2285 -111.608 C74.225 -190.832 135.275 -199 278 -199 C481 -199 499 -144 499 35 L499 479 C499 501.631 480.631 520 458 520 L438.5 520 C426.633 520 417 510.367 417 498.5 C417 491.539 407.119 488.009 401.811 492.514 C370.738 518.885 325.9 529 263 529 C108 529 60 507 60 260 C60 21 108 0 263 0 C324.05 0 368.084 9.52875 399.034 33.0784 C405.253 37.8104 417 34.0607 417 26.2461 L417 0 C417 -85 405 -111 269 -111 C207.4 -111 179.72 -107.8 171.112 -78.36 C168.048 -67.8795 151.419 -51 140.5 -51 L110 -51 C71.2703 -51 49.1044 -73.7397 57.2285 -111.608 L57.2285 -111.608 Z M148 260 C148 426 183 441 297 441 C389 441 417 398 417 260 C417 128 389 88 297 88 C183 88 148 102 148 260 L148 260 Z " />
<glyph glyph-name="Gdot" unicode="&#x120;" horiz-adv-x="778" d="M423 830 C447.287 830 467 849.713 467 874 L467 875 C467 899.287 447.287 919 423 919 C398.713 919 379 899.287 379 875 L379 874 C379 849.713 398.713 830 423 830 L423 830 Z M438.503 334 L558.56 334 C592.473 334 620 306.473 620 272.56 L620 177.646 C620 163.578 607.257 138.246 595.85 130.013 C551.648 98.115 512.25 88 423 88 C222 88 160 155 160 375 C160 595 222 662 423 662 C507.975 662 557.558 639.539 607.123 571.596 C623.701 548.872 660.952 540.419 682.5 558.5 L722.057 591.691 C724.194 593.484 724.855 597.061 723.5 599.5 L721 604 C651 722 579 759 424 759 C147 759 62 669 62 375 C62 81 147 -9 424 -9 C572 -9 632.726 11.535 713.816 75.5571 C723.94 83.5498 734 107.799 734 120.697 L734 369.56 C734 403.473 706.473 431 672.56 431 L439.503 431 C412.732 431 390.776 409.269 390.5 382.5 C390.224 355.731 411.732 334 438.503 334 L438.503 334 Z " />
<glyph glyph-name="gdot" unicode="&#x121;" horiz-adv-x="569" d="M279 600 C303.287 600 323 619.713 323 644 L323 645 C323 669.287 303.287 689 279 689 C254.713 689 235 669.287 235 645 L235 644 C235 619.713 254.713 600 279 600 L279 600 Z M57.2285 -111.608 C74.225 -190.832 135.275 -199 278 -199 C481 -199 499 -144 499 35 L499 479 C499 501.631 480.631 520 458 520 L438.5 520 C426.633 520 417 510.367 417 498.5 C417 491.539 407.119 488.009 401.811 492.514 C370.738 518.885 325.9 529 263 529 C108 529 60 507 60 260 C60 21 108 0 263 0 C324.05 0 368.084 9.52875 399.034 33.0784 C405.253 37.8104 417 34.0607 417 26.2461 L417 0 C417 -85 405 -111 269 -111 C207.4 -111 179.72 -107.8 171.112 -78.36 C168.048 -67.8795 151.419 -51 140.5 -51 L110 -51 C71.2703 -51 49.1044 -73.7397 57.2285 -111.608 L57.2285 -111.608 Z M148 260 C148 426 183 441 297 441 C389 441 417 398 417 260 C417 128 389 88 297 88 C183 88 148 102 148 260 L148 260 Z " />
<glyph glyph-name="Hcircumflex" unicode="&#x124;" horiz-adv-x="741" d="M390.418 912.305 C425.828 895.844 471 830 471 830 C471 830 469.445 830 503.358 830 L508.5 830 C524.194 830 531.781 846.533 521.549 858.432 L435.386 958.621 C427.691 967.568 400.603 980 388.803 980 L363.197 980 C351.397 980 324.309 967.568 316.614 958.621 L230.451 858.432 C220.219 846.533 227.806 830 243.5 830 L257.321 830 C266.093 830 292.052 840.005 298.554 845.891 L362.656 903.92 C374.326 914.485 376.143 918.941 390.418 912.305 L390.418 912.305 Z M656 45.5 L656 704.5 C656 729.615 635.615 750 610.5 750 C585.385 750 565 729.615 565 704.5 L565 504.44 C565 470.527 537.473 443 503.56 443 L248.44 443 C214.527 443 187 470.527 187 504.44 L187 704.5 C187 729.615 166.615 750 141.5 750 C116.385 750 96 729.615 96 704.5 L96 45.5 C96 20.3854 116.385 0 141.5 0 C166.615 0 187 20.3854 187 45.5 L187 285.56 C187 319.473 214.527 347 248.44 347 L503.56 347 C537.473 347 565 319.473 565 285.56 L565 45.5 C565 20.3854 585.385 0 610.5 0 C635.615 0 656 20.3854 656 45.5 L656 45.5 Z " />
<glyph glyph-name="Itilde" unicode="&#x128;" horiz-adv-x="263" d="M53.768 856.064 C55.88 885.76 62.6 896 77 896 C118 896 145 821 195 821 C193 821 189 885 189 885 C189 885 191.967 853.351 191.993 853.078 L192.2 850.869 C194.169 829.859 202.348 818.731 222.77 824.046 C256.145 832.734 269.652 861.12 272.436 923.303 C273.21 940.585 260.3 951 243 951 L238 951 C225.18 951 213.141 937.724 212.232 924.936 C210.582 901.736 206.12 890.411 197.38 886.566 C190.412 883.502 194.013 879.523 188.874 885.138 C185.611 888.703 119.75 960 71 960 C71.8235 960 72.6471 949.149 73.4706 936.383 C73.4794 936.246 73.2646 935.844 73.2518 935.981 L72.5 944 C71.5612 954.014 64.2143 960.298 54.236 959.033 C12.764 953.777 -3.364 926.313 -6.436 857.697 C-7.20975 840.415 5.70028 830 23 830 L28 830 C40.8203 830 52.8585 843.276 53.768 856.064 L53.768 856.064 Z M178 45.5 L178 704.5 C178 729.615 157.615 750 132.5 750 C107.385 750 87 729.615 87 704.5 L87 45.5 C87 20.3854 107.385 0 132.5 0 C157.615 0 178 20.3854 178 45.5 L178 45.5 Z " />
<glyph glyph-name="itilde" unicode="&#x129;" horiz-adv-x="278" d="M87.768 626.064 C89.88 655.76 96.6 666 111 666 C152 666 179 591 229 591 C227 591 223 655 223 655 C223 655 225.967 623.351 225.993 623.078 L226.2 620.869 C228.169 599.859 236.348 588.731 256.77 594.046 C290.145 602.734 303.652 631.12 306.436 693.303 C307.21 710.585 294.3 721 277 721 L272 721 C259.18 721 247.141 707.724 246.232 694.936 C244.582 671.736 240.12 660.411 231.38 656.566 C224.412 653.502 228.013 649.523 222.874 655.138 C219.611 658.703 153.75 730 105 730 C105.824 730 106.647 719.149 107.471 706.383 C107.479 706.246 107.265 705.844 107.252 705.981 L106.5 714 C105.561 724.014 98.2143 730.298 88.236 729.033 C46.764 723.777 30.636 696.313 27.564 627.697 C26.7903 610.415 39.7003 600 57 600 L62 600 C74.8203 600 86.8585 613.276 87.768 626.064 L87.768 626.064 Z M167 0 C189.631 0 208 18.3692 208 41 L208 479 C208 501.631 189.631 520 167 520 C144.369 520 126 501.631 126 479 L126 41 C126 18.3692 144.369 0 167 0 L167 0 Z " />
<glyph glyph-name="Imacron" unicode="&#x12a;" horiz-adv-x="263" d="M21.5 830 L244.5 830 C260.231 830 273 842.769 273 858.5 C273 874.231 260.231 887 244.5 887 L21.5 887 C5.76885 887 -7 874.231 -7 858.5 C-7 842.769 5.76885 830 21.5 830 L21.5 830 Z M178 45.5 L178 704.5 C178 729.615 157.615 750 132.5 750 C107.385 750 87 729.615 87 704.5 L87 45.5 C87 20.3854 107.385 0 132.5 0 C157.615 0 178 20.3854 178 45.5 L178 45.5 Z " />
<glyph glyph-name="imacron" unicode="&#x12b;" horiz-adv-x="278" d="M55.5 600 L278.5 600 C294.231 600 307 612.769 307 628.5 C307 644.231 294.231 657 278.5 657 L55.5 657 C39.7689 657 27 644.231 27 628.5 C27 612.769 39.7689 600 55.5 600 L55.5 600 Z M167 0 C189.631 0 208 18.3692 208 41 L208 479 C208 501.631 189.631 520 167 520 C144.369 520 126 501.631 126 479 L126 41 C126 18.3692 144.369 0 167 0 L167 0 Z " />
<glyph glyph-name="Ibreve" unicode="&#x12c;" horiz-adv-x="263" d="M-10.937 926.219 C-4.43 846.11 33.1 821 133 821 C232.9 821 270.43 846.11 276.937 926.219 C278.386 944.06 265.9 955 248 955 L247.5 955 C234.514 955 218.03 937.052 215.4 924.336 C208.2 889.52 185 878 133 878 C81 878 57.8 889.52 50.6 924.336 C47.9702 937.052 31.4855 955 18.5 955 L18 955 C0.100272 955 -12.3862 944.06 -10.937 926.219 L-10.937 926.219 Z M178 45.5 L178 704.5 C178 729.615 157.615 750 132.5 750 C107.385 750 87 729.615 87 704.5 L87 45.5 C87 20.3854 107.385 0 132.5 0 C157.615 0 178 20.3854 178 45.5 L178 45.5 Z " />
<glyph glyph-name="ibreve" unicode="&#x12d;" horiz-adv-x="278" d="M23.063 696.219 C29.57 616.11 67.1 591 167 591 C266.9 591 304.43 616.11 310.937 696.219 C312.386 714.06 299.9 725 282 725 L281.5 725 C268.514 725 252.03 707.052 249.4 694.336 C242.2 659.52 219 648 167 648 C115 648 91.8 659.52 84.6 694.336 C81.9702 707.052 65.4855 725 52.5 725 L52 725 C34.1003 725 21.6138 714.06 23.063 696.219 L23.063 696.219 Z M167 0 C189.631 0 208 18.3692 208 41 L208 479 C208 501.631 189.631 520 167 520 C144.369 520 126 501.631 126 479 L126 41 C126 18.3692 144.369 0 167 0 L167 0 Z " />
<glyph glyph-name="Idot" unicode="&#x130;" horiz-adv-x="263" d="M133 830 C157.287 830 177 849.713 177 874 L177 875 C177 899.287 157.287 919 133 919 C108.713 919 89 899.287 89 875 L89 874 C89 849.713 108.713 830 133 830 L133 830 Z M178 45.5 L178 704.5 C178 729.615 157.615 750 132.5 750 C107.385 750 87 729.615 87 704.5 L87 45.5 C87 20.3854 107.385 0 132.5 0 C157.615 0 178 20.3854 178 45.5 L178 45.5 Z " />
<glyph glyph-name="dotlessi" unicode="&#x131;" horiz-adv-x="278" d="M167 0 C189.631 0 208 18.3692 208 41 L208 479 C208 501.631 189.631 520 167 520 C144.369 520 126 501.631 126 479 L126 41 C126 18.3692 144.369 0 167 0 L167 0 Z " />
<glyph glyph-name="Jcircumflex" unicode="&#x134;" horiz-adv-x="528" d="M412.418 912.305 C447.828 895.844 493 830 493 830 C493 830 491.445 830 525.358 830 L530.5 830 C546.194 830 553.781 846.533 543.549 858.432 L457.386 958.621 C449.691 967.568 422.603 980 410.803 980 L384.34 980 C372.441 980 345.328 967.494 337.604 958.442 L252.017 858.145 C241.933 846.328 249.465 830 265 830 L278.505 830 C287.158 830 313.055 839.903 319.5 845.677 L384.593 903.99 C396.317 914.492 398.144 918.94 412.418 912.305 L412.418 912.305 Z M58 249.5 L58 218 C58 18 81 -9 251 -9 C413 -9 443 45 443 220 L443 704.5 C443 729.615 422.615 750 397.5 750 C372.385 750 352 729.615 352 704.5 L352 220 C352 129 336 101 251 101 C161 101 149 118 149 245 L149 271 C149 285.134 137.314 294.945 123.393 292.498 L89.0241 286.455 C72.1584 283.489 58 266.624 58 249.5 L58 249.5 Z " />
<glyph glyph-name="Lacute" unicode="&#x139;" horiz-adv-x="533" d="M133 830 L135.411 830 C151.734 830 179.474 845.617 187.941 859.572 L233.51 934.687 C246.483 956.071 233.012 980 208 980 L196.855 980 C175.356 980 147.549 961.057 139.679 941.049 L109.543 864.432 C102.587 846.746 113.994 830 133 830 L133 830 Z M454.5 97 L239.44 97 C205.527 97 178 124.527 178 158.44 L178 704.5 C178 729.615 157.615 750 132.5 750 C107.385 750 87 729.615 87 704.5 L87 61.44 C87 27.527 114.527 0 148.44 0 L454.5 0 C481.271 0 503 21.7295 503 48.5 C503 75.2705 481.271 97 454.5 97 L454.5 97 Z " />
<glyph glyph-name="lacute" unicode="&#x13a;" horiz-adv-x="238" d="M106.5 790 L109.411 790 C125.734 790 153.474 805.617 161.941 819.572 L207.251 894.259 C220.346 915.845 206.748 940 181.5 940 L169.855 940 C148.356 940 120.549 921.057 112.679 901.049 L82.7264 824.898 C75.6756 806.972 87.2376 790 106.5 790 L106.5 790 Z M168 41 L168 709 C168 731.631 149.631 750 127 750 C104.369 750 86 731.631 86 709 L86 41 C86 18.3692 104.369 0 127 0 C149.631 0 168 18.3692 168 41 L168 41 Z " />
<glyph glyph-name="Lcaron" unicode="&#x13d;" horiz-adv-x="533" d="M294.221 714.536 L291.219 639.476 C290.547 622.667 303.678 609 320.5 609 C336.919 609 354.113 622.733 357.742 638.745 L375.163 715.601 C380.458 738.963 364.455 759 340.5 759 C315.957 759 295.202 739.059 294.221 714.536 L294.221 714.536 Z M454.5 97 L239.44 97 C205.527 97 178 124.527 178 158.44 L178 704.5 C178 729.615 157.615 750 132.5 750 C107.385 750 87 729.615 87 704.5 L87 61.44 C87 27.527 114.527 0 148.44 0 L454.5 0 C481.271 0 503 21.7295 503 48.5 C503 75.2705 481.271 97 454.5 97 L454.5 97 Z " />
<glyph glyph-name="lcaron" unicode="&#x13e;" horiz-adv-x="238" d="M216.221 714.536 L213.219 639.476 C212.547 622.667 225.678 609 242.5 609 C258.919 609 276.113 622.733 279.742 638.745 L297.163 715.601 C302.458 738.963 286.455 759 262.5 759 C237.957 759 217.202 739.059 216.221 714.536 L216.221 714.536 Z M168 41 L168 709 C168 731.631 149.631 750 127 750 C104.369 750 86 731.631 86 709 L86 41 C86 18.3692 104.369 0 127 0 C149.631 0 168 18.3692 168 41 L168 41 Z " />
<glyph glyph-name="Lslash" unicode="&#x141;" horiz-adv-x="533" d="M44.3552 297.207 L47 298 C68.1477 304.344 87 290.318 87 268.239 L87 61.44 C87 27.527 114.527 0 148.44 0 L454.5 0 C481.271 0 503 21.7295 503 48.5 C503 75.2705 481.271 97 454.5 97 L239.44 97 C205.527 97 178 124.527 178 158.44 L178 291.314 C178 315.464 198.625 343.2 221.752 350.153 L303.651 374.772 C323.394 380.707 341 404.385 341 425 C341 445.615 323.394 458.707 303.651 452.772 L257.128 438.787 C215.301 426.213 178 453.95 178 497.626 L178 704.5 C178 729.615 157.615 750 132.5 750 L112 750 C98.2007 750 87 738.799 87 725 L87 700 L87 429.761 C87 407.682 68.1477 382.344 47 376 L44.3552 375.207 C24.6058 369.282 7 345.619 7 325 C7 304.381 24.6058 291.282 44.3552 297.207 L44.3552 297.207 Z " />
<glyph glyph-name="lslash" unicode="&#x142;" horiz-adv-x="238" d="M42.0531 300.872 L46 302.5 C66.4105 310.919 86 297.809 86 275.73 L86 41 C86 18.3692 104.369 0 127 0 C149.631 0 168 18.3692 168 41 L168 311.882 C168 332.863 186.615 360.679 206.011 368.68 L211.947 371.128 C230.343 378.717 248 405.1 248 425 C248 444.9 230.343 456.717 211.947 449.128 L208 447.5 C187.59 439.081 168 452.191 168 474.27 L168 709 C168 731.631 149.631 750 127 750 C104.369 750 86 731.631 86 709 L86 438.118 C86 417.137 67.3846 389.321 47.989 381.32 L42.0531 378.872 C23.6566 371.283 6 344.9 6 325 C6 305.1 23.6566 293.283 42.0531 300.872 L42.0531 300.872 Z " />
<glyph glyph-name="Nacute" unicode="&#x143;" horiz-adv-x="727" d="M266 830 L268.411 830 C284.734 830 312.474 845.617 320.941 859.572 L366.51 934.687 C379.483 956.071 366.012 980 341 980 L329.855 980 C308.356 980 280.549 961.057 272.679 941.049 L242.543 864.432 C235.587 846.746 246.994 830 266 830 L266 830 Z M408.914 358.134 L215.794 704.039 C213.697 707.796 208 729.687 208 733.989 L208 734 C208 742.832 200.832 750 192 750 L148.5 750 C115.658 750 89 723.342 89 690.5 L89 59.5 C89 26.6578 115.658 0 148.5 0 C181.342 0 208 26.6578 208 59.5 L208 299.742 C208 363.272 292.147 385.155 323.096 329.674 L489.423 31.5086 C497.896 16.3202 525.688 0 543.08 0 L580.56 0 C614.473 0 642 27.527 642 61.44 L642 691 C642 723.566 615.566 750 583 750 C550.434 750 524 723.566 524 691 L524 388.085 C524 324.561 439.881 302.669 408.914 358.134 L408.914 358.134 Z " />
<glyph glyph-name="nacute" unicode="&#x144;" horiz-adv-x="541" d="M277.5 600 L280.411 600 C296.734 600 324.474 615.617 332.941 629.572 L378.251 704.259 C391.346 725.845 377.748 750 352.5 750 L340.855 750 C319.356 750 291.549 731.057 283.679 711.049 L253.726 634.898 C246.676 616.972 258.238 600 277.5 600 L277.5 600 Z M476 40.5 L476 315 C476 492 439 525 318 525 C250.85 525 204.653 515.607 174.494 491.909 C169.06 487.639 160 492.089 160 499 C160 510.591 150.591 520 139 520 L119.5 520 C97.1452 520 79 501.855 79 479.5 L79 40.5 C79 18.1452 97.1452 0 119.5 0 C141.855 0 160 18.1452 160 40.5 L160 334 C160 406 187 428 277 428 C367 428 395 410 395 315 L395 40.5 C395 18.1452 413.145 0 435.5 0 C457.855 0 476 18.1452 476 40.5 L476 40.5 Z " />
<glyph glyph-name="Ncaron" unicode="&#x147;" horiz-adv-x="727" d="M352.656 906.08 L288.554 964.109 C282.052 969.995 256.093 980 247.321 980 L233.5 980 C217.806 980 210.219 963.467 220.451 951.568 L306.614 851.379 C314.309 842.432 341.397 830 353.197 830 L378.803 830 C390.603 830 417.691 842.432 425.386 851.379 L511.549 951.568 C521.781 963.467 514.194 980 498.5 980 L493.358 980 C478.732 980 469.209 991.872 460.891 979.841 C458.427 976.278 414.816 913.686 380.418 897.695 C366.143 891.059 364.326 895.515 352.656 906.08 L352.656 906.08 Z M408.914 358.134 L215.794 704.039 C213.697 707.796 208 729.687 208 733.989 L208 734 C208 742.832 200.832 750 192 750 L148.5 750 C115.658 750 89 723.342 89 690.5 L89 59.5 C89 26.6578 115.658 0 148.5 0 C181.342 0 208 26.6578 208 59.5 L208 299.742 C208 363.272 292.147 385.155 323.096 329.674 L489.423 31.5086 C497.896 16.3202 525.688 0 543.08 0 L580.56 0 C614.473 0 642 27.527 642 61.44 L642 691 C642 723.566 615.566 750 583 750 C550.434 750 524 723.566 524 691 L524 388.085 C524 324.561 439.881 302.669 408.914 358.134 L408.914 358.134 Z " />
<glyph glyph-name="ncaron" unicode="&#x148;" horiz-adv-x="541" d="M264.593 676.01 L199.5 734.323 C193.055 740.097 167.158 750 158.505 750 L145 750 C129.465 750 121.933 733.672 132.017 721.855 L217.604 621.558 C225.328 612.506 252.441 600 264.34 600 L290.803 600 C302.603 600 329.691 612.432 337.386 621.379 L423.549 721.568 C433.781 733.467 426.194 750 410.5 750 L405.358 750 C390.732 750 381.209 761.872 372.891 749.841 C370.427 746.278 326.816 683.686 292.418 667.695 C278.144 661.06 276.317 665.508 264.593 676.01 L264.593 676.01 Z M476 40.5 L476 315 C476 492 439 525 318 525 C250.85 525 204.653 515.607 174.494 491.909 C169.06 487.639 160 492.089 160 499 C160 510.591 150.591 520 139 520 L119.5 520 C97.1452 520 79 501.855 79 479.5 L79 40.5 C79 18.1452 97.1452 0 119.5 0 C141.855 0 160 18.1452 160 40.5 L160 334 C160 406 187 428 277 428 C367 428 395 410 395 315 L395 40.5 C395 18.1452 413.145 0 435.5 0 C457.855 0 476 18.1452 476 40.5 L476 40.5 Z " />
<glyph glyph-name="Omacron" unicode="&#x14c;" horiz-adv-x="814" d="M301.5 830 L524.5 830 C540.231 830 553 842.769 553 858.5 C553 874.231 540.231 887 524.5 887 L301.5 887 C285.769 887 273 874.231 273 858.5 C273 842.769 285.769 830 301.5 830 L301.5 830 Z M165 375 C165 584 233 662 413 662 C593 662 660 584 660 375 C660 155 602 88 413 88 C223 88 165 155 165 375 L165 375 Z M66 375 C66 81 148 -9 413 -9 C678 -9 759 81 759 375 C759 654 664 759 413 759 C161 759 66 654 66 375 L66 375 Z " />
<glyph glyph-name="omacron" unicode="&#x14d;" horiz-adv-x="590" d="M188.5 600 L411.5 600 C427.231 600 440 612.769 440 628.5 C440 644.231 427.231 657 411.5 657 L188.5 657 C172.769 657 160 644.231 160 628.5 C160 612.769 172.769 600 188.5 600 L188.5 600 Z M148 260 C148 427 184 450 300 450 C433 450 451 405 451 260 C451 93 416 70 300 70 C166 70 148 115 148 260 L148 260 Z M59 260 C59 54 88 -9 300 -9 C484 -9 540 23 540 260 C540 466 511 529 300 529 C116 529 59 497 59 260 L59 260 Z " />
<glyph glyph-name="Obreve" unicode="&#x14e;" horiz-adv-x="814" d="M269.063 926.219 C275.57 846.11 313.1 821 413 821 C512.9 821 550.43 846.11 556.937 926.219 C558.386 944.06 545.9 955 528 955 L527.5 955 C514.514 955 498.03 937.052 495.4 924.336 C488.2 889.52 465 878 413 878 C361 878 337.8 889.52 330.6 924.336 C327.97 937.052 311.486 955 298.5 955 L298 955 C280.1 955 267.614 944.06 269.063 926.219 L269.063 926.219 Z M165 375 C165 584 233 662 413 662 C593 662 660 584 660 375 C660 155 602 88 413 88 C223 88 165 155 165 375 L165 375 Z M66 375 C66 81 148 -9 413 -9 C678 -9 759 81 759 375 C759 654 664 759 413 759 C161 759 66 654 66 375 L66 375 Z " />
<glyph glyph-name="obreve" unicode="&#x14f;" horiz-adv-x="590" d="M156.063 696.219 C162.57 616.11 200.1 591 300 591 C399.9 591 437.43 616.11 443.937 696.219 C445.386 714.06 432.9 725 415 725 L414.5 725 C401.514 725 385.03 707.052 382.4 694.336 C375.2 659.52 352 648 300 648 C248 648 224.8 659.52 217.6 694.336 C214.97 707.052 198.486 725 185.5 725 L185 725 C167.1 725 154.614 714.06 156.063 696.219 L156.063 696.219 Z M148 260 C148 427 184 450 300 450 C433 450 451 405 451 260 C451 93 416 70 300 70 C166 70 148 115 148 260 L148 260 Z M59 260 C59 54 88 -9 300 -9 C484 -9 540 23 540 260 C540 466 511 529 300 529 C116 529 59 497 59 260 L59 260 Z " />
<glyph glyph-name="Racute" unicode="&#x154;" horiz-adv-x="624" d="M342.5 830 L345.411 830 C361.734 830 389.474 845.617 397.941 859.572 L443.251 934.259 C456.346 955.845 442.748 980 417.5 980 L405.855 980 C384.356 980 356.549 961.057 348.679 941.049 L318.726 864.898 C311.676 846.972 323.238 830 342.5 830 L342.5 830 Z M584 50 L468.772 270.853 C456.295 294.768 477.401 328.892 503.216 336.712 C573.36 357.96 590 409.8 590 525 C590 714 554 750 364 750 L158.44 750 C124.527 750 97 722.473 97 688.56 L97 45.5 C97 20.3854 117.385 0 142.5 0 C167.615 0 188 20.3854 188 45.5 L188 261.56 C188 295.473 215.527 323 249.44 323 L299.805 323 C317.996 323 345.81 306.162 354.244 290.043 L488.756 32.9566 C497.19 16.8385 525.004 0 543.195 0 L605.852 0 C608.303 0 609.872 2.06203 608.731 4.23062 C601.569 17.8359 585.386 50 584.5 50 L584 50 Z M188 476.44 L188 596.56 C188 630.473 215.527 658 249.44 658 L359 658 C477 658 499 637 499 525 C499 432 478 415 368 415 L249.44 415 C215.527 415 188 442.527 188 476.44 L188 476.44 Z " />
<glyph glyph-name="racute" unicode="&#x155;" horiz-adv-x="370" d="M214.5 600 L217.411 600 C233.734 600 261.474 615.617 269.941 629.572 L315.251 704.259 C328.346 725.845 314.748 750 289.5 750 L277.855 750 C256.356 750 228.549 731.057 220.679 711.049 L190.726 634.898 C183.676 616.972 195.238 600 214.5 600 L214.5 600 Z M350 415 L350 470 C350 499.314 330.455 520.456 301.197 518.633 C245.266 515.15 205.696 504.642 178.917 482.991 C172.934 478.154 160 481.811 160 489.505 L160 491.5 C160 507.231 147.231 520 131.5 520 L119.5 520 C97.1452 520 79 501.855 79 479.5 L79 40.5 C79 18.1452 97.1452 0 119.5 0 C141.855 0 160 18.1452 160 40.5 L160 244 C160 367 174 405 330 405 L340 405 C345.52 405 350 409.48 350 415 L350 415 Z " />
<glyph glyph-name="Rcaron" unicode="&#x158;" horiz-adv-x="624" d="M329.593 906.01 L264.5 964.323 C258.055 970.097 232.158 980 223.505 980 L210 980 C194.465 980 186.933 963.672 197.017 951.855 L282.604 851.558 C290.328 842.506 317.441 830 329.34 830 L355.803 830 C367.603 830 394.691 842.432 402.386 851.379 L488.549 951.568 C498.781 963.467 491.194 980 475.5 980 L470.358 980 C455.732 980 446.209 991.872 437.891 979.841 C435.427 976.278 391.816 913.686 357.418 897.695 C343.144 891.06 341.317 895.508 329.593 906.01 L329.593 906.01 Z M584 50 L468.772 270.853 C456.295 294.768 477.401 328.892 503.216 336.712 C573.36 357.96 590 409.8 590 525 C590 714 554 750 364 750 L158.44 750 C124.527 750 97 722.473 97 688.56 L97 45.5 C97 20.3854 117.385 0 142.5 0 C167.615 0 188 20.3854 188 45.5 L188 261.56 C188 295.473 215.527 323 249.44 323 L299.805 323 C317.996 323 345.81 306.162 354.244 290.043 L488.756 32.9566 C497.19 16.8385 525.004 0 543.195 0 L605.852 0 C608.303 0 609.872 2.06203 608.731 4.23062 C601.569 17.8359 585.386 50 584.5 50 L584 50 Z M188 476.44 L188 596.56 C188 630.473 215.527 658 249.44 658 L359 658 C477 658 499 637 499 525 C499 432 478 415 368 415 L249.44 415 C215.527 415 188 442.527 188 476.44 L188 476.44 Z " />
<glyph glyph-name="rcaron" unicode="&#x159;" horiz-adv-x="370" d="M201.593 676.01 L136.5 734.323 C130.055 740.097 104.158 750 95.5045 750 L82 750 C66.4646 750 58.9331 733.672 69.0174 721.855 L154.604 621.558 C162.328 612.506 189.441 600 201.34 600 L227.803 600 C239.603 600 266.691 612.432 274.386 621.379 L360.549 721.568 C370.781 733.467 363.194 750 347.5 750 L342.358 750 C327.732 750 318.209 761.872 309.891 749.841 C307.427 746.278 263.816 683.686 229.418 667.695 C215.144 661.06 213.317 665.508 201.593 676.01 L201.593 676.01 Z M350 415 L350 470 C350 499.314 330.455 520.456 301.197 518.633 C245.266 515.15 205.696 504.642 178.917 482.991 C172.934 478.154 160 481.811 160 489.505 L160 491.5 C160 507.231 147.231 520 131.5 520 L119.5 520 C97.1452 520 79 501.855 79 479.5 L79 40.5 C79 18.1452 97.1452 0 119.5 0 C141.855 0 160 18.1452 160 40.5 L160 244 C160 367 174 405 330 405 L340 405 C345.52 405 350 409.48 350 415 L350 415 Z " />
<glyph glyph-name="Sacute" unicode="&#x15a;" horiz-adv-x="588" d="M283 830 L285.411 830 C301.734 830 329.474 845.617 337.941 859.572 L383.51 934.687 C396.483 956.071 383.012 980 358 980 L346.855 980 C325.356 980 297.549 961.057 289.679 941.049 L259.543 864.432 C252.587 846.746 263.994 830 283 830 L283 830 Z M44 151 C109 17 169 -9 317 -9 C516 -9 553 42 553 210 C553 360 514 395 306 432 C167 457 141 476 141 556 C141 631 171 654 267 654 C319.8 654 352.181 643.11 405.696 590.447 C426.593 569.882 463.259 569.33 485 589 L524.104 624.38 C525.701 625.825 525.879 628.345 524.5 630 L522 633 C425 739 373 759 267 759 C98 759 46 709 46 547 C46 408 83 375 282 340 C433 313 462 292 462 207 C462 121 439 95 317 95 C233.15 95 195.881 115.914 144.019 224.475 C141.606 229.526 135.133 229.562 130.556 226.34 C116.704 216.59 102.852 206.963 89 198 L38 162 C38 161 43.5 151 43.5 151 L44 151 Z " />
<glyph glyph-name="sacute" unicode="&#x15b;" horiz-adv-x="495" d="M262 600 L264.411 600 C280.734 600 308.474 615.617 316.941 629.572 L362.51 704.687 C375.483 726.071 362.012 750 337 750 L325.855 750 C304.356 750 276.549 731.057 268.679 711.049 L238.543 634.432 C231.587 616.746 242.994 600 262 600 L262 600 Z M435.725 429.847 C394.94 501.88 348.7 525 262 525 C113 525 67 490 67 378 C67 278 96 243 249 224 C363 210 384 190 384 135 C384 92 354 79 256 79 C186.65 79 155.205 97.9525 129.942 158.149 C128.15 162.42 121.586 166.335 117.273 164.646 C104.182 159.521 91.0909 154.091 78 150 L53.5 140.5 C39.1866 134.95 31.8635 122.968 38.2481 109.007 C77.4056 23.38 132.05 -4 256 -4 C416 -4 465 30 465 142 C465 241 434 275 268 296 C164 309 144 329 144 385 C144 432 172 446 262 446 C302.425 446 327.196 430.346 353.157 382.753 C363.075 364.573 388.488 356.288 407.385 364.759 L413.5 367.5 C439.866 379.319 449.961 404.703 435.725 429.847 L435.725 429.847 Z " />
<glyph glyph-name="Scircumflex" unicode="&#x15c;" horiz-adv-x="588" d="M297.418 912.305 C332.828 895.844 378 830 378 830 C378 830 376.445 830 410.358 830 L415.5 830 C431.194 830 438.781 846.533 428.549 858.432 L342.386 958.621 C334.691 967.568 307.603 980 295.803 980 L270.197 980 C258.397 980 231.309 967.568 223.614 958.621 L137.451 858.432 C127.219 846.533 134.806 830 150.5 830 L164.321 830 C173.093 830 199.052 840.005 205.554 845.891 L269.656 903.92 C281.326 914.485 283.143 918.941 297.418 912.305 L297.418 912.305 Z M44 151 C109 17 169 -9 317 -9 C516 -9 553 42 553 210 C553 360 514 395 306 432 C167 457 141 476 141 556 C141 631 171 654 267 654 C319.8 654 352.181 643.11 405.696 590.447 C426.593 569.882 463.259 569.33 485 589 L524.104 624.38 C525.701 625.825 525.879 628.345 524.5 630 L522 633 C425 739 373 759 267 759 C98 759 46 709 46 547 C46 408 83 375 282 340 C433 313 462 292 462 207 C462 121 439 95 317 95 C233.15 95 195.881 115.914 144.019 224.475 C141.606 229.526 135.133 229.562 130.556 226.34 C116.704 216.59 102.852 206.963 89 198 L38 162 C38 161 43.5 151 43.5 151 L44 151 Z " />
<glyph glyph-name="Scedilla" unicode="&#x15e;" horiz-adv-x="588" d="M298 -116 C297.96 -116.121 298.167 -116.199 298.216 -116.081 L298.284 -115.919 C298.333 -115.801 298.04 -115.879 298 -116 L298 -116 Z M302.612 -109.662 C307.488 -105.035 316.353 -103 332 -103 C362 -103 371 -114 371 -149 C371 -185 361 -196 330 -196 C298 -196 284.56 -190.24 284.048 -172.064 C283.908 -167.094 277.414 -162.746 273.505 -165.817 L258.499 -177.608 C248.015 -185.846 241.202 -192.418 242.598 -205.678 C245.004 -228.513 270.125 -236 332 -236 C398 -236 418 -216 418 -149 C418 -75 400 -52 341 -52 C329 -52 319.939 -53.4694 313.187 -56.4082 C311.756 -57.031 310.541 -55.5896 310.883 -54.0668 L315.5 -33.5 C318.349 -20.8112 336.076 -8.91299 349.073 -8.4595 C519.51 -2.5125 552 52.35 552 211 C552 361 513 396 305 433 C166 458 140 477 140 557 C140 632 170 655 266 655 C318.8 655 351.181 644.11 404.696 591.447 C425.593 570.882 462.259 570.33 484 590 L523.104 625.38 C524.701 626.825 524.879 629.345 523.5 631 L521 634 C424 740 372 760 266 760 C97 760 45 710 45 548 C45 409 82 376 281 341 C432 314 461 293 461 208 C461 122 438 96 316 96 C232.15 96 194.881 116.914 143.019 225.475 C140.606 230.526 134.133 230.562 129.556 227.34 C115.704 217.59 101.852 207.963 88 199 L37 163 C39 159 41 156 42 152 C94.5 43.5 143.938 6.20313 239.217 -4.10547 C262.757 -6.65231 278.082 -29.3748 273 -52.5 L264.082 -93.0756 C263.945 -93.7016 263.012 -97.4254 262.998 -98.0662 C262.976 -99.0696 263.085 -111.2 280.784 -115.5 C291.29 -118.053 296.043 -112.529 298.5 -102 L301.197 -90.443 C301.361 -89.7397 302.257 -90.1111 302.264 -90.8333 C302.319 -96.3333 301.264 -103.167 299.986 -108.667 C299.885 -109.101 302.289 -109.969 302.612 -109.662 L302.612 -109.662 Z " />
<glyph glyph-name="scedilla" unicode="&#x15f;" horiz-adv-x="495" d="M237 -116 C236.96 -116.121 237.167 -116.199 237.216 -116.081 L237.284 -115.919 C237.333 -115.801 237.04 -115.879 237 -116 L237 -116 Z M240.628 -110.694 C245.256 -105.336 254.235 -103 271 -103 C301 -103 310 -114 310 -149 C310 -185 300 -196 269 -196 C237 -196 223.56 -190.24 223.048 -172.064 C222.908 -167.094 216.414 -162.746 212.505 -165.817 L197.499 -177.608 C187.015 -185.846 180.202 -192.418 181.598 -205.678 C184.004 -228.513 209.125 -236 271 -236 C337 -236 357 -216 357 -149 C357 -75 339 -52 280 -52 C269 -52 260.864 -53.432 254.38 -56.2959 C252.967 -56.9198 251.582 -55.5822 251.944 -54.0808 L257.5 -31 C260.809 -17.2548 282.763 -3.82985 296.886 -3.18395 C424.93 2.67188 466 40.25 466 142 C466 241 435 275 269 296 C165 309 145 329 145 385 C145 432 173 446 263 446 C303.425 446 328.196 430.346 354.157 382.753 C364.075 364.573 389.488 356.288 408.385 364.759 L414.5 367.5 C440.866 379.319 450.961 404.703 436.725 429.847 C395.94 501.88 349.7 525 263 525 C114 525 68 490 68 378 C68 278 97 243 250 224 C364 210 385 190 385 135 C385 92 355 79 257 79 C187.65 79 156.205 97.9525 130.942 158.149 C129.15 162.42 122.586 166.335 118.273 164.646 C105.182 159.521 92.0909 154.091 79 150 L54.5 140.5 C39.9833 134.871 34.7803 118.323 41.483 104.27 C71.2805 41.795 110.247 11.3825 180.741 0.37625 C204.953 -3.40396 221.42 -28.6016 216 -52.5 L206.161 -95.8811 C206.009 -96.5497 205.013 -100.381 204.998 -101.066 C204.976 -102.07 205.085 -114.2 222.784 -118.5 C233.29 -121.053 238.043 -115.529 240.5 -105 L243.197 -93.443 C243.362 -92.7349 244.176 -93.3476 244.135 -94.0736 C243.856 -99.0751 242.197 -104.776 240.704 -109.373 C240.601 -109.689 240.41 -110.945 240.628 -110.694 L240.628 -110.694 Z " />
<glyph glyph-name="Scaron" unicode="&#x160;" horiz-adv-x="588" d="M269.656 906.08 L205.554 964.109 C199.052 969.995 173.093 980 164.321 980 L150.5 980 C134.806 980 127.219 963.467 137.451 951.568 L223.614 851.379 C231.309 842.432 258.397 830 270.197 830 L295.803 830 C307.603 830 334.691 842.432 342.386 851.379 L428.549 951.568 C438.781 963.467 431.194 980 415.5 980 L410.358 980 C395.732 980 386.209 991.872 377.891 979.841 C375.427 976.278 331.816 913.686 297.418 897.695 C283.143 891.059 281.326 895.515 269.656 906.08 L269.656 906.08 Z M44 151 C109 17 169 -9 317 -9 C516 -9 553 42 553 210 C553 360 514 395 306 432 C167 457 141 476 141 556 C141 631 171 654 267 654 C319.8 654 352.181 643.11 405.696 590.447 C426.593 569.882 463.259 569.33 485 589 L524.104 624.38 C525.701 625.825 525.879 628.345 524.5 630 L522 633 C425 739 373 759 267 759 C98 759 46 709 46 547 C46 408 83 375 282 340 C433 313 462 292 462 207 C462 121 439 95 317 95 C233.15 95 195.881 115.914 144.019 224.475 C141.606 229.526 135.133 229.562 130.556 226.34 C116.704 216.59 102.852 206.963 89 198 L38 162 C38 161 43.5 151 43.5 151 L44 151 Z " />
<glyph glyph-name="scaron" unicode="&#x161;" horiz-adv-x="495" d="M248.656 676.08 L184.554 734.109 C178.052 739.995 152.093 750 143.321 750 L129.5 750 C113.806 750 106.219 733.467 116.451 721.568 L202.614 621.379 C210.309 612.432 237.397 600 249.197 600 L274.803 600 C286.603 600 313.691 612.432 321.386 621.379 L407.549 721.568 C417.781 733.467 410.194 750 394.5 750 L389.358 750 C374.732 750 365.209 761.872 356.891 749.841 C354.427 746.278 310.816 683.686 276.418 667.695 C262.143 661.059 260.326 665.515 248.656 676.08 L248.656 676.08 Z M435.725 429.847 C394.94 501.88 348.7 525 262 525 C113 525 67 490 67 378 C67 278 96 243 249 224 C363 210 384 190 384 135 C384 92 354 79 256 79 C186.65 79 155.205 97.9525 129.942 158.149 C128.15 162.42 121.586 166.335 117.273 164.646 C104.182 159.521 91.0909 154.091 78 150 L53.5 140.5 C39.1866 134.95 31.8635 122.968 38.2481 109.007 C77.4056 23.38 132.05 -4 256 -4 C416 -4 465 30 465 142 C465 241 434 275 268 296 C164 309 144 329 144 385 C144 432 172 446 262 446 C302.425 446 327.196 430.346 353.157 382.753 C363.075 364.573 388.488 356.288 407.385 364.759 L413.5 367.5 C439.866 379.319 449.961 404.703 435.725 429.847 L435.725 429.847 Z " />
<glyph glyph-name="Tcaron" unicode="&#x164;" horiz-adv-x="595" d="M284.656 906.08 L220.554 964.109 C214.052 969.995 188.093 980 179.321 980 L165.5 980 C149.806 980 142.219 963.467 152.451 951.568 L238.614 851.379 C246.309 842.432 273.397 830 285.197 830 L310.803 830 C322.603 830 349.691 842.432 357.386 851.379 L443.549 951.568 C453.781 963.467 446.194 980 430.5 980 L425.358 980 C410.732 980 401.209 991.872 392.891 979.841 C390.427 976.278 346.816 913.686 312.418 897.695 C298.143 891.059 296.326 895.515 284.656 906.08 L284.656 906.08 Z M343 45.5 L343 591.56 C343 625.473 370.527 653 404.44 653 L536.5 653 C563.271 653 585 674.729 585 701.5 C585 728.271 563.271 750 536.5 750 L58.5 750 C31.7295 750 10 728.271 10 701.5 C10 674.729 31.7295 653 58.5 653 L190.56 653 C224.473 653 252 625.473 252 591.56 L252 45.5 C252 20.3854 272.385 0 297.5 0 C322.615 0 343 20.3854 343 45.5 L343 45.5 Z " />
<glyph glyph-name="tcaron" unicode="&#x165;" horiz-adv-x="345" d="M236.221 714.536 L233.219 639.476 C232.547 622.667 245.678 609 262.5 609 C278.919 609 296.113 622.733 299.742 638.745 L317.163 715.601 C322.458 738.963 306.455 759 282.5 759 C257.957 759 237.202 739.059 236.221 714.536 L236.221 714.536 Z M273.5 520 L249.44 520 C215.527 520 188 547.527 188 581.44 L188 670.416 C188 693.047 164.316 704.071 147 689.5 L127.882 673.413 C118.64 665.636 106 638.48 106 626.402 L106 568 C106 541.505 84.4946 520 58 520 L51.5 520 C28.5932 520 10 501.407 10 478.5 C10 455.593 28.5932 437 51.5 437 L58 437 C84.4946 437 106 415.495 106 389 L106 141 C106 6 82 0 211 0 L271.5 0 C295.511 0 315 19.4893 315 43.5 L315 58 C315 74.0071 302.007 87 286 87 L257 87 C173 87 188 89 188 141 L188 375.56 C188 409.473 215.527 437 249.44 437 L273.5 437 C296.407 437 315 455.593 315 478.5 C315 501.407 296.407 520 273.5 520 L273.5 520 Z " />
<glyph glyph-name="Utilde" unicode="&#x168;" horiz-adv-x="701" d="M275.768 847.064 C277.88 876.76 284.6 887 299 887 C340 887 367 812 417 812 C415 812 411 876 411 876 C411 876 413.967 844.351 413.993 844.078 L414.2 841.869 C416.169 820.859 424.348 809.731 444.77 815.046 C478.145 823.734 491.652 852.12 494.436 914.303 C495.21 931.585 482.3 942 465 942 L460 942 C447.18 942 435.141 928.724 434.232 915.936 C432.582 892.736 428.12 881.411 419.38 877.566 C412.412 874.502 416.013 870.523 410.874 876.138 C407.611 879.703 341.75 951 293 951 C293.824 951 294.647 940.149 295.471 927.383 C295.479 927.246 295.265 926.844 295.252 926.981 L294.5 935 C293.561 945.014 286.214 951.298 276.236 950.033 C234.764 944.777 218.636 917.313 215.564 848.697 C214.79 831.415 227.7 821 245 821 L250 821 C262.82 821 274.859 834.276 275.768 847.064 L275.768 847.064 Z M89 291 C89 39 131 -9 355 -9 C579 -9 621 38 621 290 L621 690.5 C621 723.342 594.342 750 561.5 750 C528.658 750 502 723.342 502 690.5 L502 311 C502 134 479 101 355 101 C208 101 180 134 180 307 L180 704.5 C180 729.615 159.615 750 134.5 750 C109.385 750 89 729.615 89 704.5 L89 291 L89 291 Z " />
<glyph glyph-name="utilde" unicode="&#x169;" horiz-adv-x="534" d="M189.768 626.064 C191.88 655.76 198.6 666 213 666 C254 666 281 591 331 591 C329 591 325 655 325 655 C325 655 327.967 623.351 327.993 623.078 L328.2 620.869 C330.169 599.859 338.348 588.731 358.77 594.046 C392.145 602.734 405.652 631.12 408.436 693.303 C409.21 710.585 396.3 721 379 721 L374 721 C361.18 721 349.141 707.724 348.232 694.936 C346.582 671.736 342.12 660.411 333.38 656.566 C326.412 653.502 330.013 649.523 324.874 655.138 C321.611 658.703 255.75 730 207 730 C207.824 730 208.647 719.149 209.471 706.383 C209.479 706.246 209.265 705.844 209.252 705.981 L208.5 714 C207.561 724.014 200.214 730.298 190.236 729.033 C148.764 723.777 132.636 696.313 129.564 627.697 C128.79 610.415 141.7 600 159 600 L164 600 C176.82 600 188.859 613.276 189.768 626.064 L189.768 626.064 Z M464 41 L464 479.5 C464 501.855 445.855 520 423.5 520 C401.145 520 383 501.855 383 479.5 L383 200 C383 114 357 87 274 87 C156 87 155 103 155 186 L155 479.5 C155 501.855 136.855 520 114.5 520 C92.1452 520 74 501.855 74 479.5 L74 186 C74 22 75 -9 241 -9 C300.4 -9 340.743 1.20937 367.081 27.8048 C371.466 32.2321 382 29.7311 382 23.5 C382 10.5287 392.529 0 405.5 0 L423 0 C445.631 0 464 18.3692 464 41 L464 41 Z " />
<glyph glyph-name="Umacron" unicode="&#x16a;" horiz-adv-x="701" d="M243.5 821 L466.5 821 C482.231 821 495 833.769 495 849.5 C495 865.231 482.231 878 466.5 878 L243.5 878 C227.769 878 215 865.231 215 849.5 C215 833.769 227.769 821 243.5 821 L243.5 821 Z M89 291 C89 39 131 -9 355 -9 C579 -9 621 38 621 290 L621 690.5 C621 723.342 594.342 750 561.5 750 C528.658 750 502 723.342 502 690.5 L502 311 C502 134 479 101 355 101 C208 101 180 134 180 307 L180 704.5 C180 729.615 159.615 750 134.5 750 C109.385 750 89 729.615 89 704.5 L89 291 L89 291 Z " />
<glyph glyph-name="umacron" unicode="&#x16b;" horiz-adv-x="534" d="M157.5 600 L380.5 600 C396.231 600 409 612.769 409 628.5 C409 644.231 396.231 657 380.5 657 L157.5 657 C141.769 657 129 644.231 129 628.5 C129 612.769 141.769 600 157.5 600 L157.5 600 Z M464 41 L464 479.5 C464 501.855 445.855 520 423.5 520 C401.145 520 383 501.855 383 479.5 L383 200 C383 114 357 87 274 87 C156 87 155 103 155 186 L155 479.5 C155 501.855 136.855 520 114.5 520 C92.1452 520 74 501.855 74 479.5 L74 186 C74 22 75 -9 241 -9 C300.4 -9 340.743 1.20937 367.081 27.8048 C371.466 32.2321 382 29.7311 382 23.5 C382 10.5287 392.529 0 405.5 0 L423 0 C445.631 0 464 18.3692 464 41 L464 41 Z " />
<glyph glyph-name="Ubreve" unicode="&#x16c;" horiz-adv-x="701" d="M211.063 917.219 C217.57 837.11 255.1 812 355 812 C454.9 812 492.43 837.11 498.937 917.219 C500.386 935.06 487.9 946 470 946 L469.5 946 C456.514 946 440.03 928.052 437.4 915.336 C430.2 880.52 407 869 355 869 C303 869 279.8 880.52 272.6 915.336 C269.97 928.052 253.486 946 240.5 946 L240 946 C222.1 946 209.614 935.06 211.063 917.219 L211.063 917.219 Z M89 291 C89 39 131 -9 355 -9 C579 -9 621 38 621 290 L621 690.5 C621 723.342 594.342 750 561.5 750 C528.658 750 502 723.342 502 690.5 L502 311 C502 134 479 101 355 101 C208 101 180 134 180 307 L180 704.5 C180 729.615 159.615 750 134.5 750 C109.385 750 89 729.615 89 704.5 L89 291 L89 291 Z " />
<glyph glyph-name="ubreve" unicode="&#x16d;" horiz-adv-x="534" d="M125.063 696.219 C131.57 616.11 169.1 591 269 591 C368.9 591 406.43 616.11 412.937 696.219 C414.386 714.06 401.9 725 384 725 L383.5 725 C370.514 725 354.03 707.052 351.4 694.336 C344.2 659.52 321 648 269 648 C217 648 193.8 659.52 186.6 694.336 C183.97 707.052 167.486 725 154.5 725 L154 725 C136.1 725 123.614 714.06 125.063 696.219 L125.063 696.219 Z M464 41 L464 479.5 C464 501.855 445.855 520 423.5 520 C401.145 520 383 501.855 383 479.5 L383 200 C383 114 357 87 274 87 C156 87 155 103 155 186 L155 479.5 C155 501.855 136.855 520 114.5 520 C92.1452 520 74 501.855 74 479.5 L74 186 C74 22 75 -9 241 -9 C300.4 -9 340.743 1.20937 367.081 27.8048 C371.466 32.2321 382 29.7311 382 23.5 C382 10.5287 392.529 0 405.5 0 L423 0 C445.631 0 464 18.3692 464 41 L464 41 Z " />
<glyph glyph-name="Uring" unicode="&#x16e;" horiz-adv-x="701" d="M313 906 C313 943 321 952 355 952 C389 952 397 943 397 906 C397 866 390 859 355 859 C320 859 313 866 313 906 L313 906 Z M272 906 C272 834 285 821 355 821 C425 821 438 834 438 906 C438 973 422 990 355 990 C288 990 272 973 272 906 L272 906 Z M89 291 C89 39 131 -9 355 -9 C579 -9 621 38 621 290 L621 690.5 C621 723.342 594.342 750 561.5 750 C528.658 750 502 723.342 502 690.5 L502 311 C502 134 479 101 355 101 C208 101 180 134 180 307 L180 704.5 C180 729.615 159.615 750 134.5 750 C109.385 750 89 729.615 89 704.5 L89 291 L89 291 Z " />
<glyph glyph-name="uring" unicode="&#x16f;" horiz-adv-x="534" d="M227 685 C227 722 235 731 269 731 C303 731 311 722 311 685 C311 645 304 638 269 638 C234 638 227 645 227 685 L227 685 Z M186 685 C186 613 199 600 269 600 C339 600 352 613 352 685 C352 752 336 769 269 769 C202 769 186 752 186 685 L186 685 Z M464 41 L464 479.5 C464 501.855 445.855 520 423.5 520 C401.145 520 383 501.855 383 479.5 L383 200 C383 114 357 87 274 87 C156 87 155 103 155 186 L155 479.5 C155 501.855 136.855 520 114.5 520 C92.1452 520 74 501.855 74 479.5 L74 186 C74 22 75 -9 241 -9 C300.4 -9 340.743 1.20937 367.081 27.8048 C371.466 32.2321 382 29.7311 382 23.5 C382 10.5287 392.529 0 405.5 0 L423 0 C445.631 0 464 18.3692 464 41 L464 41 Z " />
<glyph glyph-name="Wcircumflex" unicode="&#x174;" horiz-adv-x="791" d="M416.418 912.305 C451.828 895.844 497 830 497 830 C497 830 495.445 830 529.358 830 L534.5 830 C550.194 830 557.781 846.533 547.549 858.432 L461.386 958.621 C453.691 967.568 426.603 980 414.803 980 L388.34 980 C376.441 980 349.328 967.494 341.604 958.442 L256.017 858.145 C245.933 846.328 253.465 830 269 830 L282.505 830 C291.158 830 317.055 839.903 323.5 845.677 L388.593 903.99 C400.317 914.492 402.144 918.94 416.418 912.305 L416.418 912.305 Z M643 700 L599.5 471 C589.545 418.593 513.309 416.608 500.64 468.426 L448.641 681.109 C447.697 684.97 447.801 707.004 448.782 710.856 L452 723.5 C455.744 738.21 445.802 751 430.623 751 L392.591 751 C366.492 751 338.817 729.113 332.804 703.717 L277.52 470.247 C264.967 417.231 187.207 418.58 176.5 472 L130 704 L126 721 L123 735.5 C121.378 743.338 113.196 750 105.193 750 L45.5372 750 C32.8419 750 24.3031 739.406 27 727 L32 704 L172.088 51.5611 C172.779 48.3454 172.561 27.7037 171.803 24.5032 L170.5 19 C168.083 8.79489 175.038 0 185.526 0 L223.074 0 C248.732 0 276.42 21.5982 282.666 46.4845 L341.106 279.346 C356.546 340.868 444.419 340.612 459.5 279 L514.905 52.6466 C515.598 49.8152 516.215 30.054 515.7 27.1849 L514.5 20.5 C512.598 9.90588 520.048 1 530.812 1 L566.669 1 C593.255 1 620.914 23.2078 626.658 49.1662 L771 701.5 L776.5 725.75 C779.461 738.804 770.519 750 757.134 750 L658.123 750 C655.875 750 653.488 747.916 652.974 745.728 C649.851 732.435 642.621 700 643.5 700 L643 700 Z " />
<glyph glyph-name="Ycircumflex" unicode="&#x176;" horiz-adv-x="625" d="M335.418 912.305 C370.828 895.844 416 830 416 830 C416 830 414.445 830 448.358 830 L453.5 830 C469.194 830 476.781 846.533 466.549 858.432 L380.386 958.621 C372.691 967.568 345.603 980 333.803 980 L307.34 980 C295.441 980 268.328 967.494 260.604 958.442 L175.017 858.145 C164.933 846.328 172.465 830 188 830 L201.505 830 C210.158 830 236.055 839.903 242.5 845.677 L307.593 903.99 C319.317 914.492 321.144 918.94 335.418 912.305 L335.418 912.305 Z M317 0 C342.391 0 363 20.6094 363 46 L363 302.352 C363 306.991 369.063 329.366 371.405 333.37 L587 702 L601 726 C607.675 737.443 600.462 750 587.215 750 L523.559 750 C509.898 750 487.566 737.089 480.75 725.25 L466.5 700.5 L360.054 515.971 C334.664 471.957 279.206 471.882 253.697 515.827 L146.5 700.5 L132.25 725.25 C125.434 737.089 103.102 750 89.4409 750 L53.877 750 C40.4917 750 33.1479 737.394 39.75 725.75 L53.5 701.5 L261.694 344.253 C263.99 340.312 270.036 318.064 270.05 313.503 L270.861 45.9998 C270.938 20.6094 291.609 0 317 0 L317 0 Z " />
<glyph glyph-name="Ydieresis" unicode="&#x178;" horiz-adv-x="625" d="M394.5 830 C419.063 830 439 849.937 439 874.5 C439 899.063 419.063 919 394.5 919 C369.937 919 350 899.063 350 874.5 C350 849.937 369.937 830 394.5 830 L394.5 830 Z M246.5 830 C271.063 830 291 849.937 291 874.5 C291 899.063 271.063 919 246.5 919 C221.937 919 202 899.063 202 874.5 C202 849.937 221.937 830 246.5 830 L246.5 830 Z M317 0 C342.391 0 363 20.6094 363 46 L363 302.352 C363 306.991 369.063 329.366 371.405 333.37 L587 702 L601 726 C607.675 737.443 600.462 750 587.215 750 L523.559 750 C509.898 750 487.566 737.089 480.75 725.25 L466.5 700.5 L360.054 515.971 C334.664 471.957 279.206 471.882 253.697 515.827 L146.5 700.5 L132.25 725.25 C125.434 737.089 103.102 750 89.4409 750 L53.877 750 C40.4917 750 33.1479 737.394 39.75 725.75 L53.5 701.5 L261.694 344.253 C263.99 340.312 270.036 318.064 270.05 313.503 L270.861 45.9998 C270.938 20.6094 291.609 0 317 0 L317 0 Z " />
<glyph glyph-name="Zacute" unicode="&#x179;" horiz-adv-x="655" d="M335 830 L337.411 830 C353.734 830 381.474 845.617 389.941 859.572 L435.51 934.687 C448.483 956.071 435.012 980 410 980 L398.855 980 C377.356 980 349.549 961.057 341.679 941.049 L311.543 864.432 C304.587 846.746 315.994 830 335 830 L335 830 Z M561.5 97 L287.129 97 C231.823 97 204.568 154.283 239.455 197.197 L596.234 636.067 C601.027 641.963 610 667.225 610 674.823 L610 701.5 C610 728.271 588.271 750 561.5 750 L108.5 750 C81.7295 750 60 728.271 60 701.5 C60 674.729 81.7295 653 108.5 653 L367.871 653 C423.177 653 450.432 595.717 415.545 552.803 L58.766 113.933 C53.9729 108.037 45 82.7754 45 75.1769 L45 48.5 C45 21.7295 66.7295 0 93.5 0 L561.5 0 C588.271 0 610 21.7295 610 48.5 C610 75.2705 588.271 97 561.5 97 L561.5 97 Z " />
<glyph glyph-name="zacute" unicode="&#x17a;" horiz-adv-x="460" d="M242.5 600 L245.411 600 C261.734 600 289.474 615.617 297.941 629.572 L343.251 704.259 C356.346 725.845 342.748 750 317.5 750 L305.855 750 C284.356 750 256.549 731.057 248.679 711.049 L218.726 634.898 C211.676 616.972 223.238 600 242.5 600 L242.5 600 Z M86.5 437 L191.999 437 C246.627 437 274.013 381.282 240.644 338.03 L42.7947 81.5841 C38.4808 75.9925 30 51.1163 30 44.054 L30 32.5 C30 14.561 44.561 0 62.5 0 L398.5 0 C421.407 0 440 18.5932 440 41.5 C440 64.4068 421.407 83 398.5 83 L259.8 83 C205.037 83 177.675 139.024 211.345 182.215 L411.016 438.344 C415.422 443.997 424 468.952 424 476.119 L424 487.5 C424 505.439 409.439 520 391.5 520 L86.5 520 C63.5932 520 45 501.407 45 478.5 C45 455.593 63.5932 437 86.5 437 L86.5 437 Z " />
<glyph glyph-name="Zdot" unicode="&#x17b;" horiz-adv-x="655" d="M335 830 C359.287 830 379 849.713 379 874 L379 875 C379 899.287 359.287 919 335 919 C310.713 919 291 899.287 291 875 L291 874 C291 849.713 310.713 830 335 830 L335 830 Z M561.5 97 L287.129 97 C231.823 97 204.568 154.283 239.455 197.197 L596.234 636.067 C601.027 641.963 610 667.225 610 674.823 L610 701.5 C610 728.271 588.271 750 561.5 750 L108.5 750 C81.7295 750 60 728.271 60 701.5 C60 674.729 81.7295 653 108.5 653 L367.871 653 C423.177 653 450.432 595.717 415.545 552.803 L58.766 113.933 C53.9729 108.037 45 82.7754 45 75.1769 L45 48.5 C45 21.7295 66.7295 0 93.5 0 L561.5 0 C588.271 0 610 21.7295 610 48.5 C610 75.2705 588.271 97 561.5 97 L561.5 97 Z " />
<glyph glyph-name="zdot" unicode="&#x17c;" horiz-adv-x="460" d="M242.5 600 C267.063 600 287 619.937 287 644.5 C287 669.063 267.063 689 242.5 689 C217.937 689 198 669.063 198 644.5 C198 619.937 217.937 600 242.5 600 L242.5 600 Z M86.5 437 L191.999 437 C246.627 437 274.013 381.282 240.644 338.03 L42.7947 81.5841 C38.4808 75.9925 30 51.1163 30 44.054 L30 32.5 C30 14.561 44.561 0 62.5 0 L398.5 0 C421.407 0 440 18.5932 440 41.5 C440 64.4068 421.407 83 398.5 83 L259.8 83 C205.037 83 177.675 139.024 211.345 182.215 L411.016 438.344 C415.422 443.997 424 468.952 424 476.119 L424 487.5 C424 505.439 409.439 520 391.5 520 L86.5 520 C63.5932 520 45 501.407 45 478.5 C45 455.593 63.5932 437 86.5 437 L86.5 437 Z " />
<glyph glyph-name="Zcaron" unicode="&#x17d;" horiz-adv-x="655" d="M321.656 906.08 L257.554 964.109 C251.052 969.995 225.093 980 216.321 980 L202.5 980 C186.806 980 179.219 963.467 189.451 951.568 L275.614 851.379 C283.309 842.432 310.397 830 322.197 830 L347.803 830 C359.603 830 386.691 842.432 394.386 851.379 L480.549 951.568 C490.781 963.467 483.194 980 467.5 980 L462.358 980 C447.732 980 438.209 991.872 429.891 979.841 C427.427 976.278 383.816 913.686 349.418 897.695 C335.143 891.059 333.326 895.515 321.656 906.08 L321.656 906.08 Z M561.5 97 L287.129 97 C231.823 97 204.568 154.283 239.455 197.197 L596.234 636.067 C601.027 641.963 610 667.225 610 674.823 L610 701.5 C610 728.271 588.271 750 561.5 750 L108.5 750 C81.7295 750 60 728.271 60 701.5 C60 674.729 81.7295 653 108.5 653 L367.871 653 C423.177 653 450.432 595.717 415.545 552.803 L58.766 113.933 C53.9729 108.037 45 82.7754 45 75.1769 L45 48.5 C45 21.7295 66.7295 0 93.5 0 L561.5 0 C588.271 0 610 21.7295 610 48.5 C610 75.2705 588.271 97 561.5 97 L561.5 97 Z " />
<glyph glyph-name="zcaron" unicode="&#x17e;" horiz-adv-x="460" d="M229.593 676.01 L164.5 734.323 C158.055 740.097 132.158 750 123.505 750 L110 750 C94.4646 750 86.9331 733.672 97.0174 721.855 L182.604 621.558 C190.328 612.506 217.441 600 229.34 600 L255.803 600 C267.603 600 294.691 612.432 302.386 621.379 L388.549 721.568 C398.781 733.467 391.194 750 375.5 750 L370.358 750 C355.732 750 346.209 761.872 337.891 749.841 C335.427 746.278 291.816 683.686 257.418 667.695 C243.144 661.06 241.317 665.508 229.593 676.01 L229.593 676.01 Z M86.5 437 L191.999 437 C246.627 437 274.013 381.282 240.644 338.03 L42.7947 81.5841 C38.4808 75.9925 30 51.1163 30 44.054 L30 32.5 C30 14.561 44.561 0 62.5 0 L398.5 0 C421.407 0 440 18.5932 440 41.5 C440 64.4068 421.407 83 398.5 83 L259.8 83 C205.037 83 177.675 139.024 211.345 182.215 L411.016 438.344 C415.422 443.997 424 468.952 424 476.119 L424 487.5 C424 505.439 409.439 520 391.5 520 L86.5 520 C63.5932 520 45 501.407 45 478.5 C45 455.593 63.5932 437 86.5 437 L86.5 437 Z " />
<glyph glyph-name="oogonek" unicode="&#x1eb;" horiz-adv-x="754" d="M157 298 C157 459 219 519 384 519 C549 519 611 459 611 298 C611 198.1 592.176 139.27 540.283 108.055 C531.999 103.072 522.623 106.745 516.841 114.492 C504.036 131.652 490.386 150.503 475.891 171.043 C469.528 180.06 456.545 182.823 447.48 176.528 L402.935 145.594 C396.822 141.349 394.757 133.929 399.027 127.834 C409.791 112.471 420.474 98.1406 430.705 84.8438 C432.932 81.9498 430.819 77.676 427.174 77.4606 C413.785 76.6694 399.727 76 385 76 C211 76 157.5 129 157.5 297 L157 298 Z M70 296 C70 61 144 -11 385 -11 C424.1 -11 458.865 -8.8325 489.295 -4.4975 C496.394 -3.48614 513.546 -11.0167 518.571 -16.1328 C572.775 -71.3206 607 -91 607 -91 C607 -91 609.389 -89.3495 625.981 -77.886 L648.569 -62.2796 C655.692 -57.3581 668.555 -58.5613 661.953 -52.9604 C660.954 -52.1129 643.987 -37.5854 612.076 -1.69789 C600.828 10.9517 609.263 35.6917 622.403 46.3626 C679.048 92.3625 700 171.2 700 297 C700 521 614 605 385 605 C156 605 70 520.5 70 296.5 L70 296 Z " />
<glyph glyph-name="Adotabove" unicode="&#x226;" horiz-adv-x="718" d="M365 830 C389.287 830 409 849.713 409 874 L409 875 C409 899.287 389.287 919 365 919 C340.713 919 321 899.287 321 875 L321 874 C321 849.713 340.713 830 365 830 L365 830 Z M160 50 L318.483 453.544 C339.996 508.324 411.646 508.184 432.946 453.321 L475.514 343.676 C492.23 300.62 464.426 260 418.239 260 L284.029 260 C262.408 260 234.603 240.98 226.767 220.829 L224.5 215 C215.497 191.85 230.444 170 255.283 170 L500.953 170 C522.587 170 550.391 150.972 558.224 130.806 L589.077 51.3765 C589.092 51.3378 590.661 46.5868 590.673 46.5471 C593.153 38.5 601.348 16.5216 606.527 5.06113 C607.697 2.47259 611.307 0 614.148 0 L697.23 0 C702.749 0 706.05 4.87509 704 10 L700 20 L428.514 709.006 C426.44 714.269 426.431 731.734 428.5 737 C431.326 744.192 426.686 751 418.958 751 L327.577 751 C320.126 751 310.311 744.401 307.5 737.5 L302 724 L294 702 L33 50.5 L24 28 C17 10 14 1 14 1 C14 1 16.8563 1 18.7434 1 L142 1 C143 5 160.5 50.5 160.5 50.5 L160 50 Z " />
<glyph glyph-name="G_sc" unicode="&#x262;" horiz-adv-x="719" d="M414.5 275 L509.56 275 C543.473 275 571 247.473 571 213.56 L571 173.717 C571 160.396 559.781 135.567 549.197 127.479 C500.484 90.25 464.5 78 391 78 C208 78 152 130 152 298 C152 467 208 519 391 519 C467.5 519 512.21 495.88 560.749 425.075 C575.335 403.799 606.184 398.986 626 415.5 L661.045 444.704 C663.19 446.492 663.856 450.06 662.5 452.5 L660 457 C592 571 528 606 391 606 C141 606 64 534 64 298 C64 63 141 -9 391 -9 C516.8 -9 572.439 11.535 653.682 76.3486 C663.66 84.3085 674 108.895 674 121.659 L674 300.56 C674 334.473 646.473 362 612.56 362 L414.5 362 C390.489 362 371 342.511 371 318.5 C371 294.489 390.489 275 414.5 275 L414.5 275 Z " />
<glyph glyph-name="I_sc" unicode="&#x26a;" horiz-adv-x="259" d="M174 41 L174 556 C174 578.631 155.631 597 133 597 C110.369 597 92 578.631 92 556 L92 41 C92 18.3692 110.369 0 133 0 C155.631 0 174 18.3692 174 41 L174 41 Z " />
<glyph glyph-name="N_sc" unicode="&#x274;" horiz-adv-x="635" d="M328.277 333.825 L207.157 544.792 C204.915 548.697 199 570.88 199 575.383 L199 578 C199 588.487 190.487 597 180 597 L145.5 597 C115.97 597 92 573.03 92 543.5 L92 53.5 C92 23.9696 115.97 0 145.5 0 C175.03 0 199 23.9696 199 53.5 L199 205.5 C199 261.983 273.204 281.772 301.33 232.79 L417.288 30.8456 C425.766 16.0807 453.543 0 470.569 0 L492.5 0 C524.238 0 550 25.7617 550 57.5 L550 543.5 C550 573.03 526.03 597 496.5 597 C466.97 597 443 573.03 443 543.5 L443 364.416 C443 301.092 359.806 278.908 328.277 333.825 L328.277 333.825 Z " />
<glyph glyph-name="R_sc" unicode="&#x280;" horiz-adv-x="564" d="M540 12.5 L532 25 C520 44 516 50 516 50 L413.277 210.126 C398.889 232.555 416.817 264.24 442.728 270.456 C512.36 287.16 529 327.8 529 419 C529 570 494 598 311 598 L159.44 598 C125.527 598 98 570.473 98 536.56 L98 42.5 C98 19.5932 116.593 1 139.5 1 C162.407 1 181 19.5932 181 42.5 L181 208 C181 237.254 204.746 261 234 261 L253.441 261 C269.027 261 296.713 245.877 305.136 232.764 L436.092 28.88 C444.352 16.0211 471.852 0.810088 487.134 0.647513 L533.16 0.157872 C540.012 0.0849799 543.694 6.72854 540 12.5 L540 12.5 Z M181 405.44 L181 453.56 C181 487.473 208.527 515 242.44 515 L307 515 C424 515 446 500 446 419 C446 356 425 344 314 344 L242.44 344 C208.527 344 181 371.527 181 405.44 L181 405.44 Z " />
<glyph glyph-name="Y_sc" unicode="&#x28f;" horiz-adv-x="565" d="M287 0 C309.631 0 328 18.3692 328 41 L328 295.158 C328 302.768 336.983 328.038 341.787 333.941 L516 548 C523.086 555.971 545.861 583.555 553.059 593.23 C553.927 594.397 553.54 596 552.085 596 L449.509 596 C443.714 596 431.147 590.005 427.5 585.5 L419 575 L325.369 458.791 C299.768 427.017 255.97 426.803 230.061 458.326 L159.951 543.626 C159.844 543.756 156.389 548.416 156.295 548.557 L155.667 549.5 C155.577 549.635 152.2 554.2 152.097 554.325 L136 574 C128.31 583.398 101.718 596 89.5747 596 L57.5931 596 C44.2078 596 37.6705 582.024 46.25 571.75 L66.5 547.5 L231.946 347.029 C236.884 341.046 246 315.678 246 307.921 L246 41 C246 18.3692 264.369 0 287 0 L287 0 Z " />
<glyph glyph-name="B_sc" unicode="&#x299;" horiz-adv-x="633" d="M511.782 345.913 C546.068 363.935 559 393.8 559 440 C559 585 539 598 314 598 L159.44 598 C125.527 598 98 570.473 98 536.56 L98 62.44 C98 28.527 125.527 1 159.44 1 L353 1 C578 1 598 16 598 182 C598 263.375 576.563 307.617 515.6 328.795 C509.457 330.929 506.026 342.887 511.782 345.913 L511.782 345.913 Z M181 424.502 L181 453.56 C181 487.473 208.527 515 242.44 515 L318 515 C461 515 474 508 474 434 C474 381 433 365 298 365 L239.5 365.5 C207.211 365.776 181 392.212 181 424.502 L181 424.502 Z M181 145.44 L181 224.56 C181 258.473 208.527 286 242.44 286 L312 286 C463 286 510 264 510 191 C510 93 495 84 323 84 L242.44 84 C208.527 84 181 111.527 181 145.44 L181 145.44 Z " />
</font>
</svg>
