<?xml version="1.0" encoding="UTF-8"?>
<svg xmlns="http://www.w3.org/2000/svg" xmlns:xlink="http://www.w3.org/1999/xlink" version="1.2" >
<font id="Denson Demo">
<font-face  font-family="Denson" units-per-em="1000" ascent="762" descent="-200" font-style="normal" font-weight="400" font-stretch="normal" cap-height="698" x-height="702" underline-position="0" underline-thickness="0" />
<missing-glyph  horiz-adv-x="500" d="" />
<glyph glyph-name="NULL" d="" />
<glyph glyph-name="&amp;#x0;" d="" />
<glyph glyph-name="&amp;#xd;" unicode="&#xd;" d="" />
<glyph glyph-name="space" unicode="&#x20;" horiz-adv-x="307" d="" />
<glyph glyph-name="controlLF" unicode="&#xa;" d="" />
<glyph glyph-name="zero" unicode="0" horiz-adv-x="644" d="M50 354 C50 53 93 -4 322 -4 C551 -4 594 53 594 354 C594 641 541 712 322 712 C103 712 50 641 50 354 L50 354 Z M138 354 C138 569 174 621 321 621 C468 621 504 569 504 354 C504 129 475 87 321 87 C167 87 138 129 138 354 L138 354 Z " />
<glyph glyph-name="one" unicode="1" horiz-adv-x="335" d="M285 47 L285 670 C285 688 270 703 252 703 L242 703 C233 703 209 693 202 687 L68 557 C61 550 51 525 51 516 L51 473 C51 446 80 434 100 453 L127 480 C156 509 202 489 202 448 L202 48 C202 24 221 5 245 5 C268 5 287 24 287 48 L285 47 L285 47 Z " />
<glyph glyph-name="two" unicode="2" horiz-adv-x="570" d="M106 5 L479 5 C501 5 520 24 520 46 C520 68 501 87 479 87 L214 87 C186 87 170 100 178 126 C196 180 242 204 354 272 C470 344 506 394 506 485 C506 658 453 711 281 711 C108 711 55 662 55 503 C55 450 62 418 82 386 C90 372 106 369 120 376 L177 404 C185 409 189 421 183 429 C166 453 161 473 161 502 C161 610 193 643 294 643 C393 643 424 610 424 506 C424 438 377 388 223 293 C80 206 55 199 51 58 C50 25 75 5 107 5 L106 5 L106 5 Z " />
<glyph glyph-name="three" unicode="3" horiz-adv-x="563" d="M50 195 C58 44 117 -3 281 -3 C458 -3 513 44 513 199 C513 293 488 341 412 370 C403 374 399 394 409 398 C467 421 487 458 487 530 C487 668 440 711 286 711 C147 711 94 673 86 551 C84 526 102 507 127 507 C147 507 169 527 172 547 C180 602 211 621 283 621 C380 621 410 598 410 524 C410 439 379 413 278 413 L237 413 C218 413 203 398 203 380 L203 374 C203 358 215 346 231 346 L259 346 C385 346 424 313 424 203 C424 119 391 94 283 94 C190 94 152 117 143 190 C140 211 117 232 97 233 C71 233 52 220 53 195 L50 195 L50 195 Z " />
<glyph glyph-name="four" unicode="4" horiz-adv-x="612" d="M50 308 L50 288 C50 265 70 245 93 245 L314 245 C345 245 371 219 371 188 L371 47 C371 23 390 4 414 4 C437 4 456 23 456 47 L456 191 C456 220 480 244 510 244 L514 244 C541 244 563 266 563 293 C563 320 541 342 514 342 L510 342 C480 342 456 366 456 396 L456 642 C456 648 463 664 467 669 L470 672 C473 676 472 682 467 683 L465 683 C460 685 456 690 456 696 C456 701 452 705 447 705 L414 705 C404 705 379 694 372 687 L65 350 C59 343 50 319 50 311 L50 308 L50 308 Z M234 422 L358 556 C364 563 374 558 373 550 L370 526 L370 404 C370 373 344 347 313 347 L267 347 C225 347 205 392 233 423 L234 422 L234 422 Z " />
<glyph glyph-name="five" unicode="5" horiz-adv-x="564" d="M123 319 L150 312 C165 309 194 317 205 328 C244 368 269 381 302 381 C394 381 422 344 422 222 C422 123 389 92 282 92 C188 92 150 115 141 188 C138 209 115 230 95 230 C69 230 50 217 51 192 C59 41 118 -6 283 -6 C460 -6 515 47 515 221 C515 396 469 450 319 450 C275 450 244 441 210 413 C202 406 189 413 190 424 L198 579 C200 612 228 636 260 633 L439 620 L477 618 C482 618 486 623 487 628 C487 639 488 647 489 659 L491 679 C491 690 483 699 472 699 L152 699 C121 699 96 675 94 644 L82 374 C81 348 101 322 125 315 L123 319 L123 319 Z " />
<glyph glyph-name="six" unicode="6" horiz-adv-x="579" d="M481 636 C433 693 386 712 305 712 C91 712 51 627 51 351 C51 53 90 -3 298 -3 C476 -3 531 53 531 234 C531 413 481 468 316 468 C233 468 192 440 147 351 C145 347 139 348 139 352 L139 368 C139 566 165 627 305 627 C348 627 376 614 409 572 C422 557 448 552 465 563 L472 569 C497 585 501 614 481 637 L481 636 L481 636 Z M293 377 C404 377 437 344 437 234 C437 122 404 88 296 88 C204 88 163 109 147 198 C145 205 150 226 153 232 C207 343 240 377 292 377 L293 377 L293 377 Z " />
<glyph glyph-name="seven" unicode="7" horiz-adv-x="519" d="M50 662 C50 640 69 621 91 621 L237 621 C288 621 309 558 276 520 C176 405 160 317 158 60 C158 33 179 6 205 6 C231 6 252 34 252 60 C254 378 278 438 452 608 C459 615 466 637 466 646 L466 663 C466 685 447 704 425 704 L88 704 C66 704 47 685 47 663 L50 662 L50 662 Z " />
<glyph glyph-name="eight" unicode="8" horiz-adv-x="572" d="M76 530 C76 463 83 420 116 395 C123 390 121 373 114 368 C67 342 49 292 49 194 C49 43 78 -4 286 -4 C467 -4 522 19 522 193 C522 289 512 343 453 370 C446 374 448 387 454 392 C485 416 497 457 497 530 C497 669 464 712 289 712 C128 712 79 683 79 530 L76 530 L76 530 Z M143 201 C143 314 177 329 289 329 C417 329 435 299 435 202 C435 101 401 87 290 87 C162 87 144 114 144 201 L143 201 L143 201 Z M157 522 C157 605 188 621 289 621 C399 621 419 598 419 523 C419 438 388 427 288 427 C172 427 156 449 156 523 L157 522 L157 522 Z " />
<glyph glyph-name="nine" unicode="9" horiz-adv-x="579" d="M98 72 C146 15 193 -4 274 -4 C488 -4 528 81 528 357 C528 655 489 711 281 711 C103 711 48 655 48 474 C48 295 98 240 263 240 C346 240 387 268 432 357 C434 361 440 360 440 356 L440 340 C440 142 414 81 274 81 C231 81 203 94 170 136 C157 151 131 156 114 145 L107 140 C82 123 78 94 98 71 L98 72 L98 72 Z M287 331 L286 331 C175 331 142 364 142 474 C142 586 175 620 283 620 C375 620 416 599 432 510 C434 503 429 482 426 476 C372 365 339 331 288 331 L287 331 L287 331 Z " />
<glyph glyph-name="A" unicode="A" horiz-adv-x="743" d="M186 47 L333 423 C353 473 420 473 440 422 L480 321 C495 281 469 243 426 243 L301 243 C281 243 256 225 249 206 L247 200 C238 179 252 159 275 159 L504 159 C524 159 549 141 556 122 L585 48 L587 44 C589 36 596 16 602 5 C603 2 606 0 609 0 L686 0 C692 0 695 5 693 10 L689 19 L437 660 C434 665 434 682 437 687 C439 694 435 701 428 701 L343 701 C336 701 327 694 325 688 L319 675 L312 655 L69 49 L61 28 C54 11 51 3 51 3 C51 3 168 3 170 3 C171 7 188 50 188 50 L186 47 L186 47 Z " />
<glyph glyph-name="&amp;#xc0;" unicode="&#xc0;" horiz-adv-x="743" d="M186 47 L333 423 C353 473 420 473 440 422 L480 321 C495 281 469 243 426 243 L301 243 C281 243 256 225 249 206 L247 200 C238 179 252 159 275 159 L504 159 C524 159 549 141 556 122 L585 48 L587 44 C589 36 596 16 602 5 C603 2 606 0 609 0 L686 0 C692 0 695 5 693 10 L689 19 L437 660 C434 665 434 682 437 687 C439 694 435 701 428 701 L343 701 C336 701 327 694 325 688 L319 675 L312 655 L69 49 L61 28 C54 11 51 3 51 3 C51 3 168 3 170 3 C171 7 188 50 188 50 L186 47 L186 47 Z " />
<glyph glyph-name="&amp;#xc1;" unicode="&#xc1;" horiz-adv-x="743" d="M186 47 L333 423 C353 473 420 473 440 422 L480 321 C495 281 469 243 426 243 L301 243 C281 243 256 225 249 206 L247 200 C238 179 252 159 275 159 L504 159 C524 159 549 141 556 122 L585 48 L587 44 C589 36 596 16 602 5 C603 2 606 0 609 0 L686 0 C692 0 695 5 693 10 L689 19 L437 660 C434 665 434 682 437 687 C439 694 435 701 428 701 L343 701 C336 701 327 694 325 688 L319 675 L312 655 L69 49 L61 28 C54 11 51 3 51 3 C51 3 168 3 170 3 C171 7 188 50 188 50 L186 47 L186 47 Z " />
<glyph glyph-name="&amp;#xc2;" unicode="&#xc2;" horiz-adv-x="743" d="M186 47 L333 423 C353 473 420 473 440 422 L480 321 C495 281 469 243 426 243 L301 243 C281 243 256 225 249 206 L247 200 C238 179 252 159 275 159 L504 159 C524 159 549 141 556 122 L585 48 L587 44 C589 36 596 16 602 5 C603 2 606 0 609 0 L686 0 C692 0 695 5 693 10 L689 19 L437 660 C434 665 434 682 437 687 C439 694 435 701 428 701 L343 701 C336 701 327 694 325 688 L319 675 L312 655 L69 49 L61 28 C54 11 51 3 51 3 C51 3 168 3 170 3 C171 7 188 50 188 50 L186 47 L186 47 Z " />
<glyph glyph-name="&amp;#xc3;" unicode="&#xc3;" horiz-adv-x="743" d="M186 47 L333 423 C353 473 420 473 440 422 L480 321 C495 281 469 243 426 243 L301 243 C281 243 256 225 249 206 L247 200 C238 179 252 159 275 159 L504 159 C524 159 549 141 556 122 L585 48 L587 44 C589 36 596 16 602 5 C603 2 606 0 609 0 L686 0 C692 0 695 5 693 10 L689 19 L437 660 C434 665 434 682 437 687 C439 694 435 701 428 701 L343 701 C336 701 327 694 325 688 L319 675 L312 655 L69 49 L61 28 C54 11 51 3 51 3 C51 3 168 3 170 3 C171 7 188 50 188 50 L186 47 L186 47 Z " />
<glyph glyph-name="&amp;#xc4;" unicode="&#xc4;" horiz-adv-x="743" d="M186 47 L333 423 C353 473 420 473 440 422 L480 321 C495 281 469 243 426 243 L301 243 C281 243 256 225 249 206 L247 200 C238 179 252 159 275 159 L504 159 C524 159 549 141 556 122 L585 48 L587 44 C589 36 596 16 602 5 C603 2 606 0 609 0 L686 0 C692 0 695 5 693 10 L689 19 L437 660 C434 665 434 682 437 687 C439 694 435 701 428 701 L343 701 C336 701 327 694 325 688 L319 675 L312 655 L69 49 L61 28 C54 11 51 3 51 3 C51 3 168 3 170 3 C171 7 188 50 188 50 L186 47 L186 47 Z " />
<glyph glyph-name="&amp;#xc5;" unicode="&#xc5;" horiz-adv-x="743" d="M186 47 L333 423 C353 473 420 473 440 422 L480 321 C495 281 469 243 426 243 L301 243 C281 243 256 225 249 206 L247 200 C238 179 252 159 275 159 L504 159 C524 159 549 141 556 122 L585 48 L587 44 C589 36 596 16 602 5 C603 2 606 0 609 0 L686 0 C692 0 695 5 693 10 L689 19 L437 660 C434 665 434 682 437 687 C439 694 435 701 428 701 L343 701 C336 701 327 694 325 688 L319 675 L312 655 L69 49 L61 28 C54 11 51 3 51 3 C51 3 168 3 170 3 C171 7 188 50 188 50 L186 47 L186 47 Z " />
<glyph glyph-name="B" unicode="B" horiz-adv-x="624" d="M483 399 C523 420 538 456 538 513 C538 682 517 697 282 697 L107 697 C76 697 50 671 50 640 L50 56 C50 25 76 -1 107 -1 L318 -1 C553 -1 574 16 574 209 C574 304 551 355 485 379 C478 382 477 396 484 399 L483 399 L483 399 Z M136 475 L136 555 C136 586 162 612 193 612 L288 612 C438 612 451 604 451 507 C451 439 407 419 265 419 L193 419 C162 419 136 445 136 476 L136 475 L136 475 Z M136 144 L136 280 C136 311 162 337 193 337 L274 337 C434 337 483 310 483 221 C483 99 467 88 287 88 L193 87 C161 87 135 113 135 145 L136 144 L136 144 Z " />
<glyph glyph-name="C" unicode="C" horiz-adv-x="694" d="M540 166 C500 103 450 83 353 83 C191 83 141 166 141 350 C141 534 191 617 353 617 C439 617 488 597 535 534 C551 513 585 506 605 523 L641 554 C643 555 644 559 643 562 L640 566 C575 676 506 710 353 710 C120 710 48 598 48 352 C48 106 120 -6 353 -6 C503 -6 575 22 625 107 C639 130 632 158 612 175 L605 182 C585 198 552 191 539 170 L540 166 L540 166 Z " />
<glyph glyph-name="&amp;#xc7;" unicode="&#xc7;" horiz-adv-x="694" d="M540 166 C500 103 450 83 353 83 C191 83 141 166 141 350 C141 534 191 617 353 617 C439 617 488 597 535 534 C551 513 585 506 605 523 L641 554 C643 555 644 559 643 562 L640 566 C575 676 506 710 353 710 C120 710 48 598 48 352 C48 106 120 -6 353 -6 C503 -6 575 22 625 107 C639 130 632 158 612 175 L605 182 C585 198 552 191 539 170 L540 166 L540 166 Z " />
<glyph glyph-name="D" unicode="D" horiz-adv-x="671" d="M107 0 L287 0 C576 0 622 47 622 349 C622 643 564 698 259 698 L107 698 C76 698 50 672 50 641 L50 57 C50 26 76 0 107 0 L107 0 Z M135 142 L135 555 C135 586 161 612 192 612 L264 612 C488 612 530 570 530 349 C530 121 496 86 279 86 L192 86 C161 86 135 112 135 143 L135 142 L135 142 Z " />
<glyph glyph-name="E" unicode="E" horiz-adv-x="534" d="M439 91 L191 91 C160 91 134 117 134 148 L134 262 C134 293 160 319 191 319 L408 319 C431 319 451 339 451 362 C451 385 431 405 408 405 L191 405 C160 405 134 431 134 462 L134 553 C134 584 160 610 191 610 L425 610 C449 610 469 630 469 655 C469 679 449 699 425 699 L107 699 C76 699 50 673 50 642 L50 58 C50 27 76 1 107 1 L439 1 C463 1 483 21 483 46 C483 70 463 90 439 90 L439 91 L439 91 Z " />
<glyph glyph-name="&amp;#xc8;" unicode="&#xc8;" horiz-adv-x="534" d="M439 91 L191 91 C160 91 134 117 134 148 L134 262 C134 293 160 319 191 319 L408 319 C431 319 451 339 451 362 C451 385 431 405 408 405 L191 405 C160 405 134 431 134 462 L134 553 C134 584 160 610 191 610 L425 610 C449 610 469 630 469 655 C469 679 449 699 425 699 L107 699 C76 699 50 673 50 642 L50 58 C50 27 76 1 107 1 L439 1 C463 1 483 21 483 46 C483 70 463 90 439 90 L439 91 L439 91 Z " />
<glyph glyph-name="&amp;#xc9;" unicode="&#xc9;" horiz-adv-x="534" d="M439 91 L191 91 C160 91 134 117 134 148 L134 262 C134 293 160 319 191 319 L408 319 C431 319 451 339 451 362 C451 385 431 405 408 405 L191 405 C160 405 134 431 134 462 L134 553 C134 584 160 610 191 610 L425 610 C449 610 469 630 469 655 C469 679 449 699 425 699 L107 699 C76 699 50 673 50 642 L50 58 C50 27 76 1 107 1 L439 1 C463 1 483 21 483 46 C483 70 463 90 439 90 L439 91 L439 91 Z " />
<glyph glyph-name="&amp;#xca;" unicode="&#xca;" horiz-adv-x="534" d="M439 91 L191 91 C160 91 134 117 134 148 L134 262 C134 293 160 319 191 319 L408 319 C431 319 451 339 451 362 C451 385 431 405 408 405 L191 405 C160 405 134 431 134 462 L134 553 C134 584 160 610 191 610 L425 610 C449 610 469 630 469 655 C469 679 449 699 425 699 L107 699 C76 699 50 673 50 642 L50 58 C50 27 76 1 107 1 L439 1 C463 1 483 21 483 46 C483 70 463 90 439 90 L439 91 L439 91 Z " />
<glyph glyph-name="&amp;#xcb;" unicode="&#xcb;" horiz-adv-x="534" d="M439 91 L191 91 C160 91 134 117 134 148 L134 262 C134 293 160 319 191 319 L408 319 C431 319 451 339 451 362 C451 385 431 405 408 405 L191 405 C160 405 134 431 134 462 L134 553 C134 584 160 610 191 610 L425 610 C449 610 469 630 469 655 C469 679 449 699 425 699 L107 699 C76 699 50 673 50 642 L50 58 C50 27 76 1 107 1 L439 1 C463 1 483 21 483 46 C483 70 463 90 439 90 L439 91 L439 91 Z " />
<glyph glyph-name="F" unicode="F" horiz-adv-x="520" d="M442 360 C442 383 422 403 399 403 L191 403 C160 403 134 429 134 460 L134 551 C134 582 160 608 191 608 L425 608 C449 608 469 628 469 653 C469 677 449 697 425 697 L107 697 C76 697 50 671 50 640 L50 42 C50 18 69 -1 93 -1 C116 -1 135 18 135 42 L135 260 C135 291 161 317 192 317 L400 317 C423 317 443 337 443 360 L442 360 L442 360 Z " />
<glyph glyph-name="G" unicode="G" horiz-adv-x="725" d="M401 311 L513 311 C544 311 570 285 570 254 L570 166 C570 153 558 129 548 122 C507 92 470 83 387 83 C200 83 142 145 142 350 C142 555 200 617 387 617 C466 617 513 597 559 534 C575 513 609 505 629 523 L665 554 C667 555 668 559 667 562 L664 566 C599 676 532 710 388 710 C130 710 51 626 51 352 C51 78 130 -6 388 -6 C526 -6 583 14 658 74 C667 81 676 103 676 115 L676 347 C676 378 650 404 619 404 L402 404 C377 404 357 384 357 360 C356 335 376 315 401 315 L401 311 L401 311 Z " />
<glyph glyph-name="H" unicode="H" horiz-adv-x="621" d="M571 43 L571 656 C571 679 552 698 529 698 C505 698 486 679 486 656 L486 469 C486 438 460 412 429 412 L191 412 C160 412 134 438 134 469 L134 656 C134 679 115 698 92 698 C68 698 49 679 49 656 L49 43 C49 19 68 0 92 0 C115 0 134 19 134 43 L134 266 C134 297 160 323 191 323 L429 323 C460 323 486 297 486 266 L486 43 C486 19 505 0 529 0 C552 0 571 19 571 43 L571 43 Z " />
<glyph glyph-name="I" unicode="I" horiz-adv-x="185" d="M135 43 L135 656 C135 679 116 698 93 698 C69 698 50 679 50 656 L50 43 C50 19 69 0 93 0 C116 0 135 19 135 43 L135 43 Z " />
<glyph glyph-name="&amp;#xcc;" unicode="&#xcc;" horiz-adv-x="185" d="M135 43 L135 656 C135 679 116 698 93 698 C69 698 50 679 50 656 L50 43 C50 19 69 0 93 0 C116 0 135 19 135 43 L135 43 Z " />
<glyph glyph-name="&amp;#xcd;" unicode="&#xcd;" horiz-adv-x="185" d="M135 43 L135 656 C135 679 116 698 93 698 C69 698 50 679 50 656 L50 43 C50 19 69 0 93 0 C116 0 135 19 135 43 L135 43 Z " />
<glyph glyph-name="&amp;#xce;" unicode="&#xce;" horiz-adv-x="185" d="M135 43 L135 656 C135 679 116 698 93 698 C69 698 50 679 50 656 L50 43 C50 19 69 0 93 0 C116 0 135 19 135 43 L135 43 Z " />
<glyph glyph-name="&amp;#xcf;" unicode="&#xcf;" horiz-adv-x="185" d="M135 43 L135 656 C135 679 116 698 93 698 C69 698 50 679 50 656 L50 43 C50 19 69 0 93 0 C116 0 135 19 135 43 L135 43 Z " />
<glyph glyph-name="J" unicode="J" horiz-adv-x="458" d="M50 233 L50 203 C50 17 71 -8 229 -8 C380 -8 408 42 408 205 L408 656 C408 679 389 698 366 698 C342 698 323 679 323 656 L323 205 C323 120 308 94 229 94 C145 94 134 110 134 228 L134 252 C134 265 123 274 110 271 L78 265 C62 262 49 247 49 231 L50 233 L50 233 Z " />
<glyph glyph-name="K" unicode="K" horiz-adv-x="597" d="M148 252 L493 652 L512 675 C520 684 513 697 501 697 L407 697 C402 697 391 691 387 687 C376 673 365 659 359 652 L238 505 C203 462 139 485 139 540 L139 654 C139 677 120 696 97 696 C73 696 54 677 54 654 L54 285 C54 283 52 277 51 276 L49 275 C48 273 49 271 51 271 C52 270 54 268 54 266 L54 40 C54 16 73 -3 97 -3 C120 -3 139 16 139 40 L139 245 C139 247 141 249 143 248 C144 247 147 248 148 250 L148 252 L148 252 Z M545 17 L534 37 L530 44 L335 401 C323 421 299 424 283 406 L278 400 C265 385 262 353 271 335 L429 42 L441 19 C447 8 467 -4 480 -4 L532 -4 C543 -4 549 6 544 15 L545 17 L545 17 Z " />
<glyph glyph-name="L" unicode="L" horiz-adv-x="487" d="M392 91 L191 91 C160 91 134 117 134 148 L134 657 C134 680 115 699 92 699 C68 699 49 680 49 657 L49 58 C49 27 75 1 106 1 L392 1 C416 1 436 21 436 46 C436 70 416 90 392 90 L392 91 L392 91 Z " />
<glyph glyph-name="M" unicode="M" horiz-adv-x="764" d="M714 41 L714 641 C714 672 688 698 657 698 L607 698 C586 698 560 679 553 659 L437 308 C419 254 347 254 328 307 L208 659 C201 679 175 698 154 698 L107 698 C76 698 50 672 50 641 L50 54 C50 24 74 0 104 0 C133 0 157 24 157 54 L157 289 C157 341 234 354 251 305 L339 47 C341 41 341 21 340 15 C337 7 342 0 351 0 L391 0 C412 0 438 19 445 39 L537 312 C553 361 631 348 631 297 L631 41 C631 19 650 0 672 0 C694 0 713 19 713 41 L714 41 L714 41 Z " />
<glyph glyph-name="N" unicode="N" horiz-adv-x="615" d="M348 333 L168 655 C166 659 160 679 160 683 C160 691 153 698 145 698 L105 698 C74 698 49 673 49 643 L49 56 C49 25 74 0 105 0 C135 0 160 25 160 56 L160 279 C160 338 238 358 267 307 L421 30 C429 15 455 0 471 0 L506 0 C537 0 563 26 563 57 L563 643 C563 674 539 698 508 698 C477 698 453 674 453 643 L453 361 C453 302 375 282 346 333 L348 333 L348 333 Z " />
<glyph glyph-name="&amp;#xd1;" unicode="&#xd1;" horiz-adv-x="615" d="M348 333 L168 655 C166 659 160 679 160 683 C160 691 153 698 145 698 L105 698 C74 698 49 673 49 643 L49 56 C49 25 74 0 105 0 C135 0 160 25 160 56 L160 279 C160 338 238 358 267 307 L421 30 C429 15 455 0 471 0 L506 0 C537 0 563 26 563 57 L563 643 C563 674 539 698 508 698 C477 698 453 674 453 643 L453 361 C453 302 375 282 346 333 L348 333 L348 333 Z " />
<glyph glyph-name="O" unicode="O" horiz-adv-x="745" d="M50 349 C50 75 126 -9 373 -9 C620 -9 695 75 695 349 C695 609 607 707 373 707 C138 707 50 609 50 349 L50 349 Z M142 349 C142 544 205 617 373 617 C541 617 603 544 603 349 C603 144 549 82 373 82 C196 82 142 144 142 349 L142 349 Z " />
<glyph glyph-name="&amp;#xd2;" unicode="&#xd2;" horiz-adv-x="745" d="M50 349 C50 75 126 -9 373 -9 C620 -9 695 75 695 349 C695 609 607 707 373 707 C138 707 50 609 50 349 L50 349 Z M142 349 C142 544 205 617 373 617 C541 617 603 544 603 349 C603 144 549 82 373 82 C196 82 142 144 142 349 L142 349 Z " />
<glyph glyph-name="&amp;#xd3;" unicode="&#xd3;" horiz-adv-x="745" d="M50 349 C50 75 126 -9 373 -9 C620 -9 695 75 695 349 C695 609 607 707 373 707 C138 707 50 609 50 349 L50 349 Z M142 349 C142 544 205 617 373 617 C541 617 603 544 603 349 C603 144 549 82 373 82 C196 82 142 144 142 349 L142 349 Z " />
<glyph glyph-name="&amp;#xd4;" unicode="&#xd4;" horiz-adv-x="745" d="M50 349 C50 75 126 -9 373 -9 C620 -9 695 75 695 349 C695 609 607 707 373 707 C138 707 50 609 50 349 L50 349 Z M142 349 C142 544 205 617 373 617 C541 617 603 544 603 349 C603 144 549 82 373 82 C196 82 142 144 142 349 L142 349 Z " />
<glyph glyph-name="&amp;#xd5;" unicode="&#xd5;" horiz-adv-x="745" d="M50 349 C50 75 126 -9 373 -9 C620 -9 695 75 695 349 C695 609 607 707 373 707 C138 707 50 609 50 349 L50 349 Z M142 349 C142 544 205 617 373 617 C541 617 603 544 603 349 C603 144 549 82 373 82 C196 82 142 144 142 349 L142 349 Z " />
<glyph glyph-name="&amp;#xd6;" unicode="&#xd6;" horiz-adv-x="745" d="M50 349 C50 75 126 -9 373 -9 C620 -9 695 75 695 349 C695 609 607 707 373 707 C138 707 50 609 50 349 L50 349 Z M142 349 C142 544 205 617 373 617 C541 617 603 544 603 349 C603 144 549 82 373 82 C196 82 142 144 142 349 L142 349 Z " />
<glyph glyph-name="&amp;#xd8;" unicode="&#xd8;" horiz-adv-x="745" d="M50 349 C50 75 126 -9 373 -9 C620 -9 695 75 695 349 C695 609 607 707 373 707 C138 707 50 609 50 349 L50 349 Z M142 349 C142 544 205 617 373 617 C541 617 603 544 603 349 C603 144 549 82 373 82 C196 82 142 144 142 349 L142 349 Z " />
<glyph glyph-name="P" unicode="P" horiz-adv-x="559" d="M135 43 L135 225 C135 256 161 282 192 282 L299 282 C476 282 509 315 509 489 C509 665 476 698 299 698 L107 698 C76 698 50 672 50 641 L50 43 C50 19 69 0 93 0 C116 0 135 19 135 43 L135 43 Z M135 425 L135 556 C135 587 161 613 192 613 L294 613 C404 613 424 593 424 489 C424 388 404 368 303 368 L191 368 C160 368 134 394 134 425 L135 425 L135 425 Z " />
<glyph glyph-name="Q" unicode="Q" horiz-adv-x="746" d="M50 347 C50 73 126 -11 373 -11 C415 -11 451 -8 483 -3 C491 -2 511 -8 517 -14 C570 -67 598 -87 598 -87 C598 -87 602 -83 613 -75 L641 -52 C647 -47 656 -49 651 -43 C650 -42 639 -29 611 3 C601 16 603 41 615 52 C674 106 696 199 696 346 C696 606 608 704 374 704 C139 704 51 606 51 346 L50 347 L50 347 Z M141 348 C141 543 204 616 372 616 C540 616 602 543 602 348 C602 228 583 157 534 118 C526 112 517 115 510 123 C495 140 479 159 461 180 C454 188 440 190 431 183 L390 149 C383 144 382 136 387 130 C400 115 412 100 423 87 C426 84 425 81 421 80 C406 79 390 78 372 78 C195 78 141 141 141 346 L141 348 L141 348 Z " />
<glyph glyph-name="R" unicode="R" horiz-adv-x="577" d="M504 47 L503 47 L396 253 C384 275 404 307 428 314 C493 334 509 382 509 489 C509 665 476 698 299 698 L107 698 C76 698 50 672 50 641 L50 43 C50 19 69 0 93 0 C116 0 135 19 135 42 L135 244 C135 275 161 301 192 301 L239 301 C256 301 282 285 289 270 L415 31 C422 16 448 0 465 0 L524 0 C526 0 528 2 527 4 C520 17 504 47 504 47 L504 47 Z M135 443 L135 556 C135 587 161 613 192 613 L294 613 C404 613 424 593 424 489 C424 402 404 386 302 386 L191 386 C160 386 134 412 134 443 L135 443 L135 443 Z " />
<glyph glyph-name="S" unicode="S" horiz-adv-x="579" d="M56 141 C116 16 172 -8 310 -8 C495 -8 529 39 529 195 C529 335 493 368 299 402 C170 425 146 443 146 517 C146 587 174 608 263 608 C312 608 342 598 392 549 C412 530 445 529 465 548 L501 581 C503 583 503 585 502 587 L499 590 C409 689 361 708 262 708 C105 708 57 661 57 510 C57 381 91 350 276 317 C417 292 444 272 444 193 C444 113 423 89 309 89 C231 89 197 109 149 210 C147 216 140 216 136 212 C123 204 110 195 97 187 L50 154 C50 153 56 144 56 144 L56 141 L56 141 Z " />
<glyph glyph-name="T" unicode="T" horiz-adv-x="635" d="M360 43 L360 551 C360 582 386 608 417 608 L541 608 C565 608 585 628 585 653 C585 677 565 697 541 697 L96 697 C71 697 51 677 51 653 C51 628 71 608 96 608 L219 608 C250 608 276 582 276 551 L276 43 C276 19 295 0 319 0 C342 0 361 19 361 43 L360 43 L360 43 Z " />
<glyph glyph-name="U" unicode="U" horiz-adv-x="595" d="M50 271 C50 36 89 -9 297 -9 C505 -9 544 35 544 270 L544 643 C544 673 519 698 489 698 C458 698 433 673 433 643 L433 289 C433 124 412 93 297 93 C160 93 134 124 134 285 L134 655 C134 678 115 697 92 697 C68 697 49 678 49 655 L50 271 L50 271 Z " />
<glyph glyph-name="&amp;#xd9;" unicode="&#xd9;" horiz-adv-x="595" d="M50 271 C50 36 89 -9 297 -9 C505 -9 544 35 544 270 L544 643 C544 673 519 698 489 698 C458 698 433 673 433 643 L433 289 C433 124 412 93 297 93 C160 93 134 124 134 285 L134 655 C134 678 115 697 92 697 C68 697 49 678 49 655 L50 271 L50 271 Z " />
<glyph glyph-name="&amp;#xda;" unicode="&#xda;" horiz-adv-x="595" d="M50 271 C50 36 89 -9 297 -9 C505 -9 544 35 544 270 L544 643 C544 673 519 698 489 698 C458 698 433 673 433 643 L433 289 C433 124 412 93 297 93 C160 93 134 124 134 285 L134 655 C134 678 115 697 92 697 C68 697 49 678 49 655 L50 271 L50 271 Z " />
<glyph glyph-name="&amp;#xdb;" unicode="&#xdb;" horiz-adv-x="595" d="M50 271 C50 36 89 -9 297 -9 C505 -9 544 35 544 270 L544 643 C544 673 519 698 489 698 C458 698 433 673 433 643 L433 289 C433 124 412 93 297 93 C160 93 134 124 134 285 L134 655 C134 678 115 697 92 697 C68 697 49 678 49 655 L50 271 L50 271 Z " />
<glyph glyph-name="&amp;#xdc;" unicode="&#xdc;" horiz-adv-x="595" d="M50 271 C50 36 89 -9 297 -9 C505 -9 544 35 544 270 L544 643 C544 673 519 698 489 698 C458 698 433 673 433 643 L433 289 C433 124 412 93 297 93 C160 93 134 124 134 285 L134 655 C134 678 115 697 92 697 C68 697 49 678 49 655 L50 271 L50 271 Z " />
<glyph glyph-name="V" unicode="V" horiz-adv-x="612" d="M63 652 L258 46 C259 41 260 21 258 16 C255 8 261 1 269 1 L313 1 C335 1 360 20 367 41 L558 642 C567 672 547 699 515 699 L480 699 C467 699 453 688 449 676 L442 654 L354 350 C337 294 261 293 244 349 L151 654 L149 658 C147 667 137 699 137 699 C137 699 68 699 52 699 C48 699 46 696 47 693 L49 686 C53 676 60 653 60 653 L63 652 L63 652 Z " />
<glyph glyph-name="W" unicode="W" horiz-adv-x="799" d="M625 652 L624 652 L584 439 C575 391 503 389 492 436 L444 634 C443 638 443 658 444 662 L447 674 C451 687 442 699 428 699 L393 699 C368 699 343 679 337 656 L286 438 C274 389 201 391 192 440 L148 656 L144 672 L141 686 C139 693 132 700 125 700 L70 700 C58 700 50 690 53 679 L58 658 L188 51 C189 47 189 28 188 25 L187 19 C184 10 191 2 201 2 L235 2 C259 2 284 22 291 44 L345 261 C360 319 441 319 456 261 L507 51 C508 48 508 29 508 26 L507 20 C505 10 512 2 522 2 L555 2 C579 2 605 22 611 46 L745 654 L751 676 C753 688 746 698 733 698 L641 698 C639 698 636 696 636 694 C633 681 626 651 627 651 L625 652 L625 652 Z " />
<glyph glyph-name="X" unicode="X" horiz-adv-x="615" d="M188 47 L271 188 C295 229 346 228 370 188 L449 49 L451 45 C451 44 453 40 453 40 L464 20 C470 11 490 0 501 0 L545 0 C554 0 570 -8 565 0 C564 2 544 36 540 42 L381 318 C373 332 373 362 381 376 L540 645 C555 670 539 698 510 698 L464 698 C457 698 445 691 441 684 C432 668 425 659 422 654 L420 649 L353 535 C329 494 278 495 254 535 L190 648 C190 648 188 652 188 653 L186 657 L175 677 C169 686 149 697 138 697 L94 697 C85 697 69 705 74 697 C75 695 95 661 99 655 L243 405 C251 391 251 361 243 347 L65 45 L52 22 C45 11 52 -1 65 -1 L155 -1 C157 -1 161 1 162 3 C169 16 187 46 187 46 L188 47 L188 47 Z " />
<glyph glyph-name="Y" unicode="Y" horiz-adv-x="627" d="M310 0 C333 0 353 20 353 43 L353 281 C353 286 359 306 361 310 L562 653 L575 675 C582 685 575 697 563 697 L504 697 C491 697 471 685 464 674 L451 652 L351 480 C328 439 276 439 253 480 L153 652 L139 674 C132 685 112 697 99 697 L66 697 C53 697 46 685 53 675 L66 653 L260 320 C262 316 268 296 268 292 L269 43 C269 20 289 0 312 0 L310 0 L310 0 Z " />
<glyph glyph-name="&amp;#xdd;" unicode="&#xdd;" horiz-adv-x="627" d="M310 0 C333 0 353 20 353 43 L353 281 C353 286 359 306 361 310 L562 653 L575 675 C582 685 575 697 563 697 L504 697 C491 697 471 685 464 674 L451 652 L351 480 C328 439 276 439 253 480 L153 652 L139 674 C132 685 112 697 99 697 L66 697 C53 697 46 685 53 675 L66 653 L260 320 C262 316 268 296 268 292 L269 43 C269 20 289 0 312 0 L310 0 L310 0 Z " />
<glyph glyph-name="Z" unicode="Z" horiz-adv-x="626" d="M531 91 L275 91 C224 91 199 144 231 184 L563 593 C568 599 576 622 576 629 L576 654 C576 678 556 698 532 698 L110 698 C85 698 65 678 65 654 C65 629 85 609 110 609 L351 609 C402 609 427 556 395 516 L63 107 C58 101 50 78 50 71 L50 47 C50 22 70 2 95 2 L531 2 C555 2 575 22 575 47 C575 71 555 91 531 91 L531 91 Z " />
<glyph glyph-name="a" unicode="a" horiz-adv-x="743" d="M186 47 L333 423 C353 473 420 473 440 422 L480 321 C495 281 469 243 426 243 L301 243 C281 243 256 225 249 206 L247 200 C238 179 252 159 275 159 L504 159 C524 159 549 141 556 122 L585 48 L587 44 C589 36 596 16 602 5 C603 2 606 0 609 0 L686 0 C692 0 695 5 693 10 L689 19 L437 660 C434 665 434 682 437 687 C439 694 435 701 428 701 L343 701 C336 701 327 694 325 688 L319 675 L312 655 L69 49 L61 28 C54 11 51 3 51 3 C51 3 168 3 170 3 C171 7 188 50 188 50 L186 47 L186 47 Z " />
<glyph glyph-name="&amp;#xe0;" unicode="&#xe0;" horiz-adv-x="743" d="M186 47 L333 423 C353 473 420 473 440 422 L480 321 C495 281 469 243 426 243 L301 243 C281 243 256 225 249 206 L247 200 C238 179 252 159 275 159 L504 159 C524 159 549 141 556 122 L585 48 L587 44 C589 36 596 16 602 5 C603 2 606 0 609 0 L686 0 C692 0 695 5 693 10 L689 19 L437 660 C434 665 434 682 437 687 C439 694 435 701 428 701 L343 701 C336 701 327 694 325 688 L319 675 L312 655 L69 49 L61 28 C54 11 51 3 51 3 C51 3 168 3 170 3 C171 7 188 50 188 50 L186 47 L186 47 Z " />
<glyph glyph-name="&amp;#xe1;" unicode="&#xe1;" horiz-adv-x="743" d="M186 47 L333 423 C353 473 420 473 440 422 L480 321 C495 281 469 243 426 243 L301 243 C281 243 256 225 249 206 L247 200 C238 179 252 159 275 159 L504 159 C524 159 549 141 556 122 L585 48 L587 44 C589 36 596 16 602 5 C603 2 606 0 609 0 L686 0 C692 0 695 5 693 10 L689 19 L437 660 C434 665 434 682 437 687 C439 694 435 701 428 701 L343 701 C336 701 327 694 325 688 L319 675 L312 655 L69 49 L61 28 C54 11 51 3 51 3 C51 3 168 3 170 3 C171 7 188 50 188 50 L186 47 L186 47 Z " />
<glyph glyph-name="&amp;#xe2;" unicode="&#xe2;" horiz-adv-x="743" d="M186 47 L333 423 C353 473 420 473 440 422 L480 321 C495 281 469 243 426 243 L301 243 C281 243 256 225 249 206 L247 200 C238 179 252 159 275 159 L504 159 C524 159 549 141 556 122 L585 48 L587 44 C589 36 596 16 602 5 C603 2 606 0 609 0 L686 0 C692 0 695 5 693 10 L689 19 L437 660 C434 665 434 682 437 687 C439 694 435 701 428 701 L343 701 C336 701 327 694 325 688 L319 675 L312 655 L69 49 L61 28 C54 11 51 3 51 3 C51 3 168 3 170 3 C171 7 188 50 188 50 L186 47 L186 47 Z " />
<glyph glyph-name="&amp;#xe3;" unicode="&#xe3;" horiz-adv-x="743" d="M186 47 L333 423 C353 473 420 473 440 422 L480 321 C495 281 469 243 426 243 L301 243 C281 243 256 225 249 206 L247 200 C238 179 252 159 275 159 L504 159 C524 159 549 141 556 122 L585 48 L587 44 C589 36 596 16 602 5 C603 2 606 0 609 0 L686 0 C692 0 695 5 693 10 L689 19 L437 660 C434 665 434 682 437 687 C439 694 435 701 428 701 L343 701 C336 701 327 694 325 688 L319 675 L312 655 L69 49 L61 28 C54 11 51 3 51 3 C51 3 168 3 170 3 C171 7 188 50 188 50 L186 47 L186 47 Z " />
<glyph glyph-name="&amp;#xe4;" unicode="&#xe4;" horiz-adv-x="743" d="M186 47 L333 423 C353 473 420 473 440 422 L480 321 C495 281 469 243 426 243 L301 243 C281 243 256 225 249 206 L247 200 C238 179 252 159 275 159 L504 159 C524 159 549 141 556 122 L585 48 L587 44 C589 36 596 16 602 5 C603 2 606 0 609 0 L686 0 C692 0 695 5 693 10 L689 19 L437 660 C434 665 434 682 437 687 C439 694 435 701 428 701 L343 701 C336 701 327 694 325 688 L319 675 L312 655 L69 49 L61 28 C54 11 51 3 51 3 C51 3 168 3 170 3 C171 7 188 50 188 50 L186 47 L186 47 Z " />
<glyph glyph-name="&amp;#xe5;" unicode="&#xe5;" horiz-adv-x="743" d="M186 47 L333 423 C353 473 420 473 440 422 L480 321 C495 281 469 243 426 243 L301 243 C281 243 256 225 249 206 L247 200 C238 179 252 159 275 159 L504 159 C524 159 549 141 556 122 L585 48 L587 44 C589 36 596 16 602 5 C603 2 606 0 609 0 L686 0 C692 0 695 5 693 10 L689 19 L437 660 C434 665 434 682 437 687 C439 694 435 701 428 701 L343 701 C336 701 327 694 325 688 L319 675 L312 655 L69 49 L61 28 C54 11 51 3 51 3 C51 3 168 3 170 3 C171 7 188 50 188 50 L186 47 L186 47 Z " />
<glyph glyph-name="b" unicode="b" horiz-adv-x="624" d="M483 399 C523 420 538 456 538 513 C538 682 517 697 282 697 L107 697 C76 697 50 671 50 640 L50 56 C50 25 76 -1 107 -1 L318 -1 C553 -1 574 16 574 209 C574 304 551 355 485 379 C478 382 477 396 484 399 L483 399 L483 399 Z M136 475 L136 555 C136 586 162 612 193 612 L288 612 C438 612 451 604 451 507 C451 439 407 419 265 419 L193 419 C162 419 136 445 136 476 L136 475 L136 475 Z M136 144 L136 280 C136 311 162 337 193 337 L274 337 C434 337 483 310 483 221 C483 99 467 88 287 88 L193 87 C161 87 135 113 135 145 L136 144 L136 144 Z " />
<glyph glyph-name="c" unicode="c" horiz-adv-x="694" d="M540 166 C500 103 450 83 353 83 C191 83 141 166 141 350 C141 534 191 617 353 617 C439 617 488 597 535 534 C551 513 585 506 605 523 L641 554 C643 555 644 559 643 562 L640 566 C575 676 506 710 353 710 C120 710 48 598 48 352 C48 106 120 -6 353 -6 C503 -6 575 22 625 107 C639 130 632 158 612 175 L605 182 C585 198 552 191 539 170 L540 166 L540 166 Z " />
<glyph glyph-name="&amp;#xe7;" unicode="&#xe7;" horiz-adv-x="694" d="M540 166 C500 103 450 83 353 83 C191 83 141 166 141 350 C141 534 191 617 353 617 C439 617 488 597 535 534 C551 513 585 506 605 523 L641 554 C643 555 644 559 643 562 L640 566 C575 676 506 710 353 710 C120 710 48 598 48 352 C48 106 120 -6 353 -6 C503 -6 575 22 625 107 C639 130 632 158 612 175 L605 182 C585 198 552 191 539 170 L540 166 L540 166 Z " />
<glyph glyph-name="d" unicode="d" horiz-adv-x="671" d="M107 0 L287 0 C576 0 622 47 622 349 C622 643 564 698 259 698 L107 698 C76 698 50 672 50 641 L50 57 C50 26 76 0 107 0 L107 0 Z M135 142 L135 555 C135 586 161 612 192 612 L264 612 C488 612 530 570 530 349 C530 121 496 86 279 86 L192 86 C161 86 135 112 135 143 L135 142 L135 142 Z " />
<glyph glyph-name="e" unicode="e" horiz-adv-x="534" d="M439 91 L191 91 C160 91 134 117 134 148 L134 262 C134 293 160 319 191 319 L408 319 C431 319 451 339 451 362 C451 385 431 405 408 405 L191 405 C160 405 134 431 134 462 L134 553 C134 584 160 610 191 610 L425 610 C449 610 469 630 469 655 C469 679 449 699 425 699 L107 699 C76 699 50 673 50 642 L50 58 C50 27 76 1 107 1 L439 1 C463 1 483 21 483 46 C483 70 463 90 439 90 L439 91 L439 91 Z " />
<glyph glyph-name="&amp;#xe8;" unicode="&#xe8;" horiz-adv-x="534" d="M439 91 L191 91 C160 91 134 117 134 148 L134 262 C134 293 160 319 191 319 L408 319 C431 319 451 339 451 362 C451 385 431 405 408 405 L191 405 C160 405 134 431 134 462 L134 553 C134 584 160 610 191 610 L425 610 C449 610 469 630 469 655 C469 679 449 699 425 699 L107 699 C76 699 50 673 50 642 L50 58 C50 27 76 1 107 1 L439 1 C463 1 483 21 483 46 C483 70 463 90 439 90 L439 91 L439 91 Z " />
<glyph glyph-name="&amp;#xe9;" unicode="&#xe9;" horiz-adv-x="534" d="M439 91 L191 91 C160 91 134 117 134 148 L134 262 C134 293 160 319 191 319 L408 319 C431 319 451 339 451 362 C451 385 431 405 408 405 L191 405 C160 405 134 431 134 462 L134 553 C134 584 160 610 191 610 L425 610 C449 610 469 630 469 655 C469 679 449 699 425 699 L107 699 C76 699 50 673 50 642 L50 58 C50 27 76 1 107 1 L439 1 C463 1 483 21 483 46 C483 70 463 90 439 90 L439 91 L439 91 Z " />
<glyph glyph-name="&amp;#xea;" unicode="&#xea;" horiz-adv-x="534" d="M439 91 L191 91 C160 91 134 117 134 148 L134 262 C134 293 160 319 191 319 L408 319 C431 319 451 339 451 362 C451 385 431 405 408 405 L191 405 C160 405 134 431 134 462 L134 553 C134 584 160 610 191 610 L425 610 C449 610 469 630 469 655 C469 679 449 699 425 699 L107 699 C76 699 50 673 50 642 L50 58 C50 27 76 1 107 1 L439 1 C463 1 483 21 483 46 C483 70 463 90 439 90 L439 91 L439 91 Z " />
<glyph glyph-name="&amp;#xeb;" unicode="&#xeb;" horiz-adv-x="534" d="M439 91 L191 91 C160 91 134 117 134 148 L134 262 C134 293 160 319 191 319 L408 319 C431 319 451 339 451 362 C451 385 431 405 408 405 L191 405 C160 405 134 431 134 462 L134 553 C134 584 160 610 191 610 L425 610 C449 610 469 630 469 655 C469 679 449 699 425 699 L107 699 C76 699 50 673 50 642 L50 58 C50 27 76 1 107 1 L439 1 C463 1 483 21 483 46 C483 70 463 90 439 90 L439 91 L439 91 Z " />
<glyph glyph-name="f" unicode="f" horiz-adv-x="520" d="M442 360 C442 383 422 403 399 403 L191 403 C160 403 134 429 134 460 L134 551 C134 582 160 608 191 608 L425 608 C449 608 469 628 469 653 C469 677 449 697 425 697 L107 697 C76 697 50 671 50 640 L50 42 C50 18 69 -1 93 -1 C116 -1 135 18 135 42 L135 260 C135 291 161 317 192 317 L400 317 C423 317 443 337 443 360 L442 360 L442 360 Z " />
<glyph glyph-name="g" unicode="g" horiz-adv-x="725" d="M401 311 L513 311 C544 311 570 285 570 254 L570 166 C570 153 558 129 548 122 C507 92 470 83 387 83 C200 83 142 145 142 350 C142 555 200 617 387 617 C466 617 513 597 559 534 C575 513 609 505 629 523 L665 554 C667 555 668 559 667 562 L664 566 C599 676 532 710 388 710 C130 710 51 626 51 352 C51 78 130 -6 388 -6 C526 -6 583 14 658 74 C667 81 676 103 676 115 L676 347 C676 378 650 404 619 404 L402 404 C377 404 357 384 357 360 C356 335 376 315 401 315 L401 311 L401 311 Z " />
<glyph glyph-name="h" unicode="h" horiz-adv-x="621" d="M571 43 L571 656 C571 679 552 698 529 698 C505 698 486 679 486 656 L486 469 C486 438 460 412 429 412 L191 412 C160 412 134 438 134 469 L134 656 C134 679 115 698 92 698 C68 698 49 679 49 656 L49 43 C49 19 68 0 92 0 C115 0 134 19 134 43 L134 266 C134 297 160 323 191 323 L429 323 C460 323 486 297 486 266 L486 43 C486 19 505 0 529 0 C552 0 571 19 571 43 L571 43 Z " />
<glyph glyph-name="i" unicode="i" horiz-adv-x="185" d="M135 43 L135 656 C135 679 116 698 93 698 C69 698 50 679 50 656 L50 43 C50 19 69 0 93 0 C116 0 135 19 135 43 L135 43 Z " />
<glyph glyph-name="&amp;#xec;" unicode="&#xec;" horiz-adv-x="185" d="M135 43 L135 656 C135 679 116 698 93 698 C69 698 50 679 50 656 L50 43 C50 19 69 0 93 0 C116 0 135 19 135 43 L135 43 Z " />
<glyph glyph-name="&amp;#xed;" unicode="&#xed;" horiz-adv-x="185" d="M135 43 L135 656 C135 679 116 698 93 698 C69 698 50 679 50 656 L50 43 C50 19 69 0 93 0 C116 0 135 19 135 43 L135 43 Z " />
<glyph glyph-name="&amp;#xee;" unicode="&#xee;" horiz-adv-x="185" d="M135 43 L135 656 C135 679 116 698 93 698 C69 698 50 679 50 656 L50 43 C50 19 69 0 93 0 C116 0 135 19 135 43 L135 43 Z " />
<glyph glyph-name="&amp;#xef;" unicode="&#xef;" horiz-adv-x="185" d="M135 43 L135 656 C135 679 116 698 93 698 C69 698 50 679 50 656 L50 43 C50 19 69 0 93 0 C116 0 135 19 135 43 L135 43 Z " />
<glyph glyph-name="j" unicode="j" horiz-adv-x="458" d="M50 233 L50 203 C50 17 71 -8 229 -8 C380 -8 408 42 408 205 L408 656 C408 679 389 698 366 698 C342 698 323 679 323 656 L323 205 C323 120 308 94 229 94 C145 94 134 110 134 228 L134 252 C134 265 123 274 110 271 L78 265 C62 262 49 247 49 231 L50 233 L50 233 Z " />
<glyph glyph-name="k" unicode="k" horiz-adv-x="597" d="M148 252 L493 652 L512 675 C520 684 513 697 501 697 L407 697 C402 697 391 691 387 687 C376 673 365 659 359 652 L238 505 C203 462 139 485 139 540 L139 654 C139 677 120 696 97 696 C73 696 54 677 54 654 L54 285 C54 283 52 277 51 276 L49 275 C48 273 49 271 51 271 C52 270 54 268 54 266 L54 40 C54 16 73 -3 97 -3 C120 -3 139 16 139 40 L139 245 C139 247 141 249 143 248 C144 247 147 248 148 250 L148 252 L148 252 Z M545 17 L534 37 L530 44 L335 401 C323 421 299 424 283 406 L278 400 C265 385 262 353 271 335 L429 42 L441 19 C447 8 467 -4 480 -4 L532 -4 C543 -4 549 6 544 15 L545 17 L545 17 Z " />
<glyph glyph-name="l" unicode="l" horiz-adv-x="487" d="M392 91 L191 91 C160 91 134 117 134 148 L134 657 C134 680 115 699 92 699 C68 699 49 680 49 657 L49 58 C49 27 75 1 106 1 L392 1 C416 1 436 21 436 46 C436 70 416 90 392 90 L392 91 L392 91 Z " />
<glyph glyph-name="m" unicode="m" horiz-adv-x="764" d="M714 41 L714 641 C714 672 688 698 657 698 L607 698 C586 698 560 679 553 659 L437 308 C419 254 347 254 328 307 L208 659 C201 679 175 698 154 698 L107 698 C76 698 50 672 50 641 L50 54 C50 24 74 0 104 0 C133 0 157 24 157 54 L157 289 C157 341 234 354 251 305 L339 47 C341 41 341 21 340 15 C337 7 342 0 351 0 L391 0 C412 0 438 19 445 39 L537 312 C553 361 631 348 631 297 L631 41 C631 19 650 0 672 0 C694 0 713 19 713 41 L714 41 L714 41 Z " />
<glyph glyph-name="n" unicode="n" horiz-adv-x="615" d="M348 333 L168 655 C166 659 160 679 160 683 C160 691 153 698 145 698 L105 698 C74 698 49 673 49 643 L49 56 C49 25 74 0 105 0 C135 0 160 25 160 56 L160 279 C160 338 238 358 267 307 L421 30 C429 15 455 0 471 0 L506 0 C537 0 563 26 563 57 L563 643 C563 674 539 698 508 698 C477 698 453 674 453 643 L453 361 C453 302 375 282 346 333 L348 333 L348 333 Z " />
<glyph glyph-name="&amp;#xf1;" unicode="&#xf1;" horiz-adv-x="615" d="M348 333 L168 655 C166 659 160 679 160 683 C160 691 153 698 145 698 L105 698 C74 698 49 673 49 643 L49 56 C49 25 74 0 105 0 C135 0 160 25 160 56 L160 279 C160 338 238 358 267 307 L421 30 C429 15 455 0 471 0 L506 0 C537 0 563 26 563 57 L563 643 C563 674 539 698 508 698 C477 698 453 674 453 643 L453 361 C453 302 375 282 346 333 L348 333 L348 333 Z " />
<glyph glyph-name="o" unicode="o" horiz-adv-x="745" d="M50 349 C50 75 126 -9 373 -9 C620 -9 695 75 695 349 C695 609 607 707 373 707 C138 707 50 609 50 349 L50 349 Z M142 349 C142 544 205 617 373 617 C541 617 603 544 603 349 C603 144 549 82 373 82 C196 82 142 144 142 349 L142 349 Z " />
<glyph glyph-name="&amp;#xf2;" unicode="&#xf2;" horiz-adv-x="745" d="M50 349 C50 75 126 -9 373 -9 C620 -9 695 75 695 349 C695 609 607 707 373 707 C138 707 50 609 50 349 L50 349 Z M142 349 C142 544 205 617 373 617 C541 617 603 544 603 349 C603 144 549 82 373 82 C196 82 142 144 142 349 L142 349 Z " />
<glyph glyph-name="&amp;#xf3;" unicode="&#xf3;" horiz-adv-x="745" d="M50 349 C50 75 126 -9 373 -9 C620 -9 695 75 695 349 C695 609 607 707 373 707 C138 707 50 609 50 349 L50 349 Z M142 349 C142 544 205 617 373 617 C541 617 603 544 603 349 C603 144 549 82 373 82 C196 82 142 144 142 349 L142 349 Z " />
<glyph glyph-name="&amp;#xf4;" unicode="&#xf4;" horiz-adv-x="745" d="M50 349 C50 75 126 -9 373 -9 C620 -9 695 75 695 349 C695 609 607 707 373 707 C138 707 50 609 50 349 L50 349 Z M142 349 C142 544 205 617 373 617 C541 617 603 544 603 349 C603 144 549 82 373 82 C196 82 142 144 142 349 L142 349 Z " />
<glyph glyph-name="&amp;#xf5;" unicode="&#xf5;" horiz-adv-x="745" d="M50 349 C50 75 126 -9 373 -9 C620 -9 695 75 695 349 C695 609 607 707 373 707 C138 707 50 609 50 349 L50 349 Z M142 349 C142 544 205 617 373 617 C541 617 603 544 603 349 C603 144 549 82 373 82 C196 82 142 144 142 349 L142 349 Z " />
<glyph glyph-name="&amp;#xf6;" unicode="&#xf6;" horiz-adv-x="745" d="M50 349 C50 75 126 -9 373 -9 C620 -9 695 75 695 349 C695 609 607 707 373 707 C138 707 50 609 50 349 L50 349 Z M142 349 C142 544 205 617 373 617 C541 617 603 544 603 349 C603 144 549 82 373 82 C196 82 142 144 142 349 L142 349 Z " />
<glyph glyph-name="&amp;#xf8;" unicode="&#xf8;" horiz-adv-x="745" d="M50 349 C50 75 126 -9 373 -9 C620 -9 695 75 695 349 C695 609 607 707 373 707 C138 707 50 609 50 349 L50 349 Z M142 349 C142 544 205 617 373 617 C541 617 603 544 603 349 C603 144 549 82 373 82 C196 82 142 144 142 349 L142 349 Z " />
<glyph glyph-name="p" unicode="p" horiz-adv-x="559" d="M135 43 L135 225 C135 256 161 282 192 282 L299 282 C476 282 509 315 509 489 C509 665 476 698 299 698 L107 698 C76 698 50 672 50 641 L50 43 C50 19 69 0 93 0 C116 0 135 19 135 43 L135 43 Z M135 425 L135 556 C135 587 161 613 192 613 L294 613 C404 613 424 593 424 489 C424 388 404 368 303 368 L191 368 C160 368 134 394 134 425 L135 425 L135 425 Z " />
<glyph glyph-name="q" unicode="q" horiz-adv-x="746" d="M50 347 C50 73 126 -11 373 -11 C415 -11 451 -8 483 -3 C491 -2 511 -8 517 -14 C570 -67 598 -87 598 -87 C598 -87 602 -83 613 -75 L641 -52 C647 -47 656 -49 651 -43 C650 -42 639 -29 611 3 C601 16 603 41 615 52 C674 106 696 199 696 346 C696 606 608 704 374 704 C139 704 51 606 51 346 L50 347 L50 347 Z M141 348 C141 543 204 616 372 616 C540 616 602 543 602 348 C602 228 583 157 534 118 C526 112 517 115 510 123 C495 140 479 159 461 180 C454 188 440 190 431 183 L390 149 C383 144 382 136 387 130 C400 115 412 100 423 87 C426 84 425 81 421 80 C406 79 390 78 372 78 C195 78 141 141 141 346 L141 348 L141 348 Z " />
<glyph glyph-name="r" unicode="r" horiz-adv-x="577" d="M504 47 L503 47 L396 253 C384 275 404 307 428 314 C493 334 509 382 509 489 C509 665 476 698 299 698 L107 698 C76 698 50 672 50 641 L50 43 C50 19 69 0 93 0 C116 0 135 19 135 42 L135 244 C135 275 161 301 192 301 L239 301 C256 301 282 285 289 270 L415 31 C422 16 448 0 465 0 L524 0 C526 0 528 2 527 4 C520 17 504 47 504 47 L504 47 Z M135 443 L135 556 C135 587 161 613 192 613 L294 613 C404 613 424 593 424 489 C424 402 404 386 302 386 L191 386 C160 386 134 412 134 443 L135 443 L135 443 Z " />
<glyph glyph-name="s" unicode="s" horiz-adv-x="579" d="M56 141 C116 16 172 -8 310 -8 C495 -8 529 39 529 195 C529 335 493 368 299 402 C170 425 146 443 146 517 C146 587 174 608 263 608 C312 608 342 598 392 549 C412 530 445 529 465 548 L501 581 C503 583 503 585 502 587 L499 590 C409 689 361 708 262 708 C105 708 57 661 57 510 C57 381 91 350 276 317 C417 292 444 272 444 193 C444 113 423 89 309 89 C231 89 197 109 149 210 C147 216 140 216 136 212 C123 204 110 195 97 187 L50 154 C50 153 56 144 56 144 L56 141 L56 141 Z " />
<glyph glyph-name="&amp;#xdf;" unicode="&#xdf;" horiz-adv-x="579" d="M56 141 C116 16 172 -8 310 -8 C495 -8 529 39 529 195 C529 335 493 368 299 402 C170 425 146 443 146 517 C146 587 174 608 263 608 C312 608 342 598 392 549 C412 530 445 529 465 548 L501 581 C503 583 503 585 502 587 L499 590 C409 689 361 708 262 708 C105 708 57 661 57 510 C57 381 91 350 276 317 C417 292 444 272 444 193 C444 113 423 89 309 89 C231 89 197 109 149 210 C147 216 140 216 136 212 C123 204 110 195 97 187 L50 154 C50 153 56 144 56 144 L56 141 L56 141 Z " />
<glyph glyph-name="t" unicode="t" horiz-adv-x="635" d="M360 43 L360 551 C360 582 386 608 417 608 L541 608 C565 608 585 628 585 653 C585 677 565 697 541 697 L96 697 C71 697 51 677 51 653 C51 628 71 608 96 608 L219 608 C250 608 276 582 276 551 L276 43 C276 19 295 0 319 0 C342 0 361 19 361 43 L360 43 L360 43 Z " />
<glyph glyph-name="u" unicode="u" horiz-adv-x="595" d="M50 271 C50 36 89 -9 297 -9 C505 -9 544 35 544 270 L544 643 C544 673 519 698 489 698 C458 698 433 673 433 643 L433 289 C433 124 412 93 297 93 C160 93 134 124 134 285 L134 655 C134 678 115 697 92 697 C68 697 49 678 49 655 L50 271 L50 271 Z " />
<glyph glyph-name="&amp;#xf9;" unicode="&#xf9;" horiz-adv-x="595" d="M50 271 C50 36 89 -9 297 -9 C505 -9 544 35 544 270 L544 643 C544 673 519 698 489 698 C458 698 433 673 433 643 L433 289 C433 124 412 93 297 93 C160 93 134 124 134 285 L134 655 C134 678 115 697 92 697 C68 697 49 678 49 655 L50 271 L50 271 Z " />
<glyph glyph-name="&amp;#xfa;" unicode="&#xfa;" horiz-adv-x="595" d="M50 271 C50 36 89 -9 297 -9 C505 -9 544 35 544 270 L544 643 C544 673 519 698 489 698 C458 698 433 673 433 643 L433 289 C433 124 412 93 297 93 C160 93 134 124 134 285 L134 655 C134 678 115 697 92 697 C68 697 49 678 49 655 L50 271 L50 271 Z " />
<glyph glyph-name="&amp;#xfb;" unicode="&#xfb;" horiz-adv-x="595" d="M50 271 C50 36 89 -9 297 -9 C505 -9 544 35 544 270 L544 643 C544 673 519 698 489 698 C458 698 433 673 433 643 L433 289 C433 124 412 93 297 93 C160 93 134 124 134 285 L134 655 C134 678 115 697 92 697 C68 697 49 678 49 655 L50 271 L50 271 Z " />
<glyph glyph-name="&amp;#xfc;" unicode="&#xfc;" horiz-adv-x="595" d="M50 271 C50 36 89 -9 297 -9 C505 -9 544 35 544 270 L544 643 C544 673 519 698 489 698 C458 698 433 673 433 643 L433 289 C433 124 412 93 297 93 C160 93 134 124 134 285 L134 655 C134 678 115 697 92 697 C68 697 49 678 49 655 L50 271 L50 271 Z " />
<glyph glyph-name="v" unicode="v" horiz-adv-x="612" d="M63 652 L258 46 C259 41 260 21 258 16 C255 8 261 1 269 1 L313 1 C335 1 360 20 367 41 L558 642 C567 672 547 699 515 699 L480 699 C467 699 453 688 449 676 L442 654 L354 350 C337 294 261 293 244 349 L151 654 L149 658 C147 667 137 699 137 699 C137 699 68 699 52 699 C48 699 46 696 47 693 L49 686 C53 676 60 653 60 653 L63 652 L63 652 Z " />
<glyph glyph-name="w" unicode="w" horiz-adv-x="799" d="M625 652 L624 652 L584 439 C575 391 503 389 492 436 L444 634 C443 638 443 658 444 662 L447 674 C451 687 442 699 428 699 L393 699 C368 699 343 679 337 656 L286 438 C274 389 201 391 192 440 L148 656 L144 672 L141 686 C139 693 132 700 125 700 L70 700 C58 700 50 690 53 679 L58 658 L188 51 C189 47 189 28 188 25 L187 19 C184 10 191 2 201 2 L235 2 C259 2 284 22 291 44 L345 261 C360 319 441 319 456 261 L507 51 C508 48 508 29 508 26 L507 20 C505 10 512 2 522 2 L555 2 C579 2 605 22 611 46 L745 654 L751 676 C753 688 746 698 733 698 L641 698 C639 698 636 696 636 694 C633 681 626 651 627 651 L625 652 L625 652 Z " />
<glyph glyph-name="x" unicode="x" horiz-adv-x="615" d="M188 47 L271 188 C295 229 346 228 370 188 L449 49 L451 45 C451 44 453 40 453 40 L464 20 C470 11 490 0 501 0 L545 0 C554 0 570 -8 565 0 C564 2 544 36 540 42 L381 318 C373 332 373 362 381 376 L540 645 C555 670 539 698 510 698 L464 698 C457 698 445 691 441 684 C432 668 425 659 422 654 L420 649 L353 535 C329 494 278 495 254 535 L190 648 C190 648 188 652 188 653 L186 657 L175 677 C169 686 149 697 138 697 L94 697 C85 697 69 705 74 697 C75 695 95 661 99 655 L243 405 C251 391 251 361 243 347 L65 45 L52 22 C45 11 52 -1 65 -1 L155 -1 C157 -1 161 1 162 3 C169 16 187 46 187 46 L188 47 L188 47 Z " />
<glyph glyph-name="y" unicode="y" horiz-adv-x="627" d="M310 0 C333 0 353 20 353 43 L353 281 C353 286 359 306 361 310 L562 653 L575 675 C582 685 575 697 563 697 L504 697 C491 697 471 685 464 674 L451 652 L351 480 C328 439 276 439 253 480 L153 652 L139 674 C132 685 112 697 99 697 L66 697 C53 697 46 685 53 675 L66 653 L260 320 C262 316 268 296 268 292 L269 43 C269 20 289 0 312 0 L310 0 L310 0 Z " />
<glyph glyph-name="&amp;#xfd;" unicode="&#xfd;" horiz-adv-x="627" d="M310 0 C333 0 353 20 353 43 L353 281 C353 286 359 306 361 310 L562 653 L575 675 C582 685 575 697 563 697 L504 697 C491 697 471 685 464 674 L451 652 L351 480 C328 439 276 439 253 480 L153 652 L139 674 C132 685 112 697 99 697 L66 697 C53 697 46 685 53 675 L66 653 L260 320 C262 316 268 296 268 292 L269 43 C269 20 289 0 312 0 L310 0 L310 0 Z " />
<glyph glyph-name="&amp;#xff;" unicode="&#xff;" horiz-adv-x="627" d="M310 0 C333 0 353 20 353 43 L353 281 C353 286 359 306 361 310 L562 653 L575 675 C582 685 575 697 563 697 L504 697 C491 697 471 685 464 674 L451 652 L351 480 C328 439 276 439 253 480 L153 652 L139 674 C132 685 112 697 99 697 L66 697 C53 697 46 685 53 675 L66 653 L260 320 C262 316 268 296 268 292 L269 43 C269 20 289 0 312 0 L310 0 L310 0 Z " />
<glyph glyph-name="z" unicode="z" horiz-adv-x="626" d="M531 91 L275 91 C224 91 199 144 231 184 L563 593 C568 599 576 622 576 629 L576 654 C576 678 556 698 532 698 L110 698 C85 698 65 678 65 654 C65 629 85 609 110 609 L351 609 C402 609 427 556 395 516 L63 107 C58 101 50 78 50 71 L50 47 C50 22 70 2 95 2 L531 2 C555 2 575 22 575 47 C575 71 555 91 531 91 L531 91 Z " />
<glyph glyph-name="nbspace" unicode="&#xa0;" horiz-adv-x="307" d="" />
</font>
</svg>
