<?xml version="1.0" encoding="UTF-8"?>
<svg xmlns="http://www.w3.org/2000/svg" xmlns:xlink="http://www.w3.org/1999/xlink" version="1.2" >
<font id="Denson Bold Round">
<font-face  font-family="Denson" units-per-em="1024" ascent="975" descent="-300" font-style="normal" font-weight="700" font-stretch="normal" cap-height="999" x-height="488" underline-position="-125" underline-thickness="50" />
<missing-glyph  horiz-adv-x="100" d="" />
<glyph glyph-name="NULL" d="" />
<glyph glyph-name="CR" unicode="&#xd;" horiz-adv-x="256" d="" />
<glyph glyph-name="space" unicode="&#x20;" horiz-adv-x="250" d="" />
<glyph glyph-name="exclam" unicode="&#x21;" horiz-adv-x="208" d="M104 0 C133.806 0 158 24.1936 158 54 L158 55 C158 84.8064 133.806 109 104 109 C74.1936 109 50 84.8064 50 55 L50 54 C50 24.1936 74.1936 0 104 0 L104 0 Z M45 691 L45 445.702 C45 445.123 45.9428 434.964 46.0494 434.395 L86.2395 219.744 C87.7372 211.745 95.8619 205 104 205 C112.138 205 120.263 211.745 121.761 219.744 L161.951 434.395 C162.057 434.964 163 445.123 163 445.702 L163 691 C163 723.566 136.566 750 104 750 C71.4338 750 45 723.566 45 691 L45 691 Z " />
<glyph glyph-name="quotedbl" unicode="&#x22;" horiz-adv-x="416" d="M243 700 L243 654.34 C243 653.113 244.896 639.144 245.223 637.961 L262.602 575.131 C266.006 562.826 280.232 552 293 552 C305.768 552 319.994 562.826 323.398 575.131 L340.777 637.961 C341.104 639.144 343 653.113 343 654.34 L343 700 C343 727.599 320.599 750 293 750 C265.402 750 243 727.599 243 700 L243 700 Z M79 700 L79 654.34 C79 653.113 80.8963 639.144 81.2234 637.961 L98.6019 575.131 C102.006 562.826 116.232 552 129 552 C141.768 552 155.994 562.826 159.398 575.131 L176.777 637.961 C177.104 639.144 179 653.113 179 654.34 L179 700 C179 727.599 156.599 750 129 750 C101.402 750 79 727.599 79 700 L79 700 Z " />
<glyph glyph-name="numbersign" unicode="&#x23;" horiz-adv-x="715" d="M473.939 696.617 L463.061 614.383 C459.197 585.172 431.618 561 402.152 561 L384.102 561 C345.742 561 318.162 592.468 323.193 630.497 L331.919 696.466 C335.794 725.76 314.549 750 285 750 L284.848 750 C255.382 750 227.803 725.828 223.939 696.617 L213.061 614.383 C209.197 585.172 181.618 561 152.152 561 L115.367 561 C92.7365 561 71.5089 542.43 68.5 520 C65.4911 497.57 81.7365 479 104.367 479 L129 479 C165.127 479 191.155 449.375 186.504 413.549 L174.949 324.531 C171.145 295.229 143.567 271 114.02 271 L69.4367 271 C46.8059 271 25.2769 252.392 22 230 C18.7231 207.608 34.8059 189 57.4367 189 L86.8978 189 C125.258 189 152.838 157.532 147.807 119.503 L139.081 53.5337 C135.206 24.2399 156.451 0 186 0 L186.152 0 C215.618 0 243.197 24.1717 247.061 53.3832 L257.939 135.617 C261.803 164.828 289.382 189 318.848 189 L336.898 189 C375.258 189 402.838 157.532 397.807 119.503 L389.081 53.5337 C385.206 24.2399 406.451 0 436 0 L436.152 0 C465.618 0 493.197 24.1717 497.061 53.3832 L507.939 135.617 C511.803 164.828 539.382 189 568.848 189 L595.563 189 C618.194 189 639.723 207.608 643 230 C646.277 252.392 630.194 271 607.563 271 L587.5 271 C553.836 271 529.583 298.605 533.917 331.988 L546.051 425.469 C549.855 454.771 577.433 479 606.98 479 L642.633 479 C665.264 479 686.491 497.57 689.5 520 C692.509 542.43 676.264 561 653.633 561 L629.5 561 C593.658 561 567.889 590.402 572.589 625.934 L581.919 696.466 C585.794 725.76 564.549 750 535 750 L534.848 750 C505.382 750 477.803 725.828 473.939 696.617 L473.939 696.617 Z M356.98 479 L375.069 479 C413.348 479 440.925 447.611 435.998 409.651 L424.949 324.531 C421.145 295.229 393.567 271 364.02 271 L345.931 271 C307.652 271 280.075 302.389 285.002 340.349 L296.051 425.469 C299.855 454.771 327.433 479 356.98 479 L356.98 479 Z " />
<glyph glyph-name="dollar" unicode="&#x24;" horiz-adv-x="608" d="M322 792.496 L322 767.014 C322 762.128 318.376 758.209 313.494 758.394 C300.459 758.89 286.281 758.98 272.287 758.996 C266.774 759.003 263 763.487 263 769 L263 792 C263 810.215 248.215 825 230 825 C211.785 825 197 810.215 197 792 L197 790 C197 773.028 180.491 753.04 163.958 749.203 C71.78 727.81 41 669.4 41 547 C41 440.25 61.6719 393.219 153.26 361.691 C174.889 354.246 197 323.814 197 300.939 L197 184.102 C197 180.461 192.661 179.185 190.671 182.234 C181.518 196.269 172.284 213.346 162.623 233.813 C159.816 239.762 152.677 242.977 147.323 239.156 C130.548 227.187 113.774 214.742 97 203 L66 181 C47.9948 168.222 41.41 144.557 51.8477 125.102 C83.3695 66.3453 115.994 32.3341 161.383 13.4638 C176.5 7.17878 198 -20.0793 198 -36.4513 L198 -42 C198 -60.215 212.785 -75 231 -75 C249.215 -75 264 -60.215 264 -42 L264 -16.0139 C264 -11.1261 267.562 -7.20608 272.446 -7.39417 C285.317 -7.88985 299.073 -7.97997 313.382 -7.99636 C319.171 -8.00299 323 -12.711 323 -18.5 L323 -41 C323 -59.215 337.785 -74 356 -74 C374.215 -74 389 -59.215 389 -41 L389 -40 C389 -22.5117 404.279 -5.043 421.613 -2.72892 C547.476 14.0731 574 73.25 574 212 C574 333.625 549.5 383.281 440.877 416.572 C417.954 423.598 389 455.31 389 479.285 L389 586.598 C389 591.672 393.986 594.076 397.848 590.786 C410.283 580.196 423.396 567.174 438.114 551.105 C444.473 544.161 454.894 544.321 461.882 550.632 L549.376 629.631 C550.822 630.937 550.878 633.122 549.5 634.5 L547 637 C543.5 634.375 498.656 702.188 421.848 736.6 C406.945 743.276 387 771.17 387 787.5 L387 793.496 C387 811.435 372.437 825.776 354.5 825.5 C336.563 825.224 322 810.435 322 792.496 L322 792.496 Z M311.322 443.846 C296.849 446.615 282.671 449.385 270.116 452.154 C265.453 453.182 262 457.957 262 462.732 L262 620.5 C262 626.388 265.791 631.019 271.678 630.925 C286.151 630.696 300.329 629.914 312.884 628.246 C317.773 627.597 321 623.3 321 618.369 L321 452.689 C321 446.889 317.019 442.756 311.322 443.846 L311.322 443.846 Z M180.881 484.627 C160.445 500.951 155 523.35 155 558 C155 585.897 162.406 603.696 181.636 614.711 C189.808 619.391 196 614.605 196 605.189 L196 493.561 C196 483.415 188.808 478.295 180.881 484.627 L180.881 484.627 Z M270.957 332.552 C284.635 330.294 299.235 327.706 312.434 325.448 C317.306 324.615 321 319.819 321 314.876 L321 129.5 C321 122.966 317.192 117.954 310.661 118.146 C295.558 118.588 282.223 120.063 269.995 122.902 C265.069 124.046 262 128.802 262 133.86 L262 324.382 C262 329.657 265.752 333.41 270.957 332.552 L270.957 332.552 Z M414.007 297.259 C450.471 278.981 460 253.2 460 207 C460 165.4 451.68 141.72 417.632 129.816 C399.269 123.396 387 133.812 387 153.265 L387 277.008 C387 295.056 397.873 305.346 414.007 297.259 L414.007 297.259 Z " />
<glyph glyph-name="percent" unicode="&#x25;" horiz-adv-x="770" d="M588 59 C531 59 520 78 520 141 C520 204 531 223 588 223 C644 223 655 204 655 141 C655 78 644 59 588 59 L588 59 Z M588 -9 C692 -9 712 26 712 141 C712 256 692 291 588 291 C484 291 464 256 464 141 C464 26 484 -9 588 -9 L588 -9 Z M182 527 C126 527 115 546 115 609 C115 672 126 691 182 691 C239 691 250 672 250 609 C250 546 239 527 182 527 L182 527 Z M182 459 C286 459 306 494 306 609 C306 724 286 759 182 759 C78 759 58 724 58 609 C58 494 78 459 182 459 L182 459 Z M177.5 0 C185.952 0 199.381 7.91695 203.473 15.3122 L601.527 734.688 C605.619 742.083 600.952 750 592.5 750 C584.048 750 570.619 742.083 566.527 734.688 L168.473 15.3122 C164.381 7.91695 169.048 0 177.5 0 L177.5 0 Z " />
<glyph glyph-name="ampersand" unicode="&#x26;" horiz-adv-x="708" d="M646.284 13.1043 L632.522 102.154 C631.814 106.735 626.887 110.822 622.295 110.195 C602.033 107.43 566.514 109.445 549.064 111.18 C545.301 111.554 544.101 116.89 545.488 120.408 C562.933 164.668 571.489 221.662 573.018 293.25 C573.591 320.096 552.727 348.77 526.588 354.92 L489.046 363.754 C470.743 368.06 454.295 354.632 453.963 335.832 C453.179 291.402 449.502 254.854 442.317 224.958 C439.932 215.037 428.314 216.524 421.817 224.393 C384.895 269.116 355.678 304.444 332.903 331.645 C325.709 340.236 326.779 350.924 336.37 356.719 C436.412 417.16 468 457.25 468 519 C468 654 430 696 306 696 C174 696 134 657 134 529 C134 460.525 139.445 419.956 155.389 391.569 C159.523 384.208 159.841 370.816 152.655 366.383 C64.9775 312.295 37 266.6 37 183 C37 30 88 -17 252 -17 C337.5 -17 402.75 -7.28 451.395 17.263 C457.69 20.4392 477.569 18.2748 483.674 14.746 C510.696 -0.874375 542.5 -7 592 -7 C609.64 -7 621.988 -5.5888 637.935 -0.395584 C644.053 1.59713 647.267 6.74455 646.284 13.1043 L646.284 13.1043 Z M246.785 433.991 C232.764 454.572 228 484.375 228 538 C228 577 247 589 307 589 C364 589 382 572 382 516 C382 498.9 354.474 477.739 271.985 430.225 C262.954 425.022 252.653 425.378 246.785 433.991 L246.785 433.991 Z M359.166 124.374 C334.794 115.084 305.3 111 269 111 C171 111 141 131 141 196 C141 241 157 263 209 293 L219.5 299 C225.213 302.264 232.383 302.179 236.617 297.143 C264.396 264.099 315.373 202.843 365.432 141.51 C371.109 134.555 367.555 127.572 359.166 124.374 L359.166 124.374 Z " />
<glyph glyph-name="quotesingle" unicode="&#x27;" horiz-adv-x="228" d="M79 700 L79 654.34 C79 653.113 80.8963 639.144 81.2234 637.961 L98.6019 575.131 C102.006 562.826 116.232 552 129 552 C141.768 552 155.994 562.826 159.398 575.131 L176.777 637.961 C177.104 639.144 179 653.113 179 654.34 L179 700 C179 727.599 156.599 750 129 750 C101.402 750 79 727.599 79 700 L79 700 Z " />
<glyph glyph-name="parenleft" unicode="&#x28;" horiz-adv-x="358" d="M278.807 774.33 C131.88 646.267 103 568.7 103 335 C103 109.85 131.88 33.6125 278.807 -94.3382 C289.913 -104.01 310.664 -106.46 320.5 -95.5 C329.966 -84.9518 328.08 -67.7126 317.409 -58.3855 C192.367 50.9025 168 120.3 168 335 C168 557.3 192.368 628.882 317.409 738.37 C328.062 747.698 329.958 764.961 320.5 775.5 C310.66 786.465 289.914 784.01 278.807 774.33 L278.807 774.33 Z " />
<glyph glyph-name="parenright" unicode="&#x29;" horiz-adv-x="323" d="M79.193 -94.3299 C226.12 33.7325 255 111.3 255 345 C255 570.15 226.12 646.387 79.193 774.338 C68.0871 784.01 47.3362 786.46 37.5 775.5 C28.0337 764.952 29.9196 747.713 40.5911 738.385 C165.632 629.097 190 559.7 190 345 C190 122.7 165.632 51.1175 40.5911 -58.37 C29.9375 -67.6984 28.0421 -84.9612 37.5 -95.5 C47.3405 -106.465 68.0865 -104.01 79.193 -94.3299 L79.193 -94.3299 Z " />
<glyph glyph-name="asterisk" unicode="&#x2a;" horiz-adv-x="394" d="M296.898 672.507 L282.693 666.878 C256.589 656.535 232.271 674.51 234.5 702.5 L235.665 717.133 C237.5 740.169 220.11 759 197 759 C173.875 759 156.333 740.172 157.966 717.105 L159.007 702.403 C160.99 674.386 136.579 656.569 110.5 667 L97.0512 672.38 C75.5435 680.983 52.1599 670.03 45 648 C37.8438 625.981 50.3616 603.493 72.847 597.974 L87 594.5 C114.237 587.814 123.625 559.101 105.598 537.617 L95.9373 526.103 C81.1091 508.431 84.284 482.987 103 469.5 C121.726 456.006 146.978 460.964 159.211 480.538 L167 493 C181.885 516.815 212.115 516.815 227 493 L234.789 480.538 C247.022 460.964 272.274 456.006 291 469.5 C309.716 482.987 312.891 508.431 298.063 526.103 L288.402 537.617 C270.375 559.101 279.763 587.814 307 594.5 L321.153 597.974 C343.638 603.493 356.156 625.981 349 648 C341.839 670.035 318.438 681.042 296.898 672.507 L296.898 672.507 Z " />
<glyph glyph-name="plus" unicode="&#x2b;" horiz-adv-x="590" d="M262 168.56 L262 33 C262 14.785 276.785 0 295 0 C313.215 0 328 14.785 328 33 L328 168.56 C328 202.473 355.527 230 389.44 230 L535 230 C551.559 230 565 243.441 565 260 C565 276.559 551.559 290 535 290 L389.44 290 C355.527 290 328 317.527 328 351.44 L328 487 C328 505.215 313.215 520 295 520 C276.785 520 262 505.215 262 487 L262 351.44 C262 317.527 234.473 290 200.56 290 L55 290 C38.4409 290 25 276.559 25 260 C25 243.441 38.4409 230 55 230 L200.56 230 C234.473 230 262 202.473 262 168.56 L262 168.56 Z " />
<glyph glyph-name="comma" unicode="&#x2c;" horiz-adv-x="209" d="M50 54.5 L50 22 C50 9.85666 59.8567 0 72 0 C84.7112 0 94.2164 -8.82957 93.622 -21.5269 C92.374 -48.185 87.408 -56.57 69.936 -59.04 C60.5353 -60.369 50 -70.5059 50 -80 L50 -86 C50 -100.811 62.5483 -112.12 77.352 -111.645 C151.71 -109.26 159 -92.7 159 0 L159 54.5 C159 84.5824 134.582 109 104.5 109 C74.4176 109 50 84.5824 50 54.5 L50 54.5 Z " />
<glyph glyph-name="hyphen" unicode="&#x2d;" horiz-adv-x="365" d="M91 222 L274 222 C296.631 222 315 240.369 315 263 C315 285.631 296.631 304 274 304 L91 304 C68.3692 304 50 285.631 50 263 C50 240.369 68.3692 222 91 222 L91 222 Z " />
<glyph glyph-name="period" unicode="&#x2e;" horiz-adv-x="208" d="M104.5 0 C134.582 0 159 24.4176 159 54.5 C159 84.5824 134.582 109 104.5 109 C74.4176 109 50 84.5824 50 54.5 C50 24.4176 74.4176 0 104.5 0 L104.5 0 Z " />
<glyph glyph-name="slash" unicode="&#x2f;" horiz-adv-x="308" d="M22 0 C33.4544 0 47.5015 9.9473 51.3047 20.7519 L300.695 729.248 C304.499 740.053 297.454 750 286 750 C274.546 750 260.499 740.053 256.695 729.248 L7.30467 20.7519 C3.50145 9.9473 10.5456 0 22 0 L22 0 Z " />
<glyph glyph-name="zero" unicode="0" horiz-adv-x="700" d="M172 375 C172 589 207 641 351 641 C494 641 529 589 529 375 C529 151 501 109 351 109 C200 109 172 151 172 375 L172 375 Z M56 375 C56 52 103 -9 351 -9 C598 -9 645 52 645 375 C645 683 587 759 351 759 C114 759 56 683 56 375 L56 375 Z " />
<glyph glyph-name="one" unicode="1" horiz-adv-x="418" d="M318 56 L318 706.5 C318 730.511 298.511 750 274.5 750 L255.014 750 C246.026 750 219.957 739.811 213.351 733.716 L69.7768 601.247 C61.7539 593.845 50 567.007 50 556.091 L50 494.5 C50 458.948 88.535 442.312 114.409 466.693 L128 479.5 C159.334 509.026 206 488.88 206 445.826 L206 56 C206 25.0897 231.09 0 262 0 C292.91 0 318 25.0897 318 56 L318 56 Z " />
<glyph glyph-name="two" unicode="2" horiz-adv-x="593" d="M101.44 0 L504 0 C533.806 0 558 24.1936 558 54 C558 83.8064 533.806 108 504 108 L243.426 108 C215.989 108 200.663 120.84 210.291 146.533 C230.106 199.407 276.925 221.125 385 283 C505 352 542 406 542 514 C542 701 483 758 291 758 C98 758 39 705 39 534 C39 475.425 46.4869 440.672 68.1988 405.595 C77.135 391.159 93.6512 387.901 108.79 395.589 L193.897 438.807 C203.109 443.485 206.139 455.328 200.389 463.913 C184.445 487.717 179 506.775 179 534 C179 637 210 669 309 669 C405 669 434 639 434 542 C434 461 382 407 213 310 C69 227.2 43.665 224.995 40.038 60.628 C39.2733 25.9752 66.7788 0 101.44 0 L101.44 0 Z " />
<glyph glyph-name="three" unicode="3" horiz-adv-x="599" d="M51.845 190.746 C63.14 39.6 128.3 -9 302 -9 C495 -9 554 42 554 209 C554 307.6 528.712 359.237 454.187 392.162 C443.196 397.018 439.547 417.665 450.421 422.777 C505.942 448.881 525 489.925 525 565 C525 713 473 759 304 759 C155.25 759 96.8438 719.953 84.5664 597.645 C81.1708 563.817 104.002 540 138 540 L155.5 540 C172.651 540 193.931 563.243 197.24 580.072 C206.2 625.64 235 641 299 641 C393 641 422 621 422 556 C422 470 393 444 298 444 L258 444 C235.921 444 218 426.079 218 404 L218 388 C218 371.441 231.441 358 248 358 L278 358 C398 358 435 324 435 213 C435 142 404 120 303 120 C219.8 120 182.68 138.56 171.16 195.136 C166.928 215.918 140.208 245 119 245 L108.5 245 C73.8034 245 49.2594 225.346 51.845 190.746 L51.845 190.746 Z " />
<glyph glyph-name="four" unicode="4" horiz-adv-x="595" d="M25 326.766 L25 293.5 C25 262.315 50.3139 237.207 81.4981 237.463 L147 238 L292.56 238 C326.473 238 354 210.473 354 176.56 L354 55.5 C354 24.8657 378.866 0 409.5 0 C440.134 0 465 24.8657 465 55.5 L465 183 C465 213.358 489.642 238 520 238 C550.358 238 575 262.642 575 293 L575 312 C575 342.358 550.358 367 520 367 C489.642 367 465 391.642 465 422 L465 673.232 C465 680.131 472.905 700.853 477.5 706 L481.355 710.317 C485.639 715.116 483.695 721.765 477.5 723.5 L476.074 723.899 C470.188 725.547 465 732.387 465 738.5 C465 744.848 459.848 750 453.5 750 L405.723 750 C394.25 750 367.248 737.816 359.656 729.214 L40.3733 367.42 C34.7585 361.058 25 335.252 25 326.766 L25 326.766 Z M235.563 433.802 L351.304 563.612 C353.108 565.635 356.317 564.192 356 561.5 L355.421 556.577 C355.394 556.346 355 549.631 355 549.398 L355 428.44 C355 394.527 327.473 367 293.56 367 L265.5 367 C228.627 367 211.024 406.281 235.563 433.802 L235.563 433.802 Z " />
<glyph glyph-name="five" unicode="5" horiz-adv-x="595" d="M518.939 668.928 L521 696.5 C523.202 725.948 500.881 750 471.351 750 L158.423 750 C126.8 750 99.2582 724.259 97.1231 692.708 L77.5426 403.352 C75.6113 374.811 97.2655 345.682 125.152 339.308 L179.069 326.984 C194.707 323.41 227.707 334.048 238.986 345.454 C274.873 381.749 296.075 394 320 394 C408 394 435 357 435 235 C435 147 404 120 303 120 C219.8 120 182.68 138.56 171.16 195.136 C166.928 215.918 140.208 245 119 245 L109 245 C74.6 245 50.2815 225.05 52.845 190.746 C64.14 39.6 129.3 -9 303 -9 C496 -9 555 48 555 235 C555 426 505 485 341 485 C301.4 485 272.69 477.513 242.517 455.801 C234.983 450.38 224.276 456.164 225.007 465.416 L236.115 606.119 C238.811 640.273 268.703 665.527 302.828 662.48 L465 648 L465 643 L491 643 C505.311 643 517.871 654.656 518.939 668.928 L518.939 668.928 Z " />
<glyph glyph-name="six" unicode="6" horiz-adv-x="612" d="M528.618 679.571 C476.766 739.262 425.1 759 336 759 C104 759 60 668 60 370 C60 51 102 -9 327 -9 C521 -9 580 51 580 245 C580 442 525 502 345 502 C263.1 502 223.978 473.481 179.438 381.223 C178.675 379.643 176 379.745 176 381.5 L176 389 C176 585 201 645 336 645 C376.425 645 402.557 632.068 434.049 593.851 C445.858 579.52 470.104 575.881 485.645 586.048 L514.181 604.717 C543.393 623.827 551.511 653.219 528.618 679.571 L528.618 679.571 Z M318 382 C427 382 461 350 461 244 C461 140 430 108 328 108 C246.3 108 207.018 126.952 189.576 202.582 C188.839 205.776 188.328 221.232 189.032 224.434 C215.552 344.926 246.35 382 318.5 382 L318 382 Z " />
<glyph glyph-name="seven" unicode="7" horiz-adv-x="490" d="M30 696 C30 666.194 54.1936 642 84 642 L212.082 642 C265.169 642 287.696 575.962 253.008 535.776 C149.088 415.386 131.906 323.346 130.164 55.8904 C129.941 21.7572 157.306 0 191.44 0 L193.56 0 C227.262 0 254.946 22.3318 255.156 56.0329 C257.217 386.727 281.994 449.739 464.827 627.341 C472.203 634.506 480 657.878 480 668.161 L480 696 C480 725.806 455.806 750 426 750 L84 750 C54.1936 750 30 725.806 30 696 L30 696 Z " />
<glyph glyph-name="eight" unicode="8" horiz-adv-x="629" d="M193 555 C193 627 222 641 318 641 C422 641 442 621 442 555 C442 476 413 465 318 465 C208 465 193 486 193 555 L193 555 Z M90 564 C90 493.875 96.8063 448.253 127.826 419.833 C134.272 413.927 131.465 395.369 124.135 390.603 C78.6175 361.015 62 305.85 62 203 C62 41 93 -9 319 -9 C515 -9 575 16 575 202 C575 302.8 563.66 361.48 505.988 392.62 C498.647 396.584 499.914 411.152 506.03 416.826 C535.11 443.797 546 488.925 546 564 C546 713 510 759 319 759 C145 759 90.5 728 90.5 564 L90 564 Z M182 211 C182 320 214 335 319 335 C439 335 455 306 455 213 C455 122 423 109 319 109 C198 109 182 133 182 211 L182 211 Z " />
<glyph glyph-name="nine" unicode="9" horiz-adv-x="612" d="M101.382 70.4289 C153.234 10.7381 204.9 -9 294 -9 C526 -9 570 82 570 380 C570 699 528 759 303 759 C109 759 50 699 50 505 C50 308 105 248 285 248 C366.9 248 406.022 276.519 450.562 368.777 C451.325 370.357 454 370.255 454 368.5 L454 361 C454 165 429 105 294 105 C253.575 105 227.443 117.932 195.951 156.149 C184.142 170.48 159.896 174.119 144.355 163.952 L115.819 145.283 C86.6072 126.173 78.4894 96.7814 101.382 70.4289 L101.382 70.4289 Z M312 368 C203 368 169 400 169 506 C169 610 200 642 302 642 C383.7 642 422.982 623.047 440.425 547.418 C441.161 544.224 441.672 528.768 440.968 525.566 C414.448 405.074 383.65 368 311.5 368 L312 368 Z " />
<glyph glyph-name="colon" unicode="&#x3a;" horiz-adv-x="208" d="M104.5 411 C134.582 411 159 435.418 159 465.5 C159 495.582 134.582 520 104.5 520 C74.4176 520 50 495.582 50 465.5 C50 435.418 74.4176 411 104.5 411 L104.5 411 Z M104.5 0 C134.582 0 159 24.4176 159 54.5 C159 84.5824 134.582 109 104.5 109 C74.4176 109 50 84.5824 50 54.5 C50 24.4176 74.4176 0 104.5 0 L104.5 0 Z " />
<glyph glyph-name="semicolon" unicode="&#x3b;" horiz-adv-x="208" d="M104.5 411 C134.582 411 159 435.418 159 465.5 C159 495.582 134.582 520 104.5 520 C74.4176 520 50 495.582 50 465.5 C50 435.418 74.4176 411 104.5 411 L104.5 411 Z M50 54.5 L50 22 C50 9.85666 59.8567 0 72 0 C84.7112 0 94.2164 -8.82957 93.622 -21.5269 C92.374 -48.185 87.408 -56.57 69.936 -59.04 C60.5353 -60.369 50 -70.5059 50 -80 L50 -86 C50 -100.811 62.5483 -112.12 77.352 -111.645 C151.71 -109.26 159 -92.7 159 0 L159 54.5 C159 84.5824 134.582 109 104.5 109 C74.4176 109 50 84.5824 50 54.5 L50 54.5 Z " />
<glyph glyph-name="less" unicode="&#x3c;" horiz-adv-x="555" d="M456.891 474.571 L78.977 311.648 C61.755 304.223 45 278.754 45 260 C45 241.246 61.755 215.777 78.977 208.352 L456.891 45.4294 C476.207 37.1018 495 49.4648 495 70.5 L495 70.8292 C495 91.8474 476.361 119.663 456.922 127.654 L273.224 203.175 C219.562 225.236 219.562 294.764 273.224 316.825 L456.922 392.346 C476.361 400.337 495 428.153 495 449.171 L495 449.5 C495 470.535 476.207 482.898 456.891 474.571 L456.891 474.571 Z " />
<glyph glyph-name="equal" unicode="&#x3d;" horiz-adv-x="604" d="M39 165 C39 148.441 52.4409 135 69 135 L524 135 C540.559 135 554 148.441 554 165 C554 181.559 540.559 195 524 195 L69 195 C52.4409 195 39 181.559 39 165 L39 165 Z M39 365 C39 348.441 52.4409 335 69 335 L524 335 C540.559 335 554 348.441 554 365 C554 381.559 540.559 395 524 395 L69 395 C52.4409 395 39 381.559 39 365 L39 365 Z " />
<glyph glyph-name="greater" unicode="&#x3e;" horiz-adv-x="555" d="M281.776 203.175 L98.0785 127.654 C78.639 119.663 60 91.8474 60 70.8292 L60 70.5 C60 49.4648 78.7928 37.1018 98.1094 45.4294 L476.023 208.352 C493.245 215.777 510 241.246 510 260 C510 278.754 493.245 304.223 476.023 311.648 L98.1094 474.571 C78.7928 482.898 60 470.535 60 449.5 L60 449.171 C60 428.153 78.639 400.337 98.0785 392.346 L281.776 316.825 C335.438 294.764 335.438 225.236 281.776 203.175 L281.776 203.175 Z " />
<glyph glyph-name="question" unicode="&#x3f;" horiz-adv-x="565" d="M271 0 C300.806 0 325 24.1936 325 54 L325 55 C325 84.8064 300.806 109 271 109 C241.194 109 217 84.8064 217 55 L217 54 C217 24.1936 241.194 0 271 0 L271 0 Z M67 550.5 C89.376 546.538 117.092 569.143 122.728 591.158 C139.977 658.539 183.125 681 278 681 C380 681 411 651 411 555 C411 492 404 482 328 437 C227.2 377.6 222.79 384.62 222.916 253.94 C222.942 227.471 244.531 205 271 205 C297.383 205 318.811 227.449 318.922 253.832 C319.247 330.795 325.75 328.5 398 371 C505 434 515 449 515 555 C515 711 459 759 278 759 C116.125 759 49.1875 723.016 26.2734 611.521 C20.1804 581.874 37.1966 555.778 67 550.5 L67 550.5 Z " />
<glyph glyph-name="at" unicode="&#x40;" horiz-adv-x="1240" d="M986.389 -136.193 C884.59 -200.75 798.1 -221 646 -221 C253 -221 132 -106 132 269 C132 644 251 759 640 759 C1000 759 1110 665 1110 357 C1110 127 1075 56 959 56 C854 56 826 92 840 208 C840.017 208.141 840.011 208.395 840.015 208.537 C840.381 221.304 847.45 457.996 869.241 494.335 C869.241 494.335 866.031 494.78 866.031 494.78 L864.71 498.555 C864.71 498.555 861.5 499 861.5 499 L784 499 C780.667 499 777.333 493.444 774.579 484.069 C773.75 481.25 770.644 480.185 768.357 482.03 C738.045 506.487 690.45 511 623 511 C433 511 367 454 345 270 C320 58 371 -7 563 -7 C643.025 -7 697.867 4.57062 735.387 34.4501 C742.952 40.4749 765.105 38.0437 770.846 30.2602 C797.136 -5.3875 845.275 -19 922 -19 C1125 -19 1187 69 1187 357 C1187 730 1059 844 642 844 C197 844 60 709 60 269 C60 -171 198 -306 648 -306 C815.425 -306 912.689 -280.331 1037.14 -198.919 C1056.24 -186.426 1057.87 -163.992 1044.5 -145.5 C1032.16 -128.431 1004.18 -124.912 986.389 -136.193 L986.389 -136.193 Z M755.779 305.819 C752.951 251.729 752 208 752 208 C752 208 756.203 235.645 751.193 202.104 C739.947 126.815 698.9 104 578 104 C463 104 432 143 447 269 C459 367 497 397 611 397 C702.65 397 746.769 388.92 755.405 315.294 C755.462 314.814 755.804 306.302 755.779 305.819 L755.779 305.819 Z " />
<glyph glyph-name="A" unicode="A" horiz-adv-x="716" d="M278 700 L33.3409 72.6691 C18.7667 35.2993 42.8889 0 83 0 L134.723 0 C148.246 0 165.611 11.8914 170.5 24.5 L180 49 L229.285 179.081 C229.33 179.199 229.544 179.119 229.5 179 C223.549 162.957 233.953 148 251.064 148 L487.497 148 C509.45 148 537.247 128.77 544.989 108.228 L567.5 48.5 L576.75 24.25 C581.52 11.7437 598.569 0 611.954 0 L680.279 0 C693.526 0 701.514 11.639 696.75 24 L687.5 48 L438.502 699.001 C436.107 705.262 436.106 726.739 438.5 733 C441.851 741.765 436.183 750 426.8 750 L298 750 C297 746 278.5 700 278.5 700 L278 700 Z M291.383 343.138 L317 411 C337.79 466.077 410.21 466.077 431 411 L456.617 343.138 C472.823 300.205 445.025 260 399.136 260 L348.864 260 C302.975 260 275.177 300.205 291.383 343.138 L291.383 343.138 Z " />
<glyph glyph-name="B" unicode="B" horiz-adv-x="694" d="M567.013 429.921 C605.707 453.299 620 491.6 620 551 C620 733 597 749 345 749 L152.44 749 C118.527 749 91 721.473 91 687.56 L91 60.44 C91 26.527 118.527 -1 152.44 -1 L384 -1 C636 -1 659 17 659 224 C659 323.75 635.266 379.477 569.709 406.588 C562.015 409.77 559.887 425.616 567.013 429.921 L567.013 429.921 Z M203 512.502 L203 574.56 C203 608.473 230.527 636 264.44 636 L351 636 C491 636 504 628 504 543 C504 477 460 457 316 457 L259.5 456.5 C228.315 456.224 203 481.316 203 512.502 L203 512.502 Z M203 173.44 L203 289.5 C203 321.238 228.762 347 260.5 347 L318 347 C487 347 539 321 539 236 C539 122 523 112 343 112 L264.44 112 C230.527 112 203 139.527 203 173.44 L203 173.44 Z " />
<glyph glyph-name="C" unicode="C" horiz-adv-x="722" d="M570.675 193.636 C530.829 130.099 480.875 109 386 109 C225 109 176 192 176 375 C176 558 225 641 386 641 C470.15 641 518.227 619.901 565.045 556.364 C581.966 533.4 617.508 528.721 639.438 546.963 L662.051 565.771 C686.302 585.943 693.479 615.301 675.051 640.902 C610.984 729.906 535.625 759 386 759 C134 759 56 639 56 375 C56 111 134 -9 386 -9 C549.625 -9 627.5 20.0938 680.588 109.098 C695.261 133.698 688.348 162.355 666.326 180.673 L637.153 204.938 C617.111 221.608 584.526 215.721 570.675 193.636 L570.675 193.636 Z " />
<glyph glyph-name="D" unicode="D" horiz-adv-x="765" d="M350 0 C661 0 710 51 710 375 C710 691 648 750 320 750 L152.44 750 C118.527 750 91 722.473 91 688.56 L91 61.44 C91 27.527 118.527 0 152.44 0 L350 0 L350 0 Z M203 139 L203 575.56 C203 609.473 230.527 637 264.44 637 L326 637 C548 637 590 595 590 375 C590 148 556 112 340 112 C296 112 265.604 112.716 225.789 112.936 C211.518 113.015 203 124.728 203 139 L203 139 Z " />
<glyph glyph-name="E" unicode="E" horiz-adv-x="628" d="M519 118 L264.44 118 C230.527 118 203 145.527 203 179.44 L203 269.56 C203 303.473 230.527 331 264.44 331 L487 331 C517.91 331 543 356.09 543 387 C543 417.91 517.91 443 487 443 L264.44 443 C230.527 443 203 470.527 203 504.44 L203 570.56 C203 604.473 230.527 632 264.44 632 L504 632 C536.566 632 563 658.434 563 691 C563 723.566 536.566 750 504 750 L152.44 750 C118.527 750 91 722.473 91 688.56 L91 61.44 C91 27.527 118.527 0 152.44 0 L519 0 C551.566 0 578 26.4338 578 59 C578 91.5662 551.566 118 519 118 L519 118 Z " />
<glyph glyph-name="F" unicode="F" horiz-adv-x="593" d="M533 387 C533 417.91 507.91 443 477 443 L264.44 443 C230.527 443 203 470.527 203 504.44 L203 570.56 C203 604.473 230.527 632 264.44 632 L504 632 C536.566 632 563 658.434 563 691 C563 723.566 536.566 750 504 750 L152.44 750 C118.527 750 91 722.473 91 688.56 L91 56 C91 25.0897 116.09 0 147 0 C177.91 0 203 25.0897 203 56 L203 269.56 C203 303.473 230.527 331 264.44 331 L477 331 C507.91 331 533 356.09 533 387 L533 387 Z " />
<glyph glyph-name="G" unicode="G" horiz-adv-x="780" d="M425.5 318 L534.56 318 C568.473 318 596 290.473 596 256.56 L596 187.938 C596 172.996 585.109 149.722 572.724 141.364 C536.871 117.167 501.375 109 423 109 C234 109 176 172 176 375 C176 578 234 641 423 641 C503.025 641 549.019 619.901 595.234 556.364 C612.105 533.17 647.302 528.725 669.267 547.168 L691.391 565.743 C715.34 585.851 722.33 615.46 704.148 640.902 C640.547 729.906 567.375 759 423 759 C142 759 56 669 56 375 C56 81 142 -9 423 -9 C575.625 -9 637.554 10.6794 715.632 72.1988 C725.784 80.1977 735 103.686 735 116.61 L735 375.56 C735 409.473 707.473 437 673.56 437 L425.5 437 C392.658 437 366 410.342 366 377.5 C366 344.658 392.658 318 425.5 318 L425.5 318 Z " />
<glyph glyph-name="H" unicode="H" horiz-adv-x="762" d="M677 56 L677 694 C677 724.91 651.91 750 621 750 C590.09 750 565 724.91 565 694 L565 515.44 C565 481.527 537.473 454 503.56 454 L264.44 454 C230.527 454 203 481.527 203 515.44 L203 694 C203 724.91 177.91 750 147 750 C116.09 750 91 724.91 91 694 L91 56 C91 25.0897 116.09 0 147 0 C177.91 0 203 25.0897 203 56 L203 274.56 C203 308.473 230.527 336 264.44 336 L503.56 336 C537.473 336 565 308.473 565 274.56 L565 56 C565 25.0897 590.09 0 621 0 C651.91 0 677 25.0897 677 56 L677 56 Z " />
<glyph glyph-name="I" unicode="I" horiz-adv-x="284" d="M199 55.5 L199 694.5 C199 725.134 174.134 750 143.5 750 C112.866 750 88 725.134 88 694.5 L88 55.5 C88 24.8657 112.866 0 143.5 0 C174.134 0 199 24.8657 199 55.5 L199 55.5 Z " />
<glyph glyph-name="J" unicode="J" horiz-adv-x="549" d="M53 248.5 L53 217 C53 18 78 -9 259 -9 C432 -9 464 45 464 220 L464 694 C464 724.91 438.91 750 408 750 C377.09 750 352 724.91 352 694 L352 220 C352 147 337 125 259 125 C175 125 164 140 164 249 L164.5 274.5 C164.771 288.305 153.485 297.944 139.892 295.516 L84.0095 285.537 C67.1597 282.529 53 265.616 53 248.5 L53 248.5 Z " />
<glyph glyph-name="K" unicode="K" horiz-adv-x="666" d="M636.172 750 L482.23 750 C473.674 750 454.498 741.055 449 734.5 L436 719 C431 713 427 709 425 706 L302.114 559.866 C266.904 517.994 203 541.292 203 596 L203 694 C203 724.91 177.91 750 147 750 C116.09 750 91 724.91 91 694 L91 315.403 C91 313.195 88.3793 305.724 87 304 L85.5757 302.22 C84.2833 300.604 84.9929 298.502 87 298 C89.142 297.465 91 295.085 91 292.877 L91 56 C91 25.0897 116.09 0 147 0 C177.91 0 203 25.0897 203 56 L203 264.39 C203 266.874 205.075 268.539 207.5 268 C209.677 267.516 213.571 268.787 215.043 270.462 L266.5 329 C294.537 360.895 339.466 355.424 359.03 317.733 L498 50 L513 22 L518.5 11 C521.215 5.56933 530.227 0 536.298 0 L639 0 C647.239 0 652.319 6.899 648.501 14.2 C637.705 34.8454 632.483 45.6897 630 49 L415.787 452.169 C408.129 466.583 390.876 468.671 380 456.5 C379.961 456.457 383.24 460.341 383.278 460.385 C454.011 540.256 524.103 620.128 595 700 C603.889 709.778 628.58 738.123 636.767 747.111 C637.496 747.911 637.254 750 636.172 750 L636.172 750 Z " />
<glyph glyph-name="L" unicode="L" horiz-adv-x="554" d="M465 118 L260.44 118 C226.527 118 199 145.527 199 179.44 L199 694.5 C199 725.134 174.134 750 143.5 750 C112.866 750 88 725.134 88 694.5 L88 61.44 C88 27.527 115.527 0 149.44 0 L465 0 C497.566 0 524 26.4338 524 59 C524 91.5662 497.566 118 465 118 L465 118 Z " />
<glyph glyph-name="M" unicode="M" horiz-adv-x="912" d="M827 54.0023 L827 688.56 C827 722.473 799.473 750 765.56 750 L676.873 750 C653.279 750 625.525 729.73 618.346 707.255 L513.547 379.163 C494.88 320.72 415.923 320.331 396.681 378.587 L287.929 707.83 C280.629 729.932 252.866 750 229.589 750 L145.44 750 C111.527 750 84 722.473 84 688.56 L84 61.44 C84 27.527 111.527 0 145.44 0 L162.56 0 C196.473 0 224 27.527 224 61.44 L224 302.022 C224 352.527 299.397 364.869 315.5 317 L400.511 64.2889 C402.649 57.933 402.77 32.0271 400.691 25.6517 L399.5 22 C395.564 9.93019 403.497 -1 416.192 -1 L476.438 -1 C499.819 -1 527.578 19.134 534.84 41.3583 L624.896 316.984 C641.028 366.358 719 353.943 719 302 L719 53.0023 C719 23.1959 743.195 -0.775973 773 -0.5 C802.805 -0.224027 827 24.1959 827 54.0023 L827 54.0023 Z " />
<glyph glyph-name="N" unicode="N" horiz-adv-x="755" d="M409.016 391.33 L235.896 698.969 C233.758 702.767 228 724.742 228 729.1 L228 731.5 C228 741.711 219.711 750 209.5 750 L144.44 750 C110.527 750 83 722.473 83 688.56 L83 61.44 C83 27.527 110.527 0 144.44 0 L166.56 0 C200.473 0 228 27.527 228 61.44 L228 257.637 C228 321.101 311.842 343.081 342.978 287.779 L487.379 31.2977 C495.854 16.2442 523.642 0 540.917 0 L608.56 0 C642.473 0 670 27.527 670 61.44 L670 688.56 C670 722.473 642.473 750 608.56 750 L585.44 750 C551.527 750 524 722.473 524 688.56 L524 421.461 C524 357.993 440.142 336.019 409.016 391.33 L409.016 391.33 Z " />
<glyph glyph-name="O" unicode="O" horiz-adv-x="814" d="M181 375 C181 568 244 641 410 641 C576 641 639 568 639 375 C639 172 585 109 410 109 C235 109 181 172 181 375 L181 375 Z M61 375 C61 81 143 -9 410 -9 C677 -9 759 81 759 375 C759 654 664 759 410 759 C156 759 61 654 61 375 L61 375 Z " />
<glyph glyph-name="P" unicode="P" horiz-adv-x="624" d="M203 56 L203 236.56 C203 270.473 230.527 298 264.44 298 L342 298 C550 298 589 334 589 525 C589 714 550 750 342 750 L152.44 750 C118.527 750 91 722.473 91 688.56 L91 56 C91 25.0897 116.09 0 147 0 C177.91 0 203 25.0897 203 56 L203 56 Z M203 472.44 L203 575.56 C203 609.473 230.527 637 264.44 637 L336 637 C455 637 477 619 477 525 C477 429 457 411 348 411 L264.44 411 C230.527 411 203 438.527 203 472.44 L203 472.44 Z " />
<glyph glyph-name="Q" unicode="Q" horiz-adv-x="814" d="M181 375 C181 568 244 641 410 641 C576 641 639 568 639 375 C639 276.9 626.04 211.2 592.83 169.881 C586.027 161.417 577.708 161.572 571.28 170.323 C556.295 190.724 539.487 213.015 520.857 237.504 C512.858 248.02 497.515 250.501 487.026 242.466 L425.337 195.216 C417.907 189.525 416.763 178.564 422.403 171.095 C436.627 152.259 450.233 134.908 462.841 118.661 C465.49 115.248 463.857 111.54 459.554 111.148 C443.822 109.716 426.769 109 409 109 C234 109 180.5 172 180.5 375 L181 375 Z M60 375 C60 81 142 -9 409 -9 C455.2 -9 495.955 -6.2775 531.827 -0.270984 C541.157 1.29142 560.059 -3.46623 566.047 -10.7905 C613.321 -68.6094 633 -90 633 -90 C633 -90 638.333 -85.9261 646.498 -79.6892 L695.555 -42.2146 C700.634 -38.3354 707.443 -40.8561 704.983 -34.9585 C704.624 -34.0983 698.544 -19.784 676.968 15.432 C668.895 28.6082 672.372 58.9031 682.916 70.1992 C738.328 129.563 759 226.25 759 375 C759 654 664 759 410 759 C156 759 60.5 654 60.5 375 L60 375 Z " />
<glyph glyph-name="R" unicode="R" horiz-adv-x="624" d="M588 50 L468.344 266.975 C455.23 290.757 475.936 325.902 501.704 334.48 C572.36 358 589 411.6 589 526 C589 715 550 751 342 751 L152.44 751 C118.527 751 91 723.473 91 689.56 L91 57 C91 26.0897 116.09 1 147 1 C177.91 1 203 26.0897 203 57 L203 264.5 C203 294.582 227.418 319 257.5 319 L275.582 319 C293.216 319 321.016 302.522 329.481 287.052 L468.519 32.9481 C476.984 17.4781 504.784 1 522.418 1 L606.5 1 C610.64 1 612.948 4.84726 611 8.5 L607 16 L588 50.75 L588 50 Z M204 494.44 L204 577.56 C204 611.473 231.527 639 265.44 639 L337 639 C456 639 478 621 478 527 C478 448 457 433 347 433 L265.44 433 C231.527 433 204 460.527 204 494.44 L204 494.44 Z " />
<glyph glyph-name="S" unicode="S" horiz-adv-x="608" d="M547 637 C453 740 397 759 276 759 C96 759 41 709 41 546 C41 400 80 366 287 330 C433 305 461 285 461 206 C461 139 439 118 325 118 C243.1 118 207.781 137.012 159.723 237.137 C156.854 243.113 151.719 242.006 146.323 238.156 C129.548 226.187 112.774 213.742 96 202 L65 180 C47.1417 167.326 38.5549 147.518 48.8272 128.178 C109.874 13.2463 174.3 -9 326 -9 C535 -9 574 42 574 210 C574 368 533 405 318 442 C183 466 157 484 157 558 C157 613 185 630 277 630 C332.2 630 365 620.4 411.752 577.136 C431.008 559.317 469.146 555.287 488.619 572.869 L549.851 628.157 C551.587 629.724 551.654 632.346 550 634 L547 637 L547 637 Z " />
<glyph glyph-name="T" unicode="T" horiz-adv-x="595" d="M353 55.5 L353 570.56 C353 604.473 380.527 632 414.44 632 L526 632 C558.566 632 585 658.434 585 691 C585 723.566 558.566 750 526 750 L69 750 C36.4338 750 10 723.566 10 691 C10 658.434 36.4338 632 69 632 L180.56 632 C214.473 632 242 604.473 242 570.56 L242 55.5 C242 24.8657 266.866 0 297.5 0 C328.134 0 353 24.8657 353 55.5 L353 55.5 Z " />
<glyph glyph-name="U" unicode="U" horiz-adv-x="723" d="M84 290 C84 38 128 -9 364 -9 C599 -9 643 38 643 289 L643 688.56 C643 722.473 615.473 750 581.56 750 L559.44 750 C525.527 750 498 722.473 498 688.56 L498 314 C498 155 477 125 364 125 C223 125 196 154 196 310 L196 694 C196 724.91 170.91 750 140 750 C109.09 750 84 724.91 84 694 L84 290 L84 290 Z " />
<glyph glyph-name="V" unicode="V" horiz-adv-x="624" d="M130.78 750 L20.272 750 C18.154 750 16.786 747.751 17.4133 745.728 C21.5344 732.435 30.2424 700 32 700 L242.968 58.3465 C244.873 52.5526 245.203 27.3436 243.451 21.5018 L243 20 C239.828 9.42617 246.841 0 257.881 0 L326.274 0 C349.767 0 377.524 20.2059 384.742 42.5631 L597 700 C597 700 605 726 609 737 L611 743.5 C612.055 746.929 609.787 750 606.199 750 L483.101 750 C469.302 750 453.465 738.217 449.5 725 L442 700 L357.413 411.094 C339.935 351.398 258.085 350.803 239.741 410.239 L150 701 C150 705.31 141.454 731.544 137.174 745.105 C136.359 747.687 133.487 750 130.78 750 L130.78 750 Z " />
<glyph glyph-name="W" unicode="W" horiz-adv-x="814" d="M793 701.5 L798 725.75 C800.703 738.86 791.625 750 778.24 750 L650.536 750 C648.643 750 646.853 748.973 646.552 747.104 C644.701 735.605 638.903 702.71 638 700 L599.285 493.179 C590.671 447.166 523.935 445.106 512.5 490.5 L466.796 671.93 C465.8 675.885 465.821 698.109 466.825 702.062 L471 718.5 C475.28 735.352 463.887 750 446.5 750 L387.251 750 C361.377 750 333.695 728.261 327.562 703.125 L276.442 493.625 C264.887 446.27 195.582 447.707 186 495.5 L145 700 L140 725 L137.5 737.5 C136.147 744.266 129.152 750 122.252 750 L37.4555 750 C25.3109 750 12.5877 761.786 15.0229 749.888 C15.5225 747.447 24.0294 705.912 25 703 L164.046 59.6684 C164.752 56.4032 164.525 35.6485 163.748 32.3995 L161.5 23 C158.547 10.6528 166.953 0 179.648 0 L237.418 0 C262.847 0 290.542 21.4488 296.904 46.0686 L352.782 262.311 C367.396 318.864 447.709 318.636 462 262 L512.697 61.088 C513.462 58.0599 514.088 37.8025 513.512 34.733 L511.5 24 C509.059 10.9796 518.171 0 531.418 0 L586.76 0 C613.281 0 642.228 27.9029 648.008 53.7861 C696.074 268.994 744.5 484.923 792.5 700 L793 701.5 Z " />
<glyph glyph-name="X" unicode="X" horiz-adv-x="608" d="M17.5902 0 L144.782 0 C158.305 0 180.291 12.7585 187 24.5 L201 49 L270.886 171.159 C296.211 215.425 351.959 215.523 377.438 171.345 L448 49 L462 24 C468.742 11.9601 490.854 -1 504.653 -1 L574.759 -1 C583.002 -1 587.993 6.07688 583.984 13.279 C574.298 30.6803 568.482 41.5868 564.897 46.6547 C564.866 46.6975 561.618 51.4074 561.592 51.4529 L398.529 335.469 C390.181 350.008 390.154 382.008 398.476 396.561 L570.596 697.545 C570.628 697.601 573.483 701.843 573.521 701.896 C578.777 709.178 592.025 732.176 598.482 744.188 C599.813 746.663 598.22 749 595.41 749 L468.218 749 C454.695 749 432.709 736.241 426 724.5 L412 700 L355.379 600.656 C330.028 556.177 273.972 556.177 248.621 600.656 L192 700 L178 725 C171.258 737.04 149.146 750 135.347 750 L65.2409 750 C56.9982 750 52.0071 742.923 56.0161 735.721 C65.7024 718.32 71.5182 707.413 75.1034 702.345 C75.1334 702.303 78.3837 697.593 78.4096 697.548 L228.451 436.529 C236.809 421.989 236.85 389.987 228.529 375.427 L43.4033 51.4558 C43.367 51.3923 40.5094 47.1628 40.4663 47.1038 C35.144 39.8223 21.582 16.8242 15.0391 4.8125 C13.6905 2.33674 14.7709 0 17.5902 0 L17.5902 0 Z " />
<glyph glyph-name="Y" unicode="Y" horiz-adv-x="631" d="M317 0 C347.91 0 373 25.0897 373 56 L373 300.61 C373 305.116 378.919 327.305 381.164 331.212 L591.591 697.547 C591.617 697.592 594.372 701.735 594.402 701.777 C599.853 709.497 614.794 736.362 620.282 746.02 C620.955 747.204 620.446 749 619.085 749 L512.933 749 C495.646 749 467.858 732.748 459.383 717.682 L359.394 539.922 C334.169 495.078 277.706 495.008 252.37 539.788 L151.644 717.815 C143.168 732.797 115.383 749 98.1698 749 L38.8077 749 C30.8334 749 26.0221 742.138 30.011 735.233 C41.61 715.155 47.5172 704.31 50 701 L253.855 344.253 C256.098 340.329 261.964 318.103 261.95 313.584 L261.17 55.9997 C261.076 25.0897 286.09 0 317 0 L317 0 Z " />
<glyph glyph-name="Z" unicode="Z" horiz-adv-x="655" d="M551 118 L317.133 118 C261.67 118 234.449 175.656 269.692 218.482 L596.001 614.989 C600.911 620.956 610 646.304 610 654.031 L610 691 C610 723.566 583.566 750 551 750 L119 750 C86.4338 750 60 723.566 60 691 C60 658.434 86.4338 632 119 632 L338.672 632 C394.165 632 421.38 574.271 386.067 531.463 L59.0446 135.026 C54.1116 129.046 45 103.681 45 95.9291 L45 59 C45 26.4338 71.4338 0 104 0 L551 0 C583.566 0 610 26.4338 610 59 C610 91.5662 583.566 118 551 118 L551 118 Z " />
<glyph glyph-name="bracketleft" unicode="&#x5b;" horiz-adv-x="353" d="M254.44 693 L294.5 693 C310.231 693 323 705.769 323 721.5 C323 737.231 310.231 750 294.5 750 L189.44 750 C155.527 750 128 722.473 128 688.56 L128 -53.56 C128 -87.473 155.527 -115 189.44 -115 L294.5 -115 C310.231 -115 323 -102.231 323 -86.5 C323 -70.7689 310.231 -58 294.5 -58 L254.44 -58 C220.527 -58 193 -30.473 193 3.44 L193 631.56 C193 665.473 220.527 693 254.44 693 L254.44 693 Z " />
<glyph glyph-name="backslash" unicode="&#x5c;" horiz-adv-x="334" d="M312 0 C323.326 0 330.151 9.95555 326.066 20.5195 L51.9342 729.481 C47.8495 740.044 33.3261 750 22 750 C10.6739 750 3.84948 740.044 7.93419 729.481 L282.066 20.5195 C286.151 9.95555 300.674 0 312 0 L312 0 Z " />
<glyph glyph-name="bracketright" unicode="&#x5d;" horiz-adv-x="350" d="M160 631.56 L160 3.44 C160 -30.473 132.473 -58 98.56 -58 L58.5 -58 C42.7689 -58 30 -70.7689 30 -86.5 C30 -102.231 42.7689 -115 58.5 -115 L163.56 -115 C197.473 -115 225 -87.473 225 -53.56 L225 688.56 C225 722.473 197.473 750 163.56 750 L58.5 750 C42.7689 750 30 737.231 30 721.5 C30 705.769 42.7689 693 58.5 693 L98.56 693 C132.473 693 160 665.473 160 631.56 L160 631.56 Z " />
<glyph glyph-name="asciicircum" unicode="&#x5e;" horiz-adv-x="340" d="M182.008 668.906 C211.484 655.125 249 600 249 600 C249 600 247.592 600 281.505 600 L294.5 600 C314.111 600 323.827 620.216 311.576 635.53 L238.447 726.941 C230.496 736.88 203.198 750 190.47 750 L149.53 750 C136.802 750 109.504 736.88 101.553 726.941 L28.4236 635.53 C16.1726 620.216 25.8888 600 45.5 600 L67.2024 600 C76.0506 600 102.049 610.07 108.589 616.03 L158.914 661.896 C168.642 670.762 170.084 674.481 182.008 668.906 L182.008 668.906 Z " />
<glyph glyph-name="underscore" unicode="&#x5f;" horiz-adv-x="680" d="M80 -130 L600 -130 C616.559 -130 630 -116.559 630 -100 C630 -83.4409 616.559 -70 600 -70 L80 -70 C63.4409 -70 50 -83.4409 50 -100 C50 -116.559 63.4409 -130 80 -130 L80 -130 Z " />
<glyph glyph-name="grave" unicode="&#x60;" horiz-adv-x="340" d="M158.005 600 L170 600 C193.787 600 208.231 620.81 199.911 643.095 L174.915 710.049 C167.202 730.708 139.407 750 117.356 750 L95 750 C64.5983 750 48.3722 720.683 64.5159 694.921 L105.943 628.814 C114.389 615.337 142.1 600 158.005 600 L158.005 600 Z " />
<glyph glyph-name="a" unicode="a" horiz-adv-x="550" d="M103.439 374.814 L144.006 361.519 C156.367 357.468 173.813 365.416 179.529 377.1 C195.68 410.11 218.45 421 263 421 C349 421 375 418 375 384 C375 339 334 328 199 292 C80 260 44 227 44 149 C44 28 57 -9 206 -9 C277.75 -9 327.297 -9 360 9.75781 C363.173 11.5775 374.709 10.0232 376.901 7.09552 C385.732 -4.69992 411.199 -1.58711 478.684 -0.373047 C498.736 -0.0123006 519 16.9445 519 37 L519 46.5 C519 61.8728 506.264 73.8581 490.893 73.6621 C467.994 73.37 474 75.075 474 96 L474 341 C474 514 424 529 262 529 C156.4 529 104.229 507.22 70.1117 440.638 C53.9947 409.185 69.8548 385.821 103.439 374.814 L103.439 374.814 Z M374 225.8 L374 166 C368 82 334 81 245 81 C151 81 143 98 143 152 C143 169 174 182 275 209 C310.7 218.35 339.536 225.894 362.123 234.702 C368.062 237.018 374 232.174 374 225.8 L374 225.8 Z " />
<glyph glyph-name="b" unicode="b" horiz-adv-x="599" d="M174 13.5 C174 18.7583 180.088 21.8872 184.446 18.945 C217.44 -3.33 265.5 -9 333 -9 C498 -9 549 54 549 260 C549 466 498 529 333 529 C271.125 529 225.585 524.236 193.011 506.284 C185.887 502.358 174 506.832 174 514.966 L174 700 C174 727.599 151.599 750 124 750 C96.4015 750 74 727.599 74 700 L74 50 C74 22.4015 96.4015 0 124 0 L160.5 0 C167.952 0 174 6.0484 174 13.5 L174 13.5 Z M174 260 C174 403 201 422 290 422 C405 422 440 384 440 260 C440 132 405 93 292 93 C202 93 174 113 174 260 L174 260 Z " />
<glyph glyph-name="c" unicode="c" horiz-adv-x="561" d="M401.603 150.149 C380.472 111.932 350.05 99 289 99 C193 99 163 118 163 260 C163 407 193 427 289 427 C357.4 427 377.065 405.34 411.441 337.156 C414.064 331.953 422.322 328.528 427.556 331.09 C443.037 338.669 458.519 346.667 474 354 L502 368 C517.968 375.984 522.465 397.575 514.072 413.332 C467.56 500.65 428.5 529 289 529 C109 529 54 497 54 260 C54 23 109 -9 289 -9 C411.925 -9 472.232 12.0994 509.79 75.0742 C527.721 105.139 515.119 128.737 483.649 144.068 L442.726 164.006 C429.149 170.62 408.911 163.365 401.603 150.149 L401.603 150.149 Z " />
<glyph glyph-name="d" unicode="d" horiz-adv-x="585" d="M163 260 C163 384 197 422 306 422 C389 422 415 384 415 260 C415 136 389 98 306 98 C197 98 163 136 163 260 L163 260 Z M54 260 C54 54 103 -9 263 -9 C325.125 -9 370.406 0.1875 402.863 23.9219 C408.111 27.7596 416 24.0017 416 17.5 C416 7.84052 423.841 0 433.5 0 L466 0 C493.599 0 516 22.4015 516 50 L516 700 C516 727.599 493.599 750 466 750 C438.402 750 416 727.599 416 700 L416 507.984 C416 499.685 404.128 495.478 397.173 500.005 C365.176 520.832 321.575 529 263 529 C103 529 54 466 54 260 L54 260 Z " />
<glyph glyph-name="e" unicode="e" horiz-adv-x="568" d="M407.732 144.942 C390.669 110.571 360.35 99 296 99 C213.5 99 177.283 111.251 166.571 190.221 C161.401 228.343 186.433 250 224.904 250 L490.56 250 C525.556 250 552.328 274.593 551.211 309.571 C545.91 475.54 509.1 529 303 529 C113 529 54 497 54 260 C54 23 111 -9 296 -9 C426.35 -9 487.957 12.0994 520.688 76.1972 C536.814 107.776 522.326 129.088 489.273 141.927 L443.121 159.854 C431.248 164.466 413.396 156.351 407.732 144.942 L407.732 144.942 Z M414.531 341 L205.567 341 C180.817 341 168.527 355.917 178.96 378.36 C198 419.32 235.6 427 302 427 C383.675 427 421.45 412.026 438.346 370.848 C446.257 351.57 435.369 341 414.531 341 L414.531 341 Z " />
<glyph glyph-name="f" unicode="f" horiz-adv-x="399" d="M214 50 L214 360.5 C214 392.238 239.762 418 271.5 418 L278 418 C306.15 418 329 440.85 329 469 C329 497.15 306.15 520 278 520 L264 520 C236.402 520 214 542.402 214 570 L214 620 C214 641 219 643 269 643 L279 642.5 L304 642.25 C317.799 642.112 329 653.202 329 667.001 L329 702.5 C329 728.719 307.719 750 281.5 750 L234 750 C124 750 114 739 114 620 L114 562 C114 538.817 95.1827 520 72 520 C48.8173 520 30 501.183 30 478 L30 460 C30 436.817 48.8173 418 72 418 C95.1827 418 114 399.183 114 376 L114 50 C114 22.4015 136.402 0 164 0 C191.599 0 214 22.4015 214 50 L214 50 Z " />
<glyph glyph-name="g" unicode="g" horiz-adv-x="575" d="M49.942 -100.889 C65.2675 -197.885 127.7 -208 279 -208 C486 -208 505 -149 505 43 L505 470 C505 497.599 482.599 520 455 520 L422 520 C412.617 520 405 512.383 405 503 C405 496.671 397.384 492.999 392.285 496.748 C360.922 519.813 317.5 529 258 529 C102 529 54 507 54 260 C54 21 102 0 258 0 C315.8 0 358.428 8.67 389.567 29.6947 C396.058 34.0772 405 28.8318 405 21 L405 0 C405 -78 394 -102 267 -102 C218.2 -102 196.28 -98.8 189.464 -68.848 C186.796 -57.122 171.026 -41 159 -41 L107.44 -41 C68.2343 -41 43.8233 -62.1641 49.942 -100.889 L49.942 -100.889 Z M163 260 C163 409 195 422 301 422 C381 422 405 384 405 260 C405 143 381 107 301 107 C195 107 163 120 163 260 L163 260 Z " />
<glyph glyph-name="h" unicode="h" horiz-adv-x="551" d="M481 50 L481 315 C481 492 444 525 324 525 C264.6 525 221.535 517.513 191.436 498.609 C185.099 494.629 174 498.38 174 505.863 L174 700 C174 727.599 151.599 750 124 750 C96.4015 750 74 727.599 74 700 L74 50 C74 22.4015 96.4015 0 124 0 C151.599 0 174 22.4015 174 50 L174 326 C174 388 198 407 274 407 C356 407 381 392 381 315 L381 50 C381 22.4015 403.402 0 431 0 C458.599 0 481 22.4015 481 50 L481 50 Z " />
<glyph glyph-name="i" unicode="i" horiz-adv-x="247" d="M127 600 C156.806 600 181 624.194 181 654 L181 655 C181 684.806 156.806 709 127 709 C97.1936 709 73 684.806 73 655 L73 654 C73 624.194 97.1936 600 127 600 L127 600 Z M177 50 L177 470 C177 497.599 154.599 520 127 520 C99.4015 520 77 497.599 77 470 L77 50 C77 22.4015 99.4015 0 127 0 C154.599 0 177 22.4015 177 50 L177 50 Z " />
<glyph glyph-name="j" unicode="j" horiz-adv-x="247" d="M127 600 C156.806 600 181 624.194 181 654 L181 655 C181 684.806 156.806 709 127 709 C97.1936 709 73 684.806 73 655 L73 654 C73 624.194 97.1936 600 127 600 L127 600 Z M-8 -92.5 L-8 -148 C-8 -167.319 7.68105 -183 27 -183 L62 -183 C176 -183 177 0 177 0 L177 470 C177 497.599 154.599 520 127 520 C99.4015 520 77 497.599 77 470 L77 0 C77 0 77 -75 27 -75 L9.5 -75 C-0.159475 -75 -8 -82.8405 -8 -92.5 L-8 -92.5 Z " />
<glyph glyph-name="k" unicode="k" horiz-adv-x="519" d="M484 50 L346.492 325.016 C340.047 337.906 344.931 361.23 354.915 371.624 C386.673 404.686 418 438.179 450 471 C457.2 478.2 487.08 508.89 495.9 517.872 C496.671 518.657 496.271 520 495.172 520 L365.377 520 C354.819 520 346.201 527.582 338.93 519.926 C337.121 518.021 300.875 479.85 296 474 L235 409 C211.959 384.448 174 399.47 174 433.14 L174 700 C174 727.599 151.599 750 124 750 C96.4015 750 74 727.599 74 700 L74 50 C74 22.4015 96.4015 0 124 0 C151.599 0 174 22.4015 174 50 L174 159.978 C174 169.627 184.74 195.999 191.481 202.903 L215.5 227.5 C237.076 249.596 269.526 244.379 283.09 216.635 L372.155 34.4549 C380.508 17.3694 408.334 0 427.352 0 L481.719 0 C495.243 0 514.906 -12.0546 508.956 0.0903594 C507.814 2.42 484.975 49.025 484 50 L484 50 Z " />
<glyph glyph-name="l" unicode="l" horiz-adv-x="247" d="M177 50 L177 700 C177 727.599 154.599 750 127 750 C99.4015 750 77 727.599 77 700 L77 50 C77 22.4015 99.4015 0 127 0 C154.599 0 177 22.4015 177 50 L177 50 Z " />
<glyph glyph-name="m" unicode="m" horiz-adv-x="827" d="M762 49.5 L762 315 C762 492 727 525 612 525 C542.7 525 497.222 513.429 468.827 483.55 C463.106 477.529 445.029 478.667 440.079 485.337 C416.701 516.832 378.4 525 319 525 C260.35 525 218.318 517.053 189.218 497.473 C184.068 494.008 175 496.793 175 503 C175 512.383 167.383 520 158 520 L125 520 C97.4015 520 75 497.599 75 470 L75 50 C75 22.4015 97.4015 0 125 0 C152.599 0 175 22.4015 175 50 L175 326 C175 388 197 407 269 407 C348 407 372 392 372 315 L372 50 C372 22.4015 394.402 0 422 0 C449.599 0 472 22.4015 472 50 L472 315 C472 384 487 407 563 407 C640 407 663 392 663 315 L663 49.5 C663 22.1775 685.177 0 712.5 0 C739.823 0 762 22.1775 762 49.5 L762 49.5 Z " />
<glyph glyph-name="n" unicode="n" horiz-adv-x="546" d="M481 50 L481 315 C481 492 444 525 324 525 C261 525 216.375 516.578 186.105 495.045 C180.831 491.293 174 496.028 174 502.5 C174 512.159 166.159 520 156.5 520 L124 520 C96.4015 520 74 497.599 74 470 L74 50 C74 22.4015 96.4015 0 124 0 C151.599 0 174 22.4015 174 50 L174 326 C174 388 198 407 274 407 C356 407 381 392 381 315 L381 50 C381 22.4015 403.402 0 431 0 C458.599 0 481 22.4015 481 50 L481 50 Z " />
<glyph glyph-name="o" unicode="o" horiz-adv-x="590" d="M163 260 C163 412 194 433 297 433 C415 433 431 392 431 260 C431 108 400 87 297 87 C179 87 163 128 163 260 L163 260 Z M54 260 C54 54 83 -9 297 -9 C483 -9 540 23 540 260 C540 466 511 529 297 529 C111 529 54 497 54 260 L54 260 Z " />
<glyph glyph-name="p" unicode="p" horiz-adv-x="599" d="M174 -105 L174 5.03412 C174 13.1681 185.887 17.6418 193.011 13.7159 C225.585 -4.23562 271.125 -9 333 -9 C498 -9 549 54 549 260 C549 466 498 529 333 529 C265.5 529 217.44 523.33 184.446 501.055 C180.088 498.113 174 501.242 174 506.5 C174 513.952 167.952 520 160.5 520 L124 520 C96.4015 520 74 497.599 74 470 L74 -105 C74 -132.599 96.4015 -155 124 -155 C151.599 -155 174 -132.599 174 -105 L174 -105 Z M174 260 C174 403 201 422 290 422 C405 422 440 384 440 260 C440 136 405 98 290 98 C201 98 174 117 174 260 L174 260 Z " />
<glyph glyph-name="q" unicode="q" horiz-adv-x="585" d="M163 260 C163 384 197 422 306 422 C389 422 415 384 415 260 C415 136 389 98 306 98 C197 98 163 136 163 260 L163 260 Z M54 260 C54 54 103 -9 263 -9 C321.575 -9 365.176 -0.8325 397.173 19.9946 C404.128 24.5218 416 20.3151 416 12.0163 L416 -105 C416 -132.599 438.402 -155 466 -155 C493.599 -155 516 -132.599 516 -105 L516 470 C516 497.599 493.599 520 466 520 L433.5 520 C423.841 520 416 512.159 416 502.5 C416 495.998 408.111 492.24 402.863 496.078 C370.406 519.813 325.125 529 263 529 C103 529 54 466 54 260 L54 260 Z " />
<glyph glyph-name="r" unicode="r" horiz-adv-x="370" d="M350 390.511 L350 475.5 C350 501.403 332.123 520.333 306.259 518.92 C253.794 516.052 215.647 507.136 189.05 488.174 C182.569 483.553 173 489.541 173 497.5 C173 510.471 162.471 521 149.5 521 L123 521 C95.4015 521 73 498.599 73 471 L73 51 C73 23.4015 95.4015 1 123 1 C150.599 1 173 23.4015 173 51 L173 237 C173 346 186 380 327 380 L338.5 379.5 C344.842 379.224 350 384.163 350 390.511 L350 390.511 Z " />
<glyph glyph-name="s" unicode="s" horiz-adv-x="494" d="M403 365 L429.5 377 C445.052 384.042 449.985 402.931 442.114 418.08 C400.03 499.08 352.6 525 259 525 C108 525 62 490 62 378 C62 274 91 238 243 215 C345 200 364 182 364 133 C364 105 338 97 252 97 C193.1 97 167.593 113.245 145.469 165.455 C143.231 170.738 138.508 172.788 133.114 170.83 C116.096 164.652 99.1852 157.963 83 152 L53 140.5 C35.0274 133.61 26.8346 117.817 35.217 100.49 C73.62 21.11 129.6 -4 252 -4 C414 -4 464 30 464 142 C464 244 433 280 267 305 C175 319 158 337 158 386 C158 418 182 428 259 428 C296.05 428 316.855 409.95 344.564 350.701 C346.854 345.804 352.392 342.503 357.308 344.752 C372.538 351.722 387.769 359.077 403 365 L403 365 Z " />
<glyph glyph-name="t" unicode="t" horiz-adv-x="345" d="M264 520 L256 520 C223.434 520 197 546.434 197 579 L197 673.701 C197 701.299 168.132 714.751 147 697 L118.922 673.415 C109.657 665.632 97 638.47 97 626.37 L97 563.5 C97 539.489 77.5107 520 53.5 520 C29.4893 520 10 500.511 10 476.5 L10 461.5 C10 437.489 29.4893 418 53.5 418 C77.5107 418 97 398.511 97 374.5 L97 143 C97 6 73 0 206 0 L261.5 0 C291.03 0 315 23.9696 315 53.5 L315 81 C315 95.3512 303.351 107 289 107 L263 107 C182 107 197 109 197 143 L197 359 C197 391.566 223.434 418 256 418 L264 418 C292.15 418 315 440.85 315 469 C315 497.15 292.15 520 264 520 L264 520 Z " />
<glyph glyph-name="u" unicode="u" horiz-adv-x="543" d="M473 50 L473 470 C473 497.599 450.599 520 423 520 C395.402 520 373 497.599 373 470 L373 228 C373 137 350 109 274 109 C170 109 169 122 169 194 L169 470 C169 497.599 146.599 520 119 520 C91.4015 520 69 497.599 69 470 L69 194 C69 23 70 -9 233 -9 C291.65 -9 332.237 1.8375 359.675 29.6537 C364.344 34.3871 373 29.6486 373 23 C373 10.3047 383.305 0 396 0 L423 0 C450.599 0 473 22.4015 473 50 L473 50 Z " />
<glyph glyph-name="v" unicode="v" horiz-adv-x="499" d="M486 511 L487.5 515 C488.275 517.067 486.936 519 484.728 519 L350.732 519 C346.04 519 341.075 515.067 340 510.5 L338 502 L282.394 307.925 C268.752 260.31 202.82 260.187 189 307.75 L142 469.5 L135 494.25 C131.277 507.412 115.957 518.947 102.279 518.886 L41.1687 518.616 C27.4869 518.555 19.0559 506.69 23.5 493.75 L32 469 L177.825 40.6401 C185.232 18.8822 213.003 -1 235.987 -1 L263.393 -1 C286.114 -1 313.893 18.7154 321.391 40.1635 L486 511 L486 511 Z " />
<glyph glyph-name="w" unicode="w" horiz-adv-x="734" d="M718.901 520 L590.099 520 C587.444 520 584.363 516.985 583.761 514.399 C580.612 500.878 574 475.286 574 471 L537 309.5 C527.409 267.636 468.014 266.494 456.821 307.959 L416.424 457.613 C415.17 462.256 415.308 485.706 416.616 490.334 L418.5 497 C421.953 509.217 413.794 520 401.099 520 L359.203 520 C334.028 520 306.324 498.716 299.838 474.391 L256.027 310.1 C244.378 266.417 182.216 267.079 171.5 311 L131 477 L128 489 L124 505 C121.858 513.568 112.339 521 103.508 521 L16.1623 521 C14.5692 521 13.424 519.725 13.8482 518.189 C15.3174 512.871 17.0313 504.75 28 471 L155.864 44.7853 C162.809 21.6364 190.545 1 214.713 1 L228.852 1 C253.315 1 281.042 21.8258 287.858 45.3207 L322 163 C335.884 210.857 402.116 210.857 416 163 L450.142 45.3207 C456.958 21.8258 484.685 1 509.148 1 L523.287 1 C547.455 1 575.191 21.6364 582.136 44.7853 L710 471 C711.778 476.333 720.272 503 723.542 515.883 C724.249 518.67 721.776 520 718.901 520 L718.901 520 Z " />
<glyph glyph-name="x" unicode="x" horiz-adv-x="498" d="M455.942 52.9456 L327.972 236.119 C316.364 252.735 315.319 285.947 325.861 303.26 L426.335 468.265 C426.347 468.285 430.005 473.848 430.018 473.867 C436.192 483.133 451.709 508.867 457.278 518.133 C457.99 519.316 457.465 521 456.085 521 L328.727 521 C315.204 521 292.061 508.033 285 496.5 L270 472 L245.5 432 C233.1 411.756 207.715 410.979 194.101 430.428 L165 472 C161.485 477.273 143.297 504.169 133.51 516.72 C131.757 518.967 126.829 521 123.979 521 L36.7595 521 C23.3742 521 16.4913 507.657 24.25 496.75 L41.5 472.5 L141.674 330.958 C153.493 314.259 154.641 280.986 144.002 263.512 L15.665 52.7346 C15.653 52.7149 11.9949 47.1522 11.9822 47.1331 C5.80796 37.8669 -9.70919 12.1331 -15.2785 2.86694 C-15.9896 1.6837 -15.465 0 -14.0845 0 L113.273 0 C126.796 0 149.939 12.9667 157 24.5 L172 49 L210.5 112 C230.007 143.921 269.995 145.238 291.56 114.668 L340 46 C344 41 373 0 373 0 C373 0 371.33 0 398.11 0 L491.394 0 C493.062 0 493.672 1.9668 492.728 3.34185 C486.173 12.8876 469.912 36.0616 461.551 46.4538 C461.503 46.5143 455.987 52.882 455.942 52.9456 L455.942 52.9456 Z " />
<glyph glyph-name="y" unicode="y" horiz-adv-x="498" d="M30 470 L183.404 -1.03047 C184.234 -3.57828 184.299 -14.4425 183.5 -17 L181 -25 C161 -87 160 -87 98 -87 L73 -87 C59.2007 -87 48 -98.2007 48 -112 L48 -175 C48 -188.799 59.2007 -200 73 -200 L98 -200 C241 -200 242 -199 283 -74 L470 470.5 L478 494.75 C482.203 507.49 473.88 519.082 460.465 519.174 L364.72 519.825 C351.033 519.918 335.725 508.421 332 495.25 L325 470.5 L277.5 307.25 C263.68 259.753 197.607 260.119 184.315 307.767 L138.5 472 L133 491 C129 507 125 520 125 520 C125 520 123.282 520 118.199 520 L14.6926 520 C13.352 520 12.2998 519.23 12.7454 517.966 C16.3229 507.813 28.5833 470 29.5 470 L30 470 Z " />
<glyph glyph-name="z" unicode="z" horiz-adv-x="460" d="M96 418 L168.5 418 C222.437 418 249.461 362.959 216.478 320.283 L42.8266 95.5963 C38.4971 89.9944 30 65.1047 30 58.0248 L30 39.5 C30 17.6972 47.6972 0 69.5 0 L389 0 C417.15 0 440 22.8495 440 51 C440 79.1505 417.15 102 389 102 L283.599 102 C228.703 102 201.365 158.329 235.332 201.456 L410.827 424.275 C415.326 429.987 424 455.019 424 462.29 L424 480.5 C424 502.303 406.303 520 384.5 520 L96 520 C67.8495 520 45 497.15 45 469 C45 440.85 67.8495 418 96 418 L96 418 Z " />
<glyph glyph-name="braceleft" unicode="&#x7b;" horiz-adv-x="337" d="M279 750 L237 750 C154 750 128 723 128 633 L128 398 C128 357.575 114.388 345.056 79.8628 341.912 C68.1164 340.842 55 329.295 55 317.5 C55 305.705 68.1164 294.158 79.8628 293.088 C114.387 289.944 128 277.425 128 237 L128 2 C128 -88 154 -115 237 -115 L278.5 -115 C294.231 -115 307 -102.231 307 -86.5 C307 -70.7689 294.231 -58 278.5 -58 L237 -58 C203 -58 193 -44 193 2 L193 225 C193 273.675 185.513 299.889 165.486 312.066 C162.641 313.796 162.641 322.204 165.486 323.934 C185.513 336.111 193 362.325 193 411 L193 634 C193 680 203 694 237 694 L279 694 C294.455 694 307 706.545 307 722 C307 737.455 294.455 750 279 750 L279 750 Z " />
<glyph glyph-name="bar" unicode="&#x7c;" horiz-adv-x="155" d="M45 767.5 L45 -217.5 C45 -235.439 59.561 -250 77.5 -250 C95.439 -250 110 -235.439 110 -217.5 L110 767.5 C110 785.439 95.439 800 77.5 800 C59.561 800 45 785.439 45 767.5 L45 767.5 Z " />
<glyph glyph-name="braceright" unicode="&#x7d;" horiz-adv-x="337" d="M30 721.5 C30 705.769 42.7689 693 58.5 693 L100 693 C134 693 144 679 144 633 L144 410 C144 361.325 151.487 335.111 171.514 322.934 C174.359 321.204 174.359 312.796 171.514 311.066 C151.487 298.889 144 272.675 144 224 L144 1 C144 -45 134 -59 100 -59 L58.5 -59 C42.7689 -59 30 -71.7689 30 -87.5 C30 -103.231 42.7689 -116 58.5 -116 L100 -116 C183 -116 209 -89 209 1 L209 236 C209 276.425 222.612 288.944 257.137 292.088 C268.884 293.158 282 304.705 282 316.5 C282 328.295 268.884 339.842 257.137 340.912 C222.612 344.056 209 356.575 209 397 L209 632 C209 722 183 749 100 749 L58.4971 749.593 C42.7692 749.818 30 737.23 30 721.5 L30 721.5 Z " />
<glyph glyph-name="asciitilde" unicode="&#x7e;" horiz-adv-x="340" d="M90.656 287.04 C92.48 317.76 98.4 328 112 328 C154 328 178 251 235 251 C232 251 228 329 228 329 C228 329 231.454 290.516 231.491 290.105 L231.961 284.864 C234.085 261.195 243.484 248.529 266.521 254.36 C303.164 263.633 319.005 293.339 322.965 358.57 C324.277 380.191 308.66 397 287 397 L276 397 C262.499 397 250.144 383.437 249.344 369.96 C247.919 345.96 243.994 334.46 235.86 330.577 C229.098 327.349 232.785 323.48 227.877 329.142 C224.706 332.802 160.575 406 105 406 C106.7 406 107.678 392.272 108.547 376.486 C108.554 376.359 108.28 377.358 108.27 377.485 L107.5 387.5 C106.565 399.653 99.0819 407.424 86.984 405.936 C41.3675 400.325 22.4187 371.65 18.0352 299.43 C16.7395 278.084 32.1171 260.793 53.5 260.5 L64.0024 260.356 C77.5117 260.171 89.8552 273.553 90.656 287.04 L90.656 287.04 Z " />
<glyph glyph-name="nbspace" unicode="&#xa0;" horiz-adv-x="220" d="" />
<glyph glyph-name="exclamdown" unicode="&#xa1;" horiz-adv-x="208" d="M50 696 L50 695 C50 665.194 74.1936 641 104 641 C133.806 641 158 665.194 158 695 L158 696 C158 725.806 133.806 750 104 750 C74.1936 750 50 725.806 50 696 L50 696 Z M104 0 C136.566 0 163 26.4338 163 59 L163 304.298 C163 304.877 162.057 315.036 161.951 315.605 L121.761 530.256 C120.263 538.255 112.138 545 104 545 C95.8619 545 87.7372 538.255 86.2395 530.256 L46.0494 315.605 C45.9428 315.036 45 304.877 45 304.298 L45 59 C45 26.4338 71.4338 0 104 0 L104 0 Z " />
<glyph glyph-name="cent" unicode="&#xa2;" horiz-adv-x="561" d="M256 562 C256 544.72 240.345 528.706 223.114 527.399 C95.07 517.688 54 466.35 54 261 C54 55.65 95.07 4.3125 223.114 -5.39884 C240.345 -6.70571 256 -22.7195 256 -40 C256 -58.215 270.785 -73 289 -73 C307.215 -73 322 -58.215 322 -40 L322 -39.5 C322 -22.1394 340.059 -5.33026 357.336 -3.63 C437.637 4.2725 481.985 28.4694 511.721 80.393 C527.461 107.877 515.963 130.326 487.489 144.197 L437.887 168.363 C426.206 174.053 409.815 167.863 403.973 156.258 C390.697 129.889 373.683 114.463 346.887 106.684 C331.745 102.288 323 111.412 323 127.179 L323 402.655 C323 417.569 330.978 425.566 344.797 419.958 C373.825 408.177 390.345 383.092 413.442 336.325 C416.025 331.095 423.317 329.526 428.556 332.09 C444.037 339.669 459.519 347.667 475 355 L503 369 C518.902 376.951 524.495 396.522 516.212 412.253 C477.828 485.157 445.332 517.933 358.308 527.477 C341.274 529.345 323 546.363 323 563.5 C323 581.983 307.989 596.552 289.515 596 L288.985 595.985 C270.787 595.441 256 580.207 256 562 L256 562 Z M224.439 107.73 C179.654 121.379 164 159.7 164 262 C164 368.425 179.654 408.149 224.44 422.162 C246.499 429.064 257 415.986 257 392.872 L257 137.128 C257 114.141 246.429 101.029 224.439 107.73 L224.439 107.73 Z " />
<glyph glyph-name="guillemotleft" unicode="&#xab;" horiz-adv-x="546" d="M373.761 442.641 L274.721 294.081 C263.144 276.716 263.144 243.284 274.721 225.919 L373.761 77.3592 C382.137 64.794 409.78 50 424.882 50 L435.5 50 C455.478 50 465.952 69.5714 454.871 86.1942 L361.721 225.919 C350.144 243.284 350.144 276.716 361.721 294.081 L454.871 433.806 C465.952 450.429 455.478 470 435.5 470 L424.882 470 C409.78 470 382.137 455.206 373.761 442.641 L373.761 442.641 Z M194.761 442.641 L95.7205 294.081 C84.1442 276.716 84.1442 243.284 95.7205 225.919 L194.761 77.3592 C203.137 64.794 230.78 50 245.882 50 L256.5 50 C276.478 50 286.952 69.5714 275.871 86.1942 L182.721 225.919 C171.144 243.284 171.144 276.716 182.721 294.081 L275.871 433.806 C286.952 450.429 276.478 470 256.5 470 L245.882 470 C230.78 470 203.137 455.206 194.761 442.641 L194.761 442.641 Z " />
<glyph glyph-name="logicalnot" unicode="&#xac;" horiz-adv-x="530" d="M480 120.44 L480 255.56 C480 289.473 452.473 317 418.56 317 L104 317 C74.1936 317 50 292.806 50 263 C50 233.194 74.1936 209 104 209 L288.56 209 C322.473 209 350 181.473 350 147.56 L350 120.44 C350 86.527 377.527 59 411.44 59 L418.56 59 C452.473 59 480 86.527 480 120.44 L480 120.44 Z " />
<glyph glyph-name="acute" unicode="&#xb4;" horiz-adv-x="340" d="M170 600 L181.995 600 C197.9 600 225.611 615.337 234.057 628.814 L275.484 694.921 C291.628 720.683 275.402 750 245 750 L222.644 750 C200.593 750 172.798 730.708 165.085 710.049 L140.089 643.095 C131.769 620.81 146.213 600 170 600 L170 600 Z " />
<glyph glyph-name="periodcentered" unicode="&#xb7;" horiz-adv-x="208" d="M104 206 L105 206 C134.806 206 159 230.194 159 260 C159 289.806 134.806 314 105 314 L104 314 C74.1936 314 50 289.806 50 260 C50 230.194 74.1936 206 104 206 L104 206 Z " />
<glyph glyph-name="guillemotright" unicode="&#xbb;" horiz-adv-x="528" d="M265.129 433.806 L358.279 294.081 C369.856 276.716 369.856 243.284 358.279 225.919 L265.129 86.1942 C254.048 69.5714 264.522 50 284.5 50 L295.118 50 C310.22 50 337.863 64.794 346.239 77.3592 L445.279 225.919 C456.856 243.284 456.856 276.716 445.279 294.081 L346.239 442.641 C337.863 455.206 310.22 470 295.118 470 L284.5 470 C264.522 470 254.048 450.429 265.129 433.806 L265.129 433.806 Z M86.1295 433.806 L179.279 294.081 C190.856 276.716 190.856 243.284 179.279 225.919 L86.1295 86.1942 C75.0476 69.5714 85.5219 50 105.5 50 L116.118 50 C131.22 50 158.863 64.794 167.239 77.3592 L266.279 225.919 C277.856 243.284 277.856 276.716 266.279 294.081 L167.239 442.641 C158.863 455.206 131.22 470 116.118 470 L105.5 470 C85.5219 470 75.0476 450.429 86.1295 433.806 L86.1295 433.806 Z " />
<glyph glyph-name="questiondown" unicode="&#xbf;" horiz-adv-x="550" d="M244 750 C214.194 750 190 725.806 190 696 L190 695 C190 665.194 214.194 641 244 641 C273.806 641 298 665.194 298 695 L298 696 C298 725.806 273.806 750 244 750 L244 750 Z M448 199.5 C425.624 203.462 397.908 180.857 392.272 158.842 C375.022 91.4606 331.875 69 237 69 C135 69 104 99 104 195 C104 258 111 268 187 313 C287.8 372.4 292.21 365.38 292.084 496.06 C292.058 522.529 270.469 545 244 545 C217.617 545 196.189 522.551 196.078 496.168 C195.752 419.205 189.25 421.5 117 379 C10 316 0 301 0 195 C0 39 56 -9 237 -9 C398.875 -9 465.813 26.9844 488.727 138.479 C494.82 168.126 477.803 194.222 448 199.5 L448 199.5 Z " />
<glyph glyph-name="Agrave" unicode="&#xc0;" horiz-adv-x="716" d="M349.005 830 L361 830 C384.787 830 399.231 850.81 390.911 873.095 L365.915 940.049 C358.202 960.708 330.407 980 308.356 980 L286 980 C255.598 980 239.372 950.683 255.516 924.921 L296.943 858.814 C305.389 845.337 333.1 830 349.005 830 L349.005 830 Z M278 700 L33.3409 72.6691 C18.7667 35.2993 42.8889 0 83 0 L134.723 0 C148.246 0 165.611 11.8914 170.5 24.5 L180 49 L229.285 179.081 C229.33 179.199 229.544 179.119 229.5 179 C223.549 162.957 233.953 148 251.064 148 L487.497 148 C509.45 148 537.247 128.77 544.989 108.228 L567.5 48.5 L576.75 24.25 C581.52 11.7437 598.569 0 611.954 0 L680.279 0 C693.526 0 701.514 11.639 696.75 24 L687.5 48 L438.502 699.001 C436.107 705.262 436.106 726.739 438.5 733 C441.851 741.765 436.183 750 426.8 750 L298 750 C297 746 278.5 700 278.5 700 L278 700 Z M291.383 343.138 L317 411 C337.79 466.077 410.21 466.077 431 411 L456.617 343.138 C472.823 300.205 445.025 260 399.136 260 L348.864 260 C302.975 260 275.177 300.205 291.383 343.138 L291.383 343.138 Z " />
<glyph glyph-name="Aacute" unicode="&#xc1;" horiz-adv-x="716" d="M361 830 L372.995 830 C388.9 830 416.611 845.337 425.057 858.814 L466.484 924.921 C482.628 950.683 466.402 980 436 980 L413.644 980 C391.593 980 363.798 960.708 356.085 940.049 L331.089 873.095 C322.769 850.81 337.213 830 361 830 L361 830 Z M278 700 L33.3409 72.6691 C18.7667 35.2993 42.8889 0 83 0 L134.723 0 C148.246 0 165.611 11.8914 170.5 24.5 L180 49 L229.285 179.081 C229.33 179.199 229.544 179.119 229.5 179 C223.549 162.957 233.953 148 251.064 148 L487.497 148 C509.45 148 537.247 128.77 544.989 108.228 L567.5 48.5 L576.75 24.25 C581.52 11.7437 598.569 0 611.954 0 L680.279 0 C693.526 0 701.514 11.639 696.75 24 L687.5 48 L438.502 699.001 C436.107 705.262 436.106 726.739 438.5 733 C441.851 741.765 436.183 750 426.8 750 L298 750 C297 746 278.5 700 278.5 700 L278 700 Z M291.383 343.138 L317 411 C337.79 466.077 410.21 466.077 431 411 L456.617 343.138 C472.823 300.205 445.025 260 399.136 260 L348.864 260 C302.975 260 275.177 300.205 291.383 343.138 L291.383 343.138 Z " />
<glyph glyph-name="Acircumflex" unicode="&#xc2;" horiz-adv-x="716" d="M373.008 898.906 C402.484 885.125 440 830 440 830 C440 830 438.592 830 472.505 830 L485.5 830 C505.111 830 514.827 850.216 502.576 865.53 L429.447 956.941 C421.496 966.88 394.198 980 381.47 980 L340.53 980 C327.802 980 300.504 966.88 292.553 956.941 L219.424 865.53 C207.173 850.216 216.889 830 236.5 830 L258.202 830 C267.051 830 293.049 840.07 299.589 846.03 L349.914 891.896 C359.642 900.762 361.084 904.481 373.008 898.906 L373.008 898.906 Z M278 700 L33.3409 72.6691 C18.7667 35.2993 42.8889 0 83 0 L134.723 0 C148.246 0 165.611 11.8914 170.5 24.5 L180 49 L229.285 179.081 C229.33 179.199 229.544 179.119 229.5 179 C223.549 162.957 233.953 148 251.064 148 L487.497 148 C509.45 148 537.247 128.77 544.989 108.228 L567.5 48.5 L576.75 24.25 C581.52 11.7437 598.569 0 611.954 0 L680.279 0 C693.526 0 701.514 11.639 696.75 24 L687.5 48 L438.502 699.001 C436.107 705.262 436.106 726.739 438.5 733 C441.851 741.765 436.183 750 426.8 750 L298 750 C297 746 278.5 700 278.5 700 L278 700 Z M291.383 343.138 L317 411 C337.79 466.077 410.21 466.077 431 411 L456.617 343.138 C472.823 300.205 445.025 260 399.136 260 L348.864 260 C302.975 260 275.177 300.205 291.383 343.138 L291.383 343.138 Z " />
<glyph glyph-name="Atilde" unicode="&#xc3;" horiz-adv-x="716" d="M281.656 857.04 C283.48 887.76 289.4 898 303 898 C345 898 369 821 426 821 C423 821 419 899 419 899 C419 899 422.454 860.516 422.491 860.105 L422.961 854.864 C425.085 831.195 434.484 818.529 457.521 824.36 C494.164 833.633 510.005 863.339 513.965 928.57 C515.277 950.191 499.66 967 478 967 L467 967 C453.499 967 441.144 953.437 440.344 939.96 C438.919 915.96 434.994 904.46 426.86 900.577 C420.098 897.349 423.785 893.48 418.877 899.142 C415.706 902.802 351.575 976 296 976 C297.7 976 298.678 962.272 299.547 946.486 C299.554 946.359 299.28 947.358 299.27 947.485 L298.5 957.5 C297.565 969.653 290.082 977.424 277.984 975.936 C232.367 970.325 213.419 941.65 209.035 869.43 C207.74 848.084 223.117 830.793 244.5 830.5 L255.002 830.356 C268.512 830.171 280.855 843.553 281.656 857.04 L281.656 857.04 Z M279 701 L34.3409 73.6691 C19.7667 36.2993 43.8889 1 84 1 L135.723 1 C149.246 1 166.611 12.8914 171.5 25.5 L181 50 L230.285 180.081 C230.33 180.199 230.544 180.119 230.5 180 C224.549 163.957 234.953 149 252.064 149 L488.497 149 C510.45 149 538.247 129.77 545.989 109.228 L568.5 49.5 L577.75 25.25 C582.52 12.7437 599.569 1 612.954 1 L681.279 1 C694.526 1 702.514 12.639 697.75 25 L688.5 49 L439.502 700.001 C437.107 706.262 437.106 727.739 439.5 734 C442.851 742.765 437.183 751 427.8 751 L299 751 C298 747 279.5 701 279.5 701 L279 701 Z M292.383 344.138 L318 412 C338.79 467.077 411.21 467.077 432 412 L457.617 344.138 C473.823 301.205 446.025 261 400.136 261 L349.864 261 C303.975 261 276.177 301.205 292.383 344.138 L292.383 344.138 Z " />
<glyph glyph-name="Adieresis" unicode="&#xc4;" horiz-adv-x="716" d="M438.5 830 C468.582 830 493 854.418 493 884.5 C493 914.582 468.582 939 438.5 939 C408.418 939 384 914.582 384 884.5 C384 854.418 408.418 830 438.5 830 L438.5 830 Z M283.5 830 C313.582 830 338 854.418 338 884.5 C338 914.582 313.582 939 283.5 939 C253.418 939 229 914.582 229 884.5 C229 854.418 253.418 830 283.5 830 L283.5 830 Z M278 700 L33.3409 72.6691 C18.7667 35.2993 42.8889 0 83 0 L134.723 0 C148.246 0 165.611 11.8914 170.5 24.5 L180 49 L229.285 179.081 C229.33 179.199 229.544 179.119 229.5 179 C223.549 162.957 233.953 148 251.064 148 L487.497 148 C509.45 148 537.247 128.77 544.989 108.228 L567.5 48.5 L576.75 24.25 C581.52 11.7437 598.569 0 611.954 0 L680.279 0 C693.526 0 701.514 11.639 696.75 24 L687.5 48 L438.502 699.001 C436.107 705.262 436.106 726.739 438.5 733 C441.851 741.765 436.183 750 426.8 750 L298 750 C297 746 278.5 700 278.5 700 L278 700 Z M291.383 343.138 L317 411 C337.79 466.077 410.21 466.077 431 411 L456.617 343.138 C472.823 300.205 445.025 260 399.136 260 L348.864 260 C302.975 260 275.177 300.205 291.383 343.138 L291.383 343.138 Z " />
<glyph glyph-name="Aring" unicode="&#xc5;" horiz-adv-x="716" d="M326 915 C326 946 333 953 361 953 C389 953 396 946 396 915 C396 882 390 876 361 876 C332 876 326 882 326 915 L326 915 Z M277 915 C277 843 290 830 361 830 C432 830 445 843 445 915 C445 982 428 999 361 999 C294 999 277 982 277 915 L277 915 Z M278 700 L33.3409 72.6691 C18.7667 35.2993 42.8889 0 83 0 L134.723 0 C148.246 0 165.611 11.8914 170.5 24.5 L180 49 L229.285 179.081 C229.33 179.199 229.544 179.119 229.5 179 C223.549 162.957 233.953 148 251.064 148 L487.497 148 C509.45 148 537.247 128.77 544.989 108.228 L567.5 48.5 L576.75 24.25 C581.52 11.7437 598.569 0 611.954 0 L680.279 0 C693.526 0 701.514 11.639 696.75 24 L687.5 48 L438.502 699.001 C436.107 705.262 436.106 726.739 438.5 733 C441.851 741.765 436.183 750 426.8 750 L298 750 C297 746 278.5 700 278.5 700 L278 700 Z M291.383 343.138 L317 411 C337.79 466.077 410.21 466.077 431 411 L456.617 343.138 C472.823 300.205 445.025 260 399.136 260 L348.864 260 C302.975 260 275.177 300.205 291.383 343.138 L291.383 343.138 Z " />
<glyph glyph-name="Ccedilla" unicode="&#xc7;" horiz-adv-x="722" d="M570.675 193.636 C530.829 130.099 480.875 109 386 109 C225 109 176 192 176 375 C176 558 225 641 386 641 C470.15 641 518.227 619.901 565.045 556.364 C581.966 533.4 617.508 528.721 639.438 546.963 L662.051 565.771 C686.302 585.943 693.479 615.301 675.051 640.902 C610.984 729.906 535.625 759 386 759 C134 759 56 639 56 375 C56 144.675 115.038 23.87 297.222 -3.24406 C320.536 -6.71386 338.276 -30.6477 332.5 -53.5 L322.241 -94.0919 C322.093 -94.6753 321.032 -98.4538 320.996 -99.0545 C320.924 -100.278 320.183 -121.695 356.682 -122.027 C358.409 -122.042 360.728 -120.545 361.5 -119 L361.586 -118.828 C361.696 -118.608 362.078 -118.766 362 -119 C361.954 -119.139 361.711 -119.069 361.745 -118.927 L367.94 -93.3733 C368.079 -92.7987 368.801 -92.7503 368.734 -93.3377 C367.964 -100.076 365.645 -107.663 363.437 -113.443 C363.354 -113.661 363.673 -114.587 363.825 -114.411 C368.293 -109.253 376.267 -107 391 -107 C419 -107 428 -118 428 -152 C428 -186 419 -197 388 -197 C356.821 -197 344.492 -190.268 343.833 -170.174 C343.648 -164.559 336.661 -161.505 332.231 -164.96 L310.557 -181.866 C299.418 -190.554 292.389 -198.119 294.583 -212.075 C298.476 -236.832 325 -245 391 -245 C462 -245 484 -223 484 -152 C484 -69 465 -44 402 -44 C393.818 -44 386.975 -44.6694 381.471 -46.556 C380.239 -46.9781 378.522 -46.0155 378.854 -44.7563 L383 -29 C385.628 -19.0135 391.27 -10.0214 401.595 -9.85491 C553.368 -7.40797 627.291 22.6023 678.637 108.426 C693.111 132.619 686.604 161.483 665.198 179.83 L636.629 204.318 C616.887 221.24 584.49 215.664 570.675 193.636 L570.675 193.636 Z " />
<glyph glyph-name="Egrave" unicode="&#xc8;" horiz-adv-x="628" d="M315.005 830 L327 830 C350.787 830 365.231 850.81 356.911 873.095 L331.915 940.049 C324.202 960.708 296.407 980 274.356 980 L252 980 C221.598 980 205.372 950.683 221.516 924.921 L262.943 858.814 C271.389 845.337 299.1 830 315.005 830 L315.005 830 Z M519 118 L264.44 118 C230.527 118 203 145.527 203 179.44 L203 269.56 C203 303.473 230.527 331 264.44 331 L487 331 C517.91 331 543 356.09 543 387 C543 417.91 517.91 443 487 443 L264.44 443 C230.527 443 203 470.527 203 504.44 L203 570.56 C203 604.473 230.527 632 264.44 632 L504 632 C536.566 632 563 658.434 563 691 C563 723.566 536.566 750 504 750 L152.44 750 C118.527 750 91 722.473 91 688.56 L91 61.44 C91 27.527 118.527 0 152.44 0 L519 0 C551.566 0 578 26.4338 578 59 C578 91.5662 551.566 118 519 118 L519 118 Z " />
<glyph glyph-name="Eacute" unicode="&#xc9;" horiz-adv-x="628" d="M327 830 L338.995 830 C354.9 830 382.611 845.337 391.057 858.814 L432.484 924.921 C448.628 950.683 432.402 980 402 980 L379.644 980 C357.593 980 329.798 960.708 322.085 940.049 L297.089 873.095 C288.769 850.81 303.213 830 327 830 L327 830 Z M519 118 L264.44 118 C230.527 118 203 145.527 203 179.44 L203 269.56 C203 303.473 230.527 331 264.44 331 L487 331 C517.91 331 543 356.09 543 387 C543 417.91 517.91 443 487 443 L264.44 443 C230.527 443 203 470.527 203 504.44 L203 570.56 C203 604.473 230.527 632 264.44 632 L504 632 C536.566 632 563 658.434 563 691 C563 723.566 536.566 750 504 750 L152.44 750 C118.527 750 91 722.473 91 688.56 L91 61.44 C91 27.527 118.527 0 152.44 0 L519 0 C551.566 0 578 26.4338 578 59 C578 91.5662 551.566 118 519 118 L519 118 Z " />
<glyph glyph-name="Ecircumflex" unicode="&#xca;" horiz-adv-x="628" d="M339.008 898.906 C368.484 885.125 406 830 406 830 C406 830 404.592 830 438.505 830 L451.5 830 C471.111 830 480.827 850.216 468.576 865.53 L395.447 956.941 C387.496 966.88 360.198 980 347.47 980 L306.53 980 C293.802 980 266.504 966.88 258.553 956.941 L185.424 865.53 C173.173 850.216 182.889 830 202.5 830 L224.202 830 C233.051 830 259.049 840.07 265.589 846.03 L315.914 891.896 C325.642 900.762 327.084 904.481 339.008 898.906 L339.008 898.906 Z M519 118 L264.44 118 C230.527 118 203 145.527 203 179.44 L203 269.56 C203 303.473 230.527 331 264.44 331 L487 331 C517.91 331 543 356.09 543 387 C543 417.91 517.91 443 487 443 L264.44 443 C230.527 443 203 470.527 203 504.44 L203 570.56 C203 604.473 230.527 632 264.44 632 L504 632 C536.566 632 563 658.434 563 691 C563 723.566 536.566 750 504 750 L152.44 750 C118.527 750 91 722.473 91 688.56 L91 61.44 C91 27.527 118.527 0 152.44 0 L519 0 C551.566 0 578 26.4338 578 59 C578 91.5662 551.566 118 519 118 L519 118 Z " />
<glyph glyph-name="Edieresis" unicode="&#xcb;" horiz-adv-x="628" d="M404.5 830 C434.582 830 459 854.418 459 884.5 C459 914.582 434.582 939 404.5 939 C374.418 939 350 914.582 350 884.5 C350 854.418 374.418 830 404.5 830 L404.5 830 Z M249.5 830 C279.582 830 304 854.418 304 884.5 C304 914.582 279.582 939 249.5 939 C219.418 939 195 914.582 195 884.5 C195 854.418 219.418 830 249.5 830 L249.5 830 Z M519 118 L264.44 118 C230.527 118 203 145.527 203 179.44 L203 269.56 C203 303.473 230.527 331 264.44 331 L487 331 C517.91 331 543 356.09 543 387 C543 417.91 517.91 443 487 443 L264.44 443 C230.527 443 203 470.527 203 504.44 L203 570.56 C203 604.473 230.527 632 264.44 632 L504 632 C536.566 632 563 658.434 563 691 C563 723.566 536.566 750 504 750 L152.44 750 C118.527 750 91 722.473 91 688.56 L91 61.44 C91 27.527 118.527 0 152.44 0 L519 0 C551.566 0 578 26.4338 578 59 C578 91.5662 551.566 118 519 118 L519 118 Z " />
<glyph glyph-name="Igrave" unicode="&#xcc;" horiz-adv-x="284" d="M131.005 830 L143 830 C166.787 830 181.231 850.81 172.911 873.095 L147.915 940.049 C140.202 960.708 112.407 980 90.3555 980 L68 980 C37.5983 980 21.3722 950.683 37.5159 924.921 L78.9429 858.814 C87.3886 845.337 115.1 830 131.005 830 L131.005 830 Z M199 55.5 L199 694.5 C199 725.134 174.134 750 143.5 750 C112.866 750 88 725.134 88 694.5 L88 55.5 C88 24.8657 112.866 0 143.5 0 C174.134 0 199 24.8657 199 55.5 L199 55.5 Z " />
<glyph glyph-name="Iacute" unicode="&#xcd;" horiz-adv-x="284" d="M143 830 L154.995 830 C170.9 830 198.611 845.337 207.057 858.814 L248.484 924.921 C264.628 950.683 248.402 980 218 980 L195.644 980 C173.593 980 145.798 960.708 138.085 940.049 L113.089 873.095 C104.769 850.81 119.213 830 143 830 L143 830 Z M199 55.5 L199 694.5 C199 725.134 174.134 750 143.5 750 C112.866 750 88 725.134 88 694.5 L88 55.5 C88 24.8657 112.866 0 143.5 0 C174.134 0 199 24.8657 199 55.5 L199 55.5 Z " />
<glyph glyph-name="Icircumflex" unicode="&#xce;" horiz-adv-x="284" d="M155.008 898.906 C184.484 885.125 222 830 222 830 C222 830 220.592 830 254.505 830 L267.5 830 C287.111 830 296.827 850.216 284.576 865.53 L211.447 956.941 C203.496 966.88 176.198 980 163.47 980 L122.53 980 C109.802 980 82.504 966.88 74.553 956.941 L1.42362 865.53 C-10.8274 850.216 -1.11124 830 18.5 830 L40.2024 830 C49.0506 830 75.049 840.07 81.5886 846.03 L131.914 891.896 C141.642 900.762 143.084 904.481 155.008 898.906 L155.008 898.906 Z M199 55.5 L199 694.5 C199 725.134 174.134 750 143.5 750 C112.866 750 88 725.134 88 694.5 L88 55.5 C88 24.8657 112.866 0 143.5 0 C174.134 0 199 24.8657 199 55.5 L199 55.5 Z " />
<glyph glyph-name="Idieresis" unicode="&#xcf;" horiz-adv-x="284" d="M220.5 830 C250.582 830 275 854.418 275 884.5 C275 914.582 250.582 939 220.5 939 C190.418 939 166 914.582 166 884.5 C166 854.418 190.418 830 220.5 830 L220.5 830 Z M65.5 830 C95.5824 830 120 854.418 120 884.5 C120 914.582 95.5824 939 65.5 939 C35.4176 939 11 914.582 11 884.5 C11 854.418 35.4176 830 65.5 830 L65.5 830 Z M199 55.5 L199 694.5 C199 725.134 174.134 750 143.5 750 C112.866 750 88 725.134 88 694.5 L88 55.5 C88 24.8657 112.866 0 143.5 0 C174.134 0 199 24.8657 199 55.5 L199 55.5 Z " />
<glyph glyph-name="Ntilde" unicode="&#xd1;" horiz-adv-x="755" d="M296.656 857.04 C298.48 887.76 304.4 898 318 898 C360 898 384 821 441 821 C438 821 434 899 434 899 C434 899 437.454 860.516 437.491 860.105 L437.961 854.864 C440.085 831.195 449.484 818.529 472.521 824.36 C509.164 833.633 525.005 863.339 528.965 928.57 C530.277 950.191 514.66 967 493 967 L482 967 C468.499 967 456.144 953.437 455.344 939.96 C453.919 915.96 449.994 904.46 441.86 900.577 C435.098 897.349 438.785 893.48 433.877 899.142 C430.706 902.802 366.575 976 311 976 C312.7 976 313.678 962.272 314.547 946.486 C314.554 946.359 314.28 947.358 314.27 947.485 L313.5 957.5 C312.565 969.653 305.082 977.424 292.984 975.936 C247.367 970.325 228.419 941.65 224.035 869.43 C222.74 848.084 238.117 830.793 259.5 830.5 L270.002 830.356 C283.512 830.171 295.855 843.553 296.656 857.04 L296.656 857.04 Z M410.016 392.33 L236.896 699.969 C234.758 703.767 229 725.742 229 730.1 L229 732.5 C229 742.711 220.711 751 210.5 751 L145.44 751 C111.527 751 84 723.473 84 689.56 L84 62.44 C84 28.527 111.527 1 145.44 1 L167.56 1 C201.473 1 229 28.527 229 62.44 L229 258.637 C229 322.101 312.842 344.081 343.978 288.779 L488.379 32.2977 C496.854 17.2442 524.642 1 541.917 1 L609.56 1 C643.473 1 671 28.527 671 62.44 L671 689.56 C671 723.473 643.473 751 609.56 751 L586.44 751 C552.527 751 525 723.473 525 689.56 L525 422.461 C525 358.993 441.142 337.019 410.016 392.33 L410.016 392.33 Z " />
<glyph glyph-name="Ograve" unicode="&#xd2;" horiz-adv-x="814" d="M398.005 830 L410 830 C433.787 830 448.231 850.81 439.911 873.095 L414.915 940.049 C407.202 960.708 379.407 980 357.356 980 L335 980 C304.598 980 288.372 950.683 304.516 924.921 L345.943 858.814 C354.389 845.337 382.1 830 398.005 830 L398.005 830 Z M181 375 C181 568 244 641 410 641 C576 641 639 568 639 375 C639 172 585 109 410 109 C235 109 181 172 181 375 L181 375 Z M61 375 C61 81 143 -9 410 -9 C677 -9 759 81 759 375 C759 654 664 759 410 759 C156 759 61 654 61 375 L61 375 Z " />
<glyph glyph-name="Oacute" unicode="&#xd3;" horiz-adv-x="814" d="M410 830 L421.995 830 C437.9 830 465.611 845.337 474.057 858.814 L515.484 924.921 C531.628 950.683 515.402 980 485 980 L462.644 980 C440.593 980 412.798 960.708 405.085 940.049 L380.089 873.095 C371.769 850.81 386.213 830 410 830 L410 830 Z M181 375 C181 568 244 641 410 641 C576 641 639 568 639 375 C639 172 585 109 410 109 C235 109 181 172 181 375 L181 375 Z M61 375 C61 81 143 -9 410 -9 C677 -9 759 81 759 375 C759 654 664 759 410 759 C156 759 61 654 61 375 L61 375 Z " />
<glyph glyph-name="Ocircumflex" unicode="&#xd4;" horiz-adv-x="814" d="M422.008 898.906 C451.484 885.125 489 830 489 830 C489 830 487.592 830 521.505 830 L534.5 830 C554.111 830 563.827 850.216 551.576 865.53 L478.447 956.941 C470.496 966.88 443.198 980 430.47 980 L389.53 980 C376.802 980 349.504 966.88 341.553 956.941 L268.424 865.53 C256.173 850.216 265.889 830 285.5 830 L307.202 830 C316.051 830 342.049 840.07 348.589 846.03 L398.914 891.896 C408.642 900.762 410.084 904.481 422.008 898.906 L422.008 898.906 Z M181 375 C181 568 244 641 410 641 C576 641 639 568 639 375 C639 172 585 109 410 109 C235 109 181 172 181 375 L181 375 Z M61 375 C61 81 143 -9 410 -9 C677 -9 759 81 759 375 C759 654 664 759 410 759 C156 759 61 654 61 375 L61 375 Z " />
<glyph glyph-name="Otilde" unicode="&#xd5;" horiz-adv-x="814" d="M330.656 857.04 C332.48 887.76 338.4 898 352 898 C394 898 418 821 475 821 C472 821 468 899 468 899 C468 899 471.454 860.516 471.491 860.105 L471.961 854.864 C474.085 831.195 483.484 818.529 506.521 824.36 C543.164 833.633 559.005 863.339 562.965 928.57 C564.277 950.191 548.66 967 527 967 L516 967 C502.499 967 490.144 953.437 489.344 939.96 C487.919 915.96 483.994 904.46 475.86 900.577 C469.098 897.349 472.785 893.48 467.877 899.142 C464.706 902.802 400.575 976 345 976 C346.7 976 347.678 962.272 348.547 946.486 C348.554 946.359 348.28 947.358 348.27 947.485 L347.5 957.5 C346.565 969.653 339.082 977.424 326.984 975.936 C281.368 970.325 262.419 941.65 258.035 869.43 C256.74 848.084 272.117 830.793 293.5 830.5 L304.002 830.356 C317.512 830.171 329.855 843.553 330.656 857.04 L330.656 857.04 Z M182 376 C182 569 245 642 411 642 C577 642 640 569 640 376 C640 173 586 110 411 110 C236 110 182 173 182 376 L182 376 Z M62 376 C62 82 144 -8 411 -8 C678 -8 760 82 760 376 C760 655 665 760 411 760 C157 760 62 655 62 376 L62 376 Z " />
<glyph glyph-name="Odieresis" unicode="&#xd6;" horiz-adv-x="814" d="M487.5 830 C517.582 830 542 854.418 542 884.5 C542 914.582 517.582 939 487.5 939 C457.418 939 433 914.582 433 884.5 C433 854.418 457.418 830 487.5 830 L487.5 830 Z M332.5 830 C362.582 830 387 854.418 387 884.5 C387 914.582 362.582 939 332.5 939 C302.418 939 278 914.582 278 884.5 C278 854.418 302.418 830 332.5 830 L332.5 830 Z M181 375 C181 568 244 641 410 641 C576 641 639 568 639 375 C639 172 585 109 410 109 C235 109 181 172 181 375 L181 375 Z M61 375 C61 81 143 -9 410 -9 C677 -9 759 81 759 375 C759 654 664 759 410 759 C156 759 61 654 61 375 L61 375 Z " />
<glyph glyph-name="Oslash" unicode="&#xd8;" horiz-adv-x="814" d="M61 375 C61 252.6 75.45 165.603 111.105 105.41 C119.845 90.6561 117.85 58.8608 106.933 45.6372 L80.7361 13.9057 C72.3354 3.73018 78.8047 -10 92 -10 L93.8088 -10 C106.3 -10 133.549 2.94648 141.439 12.63 L146.145 18.4055 C155.894 30.3698 179.196 35.433 192.947 28.4255 C245.12 1.8375 315.5 -9 409 -9 C676 -9 758 81 758 375 C758 490.6 741.383 576.577 703.849 637.231 C694.417 652.473 696.41 684.254 707.9 698.011 L738.129 734.207 C746.547 744.287 740.133 758 727 758 L724.84 758 C712.594 758 685.398 745.235 677.574 735.814 L668.914 725.387 C658.829 713.243 629.973 711.112 615.99 718.439 C563.873 745.749 495.625 758 409 758 C155 758 60.5 653.5 60.5 374.5 L61 375 Z M550.455 581.437 L233.923 199.227 C224.725 188.12 212.973 187.191 206.913 200.277 C187.948 241.23 180 297.5 180 374 C180 567 243 640 409 640 C465.1 640 509.97 631.492 544.171 612.792 C556.918 605.822 559.722 592.627 550.455 581.437 L550.455 581.437 Z M608.533 544.736 C628.33 503.86 637 448.1 637 375 C637 172 583 109 408 109 C348.6 109 303.493 116.487 269.31 133.707 C256.784 140.017 254.225 152.291 263.186 163.081 L580.874 545.584 C590.255 556.879 602.134 557.95 608.533 544.736 L608.533 544.736 Z " />
<glyph glyph-name="Ugrave" unicode="&#xd9;" horiz-adv-x="723" d="M351.814 821 L363.5 821 C387.08 821 401.454 841.581 393.336 863.719 L368.773 930.711 C361.117 951.59 333.326 971 311.088 971 L288.5 971 C257.956 971 241.703 941.468 258.046 915.664 L299.908 849.566 C308.345 836.245 336.046 821 351.814 821 L351.814 821 Z M84 290 C84 38 128 -9 364 -9 C599 -9 643 38 643 289 L643 688.56 C643 722.473 615.473 750 581.56 750 L559.44 750 C525.527 750 498 722.473 498 688.56 L498 314 C498 155 477 125 364 125 C223 125 196 154 196 310 L196 694 C196 724.91 170.91 750 140 750 C109.09 750 84 724.91 84 694 L84 290 L84 290 Z " />
<glyph glyph-name="Uacute" unicode="&#xda;" horiz-adv-x="723" d="M363.5 821 L375.186 821 C390.954 821 418.655 836.245 427.092 849.566 L468.954 915.664 C485.297 941.468 469.044 971 438.5 971 L415.912 971 C393.674 971 365.883 951.59 358.227 930.711 L333.664 863.719 C325.546 841.581 339.92 821 363.5 821 L363.5 821 Z M84 290 C84 38 128 -9 364 -9 C599 -9 643 38 643 289 L643 688.56 C643 722.473 615.473 750 581.56 750 L559.44 750 C525.527 750 498 722.473 498 688.56 L498 314 C498 155 477 125 364 125 C223 125 196 154 196 310 L196 694 C196 724.91 170.91 750 140 750 C109.09 750 84 724.91 84 694 L84 290 L84 290 Z " />
<glyph glyph-name="Ucircumflex" unicode="&#xdb;" horiz-adv-x="723" d="M375.965 889.906 C405.25 876.125 442 821 442 821 C442 821 440.969 821 474.882 821 L488 821 C507.827 821 517.65 841.438 505.264 856.92 L432.447 947.941 C424.496 957.88 397.198 971 384.47 971 L342.684 971 C329.848 971 302.529 957.801 294.551 947.745 L222.278 856.645 C210.05 841.232 219.825 821 239.5 821 L261.202 821 C270.051 821 296.049 831.07 302.589 837.03 L352.914 882.896 C362.678 891.796 364.01 895.532 375.965 889.906 L375.965 889.906 Z M84 290 C84 38 128 -9 364 -9 C599 -9 643 38 643 289 L643 688.56 C643 722.473 615.473 750 581.56 750 L559.44 750 C525.527 750 498 722.473 498 688.56 L498 314 C498 155 477 125 364 125 C223 125 196 154 196 310 L196 694 C196 724.91 170.91 750 140 750 C109.09 750 84 724.91 84 694 L84 290 L84 290 Z " />
<glyph glyph-name="Udieresis" unicode="&#xdc;" horiz-adv-x="723" d="M441.5 821 C471.582 821 496 845.418 496 875.5 C496 905.582 471.582 930 441.5 930 C411.418 930 387 905.582 387 875.5 C387 845.418 411.418 821 441.5 821 L441.5 821 Z M285.5 821 C315.582 821 340 845.418 340 875.5 C340 905.582 315.582 930 285.5 930 C255.418 930 231 905.582 231 875.5 C231 845.418 255.418 821 285.5 821 L285.5 821 Z M84 290 C84 38 128 -9 364 -9 C599 -9 643 38 643 289 L643 688.56 C643 722.473 615.473 750 581.56 750 L559.44 750 C525.527 750 498 722.473 498 688.56 L498 314 C498 155 477 125 364 125 C223 125 196 154 196 310 L196 694 C196 724.91 170.91 750 140 750 C109.09 750 84 724.91 84 694 L84 290 L84 290 Z " />
<glyph glyph-name="Yacute" unicode="&#xdd;" horiz-adv-x="631" d="M321 830 L332.995 830 C348.9 830 376.611 845.337 385.057 858.814 L426.484 924.921 C442.628 950.683 426.402 980 396 980 L373.644 980 C351.593 980 323.798 960.708 316.085 940.049 L291.089 873.095 C282.769 850.81 297.213 830 321 830 L321 830 Z M317 0 C347.91 0 373 25.0897 373 56 L373 300.61 C373 305.116 378.919 327.305 381.164 331.212 L591.591 697.547 C591.617 697.592 594.372 701.735 594.402 701.777 C599.853 709.497 614.794 736.362 620.282 746.02 C620.955 747.204 620.446 749 619.085 749 L512.933 749 C495.646 749 467.858 732.748 459.383 717.682 L359.394 539.922 C334.169 495.078 277.706 495.008 252.37 539.788 L151.644 717.815 C143.168 732.797 115.383 749 98.1698 749 L38.8077 749 C30.8334 749 26.0221 742.138 30.011 735.233 C41.61 715.155 47.5172 704.31 50 701 L253.855 344.253 C256.098 340.329 261.964 318.103 261.95 313.584 L261.17 55.9997 C261.076 25.0897 286.09 0 317 0 L317 0 Z " />
<glyph glyph-name="Thorn" unicode="&#xde;" horiz-adv-x="624" d="M203 56 L203 88.56 C203 122.473 230.527 150 264.44 150 L342 150 C550 150 589 186 589 375 C589 564 550 600 342 600 L264.44 600 C230.527 600 203 627.527 203 661.44 L203 694 C203 724.91 177.91 750 147 750 C116.09 750 91 724.91 91 694 L91 56 C91 25.0897 116.09 0 147 0 C177.91 0 203 25.0897 203 56 L203 56 Z M203 324.44 L203 425.56 C203 459.473 230.527 487 264.44 487 L336 487 C455 487 477 469 477 375 C477 281 457 263 348 263 L264.44 263 C230.527 263 203 290.527 203 324.44 L203 324.44 Z " />
<glyph glyph-name="agrave" unicode="&#xe0;" horiz-adv-x="550" d="M251.005 600 L263 600 C286.787 600 301.231 620.81 292.911 643.095 L267.915 710.049 C260.202 730.708 232.407 750 210.356 750 L188 750 C157.598 750 141.372 720.683 157.516 694.921 L198.943 628.814 C207.389 615.337 235.1 600 251.005 600 L251.005 600 Z M103.439 374.814 L144.006 361.519 C156.367 357.468 173.813 365.416 179.529 377.1 C195.68 410.11 218.45 421 263 421 C349 421 375 418 375 384 C375 339 334 328 199 292 C80 260 44 227 44 149 C44 28 57 -9 206 -9 C277.75 -9 327.297 -9 360 9.75781 C363.173 11.5775 374.709 10.0232 376.901 7.09552 C385.732 -4.69992 411.199 -1.58711 478.684 -0.373047 C498.736 -0.0123006 519 16.9445 519 37 L519 46.5 C519 61.8728 506.264 73.8581 490.893 73.6621 C467.994 73.37 474 75.075 474 96 L474 341 C474 514 424 529 262 529 C156.4 529 104.229 507.22 70.1117 440.638 C53.9947 409.185 69.8548 385.821 103.439 374.814 L103.439 374.814 Z M374 225.8 L374 166 C368 82 334 81 245 81 C151 81 143 98 143 152 C143 169 174 182 275 209 C310.7 218.35 339.536 225.894 362.123 234.702 C368.062 237.018 374 232.174 374 225.8 L374 225.8 Z " />
<glyph glyph-name="aacute" unicode="&#xe1;" horiz-adv-x="550" d="M263 600 L274.995 600 C290.9 600 318.611 615.337 327.057 628.814 L368.484 694.921 C384.628 720.683 368.402 750 338 750 L315.644 750 C293.593 750 265.798 730.708 258.085 710.049 L233.089 643.095 C224.769 620.81 239.213 600 263 600 L263 600 Z M103.439 374.814 L144.006 361.519 C156.367 357.468 173.813 365.416 179.529 377.1 C195.68 410.11 218.45 421 263 421 C349 421 375 418 375 384 C375 339 334 328 199 292 C80 260 44 227 44 149 C44 28 57 -9 206 -9 C277.75 -9 327.297 -9 360 9.75781 C363.173 11.5775 374.709 10.0232 376.901 7.09552 C385.732 -4.69992 411.199 -1.58711 478.684 -0.373047 C498.736 -0.0123006 519 16.9445 519 37 L519 46.5 C519 61.8728 506.264 73.8581 490.893 73.6621 C467.994 73.37 474 75.075 474 96 L474 341 C474 514 424 529 262 529 C156.4 529 104.229 507.22 70.1117 440.638 C53.9947 409.185 69.8548 385.821 103.439 374.814 L103.439 374.814 Z M374 225.8 L374 166 C368 82 334 81 245 81 C151 81 143 98 143 152 C143 169 174 182 275 209 C310.7 218.35 339.536 225.894 362.123 234.702 C368.062 237.018 374 232.174 374 225.8 L374 225.8 Z " />
<glyph glyph-name="acircumflex" unicode="&#xe2;" horiz-adv-x="550" d="M275.008 668.906 C304.484 655.125 342 600 342 600 C342 600 340.592 600 374.505 600 L387.5 600 C407.111 600 416.827 620.216 404.576 635.53 L331.447 726.941 C323.496 736.88 296.198 750 283.47 750 L242.53 750 C229.802 750 202.504 736.88 194.553 726.941 L121.424 635.53 C109.173 620.216 118.889 600 138.5 600 L160.202 600 C169.051 600 195.049 610.07 201.589 616.03 L251.914 661.896 C261.642 670.762 263.084 674.481 275.008 668.906 L275.008 668.906 Z M103.439 374.814 L144.006 361.519 C156.367 357.468 173.813 365.416 179.529 377.1 C195.68 410.11 218.45 421 263 421 C349 421 375 418 375 384 C375 339 334 328 199 292 C80 260 44 227 44 149 C44 28 57 -9 206 -9 C277.75 -9 327.297 -9 360 9.75781 C363.173 11.5775 374.709 10.0232 376.901 7.09552 C385.732 -4.69992 411.199 -1.58711 478.684 -0.373047 C498.736 -0.0123006 519 16.9445 519 37 L519 46.5 C519 61.8728 506.264 73.8581 490.893 73.6621 C467.994 73.37 474 75.075 474 96 L474 341 C474 514 424 529 262 529 C156.4 529 104.229 507.22 70.1117 440.638 C53.9947 409.185 69.8548 385.821 103.439 374.814 L103.439 374.814 Z M374 225.8 L374 166 C368 82 334 81 245 81 C151 81 143 98 143 152 C143 169 174 182 275 209 C310.7 218.35 339.536 225.894 362.123 234.702 C368.062 237.018 374 232.174 374 225.8 L374 225.8 Z " />
<glyph glyph-name="atilde" unicode="&#xe3;" horiz-adv-x="550" d="M183.656 627.04 C185.48 657.76 191.4 668 205 668 C247 668 271 591 328 591 C325 591 321 669 321 669 C321 669 324.454 630.516 324.491 630.105 L324.961 624.864 C327.085 601.195 336.484 588.529 359.521 594.36 C396.164 603.633 412.005 633.339 415.965 698.57 C417.277 720.191 401.66 737 380 737 L369 737 C355.499 737 343.144 723.437 342.344 709.96 C340.919 685.96 336.994 674.46 328.86 670.577 C322.098 667.349 325.785 663.48 320.877 669.142 C317.706 672.802 253.575 746 198 746 C199.7 746 200.678 732.272 201.547 716.486 C201.554 716.359 201.28 717.358 201.27 717.485 L200.5 727.5 C199.565 739.653 192.082 747.424 179.984 745.936 C134.368 740.325 115.419 711.65 111.035 639.43 C109.74 618.084 125.117 600.793 146.5 600.5 L157.002 600.356 C170.512 600.171 182.855 613.553 183.656 627.04 L183.656 627.04 Z M104.439 375.814 L145.006 362.519 C157.367 358.468 174.813 366.416 180.529 378.1 C196.68 411.11 219.45 422 264 422 C350 422 376 419 376 385 C376 340 335 329 200 293 C81 261 45 228 45 150 C45 29 58 -8 207 -8 C278.75 -8 328.297 -8 361 10.7578 C364.173 12.5775 375.709 11.0232 377.901 8.09552 C386.732 -3.69992 412.199 -0.587109 479.684 0.626953 C499.736 0.987699 520 17.9445 520 38 L520 47.5 C520 62.8728 507.264 74.8581 491.893 74.6621 C468.994 74.37 475 76.075 475 97 L475 342 C475 515 425 530 263 530 C157.4 530 105.229 508.22 71.1117 441.638 C54.9947 410.185 70.8548 386.821 104.439 375.814 L104.439 375.814 Z M375 226.8 L375 167 C369 83 335 82 246 82 C152 82 144 99 144 153 C144 170 175 183 276 210 C311.7 219.35 340.536 226.894 363.123 235.702 C369.062 238.018 375 233.174 375 226.8 L375 226.8 Z " />
<glyph glyph-name="adieresis" unicode="&#xe4;" horiz-adv-x="550" d="M365 600 C394.806 600 419 624.194 419 654 L419 655 C419 684.806 394.806 709 365 709 C335.194 709 311 684.806 311 655 L311 654 C311 624.194 335.194 600 365 600 L365 600 Z M161.5 600 C191.582 600 216 624.418 216 654.5 C216 684.582 191.582 709 161.5 709 C131.418 709 107 684.582 107 654.5 C107 624.418 131.418 600 161.5 600 L161.5 600 Z M103.439 374.814 L144.006 361.519 C156.367 357.468 173.813 365.416 179.529 377.1 C195.68 410.11 218.45 421 263 421 C349 421 375 418 375 384 C375 339 334 328 199 292 C80 260 44 227 44 149 C44 28 57 -9 206 -9 C277.75 -9 327.297 -9 360 9.75781 C363.173 11.5775 374.709 10.0232 376.901 7.09552 C385.732 -4.69992 411.199 -1.58711 478.684 -0.373047 C498.736 -0.0123006 519 16.9445 519 37 L519 46.5 C519 61.8728 506.264 73.8581 490.893 73.6621 C467.994 73.37 474 75.075 474 96 L474 341 C474 514 424 529 262 529 C156.4 529 104.229 507.22 70.1117 440.638 C53.9947 409.185 69.8548 385.821 103.439 374.814 L103.439 374.814 Z M374 225.8 L374 166 C368 82 334 81 245 81 C151 81 143 98 143 152 C143 169 174 182 275 209 C310.7 218.35 339.536 225.894 362.123 234.702 C368.062 237.018 374 232.174 374 225.8 L374 225.8 Z " />
<glyph glyph-name="aring" unicode="&#xe5;" horiz-adv-x="550" d="M228 685 C228 716 235 723 263 723 C291 723 298 716 298 685 C298 652 292 646 263 646 C234 646 228 652 228 685 L228 685 Z M179 685 C179 613 192 600 263 600 C334 600 347 613 347 685 C347 752 330 769 263 769 C196 769 179 752 179 685 L179 685 Z M103.439 374.814 L144.006 361.519 C156.367 357.468 173.813 365.416 179.529 377.1 C195.68 410.11 218.45 421 263 421 C349 421 375 418 375 384 C375 339 334 328 199 292 C80 260 44 227 44 149 C44 28 57 -9 206 -9 C277.75 -9 327.297 -9 360 9.75781 C363.173 11.5775 374.709 10.0232 376.901 7.09552 C385.732 -4.69992 411.199 -1.58711 478.684 -0.373047 C498.736 -0.0123006 519 16.9445 519 37 L519 46.5 C519 61.8728 506.264 73.8581 490.893 73.6621 C467.994 73.37 474 75.075 474 96 L474 341 C474 514 424 529 262 529 C156.4 529 104.229 507.22 70.1117 440.638 C53.9947 409.185 69.8548 385.821 103.439 374.814 L103.439 374.814 Z M374 225.8 L374 166 C368 82 334 81 245 81 C151 81 143 98 143 152 C143 169 174 182 275 209 C310.7 218.35 339.536 225.894 362.123 234.702 C368.062 237.018 374 232.174 374 225.8 L374 225.8 Z " />
<glyph glyph-name="ccedilla" unicode="&#xe7;" horiz-adv-x="561" d="M401.603 150.149 C380.472 111.932 350.05 99 289 99 C193 99 163 118 163 260 C163 407 193 427 289 427 C357.4 427 377.065 405.34 411.441 337.156 C414.064 331.953 422.322 328.528 427.556 331.09 C443.037 338.669 458.519 346.667 474 354 L502 368 C517.968 375.984 522.465 397.575 514.072 413.332 C467.56 500.65 428.5 529 289 529 C109 529 54 497 54 260 C54 59.3 93.69 6.02 215.352 -5.545 C238.873 -7.78082 253.088 -30.1712 247 -53 L236.408 -92.7186 C236.231 -93.3829 235.037 -97.3681 234.996 -98.0545 C234.924 -99.2781 234.183 -120.695 270.682 -121.027 C272.409 -121.042 274.728 -119.545 275.5 -118 L275.586 -117.828 C275.696 -117.608 276.078 -117.766 276 -118 C275.958 -118.127 275.734 -118.062 275.767 -117.932 L281.909 -93.3656 C282.056 -92.7745 282.766 -93.0343 282.69 -93.6389 C281.894 -99.9722 279.69 -106.75 277.56 -112.194 C277.475 -112.412 277.672 -113.587 277.825 -113.411 C282.293 -108.253 290.267 -106 305 -106 C333 -106 342 -117 342 -151 C342 -185 333 -196 302 -196 C270.821 -196 258.492 -189.268 257.833 -169.174 C257.648 -163.559 250.661 -160.505 246.231 -163.96 L224.557 -180.866 C213.418 -189.554 206.389 -197.119 208.583 -211.075 C212.476 -235.832 239 -244 305 -244 C376 -244 398 -222 398 -151 C398 -68 379 -43 316 -43 C307.818 -43 300.975 -43.6694 295.471 -45.556 C294.239 -45.9781 292.522 -45.0155 292.854 -43.7563 L297 -28 C299.572 -18.2247 311.978 -8.86655 322.078 -8.47075 C422.644 -4.52987 474.71 18.4508 508.531 76.2978 C525.527 105.367 513.395 128.735 483.224 143.689 L442.629 163.81 C429.094 170.519 408.913 163.369 401.603 150.149 L401.603 150.149 Z " />
<glyph glyph-name="egrave" unicode="&#xe8;" horiz-adv-x="568" d="M291.005 600 L303 600 C326.787 600 341.231 620.81 332.911 643.095 L307.915 710.049 C300.202 730.708 272.407 750 250.356 750 L228 750 C197.598 750 181.372 720.683 197.516 694.921 L238.943 628.814 C247.389 615.337 275.1 600 291.005 600 L291.005 600 Z M407.732 144.942 C390.669 110.571 360.35 99 296 99 C213.5 99 177.283 111.251 166.571 190.221 C161.401 228.343 186.433 250 224.904 250 L490.56 250 C525.556 250 552.328 274.593 551.211 309.571 C545.91 475.54 509.1 529 303 529 C113 529 54 497 54 260 C54 23 111 -9 296 -9 C426.35 -9 487.957 12.0994 520.688 76.1972 C536.814 107.776 522.326 129.088 489.273 141.927 L443.121 159.854 C431.248 164.466 413.396 156.351 407.732 144.942 L407.732 144.942 Z M414.531 341 L205.567 341 C180.817 341 168.527 355.917 178.96 378.36 C198 419.32 235.6 427 302 427 C383.675 427 421.45 412.026 438.346 370.848 C446.257 351.57 435.369 341 414.531 341 L414.531 341 Z " />
<glyph glyph-name="eacute" unicode="&#xe9;" horiz-adv-x="568" d="M303 600 L314.995 600 C330.9 600 358.611 615.337 367.057 628.814 L408.484 694.921 C424.628 720.683 408.402 750 378 750 L355.644 750 C333.593 750 305.798 730.708 298.085 710.049 L273.089 643.095 C264.769 620.81 279.213 600 303 600 L303 600 Z M407.732 144.942 C390.669 110.571 360.35 99 296 99 C213.5 99 177.283 111.251 166.571 190.221 C161.401 228.343 186.433 250 224.904 250 L490.56 250 C525.556 250 552.328 274.593 551.211 309.571 C545.91 475.54 509.1 529 303 529 C113 529 54 497 54 260 C54 23 111 -9 296 -9 C426.35 -9 487.957 12.0994 520.688 76.1972 C536.814 107.776 522.326 129.088 489.273 141.927 L443.121 159.854 C431.248 164.466 413.396 156.351 407.732 144.942 L407.732 144.942 Z M414.531 341 L205.567 341 C180.817 341 168.527 355.917 178.96 378.36 C198 419.32 235.6 427 302 427 C383.675 427 421.45 412.026 438.346 370.848 C446.257 351.57 435.369 341 414.531 341 L414.531 341 Z " />
<glyph glyph-name="ecircumflex" unicode="&#xea;" horiz-adv-x="568" d="M315.008 668.906 C344.484 655.125 382 600 382 600 C382 600 380.592 600 414.505 600 L427.5 600 C447.111 600 456.827 620.216 444.576 635.53 L371.447 726.941 C363.496 736.88 336.198 750 323.47 750 L282.53 750 C269.802 750 242.504 736.88 234.553 726.941 L161.424 635.53 C149.173 620.216 158.889 600 178.5 600 L200.202 600 C209.051 600 235.049 610.07 241.589 616.03 L291.914 661.896 C301.642 670.762 303.084 674.481 315.008 668.906 L315.008 668.906 Z M407.732 144.942 C390.669 110.571 360.35 99 296 99 C213.5 99 177.283 111.251 166.571 190.221 C161.401 228.343 186.433 250 224.904 250 L490.56 250 C525.556 250 552.328 274.593 551.211 309.571 C545.91 475.54 509.1 529 303 529 C113 529 54 497 54 260 C54 23 111 -9 296 -9 C426.35 -9 487.957 12.0994 520.688 76.1972 C536.814 107.776 522.326 129.088 489.273 141.927 L443.121 159.854 C431.248 164.466 413.396 156.351 407.732 144.942 L407.732 144.942 Z M414.531 341 L205.567 341 C180.817 341 168.527 355.917 178.96 378.36 C198 419.32 235.6 427 302 427 C383.675 427 421.45 412.026 438.346 370.848 C446.257 351.57 435.369 341 414.531 341 L414.531 341 Z " />
<glyph glyph-name="edieresis" unicode="&#xeb;" horiz-adv-x="568" d="M380.5 600 C410.582 600 435 624.418 435 654.5 C435 684.582 410.582 709 380.5 709 C350.418 709 326 684.582 326 654.5 C326 624.418 350.418 600 380.5 600 L380.5 600 Z M225.5 600 C255.582 600 280 624.418 280 654.5 C280 684.582 255.582 709 225.5 709 C195.418 709 171 684.582 171 654.5 C171 624.418 195.418 600 225.5 600 L225.5 600 Z M407.732 144.942 C390.669 110.571 360.35 99 296 99 C213.5 99 177.283 111.251 166.571 190.221 C161.401 228.343 186.433 250 224.904 250 L490.56 250 C525.556 250 552.328 274.593 551.211 309.571 C545.91 475.54 509.1 529 303 529 C113 529 54 497 54 260 C54 23 111 -9 296 -9 C426.35 -9 487.957 12.0994 520.688 76.1972 C536.814 107.776 522.326 129.088 489.273 141.927 L443.121 159.854 C431.248 164.466 413.396 156.351 407.732 144.942 L407.732 144.942 Z M414.531 341 L205.567 341 C180.817 341 168.527 355.917 178.96 378.36 C198 419.32 235.6 427 302 427 C383.675 427 421.45 412.026 438.346 370.848 C446.257 351.57 435.369 341 414.531 341 L414.531 341 Z " />
<glyph glyph-name="igrave" unicode="&#xec;" horiz-adv-x="287" d="M155.005 600 L167 600 C190.787 600 205.231 620.81 196.911 643.095 L171.915 710.049 C164.202 730.708 136.407 750 114.356 750 L92 750 C61.5983 750 45.3722 720.683 61.5159 694.921 L102.943 628.814 C111.389 615.337 139.1 600 155.005 600 L155.005 600 Z M167 0 C194.599 0 217 22.4015 217 50 L217 470 C217 497.599 194.599 520 167 520 C139.402 520 117 497.599 117 470 L117 50 C117 22.4015 139.402 0 167 0 L167 0 Z " />
<glyph glyph-name="iacute" unicode="&#xed;" horiz-adv-x="287" d="M167 600 L178.995 600 C194.9 600 222.611 615.337 231.057 628.814 L272.484 694.921 C288.628 720.683 272.402 750 242 750 L219.644 750 C197.593 750 169.798 730.708 162.085 710.049 L137.089 643.095 C128.769 620.81 143.213 600 167 600 L167 600 Z M167 0 C194.599 0 217 22.4015 217 50 L217 470 C217 497.599 194.599 520 167 520 C139.402 520 117 497.599 117 470 L117 50 C117 22.4015 139.402 0 167 0 L167 0 Z " />
<glyph glyph-name="icircumflex" unicode="&#xee;" horiz-adv-x="287" d="M179.008 668.906 C208.484 655.125 246 600 246 600 C246 600 244.592 600 278.505 600 L291.5 600 C311.111 600 320.827 620.216 308.576 635.53 L235.447 726.941 C227.496 736.88 200.198 750 187.47 750 L146.53 750 C133.802 750 106.504 736.88 98.553 726.941 L25.4236 635.53 C13.1726 620.216 22.8888 600 42.5 600 L64.2024 600 C73.0506 600 99.049 610.07 105.589 616.03 L155.914 661.896 C165.642 670.762 167.084 674.481 179.008 668.906 L179.008 668.906 Z M167 0 C194.599 0 217 22.4015 217 50 L217 470 C217 497.599 194.599 520 167 520 C139.402 520 117 497.599 117 470 L117 50 C117 22.4015 139.402 0 167 0 L167 0 Z " />
<glyph glyph-name="idieresis" unicode="&#xef;" horiz-adv-x="287" d="M269 600 C298.806 600 323 624.194 323 654 L323 655 C323 684.806 298.806 709 269 709 C239.194 709 215 684.806 215 655 L215 654 C215 624.194 239.194 600 269 600 L269 600 Z M65.5 600 C95.5824 600 120 624.418 120 654.5 C120 684.582 95.5824 709 65.5 709 C35.4176 709 11 684.582 11 654.5 C11 624.418 35.4176 600 65.5 600 L65.5 600 Z M167 0 C194.599 0 217 22.4015 217 50 L217 470 C217 497.599 194.599 520 167 520 C139.402 520 117 497.599 117 470 L117 50 C117 22.4015 139.402 0 167 0 L167 0 Z " />
<glyph glyph-name="ntilde" unicode="&#xf1;" horiz-adv-x="546" d="M198.656 627.04 C200.48 657.76 206.4 668 220 668 C262 668 286 591 343 591 C340 591 336 669 336 669 C336 669 339.454 630.516 339.491 630.105 L339.961 624.864 C342.085 601.195 351.484 588.529 374.521 594.36 C411.164 603.633 427.005 633.339 430.965 698.57 C432.277 720.191 416.66 737 395 737 L384 737 C370.499 737 358.144 723.437 357.344 709.96 C355.919 685.96 351.994 674.46 343.86 670.577 C337.098 667.349 340.785 663.48 335.877 669.142 C332.706 672.802 268.575 746 213 746 C214.7 746 215.678 732.272 216.547 716.486 C216.554 716.359 216.28 717.358 216.27 717.485 L215.5 727.5 C214.567 739.634 206.794 747.402 194.713 745.936 C148.469 740.325 129.433 711.65 125.037 639.43 C123.72 617.789 139.321 600.793 161 600.5 L172.002 600.351 C185.512 600.169 197.855 613.553 198.656 627.04 L198.656 627.04 Z M482 51 L482 316 C482 493 445 526 325 526 C262 526 217.375 517.578 187.105 496.045 C181.831 492.293 175 497.028 175 503.5 C175 513.159 167.159 521 157.5 521 L125 521 C97.4015 521 75 498.599 75 471 L75 51 C75 23.4015 97.4015 1 125 1 C152.599 1 175 23.4015 175 51 L175 327 C175 389 199 408 275 408 C357 408 382 393 382 316 L382 51 C382 23.4015 404.402 1 432 1 C459.599 1 482 23.4015 482 51 L482 51 Z " />
<glyph glyph-name="ograve" unicode="&#xf2;" horiz-adv-x="590" d="M285.005 600 L297 600 C320.787 600 335.231 620.81 326.911 643.095 L301.915 710.049 C294.202 730.708 266.407 750 244.356 750 L222 750 C191.598 750 175.372 720.683 191.516 694.921 L232.943 628.814 C241.389 615.337 269.1 600 285.005 600 L285.005 600 Z M163 260 C163 412 194 433 297 433 C415 433 431 392 431 260 C431 108 400 87 297 87 C179 87 163 128 163 260 L163 260 Z M54 260 C54 54 83 -9 297 -9 C483 -9 540 23 540 260 C540 466 511 529 297 529 C111 529 54 497 54 260 L54 260 Z " />
<glyph glyph-name="oacute" unicode="&#xf3;" horiz-adv-x="590" d="M297 600 L308.995 600 C324.9 600 352.611 615.337 361.057 628.814 L402.484 694.921 C418.628 720.683 402.402 750 372 750 L349.644 750 C327.593 750 299.798 730.708 292.085 710.049 L267.089 643.095 C258.769 620.81 273.213 600 297 600 L297 600 Z M163 260 C163 412 194 433 297 433 C415 433 431 392 431 260 C431 108 400 87 297 87 C179 87 163 128 163 260 L163 260 Z M54 260 C54 54 83 -9 297 -9 C483 -9 540 23 540 260 C540 466 511 529 297 529 C111 529 54 497 54 260 L54 260 Z " />
<glyph glyph-name="ocircumflex" unicode="&#xf4;" horiz-adv-x="590" d="M309.008 668.906 C338.484 655.125 376 600 376 600 C376 600 374.592 600 408.505 600 L421.5 600 C441.111 600 450.827 620.216 438.576 635.53 L365.447 726.941 C357.496 736.88 330.198 750 317.47 750 L276.53 750 C263.802 750 236.504 736.88 228.553 726.941 L155.424 635.53 C143.173 620.216 152.889 600 172.5 600 L194.202 600 C203.051 600 229.049 610.07 235.589 616.03 L285.914 661.896 C295.642 670.762 297.084 674.481 309.008 668.906 L309.008 668.906 Z M163 260 C163 412 194 433 297 433 C415 433 431 392 431 260 C431 108 400 87 297 87 C179 87 163 128 163 260 L163 260 Z M54 260 C54 54 83 -9 297 -9 C483 -9 540 23 540 260 C540 466 511 529 297 529 C111 529 54 497 54 260 L54 260 Z " />
<glyph glyph-name="otilde" unicode="&#xf5;" horiz-adv-x="590" d="M217.656 627.04 C219.48 657.76 225.4 668 239 668 C281 668 305 591 362 591 C359 591 355 669 355 669 C355 669 358.454 630.516 358.491 630.105 L358.961 624.864 C361.085 601.195 370.484 588.529 393.521 594.36 C430.164 603.633 446.005 633.339 449.965 698.57 C451.277 720.191 435.66 737 414 737 L403 737 C389.499 737 377.144 723.437 376.344 709.96 C374.919 685.96 370.994 674.46 362.86 670.577 C356.098 667.349 359.785 663.48 354.877 669.142 C351.706 672.802 287.575 746 232 746 C233.7 746 234.678 732.272 235.547 716.486 C235.554 716.359 235.28 717.358 235.27 717.485 L234.5 727.5 C233.565 739.653 226.082 747.424 213.984 745.936 C168.368 740.325 149.419 711.65 145.035 639.43 C143.74 618.084 159.117 600.793 180.5 600.5 L191.002 600.356 C204.512 600.171 216.855 613.553 217.656 627.04 L217.656 627.04 Z M164 261 C164 413 195 434 298 434 C416 434 432 393 432 261 C432 109 401 88 298 88 C180 88 164 129 164 261 L164 261 Z M55 261 C55 55 84 -8 298 -8 C484 -8 541 24 541 261 C541 467 512 530 298 530 C112 530 55 498 55 261 L55 261 Z " />
<glyph glyph-name="odieresis" unicode="&#xf6;" horiz-adv-x="590" d="M374.5 600 C404.582 600 429 624.418 429 654.5 C429 684.582 404.582 709 374.5 709 C344.418 709 320 684.582 320 654.5 C320 624.418 344.418 600 374.5 600 L374.5 600 Z M219.5 600 C249.582 600 274 624.418 274 654.5 C274 684.582 249.582 709 219.5 709 C189.418 709 165 684.582 165 654.5 C165 624.418 189.418 600 219.5 600 L219.5 600 Z M163 260 C163 412 194 433 297 433 C415 433 431 392 431 260 C431 108 400 87 297 87 C179 87 163 128 163 260 L163 260 Z M54 260 C54 54 83 -9 297 -9 C483 -9 540 23 540 260 C540 466 511 529 297 529 C111 529 54 497 54 260 L54 260 Z " />
<glyph glyph-name="oslash" unicode="&#xf8;" horiz-adv-x="590" d="M54 260 C54 169.9 59.78 107.255 84.2366 65.3096 C90.0411 55.3545 88.8366 32.5267 81.5574 23.5931 L68.8968 8.05517 C62.9503 0.757152 67.5861 -9 77 -9 L78.3845 -9 C87.216 -9 106.431 0.145734 112 7 C117.989 14.3714 133.853 17.4871 142.509 13.5781 C178.107 -2.4975 228.3 -9 298 -9 C484 -9 541 23 541 260 C541 350.1 535.22 412.745 510.763 454.69 C504.959 464.646 506.163 487.473 513.443 496.407 L526.103 511.945 C532.05 519.243 527.414 529 518 529 L516.616 529 C507.784 529 488.569 519.854 483 513 C477.011 505.629 461.147 502.513 452.49 506.422 C416.892 522.497 366.7 529 297 529 C111 529 54 497 54 260 L54 260 Z M388.673 398.856 L186.249 152.267 C181.476 146.452 174.629 146.733 172.573 153.97 C165.167 180.037 163 215.1 163 261 C163 413 194 434 297 434 C338.65 434 367.295 428.581 387.234 416.515 C394.438 412.156 394.016 405.365 388.673 398.856 L388.673 398.856 Z M421.427 368.03 C428.832 341.962 431 306.9 431 261 C431 109 400 88 297 88 C255.35 88 226.705 93.0575 206.766 105.015 C199.517 109.362 199.958 115.617 205.309 122.159 L407.771 369.716 C412.529 375.533 419.373 375.259 421.427 368.03 L421.427 368.03 Z " />
<glyph glyph-name="ugrave" unicode="&#xf9;" horiz-adv-x="543" d="M259.005 600 L271 600 C294.787 600 309.231 620.81 300.911 643.095 L275.915 710.049 C268.202 730.708 240.407 750 218.356 750 L196 750 C165.598 750 149.372 720.683 165.516 694.921 L206.943 628.814 C215.389 615.337 243.1 600 259.005 600 L259.005 600 Z M473 50 L473 470 C473 497.599 450.599 520 423 520 C395.402 520 373 497.599 373 470 L373 228 C373 137 350 109 274 109 C170 109 169 122 169 194 L169 470 C169 497.599 146.599 520 119 520 C91.4015 520 69 497.599 69 470 L69 194 C69 23 70 -9 233 -9 C291.65 -9 332.237 1.8375 359.675 29.6537 C364.344 34.3871 373 29.6486 373 23 C373 10.3047 383.305 0 396 0 L423 0 C450.599 0 473 22.4015 473 50 L473 50 Z " />
<glyph glyph-name="uacute" unicode="&#xfa;" horiz-adv-x="543" d="M271 600 L282.995 600 C298.9 600 326.611 615.337 335.057 628.814 L376.484 694.921 C392.628 720.683 376.402 750 346 750 L323.644 750 C301.593 750 273.798 730.708 266.085 710.049 L241.089 643.095 C232.769 620.81 247.213 600 271 600 L271 600 Z M473 50 L473 470 C473 497.599 450.599 520 423 520 C395.402 520 373 497.599 373 470 L373 228 C373 137 350 109 274 109 C170 109 169 122 169 194 L169 470 C169 497.599 146.599 520 119 520 C91.4015 520 69 497.599 69 470 L69 194 C69 23 70 -9 233 -9 C291.65 -9 332.237 1.8375 359.675 29.6537 C364.344 34.3871 373 29.6486 373 23 C373 10.3047 383.305 0 396 0 L423 0 C450.599 0 473 22.4015 473 50 L473 50 Z " />
<glyph glyph-name="ucircumflex" unicode="&#xfb;" horiz-adv-x="543" d="M283.008 668.906 C312.484 655.125 350 600 350 600 C350 600 348.592 600 382.505 600 L395.5 600 C415.111 600 424.827 620.216 412.576 635.53 L339.447 726.941 C331.496 736.88 304.198 750 291.47 750 L250.53 750 C237.802 750 210.504 736.88 202.553 726.941 L129.424 635.53 C117.173 620.216 126.889 600 146.5 600 L168.202 600 C177.051 600 203.049 610.07 209.589 616.03 L259.914 661.896 C269.642 670.762 271.084 674.481 283.008 668.906 L283.008 668.906 Z M473 50 L473 470 C473 497.599 450.599 520 423 520 C395.402 520 373 497.599 373 470 L373 228 C373 137 350 109 274 109 C170 109 169 122 169 194 L169 470 C169 497.599 146.599 520 119 520 C91.4015 520 69 497.599 69 470 L69 194 C69 23 70 -9 233 -9 C291.65 -9 332.237 1.8375 359.675 29.6537 C364.344 34.3871 373 29.6486 373 23 C373 10.3047 383.305 0 396 0 L423 0 C450.599 0 473 22.4015 473 50 L473 50 Z " />
<glyph glyph-name="udieresis" unicode="&#xfc;" horiz-adv-x="543" d="M348.5 600 C378.582 600 403 624.418 403 654.5 C403 684.582 378.582 709 348.5 709 C318.418 709 294 684.582 294 654.5 C294 624.418 318.418 600 348.5 600 L348.5 600 Z M193.5 600 C223.582 600 248 624.418 248 654.5 C248 684.582 223.582 709 193.5 709 C163.418 709 139 684.582 139 654.5 C139 624.418 163.418 600 193.5 600 L193.5 600 Z M473 50 L473 470 C473 497.599 450.599 520 423 520 C395.402 520 373 497.599 373 470 L373 228 C373 137 350 109 274 109 C170 109 169 122 169 194 L169 470 C169 497.599 146.599 520 119 520 C91.4015 520 69 497.599 69 470 L69 194 C69 23 70 -9 233 -9 C291.65 -9 332.237 1.8375 359.675 29.6537 C364.344 34.3871 373 29.6486 373 23 C373 10.3047 383.305 0 396 0 L423 0 C450.599 0 473 22.4015 473 50 L473 50 Z " />
<glyph glyph-name="yacute" unicode="&#xfd;" horiz-adv-x="498" d="M251 600 L262.995 600 C278.9 600 306.611 615.337 315.057 628.814 L356.484 694.921 C372.628 720.683 356.402 750 326 750 L303.644 750 C281.593 750 253.798 730.708 246.085 710.049 L221.089 643.095 C212.769 620.81 227.213 600 251 600 L251 600 Z M30 470 L183.404 -1.03047 C184.234 -3.57828 184.299 -14.4425 183.5 -17 L181 -25 C161 -87 160 -87 98 -87 L73 -87 C59.2007 -87 48 -98.2007 48 -112 L48 -175 C48 -188.799 59.2007 -200 73 -200 L98 -200 C241 -200 242 -199 283 -74 L470 470.5 L478 494.75 C482.203 507.49 473.88 519.082 460.465 519.174 L364.72 519.825 C351.033 519.918 335.725 508.421 332 495.25 L325 470.5 L277.5 307.25 C263.68 259.753 197.607 260.119 184.315 307.767 L138.5 472 L133 491 C129 507 125 520 125 520 C125 520 123.282 520 118.199 520 L14.6926 520 C13.352 520 12.2998 519.23 12.7454 517.966 C16.3229 507.813 28.5833 470 29.5 470 L30 470 Z " />
<glyph glyph-name="thorn" unicode="&#xfe;" horiz-adv-x="599" d="M124 750 L99 750 C85.2007 750 74 738.799 74 725 L74 -200 C74 -227.599 96.4015 -250 124 -250 C151.599 -250 174 -227.599 174 -200 L174 5.03412 C174 13.1681 185.887 17.6418 193.011 13.7159 C225.585 -4.23562 271.125 -9 333 -9 C498 -9 549 54 549 260 C549 466 498 529 333 529 C271.125 529 225.585 524.236 193.011 506.284 C185.887 502.358 174 506.832 174 514.966 L174 725 C174 738.799 162.799 750 149 750 L124 750 L124 750 Z M174 260 C174 403 201 422 290 422 C405 422 440 384 440 260 C440 132 405 93 292 93 C202 93 174 113 174 260 L174 260 Z " />
<glyph glyph-name="ydieresis" unicode="&#xff;" horiz-adv-x="498" d="M328.5 600 C358.582 600 383 624.418 383 654.5 C383 684.582 358.582 709 328.5 709 C298.418 709 274 684.582 274 654.5 C274 624.418 298.418 600 328.5 600 L328.5 600 Z M173.5 600 C203.582 600 228 624.418 228 654.5 C228 684.582 203.582 709 173.5 709 C143.418 709 119 684.582 119 654.5 C119 624.418 143.418 600 173.5 600 L173.5 600 Z M30 470 L183.404 -1.03047 C184.234 -3.57828 184.299 -14.4425 183.5 -17 L181 -25 C161 -87 160 -87 98 -87 L73 -87 C59.2007 -87 48 -98.2007 48 -112 L48 -175 C48 -188.799 59.2007 -200 73 -200 L98 -200 C241 -200 242 -199 283 -74 L470 470.5 L478 494.75 C482.203 507.49 473.88 519.082 460.465 519.174 L364.72 519.825 C351.033 519.918 335.725 508.421 332 495.25 L325 470.5 L277.5 307.25 C263.68 259.753 197.607 260.119 184.315 307.767 L138.5 472 L133 491 C129 507 125 520 125 520 C125 520 123.282 520 118.199 520 L14.6926 520 C13.352 520 12.2998 519.23 12.7454 517.966 C16.3229 507.813 28.5833 470 29.5 470 L30 470 Z " />
<glyph glyph-name="Amacron" unicode="&#x100;" horiz-adv-x="716" d="M256 830 L466 830 C485.319 830 501 845.681 501 865 C501 884.319 485.319 900 466 900 L256 900 C236.681 900 221 884.319 221 865 C221 845.681 236.681 830 256 830 L256 830 Z M278 700 L33.3409 72.6691 C18.7667 35.2993 42.8889 0 83 0 L134.723 0 C148.246 0 165.611 11.8914 170.5 24.5 L180 49 L229.285 179.081 C229.33 179.199 229.544 179.119 229.5 179 C223.549 162.957 233.953 148 251.064 148 L487.497 148 C509.45 148 537.247 128.77 544.989 108.228 L567.5 48.5 L576.75 24.25 C581.52 11.7437 598.569 0 611.954 0 L680.279 0 C693.526 0 701.514 11.639 696.75 24 L687.5 48 L438.502 699.001 C436.107 705.262 436.106 726.739 438.5 733 C441.851 741.765 436.183 750 426.8 750 L298 750 C297 746 278.5 700 278.5 700 L278 700 Z M291.383 343.138 L317 411 C337.79 466.077 410.21 466.077 431 411 L456.617 343.138 C472.823 300.205 445.025 260 399.136 260 L348.864 260 C302.975 260 275.177 300.205 291.383 343.138 L291.383 343.138 Z " />
<glyph glyph-name="amacron" unicode="&#x101;" horiz-adv-x="550" d="M158 600 L368 600 C387.319 600 403 615.681 403 635 C403 654.319 387.319 670 368 670 L158 670 C138.681 670 123 654.319 123 635 C123 615.681 138.681 600 158 600 L158 600 Z M103.439 374.814 L144.006 361.519 C156.367 357.468 173.813 365.416 179.529 377.1 C195.68 410.11 218.45 421 263 421 C349 421 375 418 375 384 C375 339 334 328 199 292 C80 260 44 227 44 149 C44 28 57 -9 206 -9 C277.75 -9 327.297 -9 360 9.75781 C363.173 11.5775 374.709 10.0232 376.901 7.09552 C385.732 -4.69992 411.199 -1.58711 478.684 -0.373047 C498.736 -0.0123006 519 16.9445 519 37 L519 46.5 C519 61.8728 506.264 73.8581 490.893 73.6621 C467.994 73.37 474 75.075 474 96 L474 341 C474 514 424 529 262 529 C156.4 529 104.229 507.22 70.1117 440.638 C53.9947 409.185 69.8548 385.821 103.439 374.814 L103.439 374.814 Z M374 225.8 L374 166 C368 82 334 81 245 81 C151 81 143 98 143 152 C143 169 174 182 275 209 C310.7 218.35 339.536 225.894 362.123 234.702 C368.062 237.018 374 232.174 374 225.8 L374 225.8 Z " />
<glyph glyph-name="Abreve" unicode="&#x102;" horiz-adv-x="716" d="M213.727 923.594 C221.984 846.266 261.25 821 361 821 C459.875 821 499.031 846.266 507.275 923.594 C509.67 946.054 494.588 960 472 960 L461.5 960 C449.71 960 435.063 944.038 432.776 932.472 C426.6 901.24 406.6 891 361 891 C315.4 891 295.4 901.24 289.224 932.472 C286.937 944.038 272.29 960 260.5 960 L249.5 960 C226.603 960 211.295 946.361 213.727 923.594 L213.727 923.594 Z M278 700 L33.3409 72.6691 C18.7667 35.2993 42.8889 0 83 0 L134.723 0 C148.246 0 165.611 11.8914 170.5 24.5 L180 49 L229.285 179.081 C229.33 179.199 229.544 179.119 229.5 179 C223.549 162.957 233.953 148 251.064 148 L487.497 148 C509.45 148 537.247 128.77 544.989 108.228 L567.5 48.5 L576.75 24.25 C581.52 11.7437 598.569 0 611.954 0 L680.279 0 C693.526 0 701.514 11.639 696.75 24 L687.5 48 L438.502 699.001 C436.107 705.262 436.106 726.739 438.5 733 C441.851 741.765 436.183 750 426.8 750 L298 750 C297 746 278.5 700 278.5 700 L278 700 Z M291.383 343.138 L317 411 C337.79 466.077 410.21 466.077 431 411 L456.617 343.138 C472.823 300.205 445.025 260 399.136 260 L348.864 260 C302.975 260 275.177 300.205 291.383 343.138 L291.383 343.138 Z " />
<glyph glyph-name="abreve" unicode="&#x103;" horiz-adv-x="550" d="M115.727 693.594 C123.984 616.266 163.25 591 263 591 C361.875 591 401.031 616.266 409.275 693.594 C411.67 716.054 396.588 730 374 730 L363.5 730 C351.71 730 337.063 714.038 334.776 702.472 C328.6 671.24 308.6 661 263 661 C217.4 661 197.4 671.24 191.224 702.472 C188.937 714.038 174.29 730 162.5 730 L151.5 730 C128.603 730 113.295 716.361 115.727 693.594 L115.727 693.594 Z M103.439 374.814 L144.006 361.519 C156.367 357.468 173.813 365.416 179.529 377.1 C195.68 410.11 218.45 421 263 421 C349 421 375 418 375 384 C375 339 334 328 199 292 C80 260 44 227 44 149 C44 28 57 -9 206 -9 C277.75 -9 327.297 -9 360 9.75781 C363.173 11.5775 374.709 10.0232 376.901 7.09552 C385.732 -4.69992 411.199 -1.58711 478.684 -0.373047 C498.736 -0.0123006 519 16.9445 519 37 L519 46.5 C519 61.8728 506.264 73.8581 490.893 73.6621 C467.994 73.37 474 75.075 474 96 L474 341 C474 514 424 529 262 529 C156.4 529 104.229 507.22 70.1117 440.638 C53.9947 409.185 69.8548 385.821 103.439 374.814 L103.439 374.814 Z M374 225.8 L374 166 C368 82 334 81 245 81 C151 81 143 98 143 152 C143 169 174 182 275 209 C310.7 218.35 339.536 225.894 362.123 234.702 C368.062 237.018 374 232.174 374 225.8 L374 225.8 Z " />
<glyph glyph-name="Aogonek" unicode="&#x104;" horiz-adv-x="716" d="M278 700 L33.3409 72.6691 C18.7667 35.2993 42.8889 0 83 0 L134.723 0 C148.246 0 165.611 11.8914 170.5 24.5 L180 49 L229.285 179.081 C229.33 179.199 229.544 179.119 229.5 179 C223.549 162.957 233.953 148 251.064 148 L487.497 148 C509.45 148 537.247 128.77 544.989 108.228 L567.5 48.5 L577.09 23.3584 C581.685 11.3119 598.107 0 611 0 L619.015 0 C625.626 0 628.386 -8.58448 624.373 -13.8386 C606.932 -36.6725 594 -64.475 594 -95 C594 -188 624 -216 720 -216 C762.075 -216 783.051 -212.597 796.965 -201.86 C802.548 -197.552 804.34 -190.096 803.165 -183.143 L794.184 -130.007 C793.756 -127.474 789.821 -126.476 787.737 -127.977 C778.064 -134.94 761.8 -137 727 -137 C668 -137 650 -125 650 -85 C650 -51 675.288 -22.0575 695.77 -6.77025 C700.317 -3.37722 703.691 5.99101 701.651 11.2843 L687.5 48 L438.502 699.001 C436.107 705.262 436.106 726.739 438.5 733 C441.851 741.765 436.183 750 426.8 750 L298 750 C297 746 278.5 700 278.5 700 L278 700 Z M291.383 343.138 L317 411 C337.79 466.077 410.21 466.077 431 411 L456.617 343.138 C472.823 300.205 445.025 260 399.136 260 L348.864 260 C302.975 260 275.177 300.205 291.383 343.138 L291.383 343.138 Z " />
<glyph glyph-name="aogonek" unicode="&#x105;" horiz-adv-x="550" d="M103.439 374.814 L144.006 361.519 C156.367 357.468 173.813 365.416 179.529 377.1 C195.68 410.11 218.45 421 263 421 C349 421 375 418 375 384 C375 339 334 328 199 292 C80 260 44 227 44 149 C44 28 57 -9 206 -9 C279.8 -9 330.11 -9 362.762 11.412 C365.924 13.3885 374.163 11.9094 375.973 8.64941 C382.29 -2.73038 398.937 -2.8355 440.392 -1.574 C447.385 -1.36122 449.503 -10.465 444.856 -15.6941 C423.654 -39.55 408 -66.775 408 -94 C408 -188 438 -217 534 -217 C576.075 -217 597.051 -213.597 610.965 -202.86 C616.548 -198.552 618.34 -191.096 617.165 -184.143 L608.184 -131.007 C607.756 -128.474 603.821 -127.476 601.737 -128.977 C592.064 -135.94 575.8 -138 541 -138 C482 -138 464 -125 464 -84 C464 -50.85 489.288 -22.7575 509.77 -7.70613 C513.551 -4.92816 520 6.40203 520 11.0934 L520 45.5 C520 60.8728 507.264 72.8581 491.893 72.6621 C468.994 72.37 475 74.075 475 95 L475 340 C475 513 425 528 263 528 C157.4 528 104.889 506.56 70.6523 440.097 C54.4382 408.621 69.7933 385.841 103.439 374.814 L103.439 374.814 Z M375 224.8 L375 165 C369 81 335 80 246 80 C152 80 144 97 144 151 C144 168 175 181 276 208 C311.7 217.35 340.536 224.894 363.123 233.702 C369.062 236.018 375 231.174 375 224.8 L375 224.8 Z " />
<glyph glyph-name="Cacute" unicode="&#x106;" horiz-adv-x="722" d="M379 830 L390.995 830 C406.9 830 434.611 845.337 443.057 858.814 L484.484 924.921 C500.628 950.683 484.402 980 454 980 L431.644 980 C409.593 980 381.798 960.708 374.085 940.049 L349.089 873.095 C340.769 850.81 355.213 830 379 830 L379 830 Z M570.675 193.636 C530.829 130.099 480.875 109 386 109 C225 109 176 192 176 375 C176 558 225 641 386 641 C470.15 641 518.227 619.901 565.045 556.364 C581.966 533.4 617.508 528.721 639.438 546.963 L662.051 565.771 C686.302 585.943 693.479 615.301 675.051 640.902 C610.984 729.906 535.625 759 386 759 C134 759 56 639 56 375 C56 111 134 -9 386 -9 C549.625 -9 627.5 20.0938 680.588 109.098 C695.261 133.698 688.348 162.355 666.326 180.673 L637.153 204.938 C617.111 221.608 584.526 215.721 570.675 193.636 L570.675 193.636 Z " />
<glyph glyph-name="cacute" unicode="&#x107;" horiz-adv-x="561" d="M289 600 L300.995 600 C316.9 600 344.611 615.337 353.057 628.814 L394.484 694.921 C410.628 720.683 394.402 750 364 750 L341.644 750 C319.593 750 291.798 730.708 284.085 710.049 L259.089 643.095 C250.769 620.81 265.213 600 289 600 L289 600 Z M401.603 150.149 C380.472 111.932 350.05 99 289 99 C193 99 163 118 163 260 C163 407 193 427 289 427 C357.4 427 377.065 405.34 411.441 337.156 C414.064 331.953 422.322 328.528 427.556 331.09 C443.037 338.669 458.519 346.667 474 354 L502 368 C517.968 375.984 522.465 397.575 514.072 413.332 C467.56 500.65 428.5 529 289 529 C109 529 54 497 54 260 C54 23 109 -9 289 -9 C411.925 -9 472.232 12.0994 509.79 75.0742 C527.721 105.139 515.119 128.737 483.649 144.068 L442.726 164.006 C429.149 170.62 408.911 163.365 401.603 150.149 L401.603 150.149 Z " />
<glyph glyph-name="Ccircumflex" unicode="&#x108;" horiz-adv-x="722" d="M391.008 898.906 C420.484 885.125 458 830 458 830 C458 830 456.592 830 490.505 830 L503.5 830 C523.111 830 532.827 850.216 520.576 865.53 L447.447 956.941 C439.496 966.88 412.198 980 399.47 980 L358.53 980 C345.802 980 318.504 966.88 310.553 956.941 L237.424 865.53 C225.173 850.216 234.889 830 254.5 830 L276.202 830 C285.051 830 311.049 840.07 317.589 846.03 L367.914 891.896 C377.642 900.762 379.084 904.481 391.008 898.906 L391.008 898.906 Z M570.675 193.636 C530.829 130.099 480.875 109 386 109 C225 109 176 192 176 375 C176 558 225 641 386 641 C470.15 641 518.227 619.901 565.045 556.364 C581.966 533.4 617.508 528.721 639.438 546.963 L662.051 565.771 C686.302 585.943 693.479 615.301 675.051 640.902 C610.984 729.906 535.625 759 386 759 C134 759 56 639 56 375 C56 111 134 -9 386 -9 C549.625 -9 627.5 20.0938 680.588 109.098 C695.261 133.698 688.348 162.355 666.326 180.673 L637.153 204.938 C617.111 221.608 584.526 215.721 570.675 193.636 L570.675 193.636 Z " />
<glyph glyph-name="Cdot" unicode="&#x10a;" horiz-adv-x="722" d="M379 830 C408.806 830 433 854.194 433 884 L433 885 C433 914.806 408.806 939 379 939 C349.194 939 325 914.806 325 885 L325 884 C325 854.194 349.194 830 379 830 L379 830 Z M570.675 193.636 C530.829 130.099 480.875 109 386 109 C225 109 176 192 176 375 C176 558 225 641 386 641 C470.15 641 518.227 619.901 565.045 556.364 C581.966 533.4 617.508 528.721 639.438 546.963 L662.051 565.771 C686.302 585.943 693.479 615.301 675.051 640.902 C610.984 729.906 535.625 759 386 759 C134 759 56 639 56 375 C56 111 134 -9 386 -9 C549.625 -9 627.5 20.0938 680.588 109.098 C695.261 133.698 688.348 162.355 666.326 180.673 L637.153 204.938 C617.111 221.608 584.526 215.721 570.675 193.636 L570.675 193.636 Z " />
<glyph glyph-name="cdot" unicode="&#x10b;" horiz-adv-x="561" d="M289 600 C318.806 600 343 624.194 343 654 L343 655 C343 684.806 318.806 709 289 709 C259.194 709 235 684.806 235 655 L235 654 C235 624.194 259.194 600 289 600 L289 600 Z M401.603 150.149 C380.472 111.932 350.05 99 289 99 C193 99 163 118 163 260 C163 407 193 427 289 427 C357.4 427 377.065 405.34 411.441 337.156 C414.064 331.953 422.322 328.528 427.556 331.09 C443.037 338.669 458.519 346.667 474 354 L502 368 C517.968 375.984 522.465 397.575 514.072 413.332 C467.56 500.65 428.5 529 289 529 C109 529 54 497 54 260 C54 23 109 -9 289 -9 C411.925 -9 472.232 12.0994 509.79 75.0742 C527.721 105.139 515.119 128.737 483.649 144.068 L442.726 164.006 C429.149 170.62 408.911 163.365 401.603 150.149 L401.603 150.149 Z " />
<glyph glyph-name="Ccaron" unicode="&#x10c;" horiz-adv-x="722" d="M367.914 918.104 L317.589 963.97 C311.049 969.93 285.051 980 276.202 980 L254.5 980 C234.889 980 225.173 959.784 237.424 944.47 L310.553 853.059 C318.504 843.12 345.802 830 358.53 830 L399.47 830 C412.198 830 439.496 843.12 447.447 853.059 L520.576 944.47 C532.827 959.784 523.111 980 503.5 980 L490.505 980 C475.774 980 466.241 992.015 457.909 979.867 C455.863 976.884 419.642 924.481 391.008 911.094 C379.084 905.519 377.642 909.238 367.914 918.104 L367.914 918.104 Z M570.675 193.636 C530.829 130.099 480.875 109 386 109 C225 109 176 192 176 375 C176 558 225 641 386 641 C470.15 641 518.227 619.901 565.045 556.364 C581.966 533.4 617.508 528.721 639.438 546.963 L662.051 565.771 C686.302 585.943 693.479 615.301 675.051 640.902 C610.984 729.906 535.625 759 386 759 C134 759 56 639 56 375 C56 111 134 -9 386 -9 C549.625 -9 627.5 20.0938 680.588 109.098 C695.261 133.698 688.348 162.355 666.326 180.673 L637.153 204.938 C617.111 221.608 584.526 215.721 570.675 193.636 L570.675 193.636 Z " />
<glyph glyph-name="ccaron" unicode="&#x10d;" horiz-adv-x="561" d="M277.914 688.104 L227.589 733.97 C221.049 739.93 195.051 750 186.202 750 L164.5 750 C144.889 750 135.173 729.784 147.424 714.47 L220.553 623.059 C228.504 613.12 255.802 600 268.53 600 L309.47 600 C322.198 600 349.496 613.12 357.447 623.059 L430.576 714.47 C442.827 729.784 433.111 750 413.5 750 L400.505 750 C385.774 750 376.241 762.015 367.909 749.867 C365.863 746.884 329.642 694.481 301.008 681.094 C289.084 675.519 287.642 679.238 277.914 688.104 L277.914 688.104 Z M401.603 150.149 C380.472 111.932 350.05 99 289 99 C193 99 163 118 163 260 C163 407 193 427 289 427 C357.4 427 377.065 405.34 411.441 337.156 C414.064 331.953 422.322 328.528 427.556 331.09 C443.037 338.669 458.519 346.667 474 354 L502 368 C517.968 375.984 522.465 397.575 514.072 413.332 C467.56 500.65 428.5 529 289 529 C109 529 54 497 54 260 C54 23 109 -9 289 -9 C411.925 -9 472.232 12.0994 509.79 75.0742 C527.721 105.139 515.119 128.737 483.649 144.068 L442.726 164.006 C429.149 170.62 408.911 163.365 401.603 150.149 L401.603 150.149 Z " />
<glyph glyph-name="Dcaron" unicode="&#x10e;" horiz-adv-x="765" d="M329.914 918.104 L279.589 963.97 C273.049 969.93 247.051 980 238.202 980 L216.5 980 C196.825 980 187.05 959.768 199.278 944.355 L271.551 853.255 C279.529 843.199 306.848 830 319.684 830 L361.47 830 C374.198 830 401.496 843.12 409.447 853.059 L482.264 944.08 C494.65 959.562 484.827 980 465 980 L451.882 980 C436.884 980 427.276 992.315 418.911 979.867 C416.906 976.884 381.413 924.481 352.965 911.094 C341.01 905.468 339.678 909.204 329.914 918.104 L329.914 918.104 Z M350 0 C661 0 710 51 710 375 C710 691 648 750 320 750 L152.44 750 C118.527 750 91 722.473 91 688.56 L91 61.44 C91 27.527 118.527 0 152.44 0 L350 0 L350 0 Z M203 139 L203 575.56 C203 609.473 230.527 637 264.44 637 L326 637 C548 637 590 595 590 375 C590 148 556 112 340 112 C296 112 265.604 112.716 225.789 112.936 C211.518 113.015 203 124.728 203 139 L203 139 Z " />
<glyph glyph-name="dcaron" unicode="&#x10f;" horiz-adv-x="585" d="M563.91 704.511 L562.74 645.993 C562.332 625.578 578.581 609 599 609 C618.797 609 640.225 625.676 645.086 644.867 L660.616 706.169 C667.777 734.437 648.661 759 619.5 759 C589.424 759 564.512 734.581 563.91 704.511 L563.91 704.511 Z M163 260 C163 384 197 422 306 422 C389 422 415 384 415 260 C415 136 389 98 306 98 C197 98 163 136 163 260 L163 260 Z M54 260 C54 54 103 -9 263 -9 C325.125 -9 370.406 0.1875 402.863 23.9219 C408.111 27.7596 416 24.0017 416 17.5 C416 7.84052 423.841 0 433.5 0 L466 0 C493.599 0 516 22.4015 516 50 L516 700 C516 727.599 493.599 750 466 750 C438.402 750 416 727.599 416 700 L416 507.984 C416 499.685 404.128 495.478 397.173 500.005 C365.176 520.832 321.575 529 263 529 C103 529 54 466 54 260 L54 260 Z " />
<glyph glyph-name="Dcroat" unicode="&#x110;" horiz-adv-x="765" d="M51 330 C73.0788 330 91 312.079 91 290 L91 61.44 C91 27.527 118.527 0 152.44 0 L350 0 C661 0 710 51 710 375 C710 691 648 750 320 750 L152.44 750 C118.527 750 91 722.473 91 688.56 L91 460 C91 437.921 73.0788 420 51 420 C28.9212 420 11 402.079 11 380 L11 370 C11 347.921 28.9212 330 51 330 L51 330 Z M203 139 L203 268.56 C203 302.473 230.527 330 264.44 330 L296 330 C320.839 330 341 350.161 341 375 C341 399.839 320.839 420 296 420 L264.44 420 C230.527 420 203 447.527 203 481.44 L203 575.56 C203 609.473 230.527 637 264.44 637 L326 637 C548 637 590 595 590 375 C590 148 556 112 340 112 C296 112 265.604 112.716 225.789 112.936 C211.518 113.015 203 124.728 203 139 L203 139 Z " />
<glyph glyph-name="dcroat" unicode="&#x111;" horiz-adv-x="585" d="M308.5 594 L360.5 594 C390.582 594 415 569.582 415 539.5 L415 507.984 C415 499.685 403.128 495.478 396.173 500.005 C364.176 520.832 320.575 529 262 529 C102 529 53 466 53 260 C53 54 102 -9 262 -9 C324.125 -9 369.406 0.1875 401.863 23.9219 C407.111 27.7596 415 24.0017 415 17.5 C415 7.84052 422.841 0 432.5 0 L465 0 C492.599 0 515 22.4015 515 50 L515 542 C515 570.702 538.298 594 567 594 L573.5 594 C598.615 594 619 614.385 619 639.5 C619 664.615 598.615 685 573.5 685 L547.5 685 C529.561 685 515 699.561 515 717.5 C515 735.439 500.439 750 482.5 750 L447.5 750 C429.561 750 415 735.439 415 717.5 C415 699.561 400.439 685 382.5 685 L308.5 685 C283.385 685 263 664.615 263 639.5 C263 614.385 283.385 594 308.5 594 L308.5 594 Z M163 260 C163 384 197 422 306 422 C389 422 415 384 415 260 C415 136 389 98 306 98 C197 98 163 136 163 260 L163 260 Z " />
<glyph glyph-name="Emacron" unicode="&#x112;" horiz-adv-x="628" d="M222 830 L432 830 C451.319 830 467 845.681 467 865 C467 884.319 451.319 900 432 900 L222 900 C202.681 900 187 884.319 187 865 C187 845.681 202.681 830 222 830 L222 830 Z M519 118 L264.44 118 C230.527 118 203 145.527 203 179.44 L203 269.56 C203 303.473 230.527 331 264.44 331 L487 331 C517.91 331 543 356.09 543 387 C543 417.91 517.91 443 487 443 L264.44 443 C230.527 443 203 470.527 203 504.44 L203 570.56 C203 604.473 230.527 632 264.44 632 L504 632 C536.566 632 563 658.434 563 691 C563 723.566 536.566 750 504 750 L152.44 750 C118.527 750 91 722.473 91 688.56 L91 61.44 C91 27.527 118.527 0 152.44 0 L519 0 C551.566 0 578 26.4338 578 59 C578 91.5662 551.566 118 519 118 L519 118 Z " />
<glyph glyph-name="emacron" unicode="&#x113;" horiz-adv-x="568" d="M198 600 L408 600 C427.319 600 443 615.681 443 635 C443 654.319 427.319 670 408 670 L198 670 C178.681 670 163 654.319 163 635 C163 615.681 178.681 600 198 600 L198 600 Z M407.732 144.942 C390.669 110.571 360.35 99 296 99 C213.5 99 177.283 111.251 166.571 190.221 C161.401 228.343 186.433 250 224.904 250 L490.56 250 C525.556 250 552.328 274.593 551.211 309.571 C545.91 475.54 509.1 529 303 529 C113 529 54 497 54 260 C54 23 111 -9 296 -9 C426.35 -9 487.957 12.0994 520.688 76.1972 C536.814 107.776 522.326 129.088 489.273 141.927 L443.121 159.854 C431.248 164.466 413.396 156.351 407.732 144.942 L407.732 144.942 Z M414.531 341 L205.567 341 C180.817 341 168.527 355.917 178.96 378.36 C198 419.32 235.6 427 302 427 C383.675 427 421.45 412.026 438.346 370.848 C446.257 351.57 435.369 341 414.531 341 L414.531 341 Z " />
<glyph glyph-name="Ebreve" unicode="&#x114;" horiz-adv-x="628" d="M179.727 923.594 C187.984 846.266 227.25 821 327 821 C425.875 821 465.031 846.266 473.275 923.594 C475.67 946.054 460.588 960 438 960 L427.5 960 C415.71 960 401.063 944.038 398.776 932.472 C392.6 901.24 372.6 891 327 891 C281.4 891 261.4 901.24 255.224 932.472 C252.937 944.038 238.29 960 226.5 960 L215.5 960 C192.603 960 177.295 946.361 179.727 923.594 L179.727 923.594 Z M519 118 L264.44 118 C230.527 118 203 145.527 203 179.44 L203 269.56 C203 303.473 230.527 331 264.44 331 L487 331 C517.91 331 543 356.09 543 387 C543 417.91 517.91 443 487 443 L264.44 443 C230.527 443 203 470.527 203 504.44 L203 570.56 C203 604.473 230.527 632 264.44 632 L504 632 C536.566 632 563 658.434 563 691 C563 723.566 536.566 750 504 750 L152.44 750 C118.527 750 91 722.473 91 688.56 L91 61.44 C91 27.527 118.527 0 152.44 0 L519 0 C551.566 0 578 26.4338 578 59 C578 91.5662 551.566 118 519 118 L519 118 Z " />
<glyph glyph-name="ebreve" unicode="&#x115;" horiz-adv-x="568" d="M155.727 693.594 C163.984 616.266 203.25 591 303 591 C401.875 591 441.031 616.266 449.275 693.594 C451.67 716.054 436.588 730 414 730 L403.5 730 C391.71 730 377.063 714.038 374.776 702.472 C368.6 671.24 348.6 661 303 661 C257.4 661 237.4 671.24 231.224 702.472 C228.937 714.038 214.29 730 202.5 730 L191.5 730 C168.603 730 153.295 716.361 155.727 693.594 L155.727 693.594 Z M407.732 144.942 C390.669 110.571 360.35 99 296 99 C213.5 99 177.283 111.251 166.571 190.221 C161.401 228.343 186.433 250 224.904 250 L490.56 250 C525.556 250 552.328 274.593 551.211 309.571 C545.91 475.54 509.1 529 303 529 C113 529 54 497 54 260 C54 23 111 -9 296 -9 C426.35 -9 487.957 12.0994 520.688 76.1972 C536.814 107.776 522.326 129.088 489.273 141.927 L443.121 159.854 C431.248 164.466 413.396 156.351 407.732 144.942 L407.732 144.942 Z M414.531 341 L205.567 341 C180.817 341 168.527 355.917 178.96 378.36 C198 419.32 235.6 427 302 427 C383.675 427 421.45 412.026 438.346 370.848 C446.257 351.57 435.369 341 414.531 341 L414.531 341 Z " />
<glyph glyph-name="Edot" unicode="&#x116;" horiz-adv-x="628" d="M327 830 C356.806 830 381 854.194 381 884 L381 885 C381 914.806 356.806 939 327 939 C297.194 939 273 914.806 273 885 L273 884 C273 854.194 297.194 830 327 830 L327 830 Z M519 118 L264.44 118 C230.527 118 203 145.527 203 179.44 L203 269.56 C203 303.473 230.527 331 264.44 331 L487 331 C517.91 331 543 356.09 543 387 C543 417.91 517.91 443 487 443 L264.44 443 C230.527 443 203 470.527 203 504.44 L203 570.56 C203 604.473 230.527 632 264.44 632 L504 632 C536.566 632 563 658.434 563 691 C563 723.566 536.566 750 504 750 L152.44 750 C118.527 750 91 722.473 91 688.56 L91 61.44 C91 27.527 118.527 0 152.44 0 L519 0 C551.566 0 578 26.4338 578 59 C578 91.5662 551.566 118 519 118 L519 118 Z " />
<glyph glyph-name="edot" unicode="&#x117;" horiz-adv-x="568" d="M303 600 C332.806 600 357 624.194 357 654 L357 655 C357 684.806 332.806 709 303 709 C273.194 709 249 684.806 249 655 L249 654 C249 624.194 273.194 600 303 600 L303 600 Z M407.732 144.942 C390.669 110.571 360.35 99 296 99 C213.5 99 177.283 111.251 166.571 190.221 C161.401 228.343 186.433 250 224.904 250 L490.56 250 C525.556 250 552.328 274.593 551.211 309.571 C545.91 475.54 509.1 529 303 529 C113 529 54 497 54 260 C54 23 111 -9 296 -9 C426.35 -9 487.957 12.0994 520.688 76.1972 C536.814 107.776 522.326 129.088 489.273 141.927 L443.121 159.854 C431.248 164.466 413.396 156.351 407.732 144.942 L407.732 144.942 Z M414.531 341 L205.567 341 C180.817 341 168.527 355.917 178.96 378.36 C198 419.32 235.6 427 302 427 C383.675 427 421.45 412.026 438.346 370.848 C446.257 351.57 435.369 341 414.531 341 L414.531 341 Z " />
<glyph glyph-name="Eogonek" unicode="&#x118;" horiz-adv-x="628" d="M274.775 -14.6941 C253.335 -38.55 237 -65.775 237 -93 C237 -187 267 -216 363 -216 C405.075 -216 426.051 -212.597 439.965 -201.86 C445.548 -197.552 447.34 -190.096 446.165 -183.143 L437.184 -130.007 C436.756 -127.474 432.821 -126.476 430.737 -127.977 C421.064 -134.94 404.8 -137 370 -137 C311 -137 293 -124 293 -83 C293 -49.85 318.288 -21.7575 338.77 -6.70613 C342.703 -3.81609 356.213 0 361.093 0 L519 0 C551.566 0 578 26.4338 578 59 C578 91.5662 551.566 118 519 118 L264.44 118 C230.527 118 203 145.527 203 179.44 L203 269.56 C203 303.473 230.527 331 264.44 331 L487 331 C517.91 331 543 356.09 543 387 C543 417.91 517.91 443 487 443 L264.44 443 C230.527 443 203 470.527 203 504.44 L203 570.56 C203 604.473 230.527 632 264.44 632 L504 632 C536.566 632 563 658.434 563 691 C563 723.566 536.566 750 504 750 L152.44 750 C118.527 750 91 722.473 91 688.56 L91 61.44 C91 27.527 118.527 0 152.44 0 L269.551 0 C276.78 0 279.607 -9.31749 274.775 -14.6941 L274.775 -14.6941 Z " />
<glyph glyph-name="eogonek" unicode="&#x119;" horiz-adv-x="568" d="M422.66 2.40925 C476.26 15.6889 507.155 42.0021 526.518 87.8656 C535.574 109.314 525.446 126.876 503.744 135.306 L443.121 158.854 C431.248 163.466 413.396 155.351 407.732 143.942 C390.669 109.571 360.35 98 296 98 C213.5 98 177.283 110.251 166.571 189.221 C161.401 227.343 186.433 249 224.904 249 L490.56 249 C525.556 249 552.328 273.593 551.211 308.571 C545.91 474.54 509.1 528 303 528 C113 528 54 496 54 259 C54 22 111 -10 296 -10 C310.571 -10 324.408 -10 337.51 -9.37026 C340.184 -9.24177 340.309 -12.7513 338.482 -14.7073 C316.257 -38.5 300 -66.25 300 -94 C300 -188 330 -217 426 -217 C468.075 -217 489.051 -213.597 502.965 -202.86 C508.548 -198.552 510.34 -191.096 509.165 -184.143 L500.184 -131.007 C499.756 -128.474 495.821 -127.476 493.737 -128.977 C484.064 -135.94 467.8 -138 433 -138 C374 -138 356 -125 356 -84 C356 -49.875 382.797 -20.7266 403.564 -5.93359 C405.495 -4.55856 420.36 1.83929 422.66 2.40925 L422.66 2.40925 Z M414.531 340 L205.567 340 C180.817 340 168.527 354.917 178.96 377.36 C198 418.32 235.6 426 302 426 C383.675 426 421.45 411.026 438.346 369.848 C446.257 350.57 435.369 340 414.531 340 L414.531 340 Z " />
<glyph glyph-name="Ecaron" unicode="&#x11a;" horiz-adv-x="628" d="M315.914 918.104 L265.589 963.97 C259.049 969.93 233.051 980 224.202 980 L202.5 980 C182.889 980 173.173 959.784 185.424 944.47 L258.553 853.059 C266.504 843.12 293.802 830 306.53 830 L347.47 830 C360.198 830 387.496 843.12 395.447 853.059 L468.576 944.47 C480.827 959.784 471.111 980 451.5 980 L438.505 980 C423.774 980 414.241 992.015 405.909 979.867 C403.863 976.884 367.642 924.481 339.008 911.094 C327.084 905.519 325.642 909.238 315.914 918.104 L315.914 918.104 Z M519 118 L264.44 118 C230.527 118 203 145.527 203 179.44 L203 269.56 C203 303.473 230.527 331 264.44 331 L487 331 C517.91 331 543 356.09 543 387 C543 417.91 517.91 443 487 443 L264.44 443 C230.527 443 203 470.527 203 504.44 L203 570.56 C203 604.473 230.527 632 264.44 632 L504 632 C536.566 632 563 658.434 563 691 C563 723.566 536.566 750 504 750 L152.44 750 C118.527 750 91 722.473 91 688.56 L91 61.44 C91 27.527 118.527 0 152.44 0 L519 0 C551.566 0 578 26.4338 578 59 C578 91.5662 551.566 118 519 118 L519 118 Z " />
<glyph glyph-name="ecaron" unicode="&#x11b;" horiz-adv-x="568" d="M291.914 688.104 L241.589 733.97 C235.049 739.93 209.051 750 200.202 750 L178.5 750 C158.889 750 149.173 729.784 161.424 714.47 L234.553 623.059 C242.504 613.12 269.802 600 282.53 600 L323.47 600 C336.198 600 363.496 613.12 371.447 623.059 L444.576 714.47 C456.827 729.784 447.111 750 427.5 750 L414.505 750 C399.774 750 390.241 762.015 381.909 749.867 C379.863 746.884 343.642 694.481 315.008 681.094 C303.084 675.519 301.642 679.238 291.914 688.104 L291.914 688.104 Z M407.732 144.942 C390.669 110.571 360.35 99 296 99 C213.5 99 177.283 111.251 166.571 190.221 C161.401 228.343 186.433 250 224.904 250 L490.56 250 C525.556 250 552.328 274.593 551.211 309.571 C545.91 475.54 509.1 529 303 529 C113 529 54 497 54 260 C54 23 111 -9 296 -9 C426.35 -9 487.957 12.0994 520.688 76.1972 C536.814 107.776 522.326 129.088 489.273 141.927 L443.121 159.854 C431.248 164.466 413.396 156.351 407.732 144.942 L407.732 144.942 Z M414.531 341 L205.567 341 C180.817 341 168.527 355.917 178.96 378.36 C198 419.32 235.6 427 302 427 C383.675 427 421.45 412.026 438.346 370.848 C446.257 351.57 435.369 341 414.531 341 L414.531 341 Z " />
<glyph glyph-name="Gcircumflex" unicode="&#x11c;" horiz-adv-x="780" d="M435.008 898.906 C464.484 885.125 502 830 502 830 C502 830 500.592 830 534.505 830 L547.5 830 C567.111 830 576.827 850.216 564.576 865.53 L491.447 956.941 C483.496 966.88 456.198 980 443.47 980 L402.53 980 C389.802 980 362.504 966.88 354.553 956.941 L281.424 865.53 C269.173 850.216 278.889 830 298.5 830 L320.202 830 C329.051 830 355.049 840.07 361.589 846.03 L411.914 891.896 C421.642 900.762 423.084 904.481 435.008 898.906 L435.008 898.906 Z M425.5 318 L534.56 318 C568.473 318 596 290.473 596 256.56 L596 187.938 C596 172.996 585.109 149.722 572.724 141.364 C536.871 117.167 501.375 109 423 109 C234 109 176 172 176 375 C176 578 234 641 423 641 C503.025 641 549.019 619.901 595.234 556.364 C612.105 533.17 647.302 528.725 669.267 547.168 L691.391 565.743 C715.34 585.851 722.33 615.46 704.148 640.902 C640.547 729.906 567.375 759 423 759 C142 759 56 669 56 375 C56 81 142 -9 423 -9 C575.625 -9 637.554 10.6794 715.632 72.1988 C725.784 80.1977 735 103.686 735 116.61 L735 375.56 C735 409.473 707.473 437 673.56 437 L425.5 437 C392.658 437 366 410.342 366 377.5 C366 344.658 392.658 318 425.5 318 L425.5 318 Z " />
<glyph glyph-name="Gbreve" unicode="&#x11e;" horiz-adv-x="780" d="M275.727 923.594 C283.984 846.266 323.25 821 423 821 C521.875 821 561.031 846.266 569.275 923.594 C571.67 946.054 556.588 960 534 960 L523.5 960 C511.71 960 497.063 944.038 494.776 932.472 C488.6 901.24 468.6 891 423 891 C377.4 891 357.4 901.24 351.224 932.472 C348.937 944.038 334.29 960 322.5 960 L311.5 960 C288.603 960 273.295 946.361 275.727 923.594 L275.727 923.594 Z M425.5 318 L534.56 318 C568.473 318 596 290.473 596 256.56 L596 187.938 C596 172.996 585.109 149.722 572.724 141.364 C536.871 117.167 501.375 109 423 109 C234 109 176 172 176 375 C176 578 234 641 423 641 C503.025 641 549.019 619.901 595.234 556.364 C612.105 533.17 647.302 528.725 669.267 547.168 L691.391 565.743 C715.34 585.851 722.33 615.46 704.148 640.902 C640.547 729.906 567.375 759 423 759 C142 759 56 669 56 375 C56 81 142 -9 423 -9 C575.625 -9 637.554 10.6794 715.632 72.1988 C725.784 80.1977 735 103.686 735 116.61 L735 375.56 C735 409.473 707.473 437 673.56 437 L425.5 437 C392.658 437 366 410.342 366 377.5 C366 344.658 392.658 318 425.5 318 L425.5 318 Z " />
<glyph glyph-name="gbreve" unicode="&#x11f;" horiz-adv-x="575" d="M132.727 693.594 C140.984 616.266 180.25 591 280 591 C378.875 591 418.031 616.266 426.275 693.594 C428.67 716.054 413.588 730 391 730 L380.5 730 C368.71 730 354.063 714.038 351.776 702.472 C345.6 671.24 325.6 661 280 661 C234.4 661 213.76 671.24 207.328 702.472 C204.973 713.909 190.177 730 178.5 730 L168 730 C145.408 730 130.328 716.058 132.727 693.594 L132.727 693.594 Z M49.942 -100.889 C65.2675 -197.885 127.7 -208 279 -208 C486 -208 505 -149 505 43 L505 470 C505 497.599 482.599 520 455 520 L422 520 C412.617 520 405 512.383 405 503 C405 496.671 397.384 492.999 392.285 496.748 C360.922 519.813 317.5 529 258 529 C102 529 54 507 54 260 C54 21 102 0 258 0 C315.8 0 358.428 8.67 389.567 29.6947 C396.058 34.0772 405 28.8318 405 21 L405 0 C405 -78 394 -102 267 -102 C218.2 -102 196.28 -98.8 189.464 -68.848 C186.796 -57.122 171.026 -41 159 -41 L107.44 -41 C68.2343 -41 43.8233 -62.1641 49.942 -100.889 L49.942 -100.889 Z M163 260 C163 409 195 422 301 422 C381 422 405 384 405 260 C405 143 381 107 301 107 C195 107 163 120 163 260 L163 260 Z " />
<glyph glyph-name="Gdot" unicode="&#x120;" horiz-adv-x="780" d="M423 830 C452.806 830 477 854.194 477 884 L477 885 C477 914.806 452.806 939 423 939 C393.194 939 369 914.806 369 885 L369 884 C369 854.194 393.194 830 423 830 L423 830 Z M425.5 318 L534.56 318 C568.473 318 596 290.473 596 256.56 L596 187.938 C596 172.996 585.109 149.722 572.724 141.364 C536.871 117.167 501.375 109 423 109 C234 109 176 172 176 375 C176 578 234 641 423 641 C503.025 641 549.019 619.901 595.234 556.364 C612.105 533.17 647.302 528.725 669.267 547.168 L691.391 565.743 C715.34 585.851 722.33 615.46 704.148 640.902 C640.547 729.906 567.375 759 423 759 C142 759 56 669 56 375 C56 81 142 -9 423 -9 C575.625 -9 637.554 10.6794 715.632 72.1988 C725.784 80.1977 735 103.686 735 116.61 L735 375.56 C735 409.473 707.473 437 673.56 437 L425.5 437 C392.658 437 366 410.342 366 377.5 C366 344.658 392.658 318 425.5 318 L425.5 318 Z " />
<glyph glyph-name="gdot" unicode="&#x121;" horiz-adv-x="575" d="M279.5 600 C309.582 600 334 624.418 334 654.5 C334 684.582 309.582 709 279.5 709 C249.418 709 225 684.582 225 654.5 C225 624.418 249.418 600 279.5 600 L279.5 600 Z M49.942 -100.889 C65.2675 -197.885 127.7 -208 279 -208 C486 -208 505 -149 505 43 L505 470 C505 497.599 482.599 520 455 520 L422 520 C412.617 520 405 512.383 405 503 C405 496.671 397.384 492.999 392.285 496.748 C360.922 519.813 317.5 529 258 529 C102 529 54 507 54 260 C54 21 102 0 258 0 C315.8 0 358.428 8.67 389.567 29.6947 C396.058 34.0772 405 28.8318 405 21 L405 0 C405 -78 394 -102 267 -102 C218.2 -102 196.28 -98.8 189.464 -68.848 C186.796 -57.122 171.026 -41 159 -41 L107.44 -41 C68.2343 -41 43.8233 -62.1641 49.942 -100.889 L49.942 -100.889 Z M163 260 C163 409 195 422 301 422 C381 422 405 384 405 260 C405 143 381 107 301 107 C195 107 163 120 163 260 L163 260 Z " />
<glyph glyph-name="Hcircumflex" unicode="&#x124;" horiz-adv-x="762" d="M396.008 898.906 C425.484 885.125 463 830 463 830 C463 830 461.592 830 495.505 830 L508.5 830 C528.111 830 537.827 850.216 525.576 865.53 L452.447 956.941 C444.496 966.88 417.198 980 404.47 980 L363.53 980 C350.802 980 323.504 966.88 315.553 956.941 L242.424 865.53 C230.173 850.216 239.889 830 259.5 830 L281.202 830 C290.051 830 316.049 840.07 322.589 846.03 L372.914 891.896 C382.642 900.762 384.084 904.481 396.008 898.906 L396.008 898.906 Z M677 56 L677 694 C677 724.91 651.91 750 621 750 C590.09 750 565 724.91 565 694 L565 515.44 C565 481.527 537.473 454 503.56 454 L264.44 454 C230.527 454 203 481.527 203 515.44 L203 694 C203 724.91 177.91 750 147 750 C116.09 750 91 724.91 91 694 L91 56 C91 25.0897 116.09 0 147 0 C177.91 0 203 25.0897 203 56 L203 274.56 C203 308.473 230.527 336 264.44 336 L503.56 336 C537.473 336 565 308.473 565 274.56 L565 56 C565 25.0897 590.09 0 621 0 C651.91 0 677 25.0897 677 56 L677 56 Z " />
<glyph glyph-name="Itilde" unicode="&#x128;" horiz-adv-x="284" d="M63.656 857.04 C65.48 887.76 71.4 898 85 898 C127 898 151 821 208 821 C205 821 201 899 201 899 C201 899 204.454 860.516 204.491 860.105 L204.961 854.864 C207.085 831.195 216.484 818.529 239.521 824.36 C276.164 833.633 292.005 863.339 295.965 928.57 C297.277 950.191 281.66 967 260 967 L249 967 C235.499 967 223.144 953.437 222.344 939.96 C220.919 915.96 216.994 904.46 208.86 900.577 C202.098 897.349 205.785 893.48 200.877 899.142 C197.706 902.802 133.575 976 78 976 C79.7 976 80.6775 962.272 81.5466 946.486 C81.5536 946.359 81.2801 947.358 81.2704 947.485 L80.5 957.5 C79.5651 969.653 72.0819 977.424 59.984 975.936 C14.3675 970.325 -4.58125 941.65 -8.96484 869.43 C-10.2605 848.084 5.11713 830.793 26.5 830.5 L37.0024 830.356 C50.5117 830.171 62.8552 843.553 63.656 857.04 L63.656 857.04 Z M200 56.5 L200 695.5 C200 726.134 175.134 751 144.5 751 C113.866 751 89 726.134 89 695.5 L89 56.5 C89 25.8657 113.866 1 144.5 1 C175.134 1 200 25.8657 200 56.5 L200 56.5 Z " />
<glyph glyph-name="itilde" unicode="&#x129;" horiz-adv-x="287" d="M87.656 627.04 C89.48 657.76 95.4 668 109 668 C151 668 175 591 232 591 C229 591 225 669 225 669 C225 669 228.454 630.516 228.491 630.105 L228.961 624.864 C231.085 601.195 240.484 588.529 263.521 594.36 C300.164 603.633 316.005 633.339 319.965 698.57 C321.277 720.191 305.66 737 284 737 L273 737 C259.499 737 247.144 723.437 246.344 709.96 C244.919 685.96 240.994 674.46 232.86 670.577 C226.098 667.349 229.785 663.48 224.877 669.142 C221.706 672.802 157.575 746 102 746 C103.7 746 104.678 732.272 105.547 716.486 C105.554 716.359 105.28 717.358 105.27 717.485 L104.5 727.5 C103.565 739.653 96.0819 747.424 83.984 745.936 C38.3675 740.325 19.4187 711.65 15.0352 639.43 C13.7395 618.084 29.1171 600.793 50.5 600.5 L61.0024 600.356 C74.5117 600.171 86.8552 613.553 87.656 627.04 L87.656 627.04 Z M168 1 C195.599 1 218 23.4015 218 51 L218 471 C218 498.599 195.599 521 168 521 C140.402 521 118 498.599 118 471 L118 51 C118 23.4015 140.402 1 168 1 L168 1 Z " />
<glyph glyph-name="Imacron" unicode="&#x12a;" horiz-adv-x="284" d="M38 830 L248 830 C267.319 830 283 845.681 283 865 C283 884.319 267.319 900 248 900 L38 900 C18.681 900 3 884.319 3 865 C3 845.681 18.681 830 38 830 L38 830 Z M199 55.5 L199 694.5 C199 725.134 174.134 750 143.5 750 C112.866 750 88 725.134 88 694.5 L88 55.5 C88 24.8657 112.866 0 143.5 0 C174.134 0 199 24.8657 199 55.5 L199 55.5 Z " />
<glyph glyph-name="imacron" unicode="&#x12b;" horiz-adv-x="287" d="M62 600 L272 600 C291.319 600 307 615.681 307 635 C307 654.319 291.319 670 272 670 L62 670 C42.681 670 27 654.319 27 635 C27 615.681 42.681 600 62 600 L62 600 Z M167 0 C194.599 0 217 22.4015 217 50 L217 470 C217 497.599 194.599 520 167 520 C139.402 520 117 497.599 117 470 L117 50 C117 22.4015 139.402 0 167 0 L167 0 Z " />
<glyph glyph-name="Ibreve" unicode="&#x12c;" horiz-adv-x="284" d="M-4.27344 923.594 C3.98438 846.266 43.25 821 143 821 C241.875 821 281.031 846.266 289.275 923.594 C291.67 946.054 276.588 960 254 960 L243.5 960 C231.71 960 217.063 944.038 214.776 932.472 C208.6 901.24 188.6 891 143 891 C97.4 891 77.4 901.24 71.224 932.472 C68.9369 944.038 54.2897 960 42.5 960 L31.5 960 C8.6032 960 -6.70475 946.361 -4.27344 923.594 L-4.27344 923.594 Z M199 55.5 L199 694.5 C199 725.134 174.134 750 143.5 750 C112.866 750 88 725.134 88 694.5 L88 55.5 C88 24.8657 112.866 0 143.5 0 C174.134 0 199 24.8657 199 55.5 L199 55.5 Z " />
<glyph glyph-name="ibreve" unicode="&#x12d;" horiz-adv-x="287" d="M19.7266 693.594 C27.9844 616.266 67.25 591 167 591 C265.875 591 305.031 616.266 313.275 693.594 C315.67 716.054 300.588 730 278 730 L267.5 730 C255.71 730 241.063 714.038 238.776 702.472 C232.6 671.24 212.6 661 167 661 C121.4 661 101.4 671.24 95.224 702.472 C92.9369 714.038 78.2897 730 66.5 730 L55.5 730 C32.6032 730 17.2953 716.361 19.7266 693.594 L19.7266 693.594 Z M167 0 C194.599 0 217 22.4015 217 50 L217 470 C217 497.599 194.599 520 167 520 C139.402 520 117 497.599 117 470 L117 50 C117 22.4015 139.402 0 167 0 L167 0 Z " />
<glyph glyph-name="Idot" unicode="&#x130;" horiz-adv-x="284" d="M143 830 C172.806 830 197 854.194 197 884 L197 885 C197 914.806 172.806 939 143 939 C113.194 939 89 914.806 89 885 L89 884 C89 854.194 113.194 830 143 830 L143 830 Z M199 55.5 L199 694.5 C199 725.134 174.134 750 143.5 750 C112.866 750 88 725.134 88 694.5 L88 55.5 C88 24.8657 112.866 0 143.5 0 C174.134 0 199 24.8657 199 55.5 L199 55.5 Z " />
<glyph glyph-name="dotlessi" unicode="&#x131;" horiz-adv-x="287" d="M167 0 C194.599 0 217 22.4015 217 50 L217 470 C217 497.599 194.599 520 167 520 C139.402 520 117 497.599 117 470 L117 50 C117 22.4015 139.402 0 167 0 L167 0 Z " />
<glyph glyph-name="Jcircumflex" unicode="&#x134;" horiz-adv-x="549" d="M420.008 898.906 C449.484 885.125 487 830 487 830 C487 830 485.592 830 519.505 830 L532.5 830 C552.111 830 561.827 850.216 549.576 865.53 L476.447 956.941 C468.496 966.88 441.198 980 428.47 980 L387.53 980 C374.802 980 347.504 966.88 339.553 956.941 L266.424 865.53 C254.173 850.216 263.889 830 283.5 830 L305.202 830 C314.051 830 340.049 840.07 346.589 846.03 L396.914 891.896 C406.642 900.762 408.084 904.481 420.008 898.906 L420.008 898.906 Z M53 248.5 L53 217 C53 18 78 -9 259 -9 C432 -9 464 45 464 220 L464 694 C464 724.91 438.91 750 408 750 C377.09 750 352 724.91 352 694 L352 220 C352 147 337 125 259 125 C175 125 164 140 164 249 L164.5 274.5 C164.771 288.305 153.485 297.944 139.892 295.516 L84.0095 285.537 C67.1597 282.529 53 265.616 53 248.5 L53 248.5 Z " />
<glyph glyph-name="Lacute" unicode="&#x139;" horiz-adv-x="554" d="M143 830 L154.995 830 C170.9 830 198.611 845.337 207.057 858.814 L248.484 924.921 C264.628 950.683 248.402 980 218 980 L195.644 980 C173.593 980 145.798 960.708 138.085 940.049 L113.089 873.095 C104.769 850.81 119.213 830 143 830 L143 830 Z M465 118 L260.44 118 C226.527 118 199 145.527 199 179.44 L199 694.5 C199 725.134 174.134 750 143.5 750 C112.866 750 88 725.134 88 694.5 L88 61.44 C88 27.527 115.527 0 149.44 0 L465 0 C497.566 0 524 26.4338 524 59 C524 91.5662 497.566 118 465 118 L465 118 Z " />
<glyph glyph-name="lacute" unicode="&#x13a;" horiz-adv-x="247" d="M102 790 L113.995 790 C129.9 790 157.611 805.337 166.057 818.814 L207.484 884.921 C223.628 910.683 207.402 940 177 940 L154.644 940 C132.593 940 104.798 920.708 97.0849 900.049 L72.0887 833.095 C63.7691 810.81 78.213 790 102 790 L102 790 Z M177 50 L177 700 C177 727.599 154.599 750 127 750 C99.4015 750 77 727.599 77 700 L77 50 C77 22.4015 99.4015 0 127 0 C154.599 0 177 22.4015 177 50 L177 50 Z " />
<glyph glyph-name="Lcaron" unicode="&#x13d;" horiz-adv-x="554" d="M306.273 704.505 L305.493 645.997 C305.221 625.577 321.579 609 342 609 C361.829 609 383.112 625.672 387.861 644.923 L402.948 706.086 C409.943 734.443 390.707 759 361.5 759 C331.42 759 306.674 734.582 306.273 704.505 L306.273 704.505 Z M465 118 L260.44 118 C226.527 118 199 145.527 199 179.44 L199 694.5 C199 725.134 174.134 750 143.5 750 C112.866 750 88 725.134 88 694.5 L88 61.44 C88 27.527 115.527 0 149.44 0 L465 0 C497.566 0 524 26.4338 524 59 C524 91.5662 497.566 118 465 118 L465 118 Z " />
<glyph glyph-name="lcaron" unicode="&#x13e;" horiz-adv-x="247" d="M225.91 704.511 L224.74 645.993 C224.332 625.578 240.581 609 261 609 C280.797 609 302.225 625.676 307.086 644.867 L322.616 706.169 C329.777 734.437 310.661 759 281.5 759 C251.424 759 226.512 734.581 225.91 704.511 L225.91 704.511 Z M177 50 L177 700 C177 727.599 154.599 750 127 750 C99.4015 750 77 727.599 77 700 L77 50 C77 22.4015 99.4015 0 127 0 C154.599 0 177 22.4015 177 50 L177 50 Z " />
<glyph glyph-name="Lslash" unicode="&#x141;" horiz-adv-x="554" d="M48 288.5 C69.2193 294.601 88 280.458 88 258.38 L88 61.44 C88 27.527 115.527 0 149.44 0 L465 0 C497.566 0 524 26.4338 524 59 C524 91.5662 497.566 118 465 118 L260.44 118 C226.527 118 199 145.527 199 179.44 L199 284.499 C199 309.201 219.979 336.921 243.753 343.63 L317.247 364.37 C341.021 371.079 362 398.799 362 423.501 L362 425 C362 450.499 340.344 466.889 315.804 459.963 L277.127 449.048 C235.624 437.336 199 465.055 199 508.179 L199 694.5 C199 725.134 174.134 750 143.5 750 C112.866 750 88 725.134 88 694.5 L88 437.62 C88 415.542 69.2193 390.601 48 384.5 C26.7807 378.399 8 353.458 8 331.38 L8 318.62 C8 296.542 26.7807 282.399 48 288.5 L48 288.5 Z " />
<glyph glyph-name="lslash" unicode="&#x142;" horiz-adv-x="247" d="M37 292.5 C57.5872 300.478 77 287.181 77 265.102 L77 50 C77 22.4015 99.4015 0 127 0 C154.599 0 177 22.4015 177 50 L177 303.916 C177 325.576 196.044 353.38 216.24 361.206 L217.76 361.794 C237.956 369.62 257 397.424 257 419.084 L257 430.102 C257 452.181 237.587 465.478 217 457.5 C196.413 449.522 177 462.819 177 484.898 L177 700 C177 727.599 154.599 750 127 750 C99.4015 750 77 727.599 77 700 L77 446.084 C77 424.424 57.9558 396.62 37.7596 388.794 L36.2404 388.206 C16.0442 380.38 -3 352.576 -3 330.916 L-3 319.898 C-3 297.819 16.4128 284.522 37 292.5 L37 292.5 Z " />
<glyph glyph-name="Nacute" unicode="&#x143;" horiz-adv-x="755" d="M276 830 L287.995 830 C303.9 830 331.611 845.337 340.057 858.814 L381.484 924.921 C397.628 950.683 381.402 980 351 980 L328.644 980 C306.593 980 278.798 960.708 271.085 940.049 L246.089 873.095 C237.769 850.81 252.213 830 276 830 L276 830 Z M409.016 391.33 L235.896 698.969 C233.758 702.767 228 724.742 228 729.1 L228 731.5 C228 741.711 219.711 750 209.5 750 L144.44 750 C110.527 750 83 722.473 83 688.56 L83 61.44 C83 27.527 110.527 0 144.44 0 L166.56 0 C200.473 0 228 27.527 228 61.44 L228 257.637 C228 321.101 311.842 343.081 342.978 287.779 L487.379 31.2977 C495.854 16.2442 523.642 0 540.917 0 L608.56 0 C642.473 0 670 27.527 670 61.44 L670 688.56 C670 722.473 642.473 750 608.56 750 L585.44 750 C551.527 750 524 722.473 524 688.56 L524 421.461 C524 357.993 440.142 336.019 409.016 391.33 L409.016 391.33 Z " />
<glyph glyph-name="nacute" unicode="&#x144;" horiz-adv-x="546" d="M277.5 600 L289.186 600 C304.954 600 332.655 615.245 341.092 628.566 L382.954 694.664 C399.297 720.468 383.044 750 352.5 750 L329.912 750 C307.674 750 279.883 730.59 272.227 709.711 L247.664 642.719 C239.546 620.581 253.92 600 277.5 600 L277.5 600 Z M481 50 L481 315 C481 492 444 525 324 525 C261 525 216.375 516.578 186.105 495.045 C180.831 491.293 174 496.028 174 502.5 C174 512.159 166.159 520 156.5 520 L124 520 C96.4015 520 74 497.599 74 470 L74 50 C74 22.4015 96.4015 0 124 0 C151.599 0 174 22.4015 174 50 L174 326 C174 388 198 407 274 407 C356 407 381 392 381 315 L381 50 C381 22.4015 403.402 0 431 0 C458.599 0 481 22.4015 481 50 L481 50 Z " />
<glyph glyph-name="Ncaron" unicode="&#x147;" horiz-adv-x="755" d="M364.914 918.104 L314.589 963.97 C308.049 969.93 282.051 980 273.202 980 L251.5 980 C231.889 980 222.173 959.784 234.424 944.47 L307.553 853.059 C315.504 843.12 342.802 830 355.53 830 L396.47 830 C409.198 830 436.496 843.12 444.447 853.059 L517.576 944.47 C529.827 959.784 520.111 980 500.5 980 L487.505 980 C472.774 980 463.241 992.015 454.909 979.867 C452.863 976.884 416.642 924.481 388.008 911.094 C376.084 905.519 374.642 909.238 364.914 918.104 L364.914 918.104 Z M409.016 391.33 L235.896 698.969 C233.758 702.767 228 724.742 228 729.1 L228 731.5 C228 741.711 219.711 750 209.5 750 L144.44 750 C110.527 750 83 722.473 83 688.56 L83 61.44 C83 27.527 110.527 0 144.44 0 L166.56 0 C200.473 0 228 27.527 228 61.44 L228 257.637 C228 321.101 311.842 343.081 342.978 287.779 L487.379 31.2977 C495.854 16.2442 523.642 0 540.917 0 L608.56 0 C642.473 0 670 27.527 670 61.44 L670 688.56 C670 722.473 642.473 750 608.56 750 L585.44 750 C551.527 750 524 722.473 524 688.56 L524 421.461 C524 357.993 440.142 336.019 409.016 391.33 L409.016 391.33 Z " />
<glyph glyph-name="ncaron" unicode="&#x148;" horiz-adv-x="546" d="M266.914 688.104 L216.589 733.97 C210.049 739.93 184.051 750 175.202 750 L153.5 750 C133.825 750 124.05 729.768 136.278 714.355 L208.551 623.255 C216.529 613.199 243.848 600 256.684 600 L298.47 600 C311.198 600 338.496 613.12 346.447 623.059 L419.264 714.08 C431.65 729.562 421.827 750 402 750 L388.882 750 C373.884 750 364.276 762.315 355.911 749.867 C353.906 746.884 318.413 694.481 289.965 681.094 C278.01 675.468 276.678 679.204 266.914 688.104 L266.914 688.104 Z M481 50 L481 315 C481 492 444 525 324 525 C261 525 216.375 516.578 186.105 495.045 C180.831 491.293 174 496.028 174 502.5 C174 512.159 166.159 520 156.5 520 L124 520 C96.4015 520 74 497.599 74 470 L74 50 C74 22.4015 96.4015 0 124 0 C151.599 0 174 22.4015 174 50 L174 326 C174 388 198 407 274 407 C356 407 381 392 381 315 L381 50 C381 22.4015 403.402 0 431 0 C458.599 0 481 22.4015 481 50 L481 50 Z " />
<glyph glyph-name="Omacron" unicode="&#x14c;" horiz-adv-x="814" d="M305 830 L515 830 C534.319 830 550 845.681 550 865 C550 884.319 534.319 900 515 900 L305 900 C285.681 900 270 884.319 270 865 C270 845.681 285.681 830 305 830 L305 830 Z M181 375 C181 568 244 641 410 641 C576 641 639 568 639 375 C639 172 585 109 410 109 C235 109 181 172 181 375 L181 375 Z M61 375 C61 81 143 -9 410 -9 C677 -9 759 81 759 375 C759 654 664 759 410 759 C156 759 61 654 61 375 L61 375 Z " />
<glyph glyph-name="omacron" unicode="&#x14d;" horiz-adv-x="590" d="M192 600 L402 600 C421.319 600 437 615.681 437 635 C437 654.319 421.319 670 402 670 L192 670 C172.681 670 157 654.319 157 635 C157 615.681 172.681 600 192 600 L192 600 Z M163 260 C163 412 194 433 297 433 C415 433 431 392 431 260 C431 108 400 87 297 87 C179 87 163 128 163 260 L163 260 Z M54 260 C54 54 83 -9 297 -9 C483 -9 540 23 540 260 C540 466 511 529 297 529 C111 529 54 497 54 260 L54 260 Z " />
<glyph glyph-name="Obreve" unicode="&#x14e;" horiz-adv-x="814" d="M262.727 923.594 C270.984 846.266 310.25 821 410 821 C508.875 821 548.031 846.266 556.275 923.594 C558.67 946.054 543.588 960 521 960 L510.5 960 C498.71 960 484.063 944.038 481.776 932.472 C475.6 901.24 455.6 891 410 891 C364.4 891 344.4 901.24 338.224 932.472 C335.937 944.038 321.29 960 309.5 960 L298.5 960 C275.603 960 260.295 946.361 262.727 923.594 L262.727 923.594 Z M181 375 C181 568 244 641 410 641 C576 641 639 568 639 375 C639 172 585 109 410 109 C235 109 181 172 181 375 L181 375 Z M61 375 C61 81 143 -9 410 -9 C677 -9 759 81 759 375 C759 654 664 759 410 759 C156 759 61 654 61 375 L61 375 Z " />
<glyph glyph-name="obreve" unicode="&#x14f;" horiz-adv-x="590" d="M149.727 693.594 C157.984 616.266 197.25 591 297 591 C395.875 591 435.031 616.266 443.275 693.594 C445.67 716.054 430.588 730 408 730 L397.5 730 C385.71 730 371.063 714.038 368.776 702.472 C362.6 671.24 342.6 661 297 661 C251.4 661 231.4 671.24 225.224 702.472 C222.937 714.038 208.29 730 196.5 730 L185.5 730 C162.603 730 147.295 716.361 149.727 693.594 L149.727 693.594 Z M163 260 C163 412 194 433 297 433 C415 433 431 392 431 260 C431 108 400 87 297 87 C179 87 163 128 163 260 L163 260 Z M54 260 C54 54 83 -9 297 -9 C483 -9 540 23 540 260 C540 466 511 529 297 529 C111 529 54 497 54 260 L54 260 Z " />
<glyph glyph-name="Racute" unicode="&#x154;" horiz-adv-x="624" d="M340 830 L351.995 830 C367.9 830 395.611 845.337 404.057 858.814 L445.484 924.921 C461.628 950.683 445.402 980 415 980 L392.644 980 C370.593 980 342.798 960.708 335.085 940.049 L310.089 873.095 C301.769 850.81 316.213 830 340 830 L340 830 Z M588 50 L468.344 266.975 C455.23 290.757 475.936 325.902 501.704 334.48 C572.36 358 589 411.6 589 526 C589 715 550 751 342 751 L152.44 751 C118.527 751 91 723.473 91 689.56 L91 57 C91 26.0897 116.09 1 147 1 C177.91 1 203 26.0897 203 57 L203 264.5 C203 294.582 227.418 319 257.5 319 L275.582 319 C293.216 319 321.016 302.522 329.481 287.052 L468.519 32.9481 C476.984 17.4781 504.784 1 522.418 1 L606.5 1 C610.64 1 612.948 4.84726 611 8.5 L607 16 L588 50.75 L588 50 Z M204 494.44 L204 577.56 C204 611.473 231.527 639 265.44 639 L337 639 C456 639 478 621 478 527 C478 448 457 433 347 433 L265.44 433 C231.527 433 204 460.527 204 494.44 L204 494.44 Z " />
<glyph glyph-name="racute" unicode="&#x155;" horiz-adv-x="370" d="M212 600 L223.995 600 C239.9 600 267.611 615.337 276.057 628.814 L317.484 694.921 C333.628 720.683 317.402 750 287 750 L264.644 750 C242.593 750 214.798 730.708 207.085 710.049 L182.089 643.095 C173.769 620.81 188.213 600 212 600 L212 600 Z M350 390.511 L350 475.5 C350 501.403 332.123 520.333 306.259 518.92 C253.794 516.052 215.647 507.136 189.05 488.174 C182.569 483.553 173 489.541 173 497.5 C173 510.471 162.471 521 149.5 521 L123 521 C95.4015 521 73 498.599 73 471 L73 51 C73 23.4015 95.4015 1 123 1 C150.599 1 173 23.4015 173 51 L173 237 C173 346 186 380 327 380 L338.5 379.5 C344.842 379.224 350 384.163 350 390.511 L350 390.511 Z " />
<glyph glyph-name="Rcaron" unicode="&#x158;" horiz-adv-x="624" d="M328.914 918.104 L278.589 963.97 C272.049 969.93 246.051 980 237.202 980 L215.5 980 C195.889 980 186.173 959.784 198.424 944.47 L271.553 853.059 C279.504 843.12 306.802 830 319.53 830 L360.47 830 C373.198 830 400.496 843.12 408.447 853.059 L481.576 944.47 C493.827 959.784 484.111 980 464.5 980 L451.505 980 C436.774 980 427.241 992.015 418.909 979.867 C416.863 976.884 380.642 924.481 352.008 911.094 C340.084 905.519 338.642 909.238 328.914 918.104 L328.914 918.104 Z M588 50 L468.344 266.975 C455.23 290.757 475.936 325.902 501.704 334.48 C572.36 358 589 411.6 589 526 C589 715 550 751 342 751 L152.44 751 C118.527 751 91 723.473 91 689.56 L91 57 C91 26.0897 116.09 1 147 1 C177.91 1 203 26.0897 203 57 L203 264.5 C203 294.582 227.418 319 257.5 319 L275.582 319 C293.216 319 321.016 302.522 329.481 287.052 L468.519 32.9481 C476.984 17.4781 504.784 1 522.418 1 L606.5 1 C610.64 1 612.948 4.84726 611 8.5 L607 16 L588 50.75 L588 50 Z M204 494.44 L204 577.56 C204 611.473 231.527 639 265.44 639 L337 639 C456 639 478 621 478 527 C478 448 457 433 347 433 L265.44 433 C231.527 433 204 460.527 204 494.44 L204 494.44 Z " />
<glyph glyph-name="rcaron" unicode="&#x159;" horiz-adv-x="370" d="M200.914 688.104 L150.589 733.97 C144.049 739.93 118.051 750 109.202 750 L87.5 750 C67.8888 750 58.1726 729.784 70.4236 714.47 L143.553 623.059 C151.504 613.12 178.802 600 191.53 600 L232.47 600 C245.198 600 272.496 613.12 280.447 623.059 L353.576 714.47 C365.827 729.784 356.111 750 336.5 750 L323.505 750 C308.774 750 299.241 762.015 290.909 749.867 C288.863 746.884 252.642 694.481 224.008 681.094 C212.084 675.519 210.642 679.238 200.914 688.104 L200.914 688.104 Z M350 390.511 L350 475.5 C350 501.403 332.123 520.333 306.259 518.92 C253.794 516.052 215.647 507.136 189.05 488.174 C182.569 483.553 173 489.541 173 497.5 C173 510.471 162.471 521 149.5 521 L123 521 C95.4015 521 73 498.599 73 471 L73 51 C73 23.4015 95.4015 1 123 1 C150.599 1 173 23.4015 173 51 L173 237 C173 346 186 380 327 380 L338.5 379.5 C344.842 379.224 350 384.163 350 390.511 L350 390.511 Z " />
<glyph glyph-name="Sacute" unicode="&#x15a;" horiz-adv-x="608" d="M292.5 830 L304.186 830 C319.954 830 347.655 845.245 356.092 858.566 L397.954 924.664 C414.297 950.468 398.044 980 367.5 980 L344.912 980 C322.674 980 294.883 960.59 287.227 939.711 L262.664 872.719 C254.546 850.581 268.92 830 292.5 830 L292.5 830 Z M547 637 C453 740 397 759 276 759 C96 759 41 709 41 546 C41 400 80 366 287 330 C433 305 461 285 461 206 C461 139 439 118 325 118 C243.1 118 207.781 137.012 159.723 237.137 C156.854 243.113 151.719 242.006 146.323 238.156 C129.548 226.187 112.774 213.742 96 202 L65 180 C47.1417 167.326 38.5549 147.518 48.8272 128.178 C109.874 13.2463 174.3 -9 326 -9 C535 -9 574 42 574 210 C574 368 533 405 318 442 C183 466 157 484 157 558 C157 613 185 630 277 630 C332.2 630 365 620.4 411.752 577.136 C431.008 559.317 469.146 555.287 488.619 572.869 L549.851 628.157 C551.587 629.724 551.654 632.346 550 634 L547 637 L547 637 Z " />
<glyph glyph-name="sacute" unicode="&#x15b;" horiz-adv-x="494" d="M259 600 L270.995 600 C286.9 600 314.611 615.337 323.057 628.814 L364.484 694.921 C380.628 720.683 364.402 750 334 750 L311.644 750 C289.593 750 261.798 730.708 254.085 710.049 L229.089 643.095 C220.769 620.81 235.213 600 259 600 L259 600 Z M403 365 L429.5 377 C445.052 384.042 449.985 402.931 442.114 418.08 C400.03 499.08 352.6 525 259 525 C108 525 62 490 62 378 C62 274 91 238 243 215 C345 200 364 182 364 133 C364 105 338 97 252 97 C193.1 97 167.593 113.245 145.469 165.455 C143.231 170.738 138.508 172.788 133.114 170.83 C116.096 164.652 99.1852 157.963 83 152 L53 140.5 C35.0274 133.61 26.8346 117.817 35.217 100.49 C73.62 21.11 129.6 -4 252 -4 C414 -4 464 30 464 142 C464 244 433 280 267 305 C175 319 158 337 158 386 C158 418 182 428 259 428 C296.05 428 316.855 409.95 344.564 350.701 C346.854 345.804 352.392 342.503 357.308 344.752 C372.538 351.722 387.769 359.077 403 365 L403 365 Z " />
<glyph glyph-name="Scircumflex" unicode="&#x15c;" horiz-adv-x="608" d="M304.965 898.906 C334.25 885.125 371 830 371 830 C371 830 369.969 830 403.882 830 L417 830 C436.827 830 446.65 850.438 434.264 865.92 L361.447 956.941 C353.496 966.88 326.198 980 313.47 980 L271.684 980 C258.848 980 231.529 966.801 223.551 956.745 L151.278 865.645 C139.05 850.232 148.825 830 168.5 830 L190.202 830 C199.051 830 225.049 840.07 231.589 846.03 L281.914 891.896 C291.678 900.796 293.01 904.532 304.965 898.906 L304.965 898.906 Z M547 637 C453 740 397 759 276 759 C96 759 41 709 41 546 C41 400 80 366 287 330 C433 305 461 285 461 206 C461 139 439 118 325 118 C243.1 118 207.781 137.012 159.723 237.137 C156.854 243.113 151.719 242.006 146.323 238.156 C129.548 226.187 112.774 213.742 96 202 L65 180 C47.1417 167.326 38.5549 147.518 48.8272 128.178 C109.874 13.2463 174.3 -9 326 -9 C535 -9 574 42 574 210 C574 368 533 405 318 442 C183 466 157 484 157 558 C157 613 185 630 277 630 C332.2 630 365 620.4 411.752 577.136 C431.008 559.317 469.146 555.287 488.619 572.869 L549.851 628.157 C551.587 629.724 551.654 632.346 550 634 L547 637 L547 637 Z " />
<glyph glyph-name="Scedilla" unicode="&#x15e;" horiz-adv-x="608" d="M309 -118.5 C308.964 -118.625 309.181 -118.694 309.224 -118.572 L309.276 -118.428 C309.319 -118.306 309.036 -118.375 309 -118.5 L309 -118.5 Z M313.92 -111.376 C318.56 -107.28 326.4 -106 340 -106 C368 -106 377 -117 377 -151 C377 -185 368 -196 337 -196 C305.821 -196 293.492 -189.268 292.833 -169.174 C292.648 -163.559 285.661 -160.505 281.231 -163.96 L259.557 -180.866 C248.418 -189.554 241.389 -197.119 243.583 -211.075 C247.476 -235.832 274 -244 340 -244 C411 -244 433 -222 433 -151 C433 -68 414 -43 351 -43 C340.846 -43 332.84 -43.716 326.982 -46.3596 C325.799 -46.8937 324.464 -45.7399 324.725 -44.468 L328 -28.5 C330.125 -18.1418 336.346 -9.02316 346.918 -8.82839 C536.876 -5.32875 573 48.15 573 210 C573 368 532 405 317 442 C182 466 156 484 156 558 C156 613 184 630 276 630 C331.2 630 364 620.4 410.752 577.136 C430.008 559.317 468.146 555.287 487.619 572.869 L549.376 628.631 C550.822 629.937 550.878 632.122 549.5 633.5 L547 636 C453 739 397 758 276 758 C96 758 41 708 41 545 C41 399 80 365 287 329 C433 304 461 284 461 205 C461 138 439 117 325 117 C243.1 117 207.781 136.013 159.723 236.137 C156.854 242.113 151.719 241.006 146.323 237.156 C129.548 225.187 112.774 212.742 96 201 L65 179 C46.8789 166.14 41.5178 140.563 52.263 121.113 C99.5612 35.4988 149.442 3.52031 240.541 -6.00977 C264.079 -8.47209 283.337 -31.3336 278.5 -54.5 L269.771 -96.3058 C269.697 -96.6635 269.018 -99.6897 268.996 -100.055 C268.937 -101.062 268.424 -115.765 288.63 -121.108 C302.39 -124.747 309.068 -117.928 312 -104 L315.05 -89.5109 C315.274 -88.4502 316.464 -88.0205 316.51 -89.1035 C316.816 -96.3047 314.571 -105.073 312.327 -111.764 C312.22 -112.08 313.67 -111.597 313.92 -111.376 L313.92 -111.376 Z " />
<glyph glyph-name="scedilla" unicode="&#x15f;" horiz-adv-x="494" d="M236 -118.5 C235.964 -118.625 236.181 -118.694 236.224 -118.572 L236.276 -118.428 C236.319 -118.306 236.036 -118.375 236 -118.5 L236 -118.5 Z M240.92 -111.376 C245.56 -107.28 253.4 -106 267 -106 C295 -106 304 -117 304 -151 C304 -185 295 -196 264 -196 C232.821 -196 220.492 -189.268 219.833 -169.174 C219.648 -163.559 212.661 -160.505 208.231 -163.96 L186.557 -180.866 C175.418 -189.554 168.389 -197.119 170.583 -211.075 C174.476 -235.832 201 -244 267 -244 C338 -244 360 -222 360 -151 C360 -68 341 -43 278 -43 C269 -43 262.008 -43.6694 256.477 -45.556 C255.213 -45.987 253.447 -45.0312 253.743 -43.7293 L258 -25 C260.604 -13.5436 273.712 -2.95591 285.455 -2.58987 C422.68 1.6875 466 38.5 466 143 C466 245 435 281 269 306 C177 320 160 338 160 387 C160 419 184 429 261 429 C298.05 429 318.855 410.95 346.564 351.701 C348.854 346.804 354.392 343.503 359.308 345.752 C374.538 352.722 389.769 360.077 405 366 L431.5 378 C447.052 385.042 451.985 403.931 444.114 419.08 C402.03 500.08 354.6 526 261 526 C110 526 64 491 64 379 C64 275 93 239 245 216 C347 201 366 183 366 134 C366 106 340 98 254 98 C195.1 98 169.593 114.245 147.469 166.455 C145.231 171.738 140.508 173.788 135.114 171.83 C118.096 165.652 101.185 158.963 85 153 L55 141.5 C36.7761 134.514 30.0962 115.614 38.8301 98.1602 C67.1164 41.6328 105.455 13.6206 172.52 2.69125 C196.519 -1.21989 212.696 -26.2457 207.5 -50 L197.869 -94.0263 C197.781 -94.431 197.021 -97.641 196.996 -98.0545 C196.937 -99.0621 196.424 -113.765 216.63 -119.108 C230.049 -122.656 237.067 -116.067 240 -102.5 L243.043 -88.4254 C243.214 -87.6346 244.164 -87.2948 244.14 -88.1035 C243.921 -95.3047 241.589 -104.073 239.329 -110.764 C239.223 -111.08 240.67 -111.597 240.92 -111.376 L240.92 -111.376 Z " />
<glyph glyph-name="Scaron" unicode="&#x160;" horiz-adv-x="608" d="M281.914 918.104 L231.589 963.97 C225.049 969.93 199.051 980 190.202 980 L168.5 980 C148.825 980 139.05 959.768 151.278 944.355 L223.551 853.255 C231.529 843.199 258.848 830 271.684 830 L313.47 830 C326.198 830 353.496 843.12 361.447 853.059 L434.264 944.08 C446.65 959.562 436.827 980 417 980 L403.882 980 C388.884 980 379.276 992.315 370.911 979.867 C368.906 976.884 333.413 924.481 304.965 911.094 C293.01 905.468 291.678 909.204 281.914 918.104 L281.914 918.104 Z M547 637 C453 740 397 759 276 759 C96 759 41 709 41 546 C41 400 80 366 287 330 C433 305 461 285 461 206 C461 139 439 118 325 118 C243.1 118 207.781 137.012 159.723 237.137 C156.854 243.113 151.719 242.006 146.323 238.156 C129.548 226.187 112.774 213.742 96 202 L65 180 C47.1417 167.326 38.5549 147.518 48.8272 128.178 C109.874 13.2463 174.3 -9 326 -9 C535 -9 574 42 574 210 C574 368 533 405 318 442 C183 466 157 484 157 558 C157 613 185 630 277 630 C332.2 630 365 620.4 411.752 577.136 C431.008 559.317 469.146 555.287 488.619 572.869 L549.851 628.157 C551.587 629.724 551.654 632.346 550 634 L547 637 L547 637 Z " />
<glyph glyph-name="scaron" unicode="&#x161;" horiz-adv-x="494" d="M247.914 688.104 L197.589 733.97 C191.049 739.93 165.051 750 156.202 750 L134.5 750 C114.889 750 105.173 729.784 117.424 714.47 L190.553 623.059 C198.504 613.12 225.802 600 238.53 600 L279.47 600 C292.198 600 319.496 613.12 327.447 623.059 L400.576 714.47 C412.827 729.784 403.111 750 383.5 750 L370.505 750 C355.774 750 346.241 762.015 337.909 749.867 C335.863 746.884 299.642 694.481 271.008 681.094 C259.084 675.519 257.642 679.238 247.914 688.104 L247.914 688.104 Z M403 365 L429.5 377 C445.052 384.042 449.985 402.931 442.114 418.08 C400.03 499.08 352.6 525 259 525 C108 525 62 490 62 378 C62 274 91 238 243 215 C345 200 364 182 364 133 C364 105 338 97 252 97 C193.1 97 167.593 113.245 145.469 165.455 C143.231 170.738 138.508 172.788 133.114 170.83 C116.096 164.652 99.1852 157.963 83 152 L53 140.5 C35.0274 133.61 26.8346 117.817 35.217 100.49 C73.62 21.11 129.6 -4 252 -4 C414 -4 464 30 464 142 C464 244 433 280 267 305 C175 319 158 337 158 386 C158 418 182 428 259 428 C296.05 428 316.855 409.95 344.564 350.701 C346.854 345.804 352.392 342.503 357.308 344.752 C372.538 351.722 387.769 359.077 403 365 L403 365 Z " />
<glyph glyph-name="Tcaron" unicode="&#x164;" horiz-adv-x="595" d="M286.914 918.104 L236.589 963.97 C230.049 969.93 204.051 980 195.202 980 L173.5 980 C153.889 980 144.173 959.784 156.424 944.47 L229.553 853.059 C237.504 843.12 264.802 830 277.53 830 L318.47 830 C331.198 830 358.496 843.12 366.447 853.059 L439.576 944.47 C451.827 959.784 442.111 980 422.5 980 L409.505 980 C394.774 980 385.241 992.015 376.909 979.867 C374.863 976.884 338.642 924.481 310.008 911.094 C298.084 905.519 296.642 909.238 286.914 918.104 L286.914 918.104 Z M353 55.5 L353 570.56 C353 604.473 380.527 632 414.44 632 L526 632 C558.566 632 585 658.434 585 691 C585 723.566 558.566 750 526 750 L69 750 C36.4338 750 10 723.566 10 691 C10 658.434 36.4338 632 69 632 L180.56 632 C214.473 632 242 604.473 242 570.56 L242 55.5 C242 24.8657 266.866 0 297.5 0 C328.134 0 353 24.8657 353 55.5 L353 55.5 Z " />
<glyph glyph-name="tcaron" unicode="&#x165;" horiz-adv-x="345" d="M245.91 704.511 L244.74 645.993 C244.332 625.578 260.581 609 281 609 C300.797 609 322.225 625.676 327.086 644.867 L342.616 706.169 C349.777 734.437 330.661 759 301.5 759 C271.424 759 246.512 734.581 245.91 704.511 L245.91 704.511 Z M264 520 L256 520 C223.434 520 197 546.434 197 579 L197 673.701 C197 701.299 168.132 714.751 147 697 L118.922 673.415 C109.657 665.632 97 638.47 97 626.37 L97 563.5 C97 539.489 77.5107 520 53.5 520 C29.4893 520 10 500.511 10 476.5 L10 461.5 C10 437.489 29.4893 418 53.5 418 C77.5107 418 97 398.511 97 374.5 L97 143 C97 6 73 0 206 0 L261.5 0 C291.03 0 315 23.9696 315 53.5 L315 81 C315 95.3512 303.351 107 289 107 L263 107 C182 107 197 109 197 143 L197 359 C197 391.566 223.434 418 256 418 L264 418 C292.15 418 315 440.85 315 469 C315 497.15 292.15 520 264 520 L264 520 Z " />
<glyph glyph-name="Utilde" unicode="&#x168;" horiz-adv-x="723" d="M284.656 848.04 C286.48 878.76 292.4 889 306 889 C348 889 372 812 429 812 C426 812 422 890 422 890 C422 890 425.454 851.516 425.491 851.105 L425.961 845.864 C428.085 822.195 437.484 809.529 460.521 815.36 C497.164 824.633 513.005 854.339 516.965 919.57 C518.277 941.191 502.66 958 481 958 L470 958 C456.499 958 444.144 944.437 443.344 930.96 C441.919 906.96 437.994 895.46 429.86 891.577 C423.098 888.349 426.785 884.48 421.877 890.142 C418.706 893.802 354.575 967 299 967 C300.7 967 301.678 953.273 302.547 937.486 C302.554 937.359 302.28 938.358 302.27 938.485 L301.5 948.5 C300.567 960.634 292.794 968.402 280.713 966.936 C234.469 961.325 215.433 932.65 211.037 860.43 C209.72 838.789 225.321 821.793 247 821.5 L258.002 821.351 C271.512 821.169 283.855 834.553 284.656 848.04 L284.656 848.04 Z M85 291 C85 39 129 -8 365 -8 C600 -8 644 39 644 290 L644 689.56 C644 723.473 616.473 751 582.56 751 L560.44 751 C526.527 751 499 723.473 499 689.56 L499 315 C499 156 478 126 365 126 C224 126 197 155 197 311 L197 695 C197 725.91 171.91 751 141 751 C110.09 751 85 725.91 85 695 L85 291 L85 291 Z " />
<glyph glyph-name="utilde" unicode="&#x169;" horiz-adv-x="543" d="M191.656 627.04 C193.48 657.76 199.4 668 213 668 C255 668 279 591 336 591 C333 591 329 669 329 669 C329 669 332.454 630.516 332.491 630.105 L332.961 624.864 C335.085 601.195 344.484 588.529 367.521 594.36 C404.164 603.633 420.005 633.339 423.965 698.57 C425.277 720.191 409.66 737 388 737 L377 737 C363.499 737 351.144 723.437 350.344 709.96 C348.919 685.96 344.994 674.46 336.86 670.577 C330.098 667.349 333.785 663.48 328.877 669.142 C325.706 672.802 261.575 746 206 746 C207.7 746 208.678 732.272 209.547 716.486 C209.554 716.359 209.28 717.358 209.27 717.485 L208.5 727.5 C207.565 739.653 200.082 747.424 187.984 745.936 C142.368 740.325 123.419 711.65 119.035 639.43 C117.74 618.084 133.117 600.793 154.5 600.5 L165.002 600.356 C178.512 600.171 190.855 613.553 191.656 627.04 L191.656 627.04 Z M474 51 L474 471 C474 498.599 451.599 521 424 521 C396.402 521 374 498.599 374 471 L374 229 C374 138 351 110 275 110 C171 110 170 123 170 195 L170 471 C170 498.599 147.599 521 120 521 C92.4015 521 70 498.599 70 471 L70 195 C70 24 71 -8 234 -8 C292.65 -8 333.238 2.8375 360.675 30.6537 C365.344 35.3871 374 30.6486 374 24 C374 11.3047 384.305 1 397 1 L424 1 C451.599 1 474 23.4015 474 51 L474 51 Z " />
<glyph glyph-name="Umacron" unicode="&#x16a;" horiz-adv-x="723" d="M259 821 L469 821 C488.319 821 504 836.681 504 856 C504 875.319 488.319 891 469 891 L259 891 C239.681 891 224 875.319 224 856 C224 836.681 239.681 821 259 821 L259 821 Z M84 290 C84 38 128 -9 364 -9 C599 -9 643 38 643 289 L643 688.56 C643 722.473 615.473 750 581.56 750 L559.44 750 C525.527 750 498 722.473 498 688.56 L498 314 C498 155 477 125 364 125 C223 125 196 154 196 310 L196 694 C196 724.91 170.91 750 140 750 C109.09 750 84 724.91 84 694 L84 290 L84 290 Z " />
<glyph glyph-name="umacron" unicode="&#x16b;" horiz-adv-x="543" d="M166 600 L376 600 C395.319 600 411 615.681 411 635 C411 654.319 395.319 670 376 670 L166 670 C146.681 670 131 654.319 131 635 C131 615.681 146.681 600 166 600 L166 600 Z M473 50 L473 470 C473 497.599 450.599 520 423 520 C395.402 520 373 497.599 373 470 L373 228 C373 137 350 109 274 109 C170 109 169 122 169 194 L169 470 C169 497.599 146.599 520 119 520 C91.4015 520 69 497.599 69 470 L69 194 C69 23 70 -9 233 -9 C291.65 -9 332.237 1.8375 359.675 29.6537 C364.344 34.3871 373 29.6486 373 23 C373 10.3047 383.305 0 396 0 L423 0 C450.599 0 473 22.4015 473 50 L473 50 Z " />
<glyph glyph-name="Ubreve" unicode="&#x16c;" horiz-adv-x="723" d="M216.727 914.594 C224.984 837.266 264.25 812 364 812 C462.875 812 502.031 837.266 510.275 914.594 C512.67 937.054 497.588 951 475 951 L464.5 951 C452.71 951 438.063 935.038 435.776 923.472 C429.6 892.24 409.6 882 364 882 C318.4 882 297.76 892.24 291.328 923.472 C288.973 934.909 274.177 951 262.5 951 L252 951 C229.408 951 214.328 937.058 216.727 914.594 L216.727 914.594 Z M84 290 C84 38 128 -9 364 -9 C599 -9 643 38 643 289 L643 688.56 C643 722.473 615.473 750 581.56 750 L559.44 750 C525.527 750 498 722.473 498 688.56 L498 314 C498 155 477 125 364 125 C223 125 196 154 196 310 L196 694 C196 724.91 170.91 750 140 750 C109.09 750 84 724.91 84 694 L84 290 L84 290 Z " />
<glyph glyph-name="ubreve" unicode="&#x16d;" horiz-adv-x="543" d="M123.727 693.594 C131.984 616.266 171.25 591 271 591 C369.875 591 409.031 616.266 417.275 693.594 C419.67 716.054 404.588 730 382 730 L371.5 730 C359.71 730 345.063 714.038 342.776 702.472 C336.6 671.24 316.6 661 271 661 C225.4 661 205.4 671.24 199.224 702.472 C196.937 714.038 182.29 730 170.5 730 L159.5 730 C136.603 730 121.295 716.361 123.727 693.594 L123.727 693.594 Z M473 50 L473 470 C473 497.599 450.599 520 423 520 C395.402 520 373 497.599 373 470 L373 228 C373 137 350 109 274 109 C170 109 169 122 169 194 L169 470 C169 497.599 146.599 520 119 520 C91.4015 520 69 497.599 69 470 L69 194 C69 23 70 -9 233 -9 C291.65 -9 332.237 1.8375 359.675 29.6537 C364.344 34.3871 373 29.6486 373 23 C373 10.3047 383.305 0 396 0 L423 0 C450.599 0 473 22.4015 473 50 L473 50 Z " />
<glyph glyph-name="Uring" unicode="&#x16e;" horiz-adv-x="723" d="M329 906 C329 937 336 944 364 944 C391 944 398 937 398 906 C398 873 393 867 364 867 C335 867 329 873 329 906 L329 906 Z M279 906 C279 834 292 821 364 821 C435 821 448 834 448 906 C448 973 431 990 364 990 C296 990 279 973 279 906 L279 906 Z M84 290 C84 38 128 -9 364 -9 C599 -9 643 38 643 289 L643 688.56 C643 722.473 615.473 750 581.56 750 L559.44 750 C525.527 750 498 722.473 498 688.56 L498 314 C498 155 477 125 364 125 C223 125 196 154 196 310 L196 694 C196 724.91 170.91 750 140 750 C109.09 750 84 724.91 84 694 L84 290 L84 290 Z " />
<glyph glyph-name="uring" unicode="&#x16f;" horiz-adv-x="543" d="M236 685 C236 716 243 723 271 723 C299 723 306 716 306 685 C306 652 300 646 271 646 C242 646 236 652 236 685 L236 685 Z M187 685 C187 613 200 600 271 600 C342 600 355 613 355 685 C355 752 338 769 271 769 C204 769 187 752 187 685 L187 685 Z M473 50 L473 470 C473 497.599 450.599 520 423 520 C395.402 520 373 497.599 373 470 L373 228 C373 137 350 109 274 109 C170 109 169 122 169 194 L169 470 C169 497.599 146.599 520 119 520 C91.4015 520 69 497.599 69 470 L69 194 C69 23 70 -9 233 -9 C291.65 -9 332.237 1.8375 359.675 29.6537 C364.344 34.3871 373 29.6486 373 23 C373 10.3047 383.305 0 396 0 L423 0 C450.599 0 473 22.4015 473 50 L473 50 Z " />
<glyph glyph-name="Wcircumflex" unicode="&#x174;" horiz-adv-x="814" d="M422.008 898.906 C451.484 885.125 489 830 489 830 C489 830 487.592 830 521.505 830 L534.5 830 C554.111 830 563.827 850.216 551.576 865.53 L478.447 956.941 C470.496 966.88 443.198 980 430.47 980 L389.53 980 C376.802 980 349.504 966.88 341.553 956.941 L268.424 865.53 C256.173 850.216 265.889 830 285.5 830 L307.202 830 C316.051 830 342.049 840.07 348.589 846.03 L398.914 891.896 C408.642 900.762 410.084 904.481 422.008 898.906 L422.008 898.906 Z M793 701.5 L798 725.75 C800.703 738.86 791.625 750 778.24 750 L650.536 750 C648.643 750 646.853 748.973 646.552 747.104 C644.701 735.605 638.903 702.71 638 700 L599.285 493.179 C590.671 447.166 523.935 445.106 512.5 490.5 L466.796 671.93 C465.8 675.885 465.821 698.109 466.825 702.062 L471 718.5 C475.28 735.352 463.887 750 446.5 750 L387.251 750 C361.377 750 333.695 728.261 327.562 703.125 L276.442 493.625 C264.887 446.27 195.582 447.707 186 495.5 L145 700 L140 725 L137.5 737.5 C136.147 744.266 129.152 750 122.252 750 L37.4555 750 C25.3109 750 12.5877 761.786 15.0229 749.888 C15.5225 747.447 24.0294 705.912 25 703 L164.046 59.6684 C164.752 56.4032 164.525 35.6485 163.748 32.3995 L161.5 23 C158.547 10.6528 166.953 0 179.648 0 L237.418 0 C262.847 0 290.542 21.4488 296.904 46.0686 L352.782 262.311 C367.396 318.864 447.709 318.636 462 262 L512.697 61.088 C513.462 58.0599 514.088 37.8025 513.512 34.733 L511.5 24 C509.059 10.9796 518.171 0 531.418 0 L586.76 0 C613.281 0 642.228 27.9029 648.008 53.7861 C696.074 268.994 744.5 484.923 792.5 700 L793 701.5 Z " />
<glyph glyph-name="Ycircumflex" unicode="&#x176;" horiz-adv-x="631" d="M333.008 898.906 C362.484 885.125 400 830 400 830 C400 830 398.592 830 432.505 830 L445.5 830 C465.111 830 474.827 850.216 462.576 865.53 L389.447 956.941 C381.496 966.88 354.198 980 341.47 980 L300.53 980 C287.802 980 260.504 966.88 252.553 956.941 L179.424 865.53 C167.173 850.216 176.889 830 196.5 830 L218.202 830 C227.051 830 253.049 840.07 259.589 846.03 L309.914 891.896 C319.642 900.762 321.084 904.481 333.008 898.906 L333.008 898.906 Z M317 0 C347.91 0 373 25.0897 373 56 L373 300.61 C373 305.116 378.919 327.305 381.164 331.212 L591.591 697.547 C591.617 697.592 594.372 701.735 594.402 701.777 C599.853 709.497 614.794 736.362 620.282 746.02 C620.955 747.204 620.446 749 619.085 749 L512.933 749 C495.646 749 467.858 732.748 459.383 717.682 L359.394 539.922 C334.169 495.078 277.706 495.008 252.37 539.788 L151.644 717.815 C143.168 732.797 115.383 749 98.1698 749 L38.8077 749 C30.8334 749 26.0221 742.138 30.011 735.233 C41.61 715.155 47.5172 704.31 50 701 L253.855 344.253 C256.098 340.329 261.964 318.103 261.95 313.584 L261.17 55.9997 C261.076 25.0897 286.09 0 317 0 L317 0 Z " />
<glyph glyph-name="Ydieresis" unicode="&#x178;" horiz-adv-x="631" d="M398.5 830 C428.582 830 453 854.418 453 884.5 C453 914.582 428.582 939 398.5 939 C368.418 939 344 914.582 344 884.5 C344 854.418 368.418 830 398.5 830 L398.5 830 Z M243.5 830 C273.582 830 298 854.418 298 884.5 C298 914.582 273.582 939 243.5 939 C213.418 939 189 914.582 189 884.5 C189 854.418 213.418 830 243.5 830 L243.5 830 Z M317 0 C347.91 0 373 25.0897 373 56 L373 300.61 C373 305.116 378.919 327.305 381.164 331.212 L591.591 697.547 C591.617 697.592 594.372 701.735 594.402 701.777 C599.853 709.497 614.794 736.362 620.282 746.02 C620.955 747.204 620.446 749 619.085 749 L512.933 749 C495.646 749 467.858 732.748 459.383 717.682 L359.394 539.922 C334.169 495.078 277.706 495.008 252.37 539.788 L151.644 717.815 C143.168 732.797 115.383 749 98.1698 749 L38.8077 749 C30.8334 749 26.0221 742.138 30.011 735.233 C41.61 715.155 47.5172 704.31 50 701 L253.855 344.253 C256.098 340.329 261.964 318.103 261.95 313.584 L261.17 55.9997 C261.076 25.0897 286.09 0 317 0 L317 0 Z " />
<glyph glyph-name="Zacute" unicode="&#x179;" horiz-adv-x="655" d="M335 830 L346.995 830 C362.9 830 390.611 845.337 399.057 858.814 L440.484 924.921 C456.628 950.683 440.402 980 410 980 L387.644 980 C365.593 980 337.798 960.708 330.085 940.049 L305.089 873.095 C296.769 850.81 311.213 830 335 830 L335 830 Z M551 118 L317.133 118 C261.67 118 234.449 175.656 269.692 218.482 L596.001 614.989 C600.911 620.956 610 646.304 610 654.031 L610 691 C610 723.566 583.566 750 551 750 L119 750 C86.4338 750 60 723.566 60 691 C60 658.434 86.4338 632 119 632 L338.672 632 C394.165 632 421.38 574.271 386.067 531.463 L59.0446 135.026 C54.1116 129.046 45 103.681 45 95.9291 L45 59 C45 26.4338 71.4338 0 104 0 L551 0 C583.566 0 610 26.4338 610 59 C610 91.5662 583.566 118 551 118 L551 118 Z " />
<glyph glyph-name="zacute" unicode="&#x17a;" horiz-adv-x="460" d="M242.5 600 L254.186 600 C269.954 600 297.655 615.245 306.092 628.566 L347.954 694.664 C364.297 720.468 348.044 750 317.5 750 L294.912 750 C272.674 750 244.883 730.59 237.227 709.711 L212.664 642.719 C204.546 620.581 218.92 600 242.5 600 L242.5 600 Z M96 418 L168.5 418 C222.437 418 249.461 362.959 216.478 320.283 L42.8266 95.5963 C38.4971 89.9944 30 65.1047 30 58.0248 L30 39.5 C30 17.6972 47.6972 0 69.5 0 L389 0 C417.15 0 440 22.8495 440 51 C440 79.1505 417.15 102 389 102 L283.599 102 C228.703 102 201.365 158.329 235.332 201.456 L410.827 424.275 C415.326 429.987 424 455.019 424 462.29 L424 480.5 C424 502.303 406.303 520 384.5 520 L96 520 C67.8495 520 45 497.15 45 469 C45 440.85 67.8495 418 96 418 L96 418 Z " />
<glyph glyph-name="Zdot" unicode="&#x17b;" horiz-adv-x="655" d="M335 830 C364.806 830 389 854.194 389 884 L389 885 C389 914.806 364.806 939 335 939 C305.194 939 281 914.806 281 885 L281 884 C281 854.194 305.194 830 335 830 L335 830 Z M551 118 L317.133 118 C261.67 118 234.449 175.656 269.692 218.482 L596.001 614.989 C600.911 620.956 610 646.304 610 654.031 L610 691 C610 723.566 583.566 750 551 750 L119 750 C86.4338 750 60 723.566 60 691 C60 658.434 86.4338 632 119 632 L338.672 632 C394.165 632 421.38 574.271 386.067 531.463 L59.0446 135.026 C54.1116 129.046 45 103.681 45 95.9291 L45 59 C45 26.4338 71.4338 0 104 0 L551 0 C583.566 0 610 26.4338 610 59 C610 91.5662 583.566 118 551 118 L551 118 Z " />
<glyph glyph-name="zdot" unicode="&#x17c;" horiz-adv-x="460" d="M242.5 600 C272.582 600 297 624.418 297 654.5 C297 684.582 272.582 709 242.5 709 C212.418 709 188 684.582 188 654.5 C188 624.418 212.418 600 242.5 600 L242.5 600 Z M96 418 L168.5 418 C222.437 418 249.461 362.959 216.478 320.283 L42.8266 95.5963 C38.4971 89.9944 30 65.1047 30 58.0248 L30 39.5 C30 17.6972 47.6972 0 69.5 0 L389 0 C417.15 0 440 22.8495 440 51 C440 79.1505 417.15 102 389 102 L283.599 102 C228.703 102 201.365 158.329 235.332 201.456 L410.827 424.275 C415.326 429.987 424 455.019 424 462.29 L424 480.5 C424 502.303 406.303 520 384.5 520 L96 520 C67.8495 520 45 497.15 45 469 C45 440.85 67.8495 418 96 418 L96 418 Z " />
<glyph glyph-name="Zcaron" unicode="&#x17d;" horiz-adv-x="655" d="M323.914 918.104 L273.589 963.97 C267.049 969.93 241.051 980 232.202 980 L210.5 980 C190.889 980 181.173 959.784 193.424 944.47 L266.553 853.059 C274.504 843.12 301.802 830 314.53 830 L355.47 830 C368.198 830 395.496 843.12 403.447 853.059 L476.576 944.47 C488.827 959.784 479.111 980 459.5 980 L446.505 980 C431.774 980 422.241 992.015 413.909 979.867 C411.863 976.884 375.642 924.481 347.008 911.094 C335.084 905.519 333.642 909.238 323.914 918.104 L323.914 918.104 Z M551 118 L317.133 118 C261.67 118 234.449 175.656 269.692 218.482 L596.001 614.989 C600.911 620.956 610 646.304 610 654.031 L610 691 C610 723.566 583.566 750 551 750 L119 750 C86.4338 750 60 723.566 60 691 C60 658.434 86.4338 632 119 632 L338.672 632 C394.165 632 421.38 574.271 386.067 531.463 L59.0446 135.026 C54.1116 129.046 45 103.681 45 95.9291 L45 59 C45 26.4338 71.4338 0 104 0 L551 0 C583.566 0 610 26.4338 610 59 C610 91.5662 583.566 118 551 118 L551 118 Z " />
<glyph glyph-name="zcaron" unicode="&#x17e;" horiz-adv-x="460" d="M231.914 688.104 L181.589 733.97 C175.049 739.93 149.051 750 140.202 750 L118.5 750 C98.8249 750 89.0503 729.768 101.278 714.355 L173.551 623.255 C181.529 613.199 208.848 600 221.684 600 L263.47 600 C276.198 600 303.496 613.12 311.447 623.059 L384.264 714.08 C396.65 729.562 386.827 750 367 750 L353.882 750 C338.884 750 329.276 762.315 320.911 749.867 C318.906 746.884 283.413 694.481 254.965 681.094 C243.01 675.468 241.678 679.204 231.914 688.104 L231.914 688.104 Z M96 418 L168.5 418 C222.437 418 249.461 362.959 216.478 320.283 L42.8266 95.5963 C38.4971 89.9944 30 65.1047 30 58.0248 L30 39.5 C30 17.6972 47.6972 0 69.5 0 L389 0 C417.15 0 440 22.8495 440 51 C440 79.1505 417.15 102 389 102 L283.599 102 C228.703 102 201.365 158.329 235.332 201.456 L410.827 424.275 C415.326 429.987 424 455.019 424 462.29 L424 480.5 C424 502.303 406.303 520 384.5 520 L96 520 C67.8495 520 45 497.15 45 469 C45 440.85 67.8495 418 96 418 L96 418 Z " />
<glyph glyph-name="oogonek" unicode="&#x1eb;" horiz-adv-x="754" d="M172 298 C172 444 229 499 382 499 C534 499 591 444 591 298 C591 221.5 578.85 171.73 547.26 140.671 C539.897 133.432 531.909 137.359 526.361 146.067 C514.186 165.177 501.092 185.977 486.805 208.468 C480.466 218.445 466.941 221.896 456.955 215.571 L397.896 178.167 C390.717 173.621 388.407 164.444 392.921 157.245 C404.692 138.475 415.994 121.297 427.249 105.292 C429.274 102.413 428.02 99.7992 424.507 99.5743 C411.388 98.7347 397.429 98 382 98 C221 98 172 144.5 172 298.5 L172 298 Z M64 299 C64 64 139 -8 382 -8 C420.775 -8 455.466 -5.95813 486.074 -1.87438 C493.846 -0.837397 511.526 -7.10231 516.518 -13.1488 C562.187 -68.465 587 -89 587 -89 C587 -89 590.843 -86.5494 602.87 -78.8803 L644.87 -52.0974 C650.983 -48.1994 660.354 -50.7344 655.97 -44.9604 C655.346 -44.1394 645.008 -30.48 621.696 3 C612.925 15.5969 619.246 44.8471 630.362 55.4325 C680.215 102.905 699 180 699 299 C699 523 612 607 382 607 C151 607 64 523 64 299 L64 299 Z " />
<glyph glyph-name="Adotabove" unicode="&#x226;" horiz-adv-x="716" d="M361 830 C390.806 830 415 854.194 415 884 L415 885 C415 914.806 390.806 939 361 939 C331.194 939 307 914.806 307 885 L307 884 C307 854.194 331.194 830 361 830 L361 830 Z M278 700 L33.3409 72.6691 C18.7667 35.2993 42.8889 0 83 0 L134.723 0 C148.246 0 165.611 11.8914 170.5 24.5 L180 49 L229.285 179.081 C229.33 179.199 229.544 179.119 229.5 179 C223.549 162.957 233.953 148 251.064 148 L487.497 148 C509.45 148 537.247 128.77 544.989 108.228 L567.5 48.5 L576.75 24.25 C581.52 11.7437 598.569 0 611.954 0 L680.279 0 C693.526 0 701.514 11.639 696.75 24 L687.5 48 L438.502 699.001 C436.107 705.262 436.106 726.739 438.5 733 C441.851 741.765 436.183 750 426.8 750 L298 750 C297 746 278.5 700 278.5 700 L278 700 Z M291.383 343.138 L317 411 C337.79 466.077 410.21 466.077 431 411 L456.617 343.138 C472.823 300.205 445.025 260 399.136 260 L348.864 260 C302.975 260 275.177 300.205 291.383 343.138 L291.383 343.138 Z " />
<glyph glyph-name="G_sc" unicode="&#x262;" horiz-adv-x="719" d="M401.5 261 L495.5 261 C525.03 261 549 237.03 549 207.5 L549 182.496 C549 168.89 537.749 144.379 526.852 136.232 C486.942 106.393 455.45 97 390 97 C219 97 167 144 167 298 C167 452 219 499 390 499 C473.85 499 516.823 471.432 568.97 383.856 C571.84 379.035 576.062 379.484 580.385 383.06 C593.923 394.26 607.462 405.846 621 416 L644.5 436 C658.028 447.513 662.788 465.425 653.132 480.335 C591.789 575.053 525.975 605 390 605 C137 605 59 533 59 297 C59 62 137 -10 390 -10 C519.5 -10 575.416 9.67938 654.306 72.7817 C664.247 80.7332 674 104.803 674 117.533 L674 304.56 C674 338.473 646.473 366 612.56 366 L401.5 366 C372.522 366 349 342.478 349 313.5 C349 284.522 372.522 261 401.5 261 L401.5 261 Z " />
<glyph glyph-name="I_sc" unicode="&#x26a;" horiz-adv-x="279" d="M194 50.5 L194 546.5 C194 574.374 171.374 597 143.5 597 C115.626 597 93 574.374 93 546.5 L93 50.5 C93 22.6255 115.626 0 143.5 0 C171.374 0 194 22.6255 194 50.5 L194 50.5 Z " />
<glyph glyph-name="N_sc" unicode="&#x274;" horiz-adv-x="660" d="M335.006 350.219 L225.271 539.717 C222.983 543.667 217 565.94 217 570.506 L217 575.5 C217 587.367 207.367 597 195.5 597 L147.44 597 C113.527 597 86 569.473 86 535.56 L86 61.44 C86 27.527 113.527 0 147.44 0 L155.56 0 C189.473 0 217 27.527 217 61.44 L217 186 C217 237.552 284.511 255.731 310.397 211.149 L415.239 30.5888 C423.717 15.9876 451.487 0 468.371 0 L513.56 0 C547.473 0 575 27.527 575 61.44 L575 535.56 C575 569.473 547.473 597 513.56 597 L505.44 597 C471.527 597 444 569.473 444 535.56 L444 379.5 C444 319.338 365.154 298.157 335.006 350.219 L335.006 350.219 Z " />
<glyph glyph-name="R_sc" unicode="&#x280;" horiz-adv-x="564" d="M551.94 0.0914519 C550.589 2.14612 526.886 38.2 523 45 L416.343 207.271 C401.964 229.148 419.35 260.893 444.648 267.632 C513 285.84 529 327.6 529 418 C529 569 492 597 294 597 L155.44 597 C121.527 597 94 569.473 94 535.56 L94 50 C94 22.4015 116.402 0 144 0 C171.599 0 194 22.4015 194 50 L194 218 C194 238.423 210.577 255 231 255 L235.011 255 C250.189 255 277.839 240.154 286.224 227.502 L418.776 27.4984 C427.161 14.8464 454.811 0 469.989 0 L529.257 0 C539.743 0 557.702 -8.6701 551.94 0.0914519 L551.94 0.0914519 Z M194 399 L194 447.5 C194 473.719 215.281 495 241.5 495 L289 495 C407 495 429 483 429 418 C429 367 408 357 298 357 C298 357 286.48 356.36 237.84 356.104 C213.981 355.978 194 375.14 194 399 L194 399 Z " />
</font>
</svg>
